G04*
G04 #@! TF.GenerationSoftware,Altium Limited,Altium Designer,18.1.6 (161)*
G04*
G04 Layer_Color=0*
%FSTAX24Y24*%
%MOIN*%
G70*
G01*
G75*
%ADD81C,0.0118*%
%ADD83C,0.0047*%
D81*
X05045Y024841D02*
Y029941D01*
X0499Y024291D02*
X05045Y024841D01*
X0448Y024291D02*
X0499D01*
X0448D02*
Y029941D01*
X05045D01*
D83*
X049382Y028086D02*
Y027823D01*
X049251Y027692D01*
X04912Y027823D01*
Y028086D01*
Y027889D01*
X049382D01*
X048989Y027692D02*
X048726D01*
X048858D01*
Y028086D01*
X048595D02*
Y027692D01*
X048464Y027823D01*
X048333Y027692D01*
Y028086D01*
X047939Y027692D02*
X048202D01*
Y028086D01*
X047939D01*
X048202Y027889D02*
X04807D01*
X047808Y027692D02*
Y028086D01*
X047546D01*
X047021D02*
X04689D01*
X046955D01*
Y027692D01*
X047021Y027758D01*
X04643Y027692D02*
X046562Y027758D01*
X046693Y027889D01*
Y02802D01*
X046627Y028086D01*
X046496D01*
X04643Y02802D01*
Y027955D01*
X046496Y027889D01*
X046693D01*
X046299Y028086D02*
Y027823D01*
X046168Y027692D01*
X046037Y027823D01*
Y028086D01*
Y027889D01*
X046299D01*
M02*
