G04*
G04 #@! TF.GenerationSoftware,Altium Limited,Altium Designer,18.1.6 (161)*
G04*
G04 Layer_Color=255*
%FSTAX24Y24*%
%MOIN*%
G70*
G01*
G75*
%ADD21R,0.0394X0.0550*%
%ADD22O,0.0177X0.0512*%
%ADD23O,0.0512X0.0177*%
%ADD24R,0.0433X0.0550*%
%ADD25R,0.0550X0.0394*%
%ADD26R,0.0400X0.0500*%
%ADD27R,0.1299X0.0709*%
%ADD28R,0.0906X0.0900*%
%ADD29R,0.0600X0.0600*%
%ADD30R,0.0550X0.0433*%
%ADD31R,0.0472X0.1575*%
%ADD32R,0.0550X0.0500*%
%ADD33R,0.0472X0.0472*%
%ADD34O,0.0236X0.0709*%
%ADD35R,0.0600X0.0650*%
%ADD67R,0.1000X0.0800*%
%ADD68O,0.1000X0.0800*%
%ADD69R,0.1000X0.0700*%
%ADD70O,0.1000X0.0700*%
%ADD71C,0.0984*%
%ADD72C,0.0551*%
%ADD73C,0.0750*%
%ADD74R,0.0630X0.0630*%
%ADD75C,0.0630*%
D21*
X040224Y030524D02*
D03*
X039324D02*
D03*
X041667D02*
D03*
X040767D02*
D03*
X043782Y030514D02*
D03*
X042882D02*
D03*
X044373Y030525D02*
D03*
X045273D02*
D03*
X035297Y025328D02*
D03*
X036197D02*
D03*
X035297Y026048D02*
D03*
X036197D02*
D03*
X035297Y026769D02*
D03*
X036197D02*
D03*
X053553Y026625D02*
D03*
X052653D02*
D03*
X035297Y027489D02*
D03*
X036197D02*
D03*
D22*
X049225Y024786D02*
D03*
X04891D02*
D03*
X048595D02*
D03*
X04828D02*
D03*
X047965D02*
D03*
X04765D02*
D03*
X047335D02*
D03*
X04702D02*
D03*
X046705D02*
D03*
X04639D02*
D03*
X046075D02*
D03*
Y029496D02*
D03*
X04639D02*
D03*
X046705D02*
D03*
X04702D02*
D03*
X047335D02*
D03*
X04765D02*
D03*
X047965D02*
D03*
X04828D02*
D03*
X048595D02*
D03*
X04891D02*
D03*
X049225D02*
D03*
D23*
X045295Y025566D02*
D03*
Y025881D02*
D03*
Y026196D02*
D03*
Y026511D02*
D03*
Y026826D02*
D03*
Y027141D02*
D03*
Y027456D02*
D03*
Y027771D02*
D03*
Y028086D02*
D03*
Y028401D02*
D03*
Y028716D02*
D03*
X050005D02*
D03*
Y028401D02*
D03*
Y028086D02*
D03*
Y027771D02*
D03*
Y027456D02*
D03*
Y027141D02*
D03*
Y026826D02*
D03*
Y026511D02*
D03*
Y026196D02*
D03*
Y025881D02*
D03*
Y025566D02*
D03*
D24*
X037506Y02405D02*
D03*
X038294D02*
D03*
X053497Y027343D02*
D03*
X052709D02*
D03*
X040964Y032531D02*
D03*
X040176D02*
D03*
X044585Y032531D02*
D03*
X043798D02*
D03*
X0428Y032531D02*
D03*
X042013D02*
D03*
D25*
X037526Y024965D02*
D03*
Y025865D02*
D03*
X048981Y031969D02*
D03*
Y031069D02*
D03*
X050216Y037747D02*
D03*
Y036847D02*
D03*
X049461Y037747D02*
D03*
Y036847D02*
D03*
X048706Y037747D02*
D03*
Y036847D02*
D03*
X047196Y037747D02*
D03*
Y036847D02*
D03*
X046451D02*
D03*
Y037747D02*
D03*
X045696Y036847D02*
D03*
Y037747D02*
D03*
X044942Y036847D02*
D03*
Y037747D02*
D03*
X044187Y036847D02*
D03*
Y037747D02*
D03*
X03605Y03745D02*
D03*
Y03655D02*
D03*
X047951Y037747D02*
D03*
Y036847D02*
D03*
X037526Y02682D02*
D03*
Y02772D02*
D03*
D26*
X03515Y033725D02*
D03*
X03595D02*
D03*
D27*
X0321Y02986D02*
D03*
Y02734D02*
D03*
D28*
X03225Y02575D02*
D03*
Y02415D02*
D03*
D29*
X0308Y02375D02*
D03*
Y0224D02*
D03*
D30*
X044272Y026596D02*
D03*
Y027384D02*
D03*
X043451Y026596D02*
D03*
Y027384D02*
D03*
X05275Y025794D02*
D03*
Y025006D02*
D03*
X05275Y028708D02*
D03*
Y029496D02*
D03*
D31*
X05135Y02505D02*
D03*
Y02955D02*
D03*
D32*
X048195Y031921D02*
D03*
Y031021D02*
D03*
D33*
X0385Y03825D02*
D03*
X0395D02*
D03*
X0405D02*
D03*
X0415D02*
D03*
X0385Y03525D02*
D03*
X0395D02*
D03*
X0405D02*
D03*
X0415D02*
D03*
D34*
X039851Y027403D02*
D03*
X039351D02*
D03*
X038851D02*
D03*
X038351D02*
D03*
X039851Y025179D02*
D03*
X039351D02*
D03*
X038851D02*
D03*
X038351D02*
D03*
D35*
X041717Y033282D02*
D03*
X043017D02*
D03*
D67*
X034385Y029988D02*
D03*
D68*
Y030988D02*
D03*
Y031988D02*
D03*
D69*
X03175Y0341D02*
D03*
X029588Y029988D02*
D03*
D70*
X03175Y0331D02*
D03*
X029588Y031488D02*
D03*
D71*
X03008Y027331D02*
D03*
X0301Y025831D02*
D03*
X03218Y022376D02*
D03*
X0322Y020876D02*
D03*
D72*
X036Y0196D02*
D03*
X037D02*
D03*
X038D02*
D03*
X039D02*
D03*
X04D02*
D03*
X041D02*
D03*
X042D02*
D03*
X043D02*
D03*
X044D02*
D03*
X0445Y0206D02*
D03*
X0435D02*
D03*
X0425D02*
D03*
X0415D02*
D03*
X0405D02*
D03*
X0395D02*
D03*
X0385D02*
D03*
X0375D02*
D03*
X0365D02*
D03*
D73*
X036Y03495D02*
D03*
X0345D02*
D03*
D74*
X0501Y02065D02*
D03*
D75*
X0491D02*
D03*
X0481D02*
D03*
X0471D02*
D03*
X0461D02*
D03*
Y01965D02*
D03*
X0471D02*
D03*
X0481D02*
D03*
X0491D02*
D03*
X0501D02*
D03*
X040964Y031519D02*
D03*
X041964D02*
D03*
X042964D02*
D03*
X043964D02*
D03*
X034385Y022049D02*
D03*
Y023624D02*
D03*
Y025199D02*
D03*
Y026774D02*
D03*
M02*
