G04*
G04 #@! TF.GenerationSoftware,Altium Limited,Altium Designer,18.1.6 (161)*
G04*
G04 Layer_Physical_Order=2*
G04 Layer_Color=16711680*
%FSTAX24Y24*%
%MOIN*%
G70*
G01*
G75*
%ADD65C,0.0150*%
%ADD66C,0.0120*%
%ADD67R,0.1000X0.0800*%
%ADD68O,0.1000X0.0800*%
%ADD69R,0.1000X0.0700*%
%ADD70O,0.1000X0.0700*%
%ADD71C,0.0984*%
%ADD72C,0.0551*%
%ADD73C,0.0750*%
%ADD74R,0.0630X0.0630*%
%ADD75C,0.0630*%
%ADD76C,0.0500*%
%ADD77C,0.0472*%
%ADD78C,0.1417*%
%ADD79C,0.2362*%
G36*
X05255Y0386D02*
X05265Y0383D01*
X05285Y0379D01*
X053Y0377D01*
X0532Y03745D01*
X0536Y0371D01*
X05395Y0369D01*
X0545Y03665D01*
Y020965D01*
X05425Y020876D01*
X0536Y02055D01*
X05315Y0202D01*
X05285Y01975D01*
X05265Y0194D01*
X05245Y01885D01*
X03205D01*
X0319Y0191D01*
X0316Y01965D01*
X03125Y02005D01*
X03095Y0204D01*
X0304Y02085D01*
X03005Y02105D01*
X02915Y0215D01*
X0284Y02165D01*
X02765Y021734D01*
Y03595D01*
X0283Y036D01*
X0291Y03615D01*
X0299Y0365D01*
X03075Y03705D01*
X0313Y0376D01*
X03175Y0382D01*
X032Y03865D01*
X0525D01*
X05255Y0386D01*
D02*
G37*
%LPC*%
G36*
X052059Y036328D02*
X051901Y036313D01*
X051749Y036266D01*
X051608Y036191D01*
X051485Y03609D01*
X051384Y035967D01*
X051309Y035827D01*
X051263Y035674D01*
X051247Y035516D01*
X051263Y035357D01*
X051309Y035205D01*
X051384Y035064D01*
X051485Y034941D01*
X051608Y03484D01*
X051749Y034765D01*
X051901Y034719D01*
X052059Y034703D01*
X052218Y034719D01*
X05237Y034765D01*
X052511Y03484D01*
X052634Y034941D01*
X052735Y035064D01*
X05281Y035205D01*
X052856Y035357D01*
X052872Y035516D01*
X052856Y035674D01*
X05281Y035827D01*
X052735Y035967D01*
X052634Y03609D01*
X052511Y036191D01*
X05237Y036266D01*
X052218Y036313D01*
X052059Y036328D01*
D02*
G37*
G36*
X036Y035429D02*
X035876Y035413D01*
X03576Y035365D01*
X035661Y035289D01*
X035585Y03519D01*
X035537Y035074D01*
X035521Y03495D01*
X035537Y034826D01*
X035585Y03471D01*
X035661Y034611D01*
X03576Y034535D01*
X035876Y034487D01*
X036Y034471D01*
X036124Y034487D01*
X03624Y034535D01*
X036339Y034611D01*
X036415Y03471D01*
X036463Y034826D01*
X036479Y03495D01*
X036463Y035074D01*
X036415Y03519D01*
X036339Y035289D01*
X03624Y035365D01*
X036124Y035413D01*
X036Y035429D01*
D02*
G37*
G36*
X0345D02*
X034376Y035413D01*
X03426Y035365D01*
X034161Y035289D01*
X034085Y03519D01*
X034037Y035074D01*
X034021Y03495D01*
X034037Y034826D01*
X034085Y03471D01*
X034161Y034611D01*
X03426Y034535D01*
X034376Y034487D01*
X0345Y034471D01*
X034624Y034487D01*
X03474Y034535D01*
X034839Y034611D01*
X034915Y03471D01*
X034963Y034826D01*
X034979Y03495D01*
X034963Y035074D01*
X034915Y03519D01*
X034839Y035289D01*
X03474Y035365D01*
X034624Y035413D01*
X0345Y035429D01*
D02*
G37*
G36*
X03235Y03455D02*
X03115D01*
Y03365D01*
X03235D01*
Y03455D01*
D02*
G37*
G36*
X02925Y034913D02*
X029091Y034897D01*
X028939Y034851D01*
X028799Y034776D01*
X028675Y034675D01*
X028574Y034551D01*
X028499Y034411D01*
X028453Y034259D01*
X028437Y0341D01*
X028453Y033941D01*
X028499Y033789D01*
X028574Y033649D01*
X028675Y033525D01*
X028799Y033424D01*
X028939Y033349D01*
X029091Y033303D01*
X02925Y033287D01*
X029409Y033303D01*
X029561Y033349D01*
X029701Y033424D01*
X029825Y033525D01*
X029926Y033649D01*
X030001Y033789D01*
X030047Y033941D01*
X030063Y0341D01*
X030047Y034259D01*
X030001Y034411D01*
X029926Y034551D01*
X029825Y034675D01*
X029701Y034776D01*
X029561Y034851D01*
X029409Y034897D01*
X02925Y034913D01*
D02*
G37*
G36*
X0319Y033554D02*
X0318D01*
Y03315D01*
X032347D01*
X032338Y033217D01*
X032293Y033327D01*
X032221Y033421D01*
X032127Y033493D01*
X032017Y033538D01*
X0319Y033554D01*
D02*
G37*
G36*
X0317D02*
X0316D01*
X031483Y033538D01*
X031373Y033493D01*
X031279Y033421D01*
X031207Y033327D01*
X031162Y033217D01*
X031153Y03315D01*
X0317D01*
Y033554D01*
D02*
G37*
G36*
X032347Y03305D02*
X0318D01*
Y032646D01*
X0319D01*
X032017Y032662D01*
X032127Y032707D01*
X032221Y032779D01*
X032293Y032873D01*
X032338Y032983D01*
X032347Y03305D01*
D02*
G37*
G36*
X0317D02*
X031153D01*
X031162Y032983D01*
X031207Y032873D01*
X031279Y032779D01*
X031373Y032707D01*
X031483Y032662D01*
X0316Y032646D01*
X0317D01*
Y03305D01*
D02*
G37*
G36*
X04765Y033889D02*
X047562Y033878D01*
X04748Y033844D01*
X04741Y03379D01*
X047356Y03372D01*
X047322Y033638D01*
X047311Y03355D01*
X047322Y033462D01*
X047356Y03338D01*
X04741Y03331D01*
X047416Y033306D01*
X04743Y033292D01*
X047444Y033275D01*
X047456Y03326D01*
X047465Y033246D01*
X047473Y033232D01*
X047479Y03322D01*
X047483Y033208D01*
X047486Y033198D01*
X047487Y033192D01*
Y032356D01*
X047456Y032345D01*
X047437Y032342D01*
X04737Y032394D01*
X047288Y032428D01*
X0472Y032439D01*
X047112Y032428D01*
X04703Y032394D01*
X04696Y03234D01*
X046906Y03227D01*
X046872Y032188D01*
X046861Y0321D01*
X046872Y032012D01*
X046906Y03193D01*
X04696Y03186D01*
X046966Y031856D01*
X04698Y031842D01*
X046994Y031825D01*
X047006Y03181D01*
X047015Y031796D01*
X047023Y031782D01*
X047029Y03177D01*
X047033Y031758D01*
X047036Y031748D01*
X047037Y031742D01*
Y031268D01*
X046482Y030713D01*
X04495D01*
X04495Y030713D01*
X044888Y030701D01*
X044835Y030665D01*
X044346Y030177D01*
X044311Y030124D01*
X044298Y030062D01*
Y029945D01*
X044248Y029928D01*
X04424Y02994D01*
X04417Y029994D01*
X044088Y030028D01*
X044Y030039D01*
X043912Y030028D01*
X04383Y029994D01*
X04376Y02994D01*
X043706Y02987D01*
X043672Y029788D01*
X043661Y0297D01*
X043666Y02966D01*
X043619Y029639D01*
X043559Y029709D01*
X043405Y02984D01*
X043233Y029945D01*
X043047Y030022D01*
X042851Y030069D01*
X04265Y030085D01*
X042449Y030069D01*
X042253Y030022D01*
X042067Y029945D01*
X041895Y02984D01*
X041741Y029709D01*
X04161Y029555D01*
X041505Y029383D01*
X041428Y029197D01*
X041381Y029001D01*
X041365Y0288D01*
X041381Y028599D01*
X041428Y028403D01*
X041505Y028217D01*
X04161Y028045D01*
X041741Y027891D01*
X041895Y02776D01*
X042067Y027655D01*
X042253Y027578D01*
X042449Y027531D01*
X04265Y027515D01*
X042851Y027531D01*
X043047Y027578D01*
X043233Y027655D01*
X043405Y02776D01*
X043559Y027891D01*
X04369Y028045D01*
X043795Y028217D01*
X043872Y028403D01*
X043895Y028497D01*
X043943Y028511D01*
X04406Y028393D01*
X044113Y028358D01*
X044176Y028345D01*
X044176Y028345D01*
X045629D01*
X045635Y028344D01*
X045645Y028342D01*
X045656Y028338D01*
X045669Y028332D01*
X045682Y028324D01*
X045697Y028314D01*
X045712Y028302D01*
X045728Y028288D01*
X045743Y028274D01*
X045747Y028269D01*
X045817Y028215D01*
X045899Y028181D01*
X045987Y028169D01*
X046074Y028181D01*
X046156Y028215D01*
X046226Y028269D01*
X04628Y028339D01*
X046314Y028421D01*
X046316Y028437D01*
X046367D01*
X046369Y028421D01*
X046403Y028339D01*
X046457Y028269D01*
X046462Y028265D01*
X046476Y02825D01*
X04649Y028234D01*
X046502Y028219D01*
X046512Y028204D01*
X04652Y028191D01*
X046525Y028178D01*
X04653Y028167D01*
X046532Y028157D01*
X046533Y028151D01*
Y027864D01*
X046046Y027377D01*
X041346D01*
X040863Y02786D01*
Y028348D01*
X040864Y028353D01*
X040867Y028366D01*
X040871Y02838D01*
X040877Y028396D01*
X040883Y028412D01*
X040919Y028478D01*
X040933Y028501D01*
X040934Y028504D01*
X040942Y028515D01*
X040976Y028597D01*
X040988Y028684D01*
X040976Y028772D01*
X040942Y028854D01*
X040888Y028924D01*
X040818Y028978D01*
X040736Y029012D01*
X040649Y029023D01*
X040561Y029012D01*
X040479Y028978D01*
X040409Y028924D01*
X040355Y028854D01*
X040321Y028772D01*
X04031Y028684D01*
X040321Y028597D01*
X040355Y028515D01*
X040409Y028445D01*
X040464Y028402D01*
X040467Y028399D01*
X040475Y028394D01*
X040479Y028391D01*
X040481Y02839D01*
X040486Y028386D01*
X0405Y028376D01*
X040511Y028366D01*
X040519Y028356D01*
X040526Y028347D01*
X04053Y028339D01*
X040534Y028332D01*
X040536Y028324D01*
X040537Y028319D01*
Y027792D01*
X040549Y02773D01*
X040585Y027677D01*
X041163Y027099D01*
X041216Y027063D01*
X041279Y027051D01*
X04146D01*
X041477Y027001D01*
X041446Y026977D01*
X041392Y026907D01*
X041358Y026825D01*
X041347Y026737D01*
X041358Y02665D01*
X041392Y026568D01*
X041446Y026498D01*
X041471Y026478D01*
X041454Y026428D01*
X041202D01*
X041198Y026429D01*
X041184Y026431D01*
X041169Y026434D01*
X041134Y026445D01*
X041119Y026451D01*
X04108Y026469D01*
X041068Y026475D01*
X041064Y026478D01*
X040982Y026512D01*
X040895Y026524D01*
X040807Y026512D01*
X040725Y026478D01*
X040655Y026424D01*
X040601Y026354D01*
X040567Y026272D01*
X040555Y026185D01*
X040567Y026097D01*
X040601Y026015D01*
X040655Y025945D01*
X040725Y025891D01*
X040737Y025886D01*
X040741Y02583D01*
X040688Y02579D01*
X040634Y02572D01*
X0406Y025638D01*
X040589Y02555D01*
X0406Y025462D01*
X040634Y02538D01*
X040688Y02531D01*
X040758Y025256D01*
X04084Y025222D01*
X040928Y025211D01*
X041016Y025222D01*
X041097Y025256D01*
X041109Y025265D01*
X041112Y025266D01*
X041131Y025278D01*
X041167Y025298D01*
X041183Y025304D01*
X041199Y02531D01*
X041214Y025315D01*
X041229Y025319D01*
X041243Y025321D01*
X041248Y025322D01*
X046364D01*
X046369Y025321D01*
X046381Y025318D01*
X046393Y025315D01*
X046405Y02531D01*
X046417Y025303D01*
X04643Y025296D01*
X046442Y025287D01*
X046455Y025276D01*
X046466Y025265D01*
X04647Y02526D01*
X04654Y025206D01*
X046622Y025172D01*
X04671Y025161D01*
X046798Y025172D01*
X04688Y025206D01*
X04695Y02526D01*
X047004Y02533D01*
X047038Y025412D01*
X047049Y0255D01*
X047038Y025588D01*
X047004Y02567D01*
X04695Y02574D01*
X04688Y025794D01*
X046798Y025828D01*
X04671Y025839D01*
X046622Y025828D01*
X04654Y025794D01*
X04647Y02574D01*
X046466Y025735D01*
X046455Y025724D01*
X046442Y025713D01*
X04643Y025704D01*
X046417Y025697D01*
X046405Y02569D01*
X046393Y025686D01*
X046381Y025682D01*
X046369Y025679D01*
X046364Y025678D01*
X041286D01*
X041281Y025679D01*
X041271Y025682D01*
X041262Y025685D01*
X041254Y025689D01*
X041246Y025694D01*
X041239Y0257D01*
X041231Y025708D01*
X041222Y025718D01*
X041222Y025719D01*
X041222Y02572D01*
X041221Y025721D01*
X041212Y025734D01*
X041208Y025738D01*
X041168Y02579D01*
X041097Y025844D01*
X041085Y025849D01*
X041082Y025904D01*
X041134Y025945D01*
X041188Y026015D01*
X041191Y026022D01*
X041199Y026035D01*
X041206Y026045D01*
X041213Y026052D01*
X041219Y026057D01*
X041225Y026062D01*
X041232Y026066D01*
X04124Y026068D01*
X041249Y026071D01*
X041254Y026072D01*
X046364D01*
X046369Y026071D01*
X046381Y026068D01*
X046393Y026065D01*
X046405Y02606D01*
X046417Y026053D01*
X04643Y026046D01*
X046442Y026037D01*
X046455Y026026D01*
X046466Y026015D01*
X04647Y02601D01*
X04654Y025956D01*
X046622Y025922D01*
X04671Y025911D01*
X046798Y025922D01*
X04688Y025956D01*
X04695Y02601D01*
X047004Y02608D01*
X047038Y026162D01*
X047049Y02625D01*
X047038Y026338D01*
X047004Y02642D01*
X04695Y02649D01*
X046926Y026508D01*
X046943Y026558D01*
X0479D01*
X047906Y026558D01*
X047918Y026555D01*
X04793Y026551D01*
X047941Y026546D01*
X047953Y02654D01*
X047966Y026533D01*
X047978Y026524D01*
X047991Y026513D01*
X048003Y026502D01*
X048007Y026496D01*
X048077Y026443D01*
X048159Y026409D01*
X048246Y026397D01*
X048334Y026409D01*
X048416Y026443D01*
X048486Y026496D01*
X04854Y026567D01*
X048574Y026648D01*
X048586Y026736D01*
X048574Y026824D01*
X04854Y026906D01*
X048486Y026976D01*
X048416Y02703D01*
X048334Y027064D01*
X048246Y027075D01*
X048159Y027064D01*
X048077Y02703D01*
X048007Y026976D01*
X048003Y026971D01*
X047992Y026961D01*
X047979Y02695D01*
X047967Y026941D01*
X047954Y026933D01*
X047942Y026927D01*
X04793Y026922D01*
X047918Y026919D01*
X047906Y026916D01*
X0479Y026915D01*
X042032D01*
X042026Y026916D01*
X042014Y026919D01*
X042003Y026922D01*
X041991Y026927D01*
X041979Y026933D01*
X041966Y026941D01*
X041954Y02695D01*
X041941Y026961D01*
X041929Y026972D01*
X041925Y026977D01*
X041895Y027001D01*
X041912Y027051D01*
X046114D01*
X046176Y027063D01*
X046229Y027099D01*
X046812Y027681D01*
X046847Y027734D01*
X046859Y027796D01*
Y028151D01*
X04686Y028157D01*
X046863Y028167D01*
X046867Y028178D01*
X046873Y028191D01*
X046881Y028204D01*
X046891Y028219D01*
X046903Y028234D01*
X046917Y02825D01*
X046931Y028265D01*
X046936Y028269D01*
X04699Y028339D01*
X047024Y028421D01*
X047035Y028509D01*
X047024Y028596D01*
X04699Y028678D01*
X046936Y028748D01*
X046866Y028802D01*
X046784Y028836D01*
X046696Y028848D01*
X046609Y028836D01*
X046527Y028802D01*
X046457Y028748D01*
X046403Y028678D01*
X046369Y028596D01*
X046367Y028581D01*
X046316D01*
X046314Y028596D01*
X04628Y028678D01*
X046226Y028748D01*
X046156Y028802D01*
X046074Y028836D01*
X045987Y028848D01*
X045899Y028836D01*
X045817Y028802D01*
X045747Y028748D01*
X045743Y028743D01*
X045728Y028729D01*
X045712Y028715D01*
X045697Y028703D01*
X045682Y028693D01*
X045669Y028685D01*
X045656Y02868D01*
X045645Y028675D01*
X045635Y028673D01*
X045629Y028672D01*
X044243D01*
X044163Y028752D01*
Y028825D01*
X044213Y028842D01*
X044222Y028831D01*
X044292Y028777D01*
X044374Y028743D01*
X044462Y028731D01*
X044549Y028743D01*
X044631Y028777D01*
X044701Y028831D01*
X044755Y028901D01*
X044789Y028983D01*
X044801Y029071D01*
X044789Y029158D01*
X044755Y02924D01*
X044701Y02931D01*
X044696Y029314D01*
X044682Y029329D01*
X044668Y029345D01*
X044656Y029361D01*
X044646Y029375D01*
X044638Y029388D01*
X044633Y029401D01*
X044628Y029412D01*
X044626Y029422D01*
X044625Y029428D01*
Y029994D01*
X045018Y030387D01*
X04655D01*
X046612Y030399D01*
X046665Y030435D01*
X047315Y031085D01*
X047351Y031138D01*
X047363Y0312D01*
Y031742D01*
X047364Y031748D01*
X047367Y031758D01*
X047371Y03177D01*
X047377Y031782D01*
X047385Y031796D01*
X047394Y03181D01*
X047406Y031825D01*
X04742Y031842D01*
X047434Y031856D01*
X047437Y031858D01*
X047456Y031855D01*
X047487Y031844D01*
Y028866D01*
X047486Y02886D01*
X047483Y02885D01*
X047479Y028839D01*
X047473Y028826D01*
X047465Y028813D01*
X047456Y028799D01*
X047444Y028783D01*
X04743Y028767D01*
X047416Y028752D01*
X04741Y028748D01*
X047356Y028678D01*
X047322Y028596D01*
X047311Y028509D01*
X047322Y028421D01*
X047356Y028339D01*
X04741Y028269D01*
X04748Y028215D01*
X047562Y028181D01*
X04765Y028169D01*
X047738Y028181D01*
X04782Y028215D01*
X04789Y028269D01*
X047944Y028339D01*
X047978Y028421D01*
X047989Y028509D01*
X047978Y028596D01*
X047944Y028678D01*
X04789Y028748D01*
X047884Y028752D01*
X04787Y028767D01*
X047856Y028783D01*
X047844Y028799D01*
X047835Y028813D01*
X047827Y028826D01*
X047821Y028839D01*
X047817Y02885D01*
X047814Y02886D01*
X047813Y028866D01*
Y030095D01*
X047858Y030117D01*
X04788Y0301D01*
X047962Y030066D01*
X04805Y030055D01*
X048138Y030066D01*
X04822Y0301D01*
X04829Y030154D01*
X048344Y030224D01*
X04835Y030238D01*
X048404D01*
X048412Y030218D01*
X048466Y030148D01*
X048536Y030094D01*
X048618Y03006D01*
X048706Y030048D01*
X048794Y03006D01*
X048876Y030094D01*
X048946Y030148D01*
X049Y030218D01*
X049034Y0303D01*
X049045Y030387D01*
X049034Y030475D01*
X049Y030557D01*
X048946Y030627D01*
X048939Y030632D01*
X048939Y030633D01*
X048924Y030647D01*
X048913Y03066D01*
X048904Y030672D01*
X048896Y030684D01*
X04889Y030695D01*
X048885Y030707D01*
X048882Y030718D01*
X048879Y03073D01*
X048878Y030736D01*
Y033154D01*
X048879Y033159D01*
X048882Y033171D01*
X048885Y033183D01*
X04889Y033195D01*
X048897Y033207D01*
X048904Y03322D01*
X048913Y033232D01*
X048924Y033245D01*
X048935Y033256D01*
X04894Y03326D01*
X048994Y03333D01*
X049028Y033412D01*
X049039Y0335D01*
X049028Y033588D01*
X048994Y03367D01*
X04894Y03374D01*
X04887Y033794D01*
X048788Y033828D01*
X0487Y033839D01*
X048612Y033828D01*
X04853Y033794D01*
X04846Y03374D01*
X048406Y03367D01*
X048372Y033588D01*
X048361Y0335D01*
X048372Y033412D01*
X048406Y03333D01*
X04846Y03326D01*
X048465Y033256D01*
X048476Y033245D01*
X048487Y033232D01*
X048496Y03322D01*
X048503Y033207D01*
X04851Y033195D01*
X048514Y033183D01*
X048518Y033171D01*
X048521Y033159D01*
X048522Y033154D01*
Y030731D01*
X048521Y030726D01*
X048518Y030713D01*
X048514Y030701D01*
X04851Y030689D01*
X048503Y030676D01*
X048496Y030663D01*
X048487Y03065D01*
X048476Y030637D01*
X048469Y03063D01*
X048466Y030627D01*
X048461Y030621D01*
X048461Y030621D01*
X048461Y030621D01*
X048412Y030557D01*
X048406Y030543D01*
X048352D01*
X048344Y030563D01*
X048335Y030575D01*
X048334Y030578D01*
X048322Y030597D01*
X048302Y030633D01*
X048296Y030649D01*
X04829Y030664D01*
X048285Y03068D01*
X048281Y030694D01*
X048279Y030709D01*
X048278Y030714D01*
Y032333D01*
X048279Y032339D01*
X048282Y032351D01*
X048285Y032363D01*
X04829Y032375D01*
X048297Y032387D01*
X048304Y032399D01*
X048313Y032412D01*
X048324Y032425D01*
X048335Y032436D01*
X04834Y03244D01*
X048394Y03251D01*
X048428Y032592D01*
X048439Y032679D01*
X048428Y032767D01*
X048394Y032849D01*
X04834Y032919D01*
X04827Y032973D01*
X048188Y033007D01*
X0481Y033019D01*
X048012Y033007D01*
X04793Y032973D01*
X047863Y032921D01*
X047844Y032925D01*
X047813Y032935D01*
Y033192D01*
X047814Y033198D01*
X047817Y033208D01*
X047821Y03322D01*
X047827Y033232D01*
X047835Y033246D01*
X047844Y03326D01*
X047856Y033275D01*
X04787Y033292D01*
X047884Y033306D01*
X04789Y03331D01*
X047944Y03338D01*
X047978Y033462D01*
X047989Y03355D01*
X047978Y033638D01*
X047944Y03372D01*
X04789Y03379D01*
X04782Y033844D01*
X047738Y033878D01*
X04765Y033889D01*
D02*
G37*
G36*
X0513Y031858D02*
X051212Y031846D01*
X05113Y031813D01*
X05106Y031759D01*
X051056Y031753D01*
X051045Y031743D01*
X051032Y031732D01*
X05102Y031723D01*
X051007Y031715D01*
X050995Y031709D01*
X050983Y031704D01*
X050971Y031701D01*
X050959Y031698D01*
X050954Y031697D01*
X050562D01*
X050556Y031698D01*
X050544Y031701D01*
X050532Y031704D01*
X05052Y031709D01*
X050508Y031715D01*
X050496Y031723D01*
X050483Y031732D01*
X05047Y031743D01*
X050459Y031753D01*
X050456Y031759D01*
X050385Y031813D01*
X050304Y031846D01*
X050216Y031858D01*
X050128Y031846D01*
X050046Y031813D01*
X049976Y031759D01*
X049922Y031688D01*
X049888Y031607D01*
X049877Y031519D01*
X049888Y031431D01*
X049922Y031349D01*
X049976Y031279D01*
X050046Y031225D01*
X050128Y031191D01*
X050216Y03118D01*
X050304Y031191D01*
X050385Y031225D01*
X050456Y031279D01*
X050459Y031284D01*
X05047Y031295D01*
X050483Y031306D01*
X050496Y031315D01*
X050508Y031322D01*
X05052Y031328D01*
X050532Y031333D01*
X050544Y031337D01*
X050556Y03134D01*
X050562Y03134D01*
X050954D01*
X050959Y03134D01*
X050971Y031337D01*
X050983Y031333D01*
X050995Y031328D01*
X051007Y031322D01*
X05102Y031315D01*
X051032Y031306D01*
X051045Y031295D01*
X051056Y031284D01*
X05106Y031279D01*
X05113Y031225D01*
X051212Y031191D01*
X0513Y03118D01*
X051388Y031191D01*
X05147Y031225D01*
X05154Y031279D01*
X051594Y031349D01*
X051628Y031431D01*
X051639Y031519D01*
X051628Y031607D01*
X051594Y031688D01*
X05154Y031759D01*
X05147Y031813D01*
X051388Y031846D01*
X0513Y031858D01*
D02*
G37*
G36*
X042014Y031931D02*
Y031569D01*
X042376D01*
X042368Y031627D01*
X042326Y031728D01*
X04226Y031815D01*
X042173Y031881D01*
X042072Y031923D01*
X042014Y031931D01*
D02*
G37*
G36*
X041914D02*
X041855Y031923D01*
X041754Y031881D01*
X041668Y031815D01*
X041601Y031728D01*
X041559Y031627D01*
X041552Y031569D01*
X041914D01*
Y031931D01*
D02*
G37*
G36*
X029738Y031942D02*
X029638D01*
Y031538D01*
X030185D01*
X030176Y031605D01*
X030131Y031715D01*
X030059Y031809D01*
X029965Y031881D01*
X029855Y031926D01*
X029738Y031942D01*
D02*
G37*
G36*
X029538D02*
X029438D01*
X02932Y031926D01*
X029211Y031881D01*
X029117Y031809D01*
X029045Y031715D01*
X028999Y031605D01*
X028991Y031538D01*
X029538D01*
Y031942D01*
D02*
G37*
G36*
X042964Y031937D02*
X042855Y031923D01*
X042754Y031881D01*
X042668Y031815D01*
X042601Y031728D01*
X042559Y031627D01*
X042545Y031519D01*
X042559Y03141D01*
X042601Y03131D01*
X042668Y031223D01*
X042676Y031216D01*
X042724Y031165D01*
X042744Y031141D01*
X042762Y031117D01*
X042775Y031095D01*
X042786Y031076D01*
X042793Y031058D01*
X042798Y031043D01*
X0428Y031032D01*
Y030936D01*
X042813Y030874D01*
X042848Y030821D01*
X043197Y030472D01*
X04325Y030437D01*
X043312Y030425D01*
X043988D01*
X04405Y030437D01*
X044103Y030472D01*
X044964Y031333D01*
X04498Y031341D01*
X045031Y031329D01*
X04505Y031304D01*
X045121Y03125D01*
X045202Y031216D01*
X04529Y031204D01*
X045378Y031216D01*
X04546Y03125D01*
X04553Y031304D01*
X045584Y031374D01*
X045618Y031456D01*
X045629Y031543D01*
X045618Y031631D01*
X045584Y031713D01*
X04553Y031783D01*
X04546Y031837D01*
X045378Y031871D01*
X04529Y031882D01*
X045202Y031871D01*
X045121Y031837D01*
X04505Y031783D01*
X045021Y031745D01*
X04502Y031744D01*
X045017Y031739D01*
X045015Y031737D01*
X04501Y031732D01*
X045004Y031724D01*
X045001Y031721D01*
X044998Y031718D01*
X044994Y031716D01*
X044989Y031713D01*
X044984Y031711D01*
X044976Y031709D01*
X044967Y031707D01*
X044962Y031706D01*
X044943D01*
X044881Y031694D01*
X044828Y031659D01*
X04392Y030751D01*
X04338D01*
X043127Y031004D01*
Y031032D01*
X043129Y031043D01*
X043134Y031058D01*
X043141Y031076D01*
X043152Y031095D01*
X043166Y031117D01*
X043182Y03114D01*
X043229Y031194D01*
X04325Y031216D01*
X04326Y031223D01*
X043326Y03131D01*
X043368Y03141D01*
X043382Y031519D01*
X043368Y031627D01*
X043326Y031728D01*
X04326Y031815D01*
X043173Y031881D01*
X043072Y031923D01*
X042964Y031937D01*
D02*
G37*
G36*
X042376Y031469D02*
X042014D01*
Y031107D01*
X042072Y031115D01*
X042173Y031156D01*
X04226Y031223D01*
X042326Y03131D01*
X042368Y03141D01*
X042376Y031469D01*
D02*
G37*
G36*
X041914D02*
X041552D01*
X041559Y03141D01*
X041601Y03131D01*
X041668Y031223D01*
X041754Y031156D01*
X041855Y031115D01*
X041914Y031107D01*
Y031469D01*
D02*
G37*
G36*
X043964Y031937D02*
X043855Y031923D01*
X043754Y031881D01*
X043668Y031815D01*
X043601Y031728D01*
X043559Y031627D01*
X043545Y031519D01*
X043559Y03141D01*
X043601Y03131D01*
X043668Y031223D01*
X043754Y031156D01*
X043855Y031115D01*
X043964Y0311D01*
X044072Y031115D01*
X044173Y031156D01*
X04426Y031223D01*
X044326Y03131D01*
X044368Y03141D01*
X044382Y031519D01*
X044368Y031627D01*
X044326Y031728D01*
X04426Y031815D01*
X044173Y031881D01*
X044072Y031923D01*
X043964Y031937D01*
D02*
G37*
G36*
X040964D02*
X040855Y031923D01*
X040754Y031881D01*
X040668Y031815D01*
X040601Y031728D01*
X040559Y031627D01*
X040545Y031519D01*
X040559Y03141D01*
X040601Y03131D01*
X040668Y031223D01*
X040754Y031156D01*
X040855Y031115D01*
X040964Y0311D01*
X041072Y031115D01*
X041173Y031156D01*
X04126Y031223D01*
X041326Y03131D01*
X041368Y03141D01*
X041382Y031519D01*
X041368Y031627D01*
X041326Y031728D01*
X04126Y031815D01*
X041173Y031881D01*
X041072Y031923D01*
X040964Y031937D01*
D02*
G37*
G36*
X034485Y032492D02*
X034285D01*
X034155Y032475D01*
X034033Y032425D01*
X033928Y032344D01*
X033848Y03224D01*
X033798Y032118D01*
X033781Y031988D01*
X033798Y031857D01*
X033848Y031736D01*
X033928Y031631D01*
X034033Y031551D01*
X03412Y031515D01*
Y031461D01*
X034033Y031425D01*
X033928Y031344D01*
X033848Y03124D01*
X033798Y031118D01*
X033787Y031038D01*
X034385D01*
X034983D01*
X034972Y031118D01*
X034922Y03124D01*
X034842Y031344D01*
X034737Y031425D01*
X03465Y031461D01*
Y031515D01*
X034737Y031551D01*
X034842Y031631D01*
X034922Y031736D01*
X034972Y031857D01*
X034989Y031988D01*
X034972Y032118D01*
X034922Y03224D01*
X034842Y032344D01*
X034737Y032425D01*
X034616Y032475D01*
X034485Y032492D01*
D02*
G37*
G36*
X030185Y031438D02*
X029638D01*
Y031034D01*
X029738D01*
X029855Y031049D01*
X029965Y031095D01*
X030059Y031167D01*
X030131Y031261D01*
X030176Y03137D01*
X030185Y031438D01*
D02*
G37*
G36*
X029538D02*
X028991D01*
X028999Y03137D01*
X029045Y031261D01*
X029117Y031167D01*
X029211Y031095D01*
X02932Y031049D01*
X029438Y031034D01*
X029538D01*
Y031438D01*
D02*
G37*
G36*
X030188Y030438D02*
X028988D01*
Y029538D01*
X030188D01*
Y030438D01*
D02*
G37*
G36*
X034983Y030938D02*
X034385D01*
X033787D01*
X033798Y030857D01*
X033848Y030736D01*
X033928Y030631D01*
X034033Y030551D01*
X034065Y030538D01*
X034055Y030488D01*
X033785D01*
Y029488D01*
X034985D01*
Y030488D01*
X034715D01*
X034705Y030538D01*
X034737Y030551D01*
X034842Y030631D01*
X034922Y030736D01*
X034972Y030857D01*
X034983Y030938D01*
D02*
G37*
G36*
X05208Y027355D02*
X051992Y027343D01*
X051911Y027309D01*
X05184Y027255D01*
X051836Y02725D01*
X051825Y02724D01*
X051812Y027229D01*
X0518Y027219D01*
X051787Y027212D01*
X051775Y027206D01*
X051763Y027201D01*
X051752Y027197D01*
X05174Y027195D01*
X051734Y027194D01*
X051158D01*
X051154Y027194D01*
X051139Y027197D01*
X051125Y0272D01*
X05109Y02721D01*
X051075Y027216D01*
X051036Y027234D01*
X051024Y027241D01*
X05102Y027244D01*
X050938Y027278D01*
X05085Y02729D01*
X050762Y027278D01*
X05068Y027244D01*
X05061Y02719D01*
X050556Y02712D01*
X050522Y027038D01*
X050511Y026951D01*
X050522Y026863D01*
X050556Y026781D01*
X05061Y026711D01*
X05068Y026657D01*
X050762Y026623D01*
X05085Y026612D01*
X050938Y026623D01*
X05102Y026657D01*
X05109Y026711D01*
X051144Y026781D01*
X051147Y026788D01*
X051154Y026801D01*
X051161Y02681D01*
X051168Y026817D01*
X051174Y026823D01*
X051181Y026827D01*
X051188Y026831D01*
X051195Y026834D01*
X051204Y026836D01*
X05121Y026837D01*
X051734D01*
X05174Y026836D01*
X051752Y026834D01*
X051763Y02683D01*
X051775Y026825D01*
X051787Y026819D01*
X0518Y026811D01*
X051812Y026802D01*
X051825Y026791D01*
X051836Y026781D01*
X05184Y026776D01*
X051911Y026722D01*
X051992Y026688D01*
X05208Y026676D01*
X052168Y026688D01*
X05225Y026722D01*
X05232Y026776D01*
X052374Y026846D01*
X052408Y026928D01*
X052419Y027015D01*
X052408Y027103D01*
X052374Y027185D01*
X05232Y027255D01*
X05225Y027309D01*
X052168Y027343D01*
X05208Y027355D01*
D02*
G37*
G36*
X03008Y027926D02*
X029964Y027915D01*
X029852Y027881D01*
X029749Y027826D01*
X029659Y027752D01*
X029585Y027662D01*
X02953Y027559D01*
X029496Y027447D01*
X029485Y027331D01*
X029496Y027215D01*
X02953Y027103D01*
X029585Y027001D01*
X029659Y02691D01*
X029749Y026836D01*
X029852Y026781D01*
X029964Y026748D01*
X03008Y026736D01*
X030196Y026748D01*
X030308Y026781D01*
X030411Y026836D01*
X030501Y02691D01*
X030575Y027001D01*
X03063Y027103D01*
X030664Y027215D01*
X030675Y027331D01*
X030664Y027447D01*
X03063Y027559D01*
X030575Y027662D01*
X030501Y027752D01*
X030411Y027826D01*
X030308Y027881D01*
X030196Y027915D01*
X03008Y027926D01*
D02*
G37*
G36*
X034385Y027192D02*
X034277Y027178D01*
X034176Y027136D01*
X034089Y02707D01*
X034023Y026983D01*
X033981Y026882D01*
X033967Y026774D01*
X033981Y026665D01*
X034023Y026564D01*
X034089Y026478D01*
X034176Y026411D01*
X034277Y026369D01*
X034385Y026355D01*
X034493Y026369D01*
X034594Y026411D01*
X034681Y026478D01*
X034748Y026564D01*
X034789Y026665D01*
X034804Y026774D01*
X034789Y026882D01*
X034748Y026983D01*
X034681Y02707D01*
X034594Y027136D01*
X034493Y027178D01*
X034385Y027192D01*
D02*
G37*
G36*
X0301Y026426D02*
X029984Y026415D01*
X029872Y026381D01*
X029769Y026326D01*
X029679Y026252D01*
X029605Y026162D01*
X02955Y026059D01*
X029516Y025947D01*
X029505Y025831D01*
X029516Y025715D01*
X02955Y025603D01*
X029605Y025501D01*
X029679Y02541D01*
X029769Y025336D01*
X029872Y025281D01*
X029984Y025248D01*
X0301Y025236D01*
X030216Y025248D01*
X030328Y025281D01*
X030431Y025336D01*
X030521Y02541D01*
X030595Y025501D01*
X03065Y025603D01*
X030684Y025715D01*
X030695Y025831D01*
X030684Y025947D01*
X03065Y026059D01*
X030595Y026162D01*
X030521Y026252D01*
X030431Y026326D01*
X030328Y026381D01*
X030216Y026415D01*
X0301Y026426D01*
D02*
G37*
G36*
X034385Y025617D02*
X034277Y025603D01*
X034176Y025561D01*
X034089Y025495D01*
X034023Y025408D01*
X033981Y025307D01*
X033967Y025199D01*
X033981Y02509D01*
X034023Y02499D01*
X034089Y024903D01*
X034176Y024836D01*
X034277Y024795D01*
X034385Y02478D01*
X034493Y024795D01*
X034594Y024836D01*
X034681Y024903D01*
X034748Y02499D01*
X034789Y02509D01*
X034804Y025199D01*
X034789Y025307D01*
X034748Y025408D01*
X034681Y025495D01*
X034594Y025561D01*
X034493Y025603D01*
X034385Y025617D01*
D02*
G37*
G36*
X034435Y024036D02*
Y023674D01*
X034797D01*
X034789Y023732D01*
X034748Y023833D01*
X034681Y02392D01*
X034594Y023986D01*
X034493Y024028D01*
X034435Y024036D01*
D02*
G37*
G36*
X034335Y024036D02*
X034277Y024028D01*
X034176Y023986D01*
X034089Y02392D01*
X034023Y023833D01*
X033981Y023732D01*
X033973Y023674D01*
X034335D01*
Y024036D01*
D02*
G37*
G36*
X0506Y023389D02*
X050512Y023378D01*
X05043Y023344D01*
X05036Y02329D01*
X050356Y023285D01*
X050345Y023274D01*
X050332Y023263D01*
X05032Y023254D01*
X050307Y023247D01*
X050295Y02324D01*
X050283Y023235D01*
X050271Y023232D01*
X050259Y023229D01*
X050254Y023228D01*
X049846D01*
X049841Y023229D01*
X049829Y023232D01*
X049817Y023235D01*
X049805Y02324D01*
X049793Y023247D01*
X04978Y023254D01*
X049768Y023263D01*
X049755Y023274D01*
X049744Y023285D01*
X04974Y02329D01*
X04967Y023344D01*
X049588Y023378D01*
X0495Y023389D01*
X049412Y023378D01*
X04933Y023344D01*
X04926Y02329D01*
X049206Y02322D01*
X049172Y023138D01*
X049161Y02305D01*
X049172Y022962D01*
X049206Y02288D01*
X04926Y02281D01*
X049302Y022778D01*
X049285Y022728D01*
X042724D01*
X042656Y022715D01*
X042598Y022676D01*
X041374Y021452D01*
X041335Y021394D01*
X041322Y021326D01*
Y021013D01*
X04132Y021003D01*
X041317Y020989D01*
X041311Y020974D01*
X041304Y020959D01*
X041295Y020943D01*
X041284Y020925D01*
X04127Y020907D01*
X041254Y020889D01*
X041239Y020873D01*
X041232Y020868D01*
X041172Y020789D01*
X041134Y020698D01*
X041121Y0206D01*
X041134Y020502D01*
X041172Y020411D01*
X041232Y020332D01*
X041311Y020272D01*
X041402Y020234D01*
X0415Y020221D01*
X041598Y020234D01*
X041689Y020272D01*
X041768Y020332D01*
X041828Y020411D01*
X041866Y020502D01*
X041879Y0206D01*
X041866Y020698D01*
X041828Y020789D01*
X041768Y020868D01*
X041761Y020873D01*
X041746Y020889D01*
X04173Y020907D01*
X041716Y020925D01*
X041705Y020943D01*
X041696Y020959D01*
X041689Y020974D01*
X041683Y020989D01*
X04168Y021003D01*
X041678Y021013D01*
Y021252D01*
X042798Y022372D01*
X044286D01*
X044303Y022322D01*
X04426Y022289D01*
X044256Y022284D01*
X044245Y022273D01*
X044232Y022262D01*
X04422Y022253D01*
X044207Y022246D01*
X044195Y02224D01*
X044183Y022235D01*
X044171Y022231D01*
X044159Y022228D01*
X044154Y022228D01*
X043375D01*
X043375Y022228D01*
X043307Y022214D01*
X043249Y022175D01*
X043249Y022175D01*
X042374Y021301D01*
X042335Y021243D01*
X042322Y021174D01*
Y021013D01*
X04232Y021003D01*
X042317Y020989D01*
X042311Y020974D01*
X042304Y020959D01*
X042295Y020943D01*
X042284Y020925D01*
X04227Y020907D01*
X042254Y020889D01*
X042239Y020873D01*
X042232Y020868D01*
X042172Y020789D01*
X042134Y020698D01*
X042121Y0206D01*
X042134Y020502D01*
X042172Y020411D01*
X042232Y020332D01*
X042311Y020272D01*
X042338Y020261D01*
X042349Y020202D01*
X042166Y020018D01*
X042158Y020012D01*
X042146Y020005D01*
X042131Y019998D01*
X042115Y019992D01*
X042097Y019987D01*
X042077Y019983D01*
X042055Y01998D01*
X04203Y019978D01*
X042009Y019978D01*
X042Y019979D01*
X041902Y019966D01*
X041811Y019928D01*
X041732Y019868D01*
X041672Y019789D01*
X041634Y019698D01*
X041621Y0196D01*
X041634Y019502D01*
X041672Y019411D01*
X041697Y019378D01*
X041672Y019328D01*
X041525D01*
X041418Y019434D01*
X041412Y019442D01*
X041405Y019454D01*
X041398Y019469D01*
X041392Y019485D01*
X041387Y019503D01*
X041383Y019523D01*
X04138Y019545D01*
X041378Y01957D01*
X041378Y019591D01*
X041379Y0196D01*
X041366Y019698D01*
X041328Y019789D01*
X041268Y019868D01*
X041189Y019928D01*
X041098Y019966D01*
X041Y019979D01*
X040902Y019966D01*
X040811Y019928D01*
X040732Y019868D01*
X040672Y019789D01*
X040634Y019698D01*
X040621Y0196D01*
X040634Y019502D01*
X040672Y019411D01*
X040732Y019332D01*
X040811Y019272D01*
X040902Y019234D01*
X041Y019221D01*
X041009Y019222D01*
X04103Y019222D01*
X041055Y01922D01*
X041077Y019217D01*
X041097Y019213D01*
X041115Y019208D01*
X041131Y019202D01*
X041146Y019195D01*
X041158Y019188D01*
X041166Y019182D01*
X041324Y019023D01*
X041382Y018985D01*
X041451Y018971D01*
X041451Y018971D01*
X044599D01*
X044668Y018985D01*
X044726Y019023D01*
X045888Y020186D01*
X045898Y020193D01*
X045913Y020202D01*
X045931Y020209D01*
X045951Y020216D01*
X045974Y020222D01*
X045999Y020227D01*
X046063Y020233D01*
X046088Y020233D01*
X0461Y020231D01*
X046208Y020246D01*
X046309Y020288D01*
X046396Y020354D01*
X046462Y020441D01*
X046504Y020542D01*
X046519Y02065D01*
X046504Y020758D01*
X046462Y020859D01*
X046396Y020946D01*
X046309Y021012D01*
X046208Y021054D01*
X0461Y021069D01*
X045992Y021054D01*
X045891Y021012D01*
X045804Y020946D01*
X045738Y020859D01*
X045696Y020758D01*
X045681Y02065D01*
X045683Y020638D01*
X045683Y020611D01*
X045681Y020579D01*
X045677Y02055D01*
X045672Y020524D01*
X045666Y020501D01*
X045659Y020481D01*
X045652Y020463D01*
X045643Y020448D01*
X045636Y020438D01*
X044525Y019328D01*
X044328D01*
X044303Y019378D01*
X044328Y019411D01*
X044366Y019502D01*
X044379Y0196D01*
X044366Y019698D01*
X044328Y019789D01*
X044268Y019868D01*
X04426Y019874D01*
X044276Y019922D01*
X044943D01*
X045011Y019935D01*
X045069Y019974D01*
X045304Y020209D01*
X045304Y020209D01*
X045343Y020267D01*
X045356Y020335D01*
Y020954D01*
X045357Y020959D01*
X04536Y020971D01*
X045363Y020983D01*
X045368Y020995D01*
X045374Y021007D01*
X045382Y02102D01*
X045391Y021032D01*
X045402Y021045D01*
X045413Y021056D01*
X045418Y02106D01*
X045472Y02113D01*
X045505Y021212D01*
X045517Y0213D01*
X045505Y021388D01*
X045472Y02147D01*
X045418Y02154D01*
X045347Y021594D01*
X045266Y021628D01*
X045178Y021639D01*
X04509Y021628D01*
X045008Y021594D01*
X044938Y02154D01*
X044884Y02147D01*
X04485Y021388D01*
X044839Y0213D01*
X04485Y021212D01*
X044884Y02113D01*
X044938Y02106D01*
X044943Y021056D01*
X044954Y021045D01*
X044965Y021032D01*
X044974Y02102D01*
X044981Y021007D01*
X044987Y020995D01*
X044992Y020983D01*
X044996Y020971D01*
X044999Y020959D01*
X044999Y020954D01*
Y020409D01*
X044869Y020278D01*
X044776D01*
X04476Y020326D01*
X044768Y020332D01*
X044828Y020411D01*
X044866Y020502D01*
X044879Y0206D01*
X044866Y020698D01*
X044828Y020789D01*
X044768Y020868D01*
X044689Y020928D01*
X044598Y020966D01*
X0445Y020979D01*
X044402Y020966D01*
X044311Y020928D01*
X044232Y020868D01*
X044172Y020789D01*
X044134Y020698D01*
X044121Y0206D01*
X044134Y020502D01*
X044172Y020411D01*
X044232Y020332D01*
X04424Y020326D01*
X044224Y020278D01*
X043776D01*
X04376Y020326D01*
X043768Y020332D01*
X043828Y020411D01*
X043866Y020502D01*
X043879Y0206D01*
X043866Y020698D01*
X043828Y020789D01*
X043768Y020868D01*
X043689Y020928D01*
X043598Y020966D01*
X0435Y020979D01*
X043402Y020966D01*
X043311Y020928D01*
X043232Y020868D01*
X043172Y020789D01*
X043134Y020698D01*
X043121Y0206D01*
X043134Y020502D01*
X043172Y020411D01*
X043232Y020332D01*
X04324Y020326D01*
X043224Y020278D01*
X042776D01*
X04276Y020326D01*
X042768Y020332D01*
X042828Y020411D01*
X042866Y020502D01*
X042879Y0206D01*
X042866Y020698D01*
X042828Y020789D01*
X042768Y020868D01*
X042761Y020873D01*
X042746Y020889D01*
X04273Y020907D01*
X042716Y020925D01*
X042705Y020943D01*
X042696Y020959D01*
X042689Y020974D01*
X042683Y020989D01*
X04268Y021003D01*
X042678Y021013D01*
Y0211D01*
X043449Y021871D01*
X044154D01*
X044159Y02187D01*
X044171Y021867D01*
X044183Y021864D01*
X044195Y021859D01*
X044207Y021853D01*
X04422Y021845D01*
X044232Y021836D01*
X044245Y021825D01*
X044256Y021815D01*
X04426Y021809D01*
X04433Y021756D01*
X044412Y021722D01*
X0445Y02171D01*
X044588Y021722D01*
X04467Y021756D01*
X04474Y021809D01*
X044794Y02188D01*
X044828Y021961D01*
X044839Y022049D01*
X044828Y022137D01*
X044794Y022219D01*
X04474Y022289D01*
X044697Y022322D01*
X044714Y022372D01*
X049276D01*
X049922Y021726D01*
Y021081D01*
X049921Y021072D01*
X04992Y021065D01*
X049685D01*
Y020235D01*
X050515D01*
Y021065D01*
X05028D01*
X050279Y021072D01*
X050278Y021081D01*
Y0218D01*
X050265Y021868D01*
X050226Y021926D01*
X049491Y022662D01*
X049495Y022685D01*
X04951Y022712D01*
X049588Y022722D01*
X04967Y022756D01*
X04974Y02281D01*
X049744Y022815D01*
X049755Y022826D01*
X049768Y022837D01*
X04978Y022846D01*
X049793Y022853D01*
X049805Y02286D01*
X049817Y022864D01*
X049829Y022868D01*
X049841Y022871D01*
X049846Y022872D01*
X050254D01*
X050259Y022871D01*
X050271Y022868D01*
X050283Y022864D01*
X050295Y02286D01*
X050307Y022853D01*
X05032Y022846D01*
X050332Y022837D01*
X050345Y022826D01*
X050356Y022815D01*
X05036Y02281D01*
X05043Y022756D01*
X050512Y022722D01*
X0506Y022711D01*
X050688Y022722D01*
X05077Y022756D01*
X05084Y02281D01*
X050894Y02288D01*
X050928Y022962D01*
X050939Y02305D01*
X050928Y023138D01*
X050894Y02322D01*
X05084Y02329D01*
X05077Y023344D01*
X050688Y023378D01*
X0506Y023389D01*
D02*
G37*
G36*
X034797Y023574D02*
X034435D01*
Y023212D01*
X034493Y02322D01*
X034594Y023262D01*
X034681Y023328D01*
X034748Y023415D01*
X034789Y023516D01*
X034797Y023574D01*
D02*
G37*
G36*
X034335D02*
X033973D01*
X033981Y023516D01*
X034023Y023415D01*
X034089Y023328D01*
X034176Y023262D01*
X034277Y02322D01*
X034335Y023212D01*
Y023574D01*
D02*
G37*
G36*
X02925Y024263D02*
X029091Y024247D01*
X028939Y024201D01*
X028799Y024126D01*
X028675Y024025D01*
X028574Y023901D01*
X028499Y023761D01*
X028453Y023609D01*
X028437Y02345D01*
X028453Y023291D01*
X028499Y023139D01*
X028574Y022999D01*
X028675Y022875D01*
X028799Y022774D01*
X028939Y022699D01*
X029091Y022653D01*
X02925Y022637D01*
X029409Y022653D01*
X029561Y022699D01*
X029701Y022774D01*
X029825Y022875D01*
X029926Y022999D01*
X030001Y023139D01*
X030047Y023291D01*
X030063Y02345D01*
X030047Y023609D01*
X030001Y023761D01*
X029926Y023901D01*
X029825Y024025D01*
X029701Y024126D01*
X029561Y024201D01*
X029409Y024247D01*
X02925Y024263D01*
D02*
G37*
G36*
X03218Y022971D02*
X032064Y022959D01*
X031952Y022925D01*
X031849Y02287D01*
X031759Y022796D01*
X031685Y022706D01*
X03163Y022603D01*
X031596Y022492D01*
X031585Y022376D01*
X031596Y02226D01*
X03163Y022148D01*
X031685Y022045D01*
X031759Y021955D01*
X031849Y021881D01*
X031952Y021826D01*
X032064Y021792D01*
X03218Y021781D01*
X032296Y021792D01*
X032408Y021826D01*
X032511Y021881D01*
X032601Y021955D01*
X032675Y022045D01*
X03273Y022148D01*
X032764Y02226D01*
X032775Y022376D01*
X032764Y022492D01*
X03273Y022603D01*
X032675Y022706D01*
X032601Y022796D01*
X032511Y02287D01*
X032408Y022925D01*
X032296Y022959D01*
X03218Y022971D01*
D02*
G37*
G36*
X034385Y022468D02*
X034277Y022453D01*
X034176Y022412D01*
X034089Y022345D01*
X034023Y022258D01*
X033981Y022158D01*
X033967Y022049D01*
X033981Y021941D01*
X034023Y02184D01*
X034089Y021753D01*
X034176Y021687D01*
X034277Y021645D01*
X034385Y021631D01*
X034493Y021645D01*
X034594Y021687D01*
X034681Y021753D01*
X034748Y02184D01*
X034789Y021941D01*
X034804Y022049D01*
X034789Y022158D01*
X034748Y022258D01*
X034681Y022345D01*
X034594Y022412D01*
X034493Y022453D01*
X034385Y022468D01*
D02*
G37*
G36*
X05208Y022917D02*
X051922Y022901D01*
X051769Y022855D01*
X051629Y02278D01*
X051506Y022679D01*
X051404Y022556D01*
X051329Y022415D01*
X051283Y022263D01*
X051268Y022104D01*
X051283Y021946D01*
X051329Y021793D01*
X051404Y021653D01*
X051506Y02153D01*
X051629Y021429D01*
X051769Y021354D01*
X051922Y021307D01*
X05208Y021292D01*
X052239Y021307D01*
X052391Y021354D01*
X052532Y021429D01*
X052655Y02153D01*
X052756Y021653D01*
X052831Y021793D01*
X052877Y021946D01*
X052893Y022104D01*
X052877Y022263D01*
X052831Y022415D01*
X052756Y022556D01*
X052655Y022679D01*
X052532Y02278D01*
X052391Y022855D01*
X052239Y022901D01*
X05208Y022917D01*
D02*
G37*
G36*
X03755Y020972D02*
Y02065D01*
X037872D01*
X037866Y020698D01*
X037828Y020789D01*
X037768Y020868D01*
X037689Y020928D01*
X037598Y020966D01*
X03755Y020972D01*
D02*
G37*
G36*
X03745D02*
X037402Y020966D01*
X037311Y020928D01*
X037232Y020868D01*
X037172Y020789D01*
X037134Y020698D01*
X037128Y02065D01*
X03745D01*
Y020972D01*
D02*
G37*
G36*
X03655D02*
Y02065D01*
X036872D01*
X036866Y020698D01*
X036828Y020789D01*
X036768Y020868D01*
X036689Y020928D01*
X036598Y020966D01*
X03655Y020972D01*
D02*
G37*
G36*
X03645D02*
X036402Y020966D01*
X036311Y020928D01*
X036232Y020868D01*
X036172Y020789D01*
X036134Y020698D01*
X036128Y02065D01*
X03645D01*
Y020972D01*
D02*
G37*
G36*
X0322Y021471D02*
X032084Y021459D01*
X031972Y021425D01*
X031869Y02137D01*
X031779Y021296D01*
X031705Y021206D01*
X03165Y021103D01*
X031616Y020992D01*
X031605Y020876D01*
X031616Y02076D01*
X03165Y020648D01*
X031705Y020545D01*
X031779Y020455D01*
X031869Y020381D01*
X031972Y020326D01*
X032084Y020292D01*
X0322Y020281D01*
X032316Y020292D01*
X032428Y020326D01*
X032531Y020381D01*
X032621Y020455D01*
X032695Y020545D01*
X03275Y020648D01*
X032784Y02076D01*
X032795Y020876D01*
X032784Y020992D01*
X03275Y021103D01*
X032695Y021206D01*
X032621Y021296D01*
X032531Y02137D01*
X032428Y021425D01*
X032316Y021459D01*
X0322Y021471D01*
D02*
G37*
G36*
X0491Y021069D02*
X048992Y021054D01*
X048891Y021012D01*
X048804Y020946D01*
X048738Y020859D01*
X048696Y020758D01*
X048681Y02065D01*
X048696Y020542D01*
X048738Y020441D01*
X048804Y020354D01*
X048891Y020288D01*
X048992Y020246D01*
X0491Y020231D01*
X049208Y020246D01*
X049309Y020288D01*
X049396Y020354D01*
X049462Y020441D01*
X049504Y020542D01*
X049519Y02065D01*
X049504Y020758D01*
X049462Y020859D01*
X049396Y020946D01*
X049309Y021012D01*
X049208Y021054D01*
X0491Y021069D01*
D02*
G37*
G36*
X0481D02*
X047992Y021054D01*
X047891Y021012D01*
X047804Y020946D01*
X047738Y020859D01*
X047696Y020758D01*
X047681Y02065D01*
X047696Y020542D01*
X047738Y020441D01*
X047804Y020354D01*
X047891Y020288D01*
X047992Y020246D01*
X0481Y020231D01*
X048208Y020246D01*
X048309Y020288D01*
X048396Y020354D01*
X048462Y020441D01*
X048504Y020542D01*
X048519Y02065D01*
X048504Y020758D01*
X048462Y020859D01*
X048396Y020946D01*
X048309Y021012D01*
X048208Y021054D01*
X0481Y021069D01*
D02*
G37*
G36*
X0471D02*
X046992Y021054D01*
X046891Y021012D01*
X046804Y020946D01*
X046738Y020859D01*
X046696Y020758D01*
X046681Y02065D01*
X046696Y020542D01*
X046738Y020441D01*
X046804Y020354D01*
X046891Y020288D01*
X046992Y020246D01*
X0471Y020231D01*
X047208Y020246D01*
X047309Y020288D01*
X047396Y020354D01*
X047462Y020441D01*
X047504Y020542D01*
X047519Y02065D01*
X047504Y020758D01*
X047462Y020859D01*
X047396Y020946D01*
X047309Y021012D01*
X047208Y021054D01*
X0471Y021069D01*
D02*
G37*
G36*
X037872Y02055D02*
X03755D01*
Y020228D01*
X037598Y020234D01*
X037689Y020272D01*
X037768Y020332D01*
X037828Y020411D01*
X037866Y020502D01*
X037872Y02055D01*
D02*
G37*
G36*
X03745D02*
X037128D01*
X037134Y020502D01*
X037172Y020411D01*
X037232Y020332D01*
X037311Y020272D01*
X037402Y020234D01*
X03745Y020228D01*
Y02055D01*
D02*
G37*
G36*
X036872D02*
X03655D01*
Y020228D01*
X036598Y020234D01*
X036689Y020272D01*
X036768Y020332D01*
X036828Y020411D01*
X036866Y020502D01*
X036872Y02055D01*
D02*
G37*
G36*
X03645D02*
X036128D01*
X036134Y020502D01*
X036172Y020411D01*
X036232Y020332D01*
X036311Y020272D01*
X036402Y020234D01*
X03645Y020228D01*
Y02055D01*
D02*
G37*
G36*
X0405Y020979D02*
X040402Y020966D01*
X040311Y020928D01*
X040232Y020868D01*
X040172Y020789D01*
X040134Y020698D01*
X040121Y0206D01*
X040134Y020502D01*
X040172Y020411D01*
X040232Y020332D01*
X040311Y020272D01*
X040402Y020234D01*
X0405Y020221D01*
X040598Y020234D01*
X040689Y020272D01*
X040768Y020332D01*
X040828Y020411D01*
X040866Y020502D01*
X040879Y0206D01*
X040866Y020698D01*
X040828Y020789D01*
X040768Y020868D01*
X040689Y020928D01*
X040598Y020966D01*
X0405Y020979D01*
D02*
G37*
G36*
X0395D02*
X039402Y020966D01*
X039311Y020928D01*
X039232Y020868D01*
X039172Y020789D01*
X039134Y020698D01*
X039121Y0206D01*
X039134Y020502D01*
X039172Y020411D01*
X039232Y020332D01*
X039311Y020272D01*
X039402Y020234D01*
X0395Y020221D01*
X039598Y020234D01*
X039689Y020272D01*
X039768Y020332D01*
X039828Y020411D01*
X039866Y020502D01*
X039879Y0206D01*
X039866Y020698D01*
X039828Y020789D01*
X039768Y020868D01*
X039689Y020928D01*
X039598Y020966D01*
X0395Y020979D01*
D02*
G37*
G36*
X0385D02*
X038402Y020966D01*
X038311Y020928D01*
X038232Y020868D01*
X038172Y020789D01*
X038134Y020698D01*
X038121Y0206D01*
X038134Y020502D01*
X038172Y020411D01*
X038232Y020332D01*
X038311Y020272D01*
X038402Y020234D01*
X0385Y020221D01*
X038598Y020234D01*
X038689Y020272D01*
X038768Y020332D01*
X038828Y020411D01*
X038866Y020502D01*
X038879Y0206D01*
X038866Y020698D01*
X038828Y020789D01*
X038768Y020868D01*
X038689Y020928D01*
X038598Y020966D01*
X0385Y020979D01*
D02*
G37*
G36*
X04715Y020062D02*
Y0197D01*
X047512D01*
X047504Y019758D01*
X047462Y019859D01*
X047396Y019946D01*
X047309Y020012D01*
X047208Y020054D01*
X04715Y020062D01*
D02*
G37*
G36*
X04815D02*
Y0197D01*
X048512D01*
X048504Y019758D01*
X048462Y019859D01*
X048396Y019946D01*
X048309Y020012D01*
X048208Y020054D01*
X04815Y020062D01*
D02*
G37*
G36*
X04615D02*
Y0197D01*
X046512D01*
X046504Y019758D01*
X046462Y019859D01*
X046396Y019946D01*
X046309Y020012D01*
X046208Y020054D01*
X04615Y020062D01*
D02*
G37*
G36*
X04915D02*
Y0197D01*
X049512D01*
X049504Y019758D01*
X049462Y019859D01*
X049396Y019946D01*
X049309Y020012D01*
X049208Y020054D01*
X04915Y020062D01*
D02*
G37*
G36*
X04705D02*
X046992Y020054D01*
X046891Y020012D01*
X046804Y019946D01*
X046738Y019859D01*
X046696Y019758D01*
X046688Y0197D01*
X04705D01*
Y020062D01*
D02*
G37*
G36*
X04805D02*
X047992Y020054D01*
X047891Y020012D01*
X047804Y019946D01*
X047738Y019859D01*
X047696Y019758D01*
X047688Y0197D01*
X04805D01*
Y020062D01*
D02*
G37*
G36*
X04605D02*
X045992Y020054D01*
X045891Y020012D01*
X045804Y019946D01*
X045738Y019859D01*
X045696Y019758D01*
X045688Y0197D01*
X04605D01*
Y020062D01*
D02*
G37*
G36*
X04905D02*
X048992Y020054D01*
X048891Y020012D01*
X048804Y019946D01*
X048738Y019859D01*
X048696Y019758D01*
X048688Y0197D01*
X04905D01*
Y020062D01*
D02*
G37*
G36*
X03705Y019972D02*
Y01965D01*
X037372D01*
X037366Y019698D01*
X037328Y019789D01*
X037268Y019868D01*
X037189Y019928D01*
X037098Y019966D01*
X03705Y019972D01*
D02*
G37*
G36*
X03695D02*
X036902Y019966D01*
X036811Y019928D01*
X036732Y019868D01*
X036672Y019789D01*
X036634Y019698D01*
X036628Y01965D01*
X03695D01*
Y019972D01*
D02*
G37*
G36*
X03605D02*
Y01965D01*
X036372D01*
X036366Y019698D01*
X036328Y019789D01*
X036268Y019868D01*
X036189Y019928D01*
X036098Y019966D01*
X03605Y019972D01*
D02*
G37*
G36*
X03595D02*
X035902Y019966D01*
X035811Y019928D01*
X035732Y019868D01*
X035672Y019789D01*
X035634Y019698D01*
X035628Y01965D01*
X03595D01*
Y019972D01*
D02*
G37*
G36*
X049512Y0196D02*
X04915D01*
Y019238D01*
X049208Y019246D01*
X049309Y019288D01*
X049396Y019354D01*
X049462Y019441D01*
X049504Y019542D01*
X049512Y0196D01*
D02*
G37*
G36*
X048512D02*
X04815D01*
Y019238D01*
X048208Y019246D01*
X048309Y019288D01*
X048396Y019354D01*
X048462Y019441D01*
X048504Y019542D01*
X048512Y0196D01*
D02*
G37*
G36*
X047512D02*
X04715D01*
Y019238D01*
X047208Y019246D01*
X047309Y019288D01*
X047396Y019354D01*
X047462Y019441D01*
X047504Y019542D01*
X047512Y0196D01*
D02*
G37*
G36*
X046512D02*
X04615D01*
Y019238D01*
X046208Y019246D01*
X046309Y019288D01*
X046396Y019354D01*
X046462Y019441D01*
X046504Y019542D01*
X046512Y0196D01*
D02*
G37*
G36*
X04905D02*
X048688D01*
X048696Y019542D01*
X048738Y019441D01*
X048804Y019354D01*
X048891Y019288D01*
X048992Y019246D01*
X04905Y019238D01*
Y0196D01*
D02*
G37*
G36*
X04805D02*
X047688D01*
X047696Y019542D01*
X047738Y019441D01*
X047804Y019354D01*
X047891Y019288D01*
X047992Y019246D01*
X04805Y019238D01*
Y0196D01*
D02*
G37*
G36*
X04705D02*
X046688D01*
X046696Y019542D01*
X046738Y019441D01*
X046804Y019354D01*
X046891Y019288D01*
X046992Y019246D01*
X04705Y019238D01*
Y0196D01*
D02*
G37*
G36*
X04605D02*
X045688D01*
X045696Y019542D01*
X045738Y019441D01*
X045804Y019354D01*
X045891Y019288D01*
X045992Y019246D01*
X04605Y019238D01*
Y0196D01*
D02*
G37*
G36*
X0501Y020069D02*
X049992Y020054D01*
X049891Y020012D01*
X049804Y019946D01*
X049738Y019859D01*
X049696Y019758D01*
X049681Y01965D01*
X049696Y019542D01*
X049738Y019441D01*
X049804Y019354D01*
X049891Y019288D01*
X049992Y019246D01*
X0501Y019231D01*
X050208Y019246D01*
X050309Y019288D01*
X050396Y019354D01*
X050462Y019441D01*
X050504Y019542D01*
X050519Y01965D01*
X050504Y019758D01*
X050462Y019859D01*
X050396Y019946D01*
X050309Y020012D01*
X050208Y020054D01*
X0501Y020069D01*
D02*
G37*
G36*
X037372Y01955D02*
X03705D01*
Y019228D01*
X037098Y019234D01*
X037189Y019272D01*
X037268Y019332D01*
X037328Y019411D01*
X037366Y019502D01*
X037372Y01955D01*
D02*
G37*
G36*
X03695D02*
X036628D01*
X036634Y019502D01*
X036672Y019411D01*
X036732Y019332D01*
X036811Y019272D01*
X036902Y019234D01*
X03695Y019228D01*
Y01955D01*
D02*
G37*
G36*
X036372D02*
X03605D01*
Y019228D01*
X036098Y019234D01*
X036189Y019272D01*
X036268Y019332D01*
X036328Y019411D01*
X036366Y019502D01*
X036372Y01955D01*
D02*
G37*
G36*
X03595D02*
X035628D01*
X035634Y019502D01*
X035672Y019411D01*
X035732Y019332D01*
X035811Y019272D01*
X035902Y019234D01*
X03595Y019228D01*
Y01955D01*
D02*
G37*
G36*
X04Y019979D02*
X039902Y019966D01*
X039811Y019928D01*
X039732Y019868D01*
X039672Y019789D01*
X039634Y019698D01*
X039621Y0196D01*
X039634Y019502D01*
X039672Y019411D01*
X039732Y019332D01*
X039811Y019272D01*
X039902Y019234D01*
X04Y019221D01*
X040098Y019234D01*
X040189Y019272D01*
X040268Y019332D01*
X040328Y019411D01*
X040366Y019502D01*
X040379Y0196D01*
X040366Y019698D01*
X040328Y019789D01*
X040268Y019868D01*
X040189Y019928D01*
X040098Y019966D01*
X04Y019979D01*
D02*
G37*
G36*
X039D02*
X038902Y019966D01*
X038811Y019928D01*
X038732Y019868D01*
X038672Y019789D01*
X038634Y019698D01*
X038621Y0196D01*
X038634Y019502D01*
X038672Y019411D01*
X038732Y019332D01*
X038811Y019272D01*
X038902Y019234D01*
X039Y019221D01*
X039098Y019234D01*
X039189Y019272D01*
X039268Y019332D01*
X039328Y019411D01*
X039366Y019502D01*
X039379Y0196D01*
X039366Y019698D01*
X039328Y019789D01*
X039268Y019868D01*
X039189Y019928D01*
X039098Y019966D01*
X039Y019979D01*
D02*
G37*
G36*
X038D02*
X037902Y019966D01*
X037811Y019928D01*
X037732Y019868D01*
X037672Y019789D01*
X037634Y019698D01*
X037621Y0196D01*
X037634Y019502D01*
X037672Y019411D01*
X037732Y019332D01*
X037811Y019272D01*
X037902Y019234D01*
X038Y019221D01*
X038098Y019234D01*
X038189Y019272D01*
X038268Y019332D01*
X038328Y019411D01*
X038366Y019502D01*
X038379Y0196D01*
X038366Y019698D01*
X038328Y019789D01*
X038268Y019868D01*
X038189Y019928D01*
X038098Y019966D01*
X038Y019979D01*
D02*
G37*
%LPD*%
G36*
X047815Y033381D02*
X047795Y033361D01*
X047777Y03334D01*
X047762Y03332D01*
X047748Y033299D01*
X047736Y033279D01*
X047727Y033259D01*
X047719Y033239D01*
X047714Y033219D01*
X047711Y033199D01*
X04771Y03318D01*
X04759D01*
X047589Y033199D01*
X047586Y033219D01*
X047581Y033239D01*
X047573Y033259D01*
X047564Y033279D01*
X047552Y0333D01*
X047538Y03332D01*
X047523Y03334D01*
X047505Y033361D01*
X047485Y033381D01*
X047815Y033381D01*
D02*
G37*
G36*
X048848Y033313D02*
X048833Y033295D01*
X048819Y033276D01*
X048808Y033257D01*
X048798Y033238D01*
X048789Y033218D01*
X048783Y033198D01*
X048779Y033177D01*
X048776Y033156D01*
X048775Y033134D01*
X048625D01*
X048624Y033156D01*
X048621Y033177D01*
X048617Y033198D01*
X048611Y033218D01*
X048602Y033238D01*
X048592Y033257D01*
X048581Y033276D01*
X048567Y033295D01*
X048552Y033313D01*
X048535Y033331D01*
X048865D01*
X048848Y033313D01*
D02*
G37*
G36*
X048248Y032493D02*
X048233Y032475D01*
X048219Y032456D01*
X048208Y032437D01*
X048198Y032417D01*
X048189Y032397D01*
X048183Y032377D01*
X048179Y032356D01*
X048176Y032335D01*
X048175Y032314D01*
X048025D01*
X048024Y032335D01*
X048021Y032356D01*
X048017Y032377D01*
X048011Y032397D01*
X048002Y032417D01*
X047992Y032437D01*
X047981Y032456D01*
X047967Y032475D01*
X047952Y032493D01*
X047935Y032511D01*
X048265D01*
X048248Y032493D01*
D02*
G37*
G36*
X047345Y031911D02*
X047327Y03189D01*
X047312Y03187D01*
X047298Y03185D01*
X047286Y031829D01*
X047277Y031809D01*
X047269Y031789D01*
X047264Y031769D01*
X047261Y031749D01*
X04726Y03173D01*
X04714D01*
X047139Y031749D01*
X047136Y031769D01*
X047131Y031789D01*
X047123Y031809D01*
X047114Y031829D01*
X047102Y03185D01*
X047088Y03187D01*
X047073Y03189D01*
X047055Y031911D01*
X047035Y031931D01*
X047365D01*
X047345Y031911D01*
D02*
G37*
G36*
X048776Y030733D02*
X048779Y030712D01*
X048783Y030692D01*
X04879Y030672D01*
X048798Y030652D01*
X048808Y030633D01*
X04882Y030614D01*
X048834Y030595D01*
X04885Y030578D01*
X048867Y03056D01*
X048536Y030552D01*
X048553Y03057D01*
X048568Y030589D01*
X048582Y030608D01*
X048593Y030628D01*
X048603Y030647D01*
X048611Y030667D01*
X048617Y030688D01*
X048621Y030709D01*
X048624Y03073D01*
X048625Y030751D01*
X048775Y030755D01*
X048776Y030733D01*
D02*
G37*
G36*
X048175Y030736D02*
X048176Y030715D01*
X048178Y030695D01*
X048182Y030674D01*
X048187Y030653D01*
X048193Y030632D01*
X048201Y03061D01*
X04821Y030589D01*
X048234Y030545D01*
X048247Y030524D01*
X047924Y030594D01*
X047943Y030607D01*
X04796Y030621D01*
X047976Y030636D01*
X047989Y030652D01*
X048Y03067D01*
X048009Y030688D01*
X048016Y030707D01*
X048021Y030727D01*
X048024Y030748D01*
X048025Y03077D01*
X048175Y030736D01*
D02*
G37*
G36*
X044145Y029511D02*
X044127Y02949D01*
X044112Y02947D01*
X044098Y02945D01*
X044086Y029429D01*
X044077Y029409D01*
X044069Y029389D01*
X044064Y029369D01*
X044061Y029349D01*
X04406Y02933D01*
X04394D01*
X043939Y029349D01*
X043936Y029369D01*
X043931Y029389D01*
X043923Y029409D01*
X043914Y029429D01*
X043902Y02945D01*
X043888Y02947D01*
X043873Y02949D01*
X043855Y029511D01*
X043835Y029531D01*
X044165D01*
X044145Y029511D01*
D02*
G37*
G36*
X044523Y029421D02*
X044526Y029401D01*
X044531Y029381D01*
X044538Y029361D01*
X044548Y029341D01*
X04456Y029321D01*
X044573Y029301D01*
X044589Y02928D01*
X044607Y02926D01*
X044627Y029239D01*
X044296D01*
X044316Y02926D01*
X044334Y02928D01*
X04435Y029301D01*
X044364Y029321D01*
X044375Y029341D01*
X044385Y029361D01*
X044392Y029381D01*
X044397Y029401D01*
X044401Y029421D01*
X044402Y029441D01*
X044522D01*
X044523Y029421D01*
D02*
G37*
G36*
X047711Y028859D02*
X047714Y028839D01*
X047719Y028819D01*
X047727Y028799D01*
X047736Y028779D01*
X047748Y028759D01*
X047762Y028739D01*
X047777Y028718D01*
X047795Y028698D01*
X047815Y028677D01*
X047485D01*
X047505Y028698D01*
X047523Y028718D01*
X047538Y028739D01*
X047552Y028759D01*
X047564Y028779D01*
X047573Y028799D01*
X047581Y028819D01*
X047586Y028839D01*
X047589Y028859D01*
X04759Y028879D01*
X04771D01*
X047711Y028859D01*
D02*
G37*
G36*
X045818Y028343D02*
X045797Y028363D01*
X045777Y028381D01*
X045756Y028397D01*
X045736Y028411D01*
X045716Y028422D01*
X045696Y028432D01*
X045676Y028439D01*
X045656Y028444D01*
X045636Y028448D01*
X045616Y028449D01*
Y028569D01*
X045636Y02857D01*
X045656Y028573D01*
X045676Y028578D01*
X045696Y028585D01*
X045716Y028595D01*
X045736Y028607D01*
X045756Y02862D01*
X045777Y028636D01*
X045797Y028654D01*
X045818Y028674D01*
Y028343D01*
D02*
G37*
G36*
X04083Y028529D02*
X040791Y028456D01*
X040782Y028434D01*
X040774Y028412D01*
X040768Y028391D01*
X040763Y028371D01*
X040761Y028352D01*
X04076Y028334D01*
X04064Y028307D01*
X040639Y028327D01*
X040635Y028347D01*
X04063Y028367D01*
X040621Y028385D01*
X040611Y028403D01*
X040598Y028421D01*
X040583Y028438D01*
X040566Y028454D01*
X040546Y028469D01*
X040524Y028484D01*
X040847Y028556D01*
X04083Y028529D01*
D02*
G37*
G36*
X046842Y028319D02*
X046824Y028299D01*
X046808Y028278D01*
X046794Y028258D01*
X046783Y028238D01*
X046773Y028218D01*
X046766Y028198D01*
X046761Y028178D01*
X046757Y028158D01*
X046756Y028138D01*
X046636D01*
X046635Y028158D01*
X046632Y028178D01*
X046627Y028198D01*
X046619Y028218D01*
X04661Y028238D01*
X046598Y028258D01*
X046585Y028278D01*
X046569Y028299D01*
X046551Y028319D01*
X046531Y02834D01*
X046862D01*
X046842Y028319D01*
D02*
G37*
G36*
X041873Y026885D02*
X041891Y02687D01*
X04191Y026856D01*
X041929Y026844D01*
X041948Y026834D01*
X041968Y026826D01*
X041988Y02682D01*
X042009Y026815D01*
X04203Y026813D01*
X042052Y026812D01*
X042051Y026662D01*
X04203Y026661D01*
X042009Y026658D01*
X041988Y026654D01*
X041968Y026647D01*
X041948Y026639D01*
X041928Y026629D01*
X041909Y026618D01*
X04189Y026604D01*
X041872Y026589D01*
X041854Y026572D01*
X041855Y026902D01*
X041873Y026885D01*
D02*
G37*
G36*
X048077Y026571D02*
X04806Y026588D01*
X048041Y026604D01*
X048023Y026617D01*
X048004Y026629D01*
X047984Y026639D01*
X047964Y026647D01*
X047944Y026654D01*
X047923Y026658D01*
X047902Y026661D01*
X047881Y026662D01*
X047881Y026812D01*
X047902Y026813D01*
X047924Y026815D01*
X047944Y02682D01*
X047965Y026826D01*
X047984Y026834D01*
X048004Y026844D01*
X048023Y026856D01*
X048042Y02687D01*
X04806Y026885D01*
X048078Y026902D01*
X048077Y026571D01*
D02*
G37*
G36*
X046494Y026508D02*
X04647Y02649D01*
X046466Y026485D01*
X046455Y026474D01*
X046442Y026463D01*
X04643Y026454D01*
X046417Y026447D01*
X046405Y02644D01*
X046393Y026435D01*
X046381Y026432D01*
X046369Y026429D01*
X046364Y026428D01*
X041917D01*
X0419Y026478D01*
X041925Y026498D01*
X041929Y026503D01*
X04194Y026513D01*
X041953Y026524D01*
X041966Y026533D01*
X041978Y02654D01*
X04199Y026546D01*
X042002Y026551D01*
X042014Y026555D01*
X042026Y026558D01*
X042032Y026558D01*
X046477D01*
X046494Y026508D01*
D02*
G37*
G36*
X046541Y026085D02*
X046523Y026102D01*
X046505Y026117D01*
X046486Y026131D01*
X046467Y026142D01*
X046448Y026152D01*
X046428Y026161D01*
X046407Y026167D01*
X046387Y026171D01*
X046366Y026174D01*
X046344Y026175D01*
Y026325D01*
X046366Y026326D01*
X046387Y026329D01*
X046407Y026333D01*
X046428Y026339D01*
X046448Y026348D01*
X046467Y026358D01*
X046486Y026369D01*
X046505Y026383D01*
X046523Y026398D01*
X046541Y026415D01*
Y026085D01*
D02*
G37*
G36*
X041034Y026378D02*
X041079Y026357D01*
X041101Y026348D01*
X041144Y026335D01*
X041165Y026331D01*
X041186Y026328D01*
X041206Y026326D01*
X041226Y026325D01*
X041272Y026175D01*
X04125Y026174D01*
X041229Y026171D01*
X041209Y026166D01*
X04119Y026159D01*
X041173Y026149D01*
X041156Y026138D01*
X041141Y026125D01*
X041127Y026109D01*
X041114Y026092D01*
X041102Y026072D01*
X041011Y02639D01*
X041034Y026378D01*
D02*
G37*
G36*
X041141Y025657D02*
X041155Y02564D01*
X04117Y025624D01*
X041186Y025611D01*
X041204Y0256D01*
X041222Y025591D01*
X041241Y025584D01*
X041261Y025579D01*
X041282Y025576D01*
X041304Y025575D01*
X04127Y025425D01*
X041249Y025424D01*
X041229Y025422D01*
X041208Y025418D01*
X041187Y025413D01*
X041166Y025407D01*
X041144Y025399D01*
X041123Y02539D01*
X04108Y025366D01*
X041058Y025353D01*
X041128Y025676D01*
X041141Y025657D01*
D02*
G37*
G36*
X046541Y025335D02*
X046523Y025352D01*
X046505Y025367D01*
X046486Y025381D01*
X046467Y025392D01*
X046448Y025402D01*
X046428Y025411D01*
X046407Y025417D01*
X046387Y025421D01*
X046366Y025424D01*
X046344Y025425D01*
Y025575D01*
X046366Y025576D01*
X046387Y025579D01*
X046407Y025583D01*
X046428Y025589D01*
X046448Y025598D01*
X046467Y025608D01*
X046486Y025619D01*
X046505Y025633D01*
X046523Y025648D01*
X046541Y025665D01*
Y025335D01*
D02*
G37*
G36*
X051131Y031353D02*
X051113Y031371D01*
X051095Y031386D01*
X051076Y0314D01*
X051057Y031411D01*
X051038Y031421D01*
X051018Y031429D01*
X050998Y031436D01*
X050977Y03144D01*
X050956Y031443D01*
X050934Y031444D01*
Y031594D01*
X050956Y031595D01*
X050977Y031597D01*
X050998Y031602D01*
X051018Y031608D01*
X051038Y031616D01*
X051057Y031626D01*
X051076Y031638D01*
X051095Y031652D01*
X051113Y031667D01*
X051131Y031684D01*
Y031353D01*
D02*
G37*
G36*
X050402Y031667D02*
X050421Y031652D01*
X050439Y031638D01*
X050458Y031626D01*
X050478Y031616D01*
X050498Y031608D01*
X050518Y031602D01*
X050539Y031597D01*
X05056Y031595D01*
X050581Y031594D01*
Y031444D01*
X05056Y031443D01*
X050539Y03144D01*
X050518Y031436D01*
X050498Y031429D01*
X050478Y031421D01*
X050458Y031411D01*
X050439Y0314D01*
X050421Y031386D01*
X050402Y031371D01*
X050384Y031353D01*
Y031684D01*
X050402Y031667D01*
D02*
G37*
G36*
X045092Y031414D02*
X045083Y031427D01*
X045072Y031439D01*
X04506Y03145D01*
X045047Y031459D01*
X045032Y031466D01*
X045017Y031472D01*
X045Y031477D01*
X044983Y031481D01*
X044964Y031483D01*
X044943Y031483D01*
Y031603D01*
X044964Y031604D01*
X044983Y031606D01*
X045Y03161D01*
X045017Y031614D01*
X045032Y031621D01*
X045047Y031628D01*
X04506Y031637D01*
X045072Y031647D01*
X045083Y031659D01*
X045092Y031672D01*
Y031414D01*
D02*
G37*
G36*
X043154Y031263D02*
X043102Y031203D01*
X043081Y031175D01*
X043064Y031147D01*
X043049Y03112D01*
X043038Y031094D01*
X04303Y031069D01*
X043025Y031044D01*
X043024Y031021D01*
X042904D01*
X042902Y031044D01*
X042897Y031069D01*
X042889Y031094D01*
X042878Y03112D01*
X042863Y031147D01*
X042846Y031175D01*
X042825Y031203D01*
X042801Y031233D01*
X042743Y031294D01*
X043184D01*
X043154Y031263D01*
D02*
G37*
G36*
X051911Y02685D02*
X051894Y026867D01*
X051875Y026883D01*
X051856Y026896D01*
X051837Y026908D01*
X051818Y026918D01*
X051798Y026926D01*
X051778Y026932D01*
X051757Y026937D01*
X051736Y026939D01*
X051714Y02694D01*
Y02709D01*
X051736Y027091D01*
X051757Y027094D01*
X051778Y027099D01*
X051798Y027105D01*
X051818Y027113D01*
X051837Y027123D01*
X051856Y027135D01*
X051875Y027148D01*
X051894Y027164D01*
X051911Y027181D01*
Y02685D01*
D02*
G37*
G36*
X05099Y027143D02*
X051035Y027122D01*
X051057Y027114D01*
X0511Y027101D01*
X051121Y027096D01*
X051141Y027093D01*
X051162Y027091D01*
X051182Y02709D01*
X051228Y02694D01*
X051205Y026939D01*
X051184Y026936D01*
X051164Y026931D01*
X051146Y026924D01*
X051128Y026915D01*
X051112Y026903D01*
X051096Y02689D01*
X051082Y026875D01*
X051069Y026857D01*
X051058Y026838D01*
X050967Y027156D01*
X05099Y027143D01*
D02*
G37*
G36*
X050431Y022885D02*
X050413Y022902D01*
X050395Y022917D01*
X050376Y022931D01*
X050357Y022942D01*
X050338Y022952D01*
X050318Y022961D01*
X050298Y022967D01*
X050277Y022971D01*
X050256Y022974D01*
X050234Y022975D01*
Y023125D01*
X050256Y023126D01*
X050277Y023129D01*
X050298Y023133D01*
X050318Y023139D01*
X050338Y023148D01*
X050357Y023158D01*
X050376Y023169D01*
X050395Y023183D01*
X050413Y023198D01*
X050431Y023215D01*
Y022885D01*
D02*
G37*
G36*
X049687Y023198D02*
X049705Y023183D01*
X049724Y023169D01*
X049743Y023158D01*
X049762Y023148D01*
X049782Y023139D01*
X049802Y023133D01*
X049823Y023129D01*
X049844Y023126D01*
X049866Y023125D01*
Y022975D01*
X049844Y022974D01*
X049823Y022971D01*
X049802Y022967D01*
X049782Y022961D01*
X049762Y022952D01*
X049743Y022942D01*
X049724Y022931D01*
X049705Y022917D01*
X049687Y022902D01*
X049669Y022885D01*
Y023215D01*
X049687Y023198D01*
D02*
G37*
G36*
X044331Y021884D02*
X044313Y021901D01*
X044295Y021916D01*
X044276Y02193D01*
X044257Y021942D01*
X044238Y021952D01*
X044218Y02196D01*
X044198Y021966D01*
X044177Y021971D01*
X044156Y021973D01*
X044134Y021974D01*
Y022124D01*
X044156Y022125D01*
X044177Y022128D01*
X044198Y022132D01*
X044218Y022139D01*
X044238Y022147D01*
X044257Y022157D01*
X044276Y022168D01*
X044295Y022182D01*
X044313Y022197D01*
X044331Y022215D01*
Y021884D01*
D02*
G37*
G36*
X050176Y021085D02*
X050178Y021059D01*
X050182Y021037D01*
X050187Y021017D01*
X050194Y021D01*
X050202Y020987D01*
X050212Y020976D01*
X050223Y020969D01*
X050236Y020964D01*
X05025Y020963D01*
X04995D01*
X049964Y020964D01*
X049977Y020969D01*
X049988Y020976D01*
X049998Y020987D01*
X050006Y021D01*
X050013Y021017D01*
X050018Y021037D01*
X050022Y021059D01*
X050024Y021085D01*
X050025Y021114D01*
X050175D01*
X050176Y021085D01*
D02*
G37*
G36*
X045326Y021113D02*
X045311Y021095D01*
X045297Y021076D01*
X045285Y021057D01*
X045275Y021038D01*
X045267Y021018D01*
X045261Y020998D01*
X045256Y020977D01*
X045254Y020956D01*
X045253Y020934D01*
X045103D01*
X045102Y020956D01*
X045099Y020977D01*
X045095Y020998D01*
X045088Y021018D01*
X04508Y021038D01*
X04507Y021057D01*
X045059Y021076D01*
X045045Y021095D01*
X04503Y021113D01*
X045012Y021131D01*
X045343D01*
X045326Y021113D01*
D02*
G37*
G36*
X042576Y021007D02*
X04258Y020983D01*
X042586Y02096D01*
X042594Y020936D01*
X042604Y020913D01*
X042617Y02089D01*
X042633Y020866D01*
X04265Y020843D01*
X042671Y02082D01*
X042693Y020797D01*
X042307D01*
X042329Y02082D01*
X04235Y020843D01*
X042367Y020866D01*
X042383Y02089D01*
X042396Y020913D01*
X042406Y020936D01*
X042414Y02096D01*
X04242Y020983D01*
X042424Y021007D01*
X042425Y021031D01*
X042575D01*
X042576Y021007D01*
D02*
G37*
G36*
X041576D02*
X04158Y020983D01*
X041586Y02096D01*
X041594Y020936D01*
X041604Y020913D01*
X041617Y02089D01*
X041633Y020866D01*
X04165Y020843D01*
X041671Y02082D01*
X041693Y020797D01*
X041307D01*
X041329Y02082D01*
X04135Y020843D01*
X041367Y020866D01*
X041383Y02089D01*
X041396Y020913D01*
X041406Y020936D01*
X041414Y02096D01*
X04142Y020983D01*
X041424Y021007D01*
X041425Y021031D01*
X041575D01*
X041576Y021007D01*
D02*
G37*
G36*
X046097Y020335D02*
X046057Y020335D01*
X045985Y020328D01*
X045952Y020322D01*
X045922Y020314D01*
X045893Y020304D01*
X045867Y020293D01*
X045844Y020279D01*
X045822Y020264D01*
X045803Y020247D01*
X045697Y020353D01*
X045714Y020372D01*
X045729Y020394D01*
X045743Y020417D01*
X045754Y020443D01*
X045764Y020472D01*
X045772Y020502D01*
X045778Y020535D01*
X045782Y02057D01*
X045785Y020607D01*
X045785Y020647D01*
X046097Y020335D01*
D02*
G37*
G36*
X042357Y019851D02*
X042342Y019834D01*
X042327Y019815D01*
X042315Y019794D01*
X042304Y019772D01*
X042295Y019747D01*
X042288Y019722D01*
X042282Y019694D01*
X042278Y019666D01*
X042276Y019635D01*
X042276Y019603D01*
X042003Y019876D01*
X042035Y019876D01*
X042066Y019878D01*
X042094Y019882D01*
X042122Y019888D01*
X042147Y019895D01*
X042172Y019904D01*
X042194Y019915D01*
X042215Y019927D01*
X042234Y019942D01*
X042251Y019957D01*
X042357Y019851D01*
D02*
G37*
G36*
X041276Y019565D02*
X041278Y019534D01*
X041282Y019506D01*
X041288Y019478D01*
X041295Y019453D01*
X041304Y019428D01*
X041315Y019406D01*
X041327Y019385D01*
X041342Y019366D01*
X041357Y019349D01*
X041251Y019243D01*
X041234Y019258D01*
X041215Y019273D01*
X041194Y019285D01*
X041172Y019296D01*
X041147Y019305D01*
X041122Y019312D01*
X041094Y019318D01*
X041066Y019322D01*
X041035Y019324D01*
X041003Y019324D01*
X041276Y019597D01*
X041276Y019565D01*
D02*
G37*
D65*
X050216Y031519D02*
X0513D01*
X050915Y027015D02*
X05208D01*
X05085Y026951D02*
X050915Y027015D01*
X04096Y02625D02*
X046794D01*
X040895Y026185D02*
X04096Y02625D01*
X040978Y0255D02*
X04671D01*
X041686Y026737D02*
X041686Y026737D01*
X048246D01*
X040928Y02555D02*
X040978Y0255D01*
X048246Y026737D02*
X048246Y026736D01*
X0481Y030444D02*
Y032679D01*
X04805Y030394D02*
X0481Y030444D01*
X0487Y030393D02*
Y0335D01*
Y030393D02*
X048706Y030387D01*
X0495Y02305D02*
X0506D01*
X044599Y019149D02*
X0461Y02065D01*
X041451Y019149D02*
X044599D01*
X0501Y02065D02*
Y0218D01*
X04935Y02255D02*
X0501Y0218D01*
X042724Y02255D02*
X04935D01*
X0415Y021326D02*
X042724Y02255D01*
X0415Y0206D02*
Y021326D01*
X043375Y022049D02*
X0445D01*
X0425Y021174D02*
X043375Y022049D01*
X0425Y0206D02*
Y021174D01*
X045178Y020335D02*
Y0213D01*
X044943Y0201D02*
X045178Y020335D01*
X0425Y0201D02*
X044943D01*
X042Y0196D02*
X0425Y0201D01*
X041Y0196D02*
X041451Y019149D01*
D66*
X0407Y027792D02*
Y028633D01*
X040649Y028684D02*
X0407Y028633D01*
Y027792D02*
X041279Y027214D01*
X046114D01*
X046696Y027796D01*
Y028509D01*
X044176D02*
X045987D01*
X044Y028684D02*
X044176Y028509D01*
X044Y028684D02*
Y0297D01*
X044462Y029071D02*
Y030062D01*
X04495Y03055D02*
X04655D01*
X044462Y030062D02*
X04495Y03055D01*
X04655D02*
X0472Y0312D01*
Y0321D01*
X044943Y031543D02*
X04529D01*
X043988Y030588D02*
X044943Y031543D01*
X043312Y030588D02*
X043988D01*
X042964Y030936D02*
X043312Y030588D01*
X042964Y030936D02*
Y031519D01*
X04765Y028592D02*
Y03355D01*
X04765Y03355D01*
D67*
X034385Y029988D02*
D03*
D68*
Y030988D02*
D03*
Y031988D02*
D03*
D69*
X03175Y0341D02*
D03*
X029588Y029988D02*
D03*
D70*
X03175Y0331D02*
D03*
X029588Y031488D02*
D03*
D71*
X03008Y027331D02*
D03*
X0301Y025831D02*
D03*
X03218Y022376D02*
D03*
X0322Y020876D02*
D03*
D72*
X036Y0196D02*
D03*
X037D02*
D03*
X038D02*
D03*
X039D02*
D03*
X04D02*
D03*
X041D02*
D03*
X042D02*
D03*
X043D02*
D03*
X044D02*
D03*
X0445Y0206D02*
D03*
X0435D02*
D03*
X0425D02*
D03*
X0415D02*
D03*
X0405D02*
D03*
X0395D02*
D03*
X0385D02*
D03*
X0375D02*
D03*
X0365D02*
D03*
D73*
X036Y03495D02*
D03*
X0345D02*
D03*
D74*
X0501Y02065D02*
D03*
D75*
X0491D02*
D03*
X0481D02*
D03*
X0471D02*
D03*
X0461D02*
D03*
Y01965D02*
D03*
X0471D02*
D03*
X0481D02*
D03*
X0491D02*
D03*
X0501D02*
D03*
X040964Y031519D02*
D03*
X041964D02*
D03*
X042964D02*
D03*
X043964D02*
D03*
X034385Y022049D02*
D03*
Y023624D02*
D03*
Y025199D02*
D03*
Y026774D02*
D03*
D76*
X052493Y032906D02*
D03*
X051686D02*
D03*
X052493Y033724D02*
D03*
X051686D02*
D03*
D77*
X048683Y035246D02*
D03*
X047473Y0241D02*
D03*
X05222Y024263D02*
D03*
X049255Y02732D02*
D03*
X0513Y031519D02*
D03*
X050216D02*
D03*
X040649Y028684D02*
D03*
X05208Y027015D02*
D03*
X04671Y02625D02*
D03*
X0472Y0321D02*
D03*
X04529Y031543D02*
D03*
X044462Y029071D02*
D03*
X044Y0297D02*
D03*
X04765Y028509D02*
D03*
X045987D02*
D03*
X046696D02*
D03*
X04765Y03355D02*
D03*
X040895Y026185D02*
D03*
X04671Y0255D02*
D03*
X041686Y026737D02*
D03*
X048246Y026736D02*
D03*
X040928Y02555D02*
D03*
X0481Y032679D02*
D03*
X0487Y0335D02*
D03*
X048706Y030387D02*
D03*
X04805Y030394D02*
D03*
X05085Y026951D02*
D03*
X0506Y02305D02*
D03*
X0495D02*
D03*
X0445Y022049D02*
D03*
X045178Y0213D02*
D03*
D78*
X02925Y0341D02*
D03*
Y02345D02*
D03*
X05208Y022104D02*
D03*
X052059Y035516D02*
D03*
D79*
X04265Y0288D02*
D03*
M02*
