G04*
G04 #@! TF.GenerationSoftware,Altium Limited,Altium Designer,18.1.6 (161)*
G04*
G04 Layer_Color=16711935*
%FSTAX24Y24*%
%MOIN*%
G70*
G01*
G75*
%ADD51R,0.1080X0.0880*%
%ADD52O,0.1080X0.0880*%
%ADD53R,0.1080X0.0780*%
%ADD54O,0.1080X0.0780*%
%ADD55C,0.1064*%
%ADD56C,0.0631*%
%ADD57C,0.0830*%
%ADD58R,0.0710X0.0710*%
%ADD59C,0.0710*%
%ADD60C,0.0580*%
%ADD61C,0.0552*%
%ADD62C,0.1497*%
%ADD63C,0.2442*%
D51*
X034385Y029988D02*
D03*
D52*
Y030988D02*
D03*
Y031988D02*
D03*
D53*
X03175Y0341D02*
D03*
X029588Y029988D02*
D03*
D54*
X03175Y0331D02*
D03*
X029588Y031488D02*
D03*
D55*
X03008Y027331D02*
D03*
X0301Y025831D02*
D03*
X03218Y022376D02*
D03*
X0322Y020876D02*
D03*
D56*
X036Y0196D02*
D03*
X037D02*
D03*
X038D02*
D03*
X039D02*
D03*
X04D02*
D03*
X041D02*
D03*
X042D02*
D03*
X043D02*
D03*
X044D02*
D03*
X0445Y0206D02*
D03*
X0435D02*
D03*
X0425D02*
D03*
X0415D02*
D03*
X0405D02*
D03*
X0395D02*
D03*
X0385D02*
D03*
X0375D02*
D03*
X0365D02*
D03*
D57*
X036Y03495D02*
D03*
X0345D02*
D03*
D58*
X0501Y02065D02*
D03*
D59*
X0491D02*
D03*
X0481D02*
D03*
X0471D02*
D03*
X0461D02*
D03*
Y01965D02*
D03*
X0471D02*
D03*
X0481D02*
D03*
X0491D02*
D03*
X0501D02*
D03*
X040964Y031519D02*
D03*
X041964D02*
D03*
X042964D02*
D03*
X043964D02*
D03*
X034385Y022049D02*
D03*
Y023624D02*
D03*
Y025199D02*
D03*
Y026774D02*
D03*
D60*
X052493Y032906D02*
D03*
X051686D02*
D03*
X052493Y033724D02*
D03*
X051686D02*
D03*
D61*
X048683Y035246D02*
D03*
X047473Y0241D02*
D03*
X05222Y024263D02*
D03*
X049255Y02732D02*
D03*
X0513Y031519D02*
D03*
X050216D02*
D03*
X040649Y028684D02*
D03*
X05208Y027015D02*
D03*
X04671Y02625D02*
D03*
X0472Y0321D02*
D03*
X04529Y031543D02*
D03*
X044462Y029071D02*
D03*
X044Y0297D02*
D03*
X04765Y028509D02*
D03*
X045987D02*
D03*
X046696D02*
D03*
X04765Y03355D02*
D03*
X040895Y026185D02*
D03*
X04671Y0255D02*
D03*
X041686Y026737D02*
D03*
X048246Y026736D02*
D03*
X040928Y02555D02*
D03*
X0481Y032679D02*
D03*
X0487Y0335D02*
D03*
X048706Y030387D02*
D03*
X04805Y030394D02*
D03*
X05085Y026951D02*
D03*
X0506Y02305D02*
D03*
X0495D02*
D03*
X0445Y022049D02*
D03*
X045178Y0213D02*
D03*
D62*
X02925Y0341D02*
D03*
Y02345D02*
D03*
X05208Y022104D02*
D03*
X052059Y035516D02*
D03*
D63*
X04265Y0288D02*
D03*
M02*
