G04*
G04 #@! TF.GenerationSoftware,Altium Limited,Altium Designer,18.1.6 (161)*
G04*
G04 Layer_Physical_Order=1*
G04 Layer_Color=255*
%FSTAX24Y24*%
%MOIN*%
G70*
G01*
G75*
%ADD21R,0.0394X0.0550*%
%ADD22O,0.0177X0.0512*%
%ADD23O,0.0512X0.0177*%
%ADD24R,0.0433X0.0550*%
%ADD25R,0.0550X0.0394*%
%ADD26R,0.0400X0.0500*%
%ADD27R,0.1299X0.0709*%
%ADD28R,0.0906X0.0900*%
%ADD29R,0.0600X0.0600*%
%ADD30R,0.0550X0.0433*%
%ADD31R,0.0472X0.1575*%
%ADD32R,0.0550X0.0500*%
%ADD33R,0.0472X0.0472*%
%ADD34O,0.0236X0.0709*%
%ADD35R,0.0600X0.0650*%
%ADD64C,0.0200*%
%ADD65C,0.0150*%
%ADD66C,0.0120*%
%ADD67R,0.1000X0.0800*%
%ADD68O,0.1000X0.0800*%
%ADD69R,0.1000X0.0700*%
%ADD70O,0.1000X0.0700*%
%ADD71C,0.0984*%
%ADD72C,0.0551*%
%ADD73C,0.0750*%
%ADD74R,0.0630X0.0630*%
%ADD75C,0.0630*%
%ADD76C,0.0500*%
%ADD77C,0.0472*%
%ADD78C,0.1417*%
%ADD79C,0.2362*%
G36*
X05255Y0384D02*
X05275Y037944D01*
X05315Y03745D01*
X0534Y03725D01*
X054Y036843D01*
X0545Y03665D01*
Y020965D01*
X05425Y020876D01*
X053713Y02065D01*
X053356Y020335D01*
X05285Y0198D01*
X052653Y019335D01*
X0525Y01905D01*
Y01895D01*
X052456Y01885D01*
X03205D01*
X032Y0189D01*
X031688Y0195D01*
X0313Y02005D01*
X0309Y02045D01*
X03035Y0209D01*
X02985Y0212D01*
X029438Y021368D01*
X02855Y02165D01*
X0277Y021734D01*
X02765Y02175D01*
Y0358D01*
X0277Y0359D01*
X0279Y03595D01*
X029088Y036117D01*
X03025Y03665D01*
X03085Y0371D01*
X031342Y037647D01*
X0316Y038014D01*
X0319Y038486D01*
X032Y0386D01*
X03205Y03865D01*
X052475D01*
X05255Y0384D01*
D02*
G37*
%LPC*%
G36*
X041836Y038586D02*
X041164D01*
Y038464D01*
X041161Y038463D01*
X041146Y038459D01*
X041125Y038455D01*
X04111Y038454D01*
X04089D01*
X040875Y038455D01*
X040854Y038459D01*
X040839Y038463D01*
X040836Y038464D01*
Y038586D01*
X040164D01*
Y038464D01*
X040161Y038463D01*
X040146Y038459D01*
X040125Y038455D01*
X04011Y038454D01*
X03989D01*
X039875Y038455D01*
X039854Y038459D01*
X039839Y038463D01*
X039836Y038464D01*
Y038586D01*
X039164D01*
Y038464D01*
X039161Y038463D01*
X039146Y038459D01*
X039125Y038455D01*
X03911Y038454D01*
X03889D01*
X038875Y038455D01*
X038854Y038459D01*
X038839Y038463D01*
X038836Y038464D01*
Y038586D01*
X038164D01*
Y038464D01*
X038161Y038463D01*
X038146Y038459D01*
X038125Y038455D01*
X03811Y038454D01*
X036414D01*
X036336Y038438D01*
X03627Y038394D01*
X035906Y03803D01*
X035862Y037964D01*
X035846Y037886D01*
Y037801D01*
X035845Y037786D01*
X035841Y037765D01*
X035837Y037749D01*
X035836Y037747D01*
X035675D01*
Y037153D01*
X036425D01*
Y037747D01*
X036264D01*
X036263Y037749D01*
X036259Y037765D01*
X036255Y037786D01*
X036254Y037801D01*
Y037801D01*
X036499Y038046D01*
X03811D01*
X038125Y038045D01*
X038146Y038041D01*
X038161Y038037D01*
X038164Y038036D01*
Y037914D01*
X038836D01*
Y038036D01*
X038839Y038037D01*
X038854Y038041D01*
X038875Y038045D01*
X03889Y038046D01*
X03911D01*
X039125Y038045D01*
X039146Y038041D01*
X039161Y038037D01*
X039164Y038036D01*
Y037914D01*
X039836D01*
Y038036D01*
X039839Y038037D01*
X039854Y038041D01*
X039875Y038045D01*
X03989Y038046D01*
X04011D01*
X040125Y038045D01*
X040146Y038041D01*
X040161Y038037D01*
X040164Y038036D01*
Y037914D01*
X040836D01*
Y038036D01*
X040839Y038037D01*
X040854Y038041D01*
X040875Y038045D01*
X04089Y038046D01*
X04111D01*
X041125Y038045D01*
X041146Y038041D01*
X041161Y038037D01*
X041164Y038036D01*
Y037914D01*
X041836D01*
Y038586D01*
D02*
G37*
G36*
X0515Y038454D02*
X043279D01*
X043201Y038438D01*
X043134Y038394D01*
X042394Y037654D01*
X03867D01*
X038592Y037638D01*
X038526Y037594D01*
X037686Y036754D01*
X036478D01*
X036464Y036755D01*
X036443Y036759D01*
X036427Y036762D01*
X036425Y036763D01*
Y036847D01*
X036328D01*
X036324Y036848D01*
X03632Y036847D01*
X036314D01*
X036313Y036847D01*
X036312Y036847D01*
X035675D01*
Y036253D01*
X035811D01*
X035812Y036251D01*
X035816Y036235D01*
X03582Y036214D01*
X035821Y036199D01*
Y035516D01*
X035818Y035499D01*
X035813Y035478D01*
X035804Y035456D01*
X035793Y035433D01*
X035779Y03541D01*
X035762Y035386D01*
X035741Y035362D01*
X035717Y035337D01*
X035687Y03531D01*
X035685Y035307D01*
X035661Y035289D01*
X035585Y03519D01*
X035537Y035074D01*
X035521Y03495D01*
X035537Y034826D01*
X035585Y03471D01*
X03564Y034639D01*
X035643Y034634D01*
X035653Y034622D01*
X035661Y034611D01*
X035664Y034609D01*
X03567Y034602D01*
X035693Y034572D01*
X035713Y034543D01*
X03573Y034515D01*
X035744Y034488D01*
X035755Y034462D01*
X035763Y034438D01*
X035769Y034415D01*
X035771Y034398D01*
Y034129D01*
X03577Y034115D01*
X035766Y034093D01*
X035762Y034078D01*
X035761Y034075D01*
X03565D01*
Y033488D01*
X03565Y033487D01*
X03565Y033485D01*
Y03348D01*
X035649Y033476D01*
X03565Y033472D01*
Y033375D01*
X035736D01*
X035737Y033372D01*
X035741Y033357D01*
X035745Y033335D01*
X035746Y033321D01*
Y029301D01*
X035541Y029096D01*
X033792D01*
X033792Y029096D01*
X033714Y02908D01*
X033648Y029036D01*
X033206Y028594D01*
X033162Y028528D01*
X033146Y02845D01*
Y025021D01*
X033162Y024943D01*
X033206Y024877D01*
X0337Y024383D01*
X033766Y024339D01*
X033844Y024323D01*
X03719D01*
Y023675D01*
X037823D01*
Y024425D01*
X03773D01*
X037729Y024428D01*
X037725Y024443D01*
X037721Y024464D01*
X03772Y024479D01*
Y024614D01*
X037721Y024629D01*
X037725Y024651D01*
X037729Y024666D01*
X03773Y024668D01*
X037901D01*
Y025262D01*
X037151D01*
Y024731D01*
X034395D01*
X034392Y024781D01*
X034426Y024786D01*
X034493Y024795D01*
X034594Y024836D01*
X034681Y024903D01*
X034731Y024967D01*
X034734Y024971D01*
X034743Y024984D01*
X034748Y02499D01*
X034748Y024991D01*
X034749Y024993D01*
X034762Y025008D01*
X034776Y025021D01*
X034789Y025032D01*
X034803Y025041D01*
X034817Y025048D01*
X034832Y025054D01*
X034849Y025058D01*
X03486Y025059D01*
X034946D01*
X034961Y025058D01*
X034982Y025055D01*
X034997Y02505D01*
X035Y025049D01*
Y024953D01*
X035594D01*
Y02559D01*
X035594Y025591D01*
X035594Y025592D01*
Y025598D01*
X035594Y025602D01*
X035594Y025605D01*
Y025771D01*
X035594Y025774D01*
X035594Y025778D01*
Y025784D01*
X035594Y025786D01*
X035594Y025786D01*
Y026394D01*
Y027031D01*
X035594Y027031D01*
X035594Y027033D01*
Y027039D01*
X035594Y027042D01*
X035594Y027046D01*
Y027211D01*
X035594Y027215D01*
X035594Y027219D01*
Y027225D01*
X035594Y027226D01*
X035594Y027227D01*
Y027864D01*
X035D01*
Y027227D01*
X035Y027226D01*
X035Y027225D01*
Y027219D01*
X034999Y027215D01*
X035Y027211D01*
Y027046D01*
X034999Y027042D01*
X035Y027039D01*
Y027033D01*
X035Y027031D01*
X035Y027031D01*
Y026985D01*
X034997Y026984D01*
X034982Y02698D01*
X034961Y026976D01*
X034946Y026975D01*
X034846D01*
X034834Y026976D01*
X034815Y026981D01*
X034797Y026986D01*
X034778Y026994D01*
X03476Y027003D01*
X034742Y027015D01*
X034723Y027029D01*
X034704Y027045D01*
X034688Y02706D01*
X034681Y02707D01*
X034594Y027136D01*
X034493Y027178D01*
X034385Y027192D01*
X034277Y027178D01*
X034176Y027136D01*
X034089Y02707D01*
X034023Y026983D01*
X033981Y026882D01*
X033967Y026774D01*
X033981Y026665D01*
X034023Y026564D01*
X034089Y026478D01*
X034176Y026411D01*
X034277Y026369D01*
X034385Y026355D01*
X034493Y026369D01*
X034594Y026411D01*
X034681Y026478D01*
X034687Y026486D01*
X0347Y026498D01*
X034719Y026514D01*
X034738Y026527D01*
X034757Y026539D01*
X034776Y026548D01*
X034795Y026556D01*
X034813Y026562D01*
X034832Y026566D01*
X034844Y026567D01*
X034946D01*
X034961Y026566D01*
X034982Y026562D01*
X034997Y026558D01*
X035Y026557D01*
Y026394D01*
Y025786D01*
X035Y025786D01*
X035Y025784D01*
Y025778D01*
X034999Y025774D01*
X035Y025771D01*
Y025605D01*
X034999Y025602D01*
X035Y025598D01*
Y025592D01*
X035Y025591D01*
X035Y02559D01*
Y025477D01*
X034997Y025476D01*
X034982Y025472D01*
X034961Y025469D01*
X034946Y025467D01*
X034811D01*
X034802Y025468D01*
X034781Y025472D01*
X034759Y025477D01*
X034737Y025484D01*
X034714Y025493D01*
X034692Y025503D01*
X034641Y02553D01*
X034615Y025547D01*
X034612Y025548D01*
X034594Y025561D01*
X034493Y025603D01*
X034385Y025617D01*
X034277Y025603D01*
X034176Y025561D01*
X034089Y025495D01*
X034023Y025408D01*
X033981Y025307D01*
X033967Y025199D01*
X033981Y02509D01*
X034023Y02499D01*
X034089Y024903D01*
X034176Y024836D01*
X034277Y024795D01*
X034345Y024786D01*
X034378Y024781D01*
X034375Y024731D01*
X033928D01*
X033554Y025106D01*
Y028366D01*
X033876Y028688D01*
X035625D01*
X035703Y028703D01*
X035769Y028748D01*
X036094Y029073D01*
X036138Y029139D01*
X036154Y029217D01*
Y033321D01*
X036155Y033335D01*
X036159Y033357D01*
X036163Y033372D01*
X036164Y033375D01*
X03625D01*
Y033472D01*
X036251Y033476D01*
X036274Y033509D01*
X036284Y033519D01*
X036289Y03352D01*
X036304Y033521D01*
X036791D01*
X037322Y032991D01*
Y03135D01*
X037337Y031272D01*
X037381Y031205D01*
X038064Y030523D01*
X038079Y030505D01*
X038095Y03048D01*
X03811Y030455D01*
X038122Y030429D01*
X038131Y030402D01*
X038139Y030374D01*
X038145Y030345D01*
X038147Y030321D01*
Y0278D01*
X038146Y02775D01*
X038143Y027716D01*
X038142Y027707D01*
X038141Y027704D01*
X03814Y027701D01*
X038139Y02769D01*
X038129Y02764D01*
Y027167D01*
X038146Y027082D01*
X038194Y02701D01*
X038266Y026962D01*
X038351Y026945D01*
X03837Y026948D01*
X038394Y026902D01*
X038319Y026827D01*
X037901D01*
Y027117D01*
X037151D01*
Y027008D01*
X037147Y027007D01*
X037132Y027003D01*
X037111Y026999D01*
X037096Y026998D01*
X036548D01*
X036533Y026999D01*
X036528Y027D01*
X036518Y02701D01*
X036494Y027042D01*
X036494Y027046D01*
Y027211D01*
X036494Y027215D01*
X036494Y027219D01*
Y027225D01*
X036494Y027226D01*
X036494Y027227D01*
Y027864D01*
X0359D01*
Y027227D01*
X0359Y027226D01*
X0359Y027225D01*
Y027219D01*
X035899Y027215D01*
X0359Y027211D01*
Y027046D01*
X035899Y027042D01*
X0359Y027039D01*
Y027033D01*
X0359Y027031D01*
X0359Y027031D01*
Y026394D01*
Y025786D01*
X0359Y025786D01*
X0359Y025784D01*
Y025778D01*
X035899Y025774D01*
X0359Y025771D01*
Y025605D01*
X035899Y025602D01*
X0359Y025598D01*
Y025592D01*
X0359Y025591D01*
X0359Y02559D01*
Y024953D01*
X036494D01*
Y02559D01*
X036494Y025591D01*
X036494Y025592D01*
Y025598D01*
X036494Y025602D01*
X036494Y025605D01*
Y025746D01*
X036507Y025749D01*
X036549Y025753D01*
X037096D01*
X037111Y025752D01*
X037132Y025748D01*
X037147Y025744D01*
X037151Y025743D01*
Y025568D01*
X037901D01*
Y026081D01*
X038459D01*
X038478Y026035D01*
X038242Y025798D01*
X038203Y02574D01*
X038189Y025672D01*
Y02563D01*
X038187Y025604D01*
X038185Y025588D01*
X038182Y025573D01*
X038179Y025561D01*
X038176Y025552D01*
X038173Y025544D01*
X03817Y025539D01*
X038165Y025532D01*
X038162Y025524D01*
X038146Y0255D01*
X038129Y025415D01*
Y024943D01*
X038146Y024858D01*
X038194Y024786D01*
X038266Y024737D01*
X038351Y02472D01*
X038436Y024737D01*
X038508Y024786D01*
X038557Y024858D01*
X038574Y024943D01*
Y025415D01*
X038557Y0255D01*
X038552Y025508D01*
X038546Y025592D01*
Y025598D01*
X039366Y026418D01*
X040496D01*
X040564Y026431D01*
X040622Y02647D01*
X040711Y026559D01*
X040795D01*
X040807Y026512D01*
X040725Y026478D01*
X040655Y026424D01*
X040651Y026419D01*
X04064Y026409D01*
X040627Y026398D01*
X040614Y026389D01*
X040602Y026381D01*
X04059Y026375D01*
X040578Y02637D01*
X040566Y026366D01*
X040554Y026364D01*
X040548Y026363D01*
X039848D01*
X039779Y026349D01*
X039721Y026311D01*
X039225Y025814D01*
X039186Y025757D01*
X039173Y025688D01*
Y025602D01*
X039172Y025585D01*
X039168Y025551D01*
X039167Y025541D01*
X039165Y025533D01*
X039164Y02553D01*
X039163Y025529D01*
X03916Y025522D01*
X039146Y0255D01*
X039129Y025415D01*
Y024943D01*
X039146Y024858D01*
X039194Y024786D01*
X039266Y024737D01*
X039351Y02472D01*
X039436Y024737D01*
X039508Y024786D01*
X039557Y024858D01*
X039574Y024943D01*
Y025415D01*
X039557Y0255D01*
X039542Y025522D01*
X03954Y025529D01*
X039539Y02553D01*
X039538Y025533D01*
X039536Y025541D01*
X039534Y02555D01*
X03953Y025614D01*
Y025614D01*
X039921Y026006D01*
X040548D01*
X040554Y026005D01*
X040566Y026003D01*
X040578Y025999D01*
X04059Y025994D01*
X040602Y025988D01*
X040614Y025981D01*
X040627Y025971D01*
X04064Y025961D01*
X040651Y02595D01*
X040655Y025945D01*
X040725Y025891D01*
X040737Y025886D01*
X040741Y02583D01*
X040688Y02579D01*
X040634Y02572D01*
X0406Y025638D01*
X040598Y025621D01*
X040597Y025619D01*
X040597Y025616D01*
X040596Y025613D01*
X040592Y025597D01*
X040589Y025584D01*
X040584Y025572D01*
X040579Y025559D01*
X040572Y025546D01*
X040565Y025534D01*
X040557Y025522D01*
X040554Y025519D01*
X040081D01*
X040068Y02552D01*
X040049Y025522D01*
X040041Y025524D01*
X040008Y025572D01*
X039936Y025621D01*
X039851Y025638D01*
X039766Y025621D01*
X039694Y025572D01*
X039646Y0255D01*
X039629Y025415D01*
Y024943D01*
X039646Y024858D01*
X039694Y024786D01*
X039766Y024737D01*
X039851Y02472D01*
X039936Y024737D01*
X040008Y024786D01*
X040057Y024858D01*
X040074Y024943D01*
Y025161D01*
X040075Y025161D01*
X040085Y025162D01*
X040631D01*
X040699Y025175D01*
X040741Y025203D01*
X040744Y025205D01*
X040745Y025206D01*
X040757Y025214D01*
X040769Y025227D01*
X040771Y025228D01*
X040777Y025232D01*
X040782Y025234D01*
X040786Y025235D01*
X04079Y025236D01*
X040794Y025236D01*
X040798Y025236D01*
X040804Y025234D01*
X040817Y025231D01*
X040819Y02523D01*
X04082Y02523D01*
X040823Y025229D01*
X04084Y025222D01*
X040928Y025211D01*
X041016Y025222D01*
X041097Y025256D01*
X041168Y02531D01*
X041222Y02538D01*
X041255Y025462D01*
X041267Y02555D01*
X041255Y025638D01*
X041222Y02572D01*
X041168Y02579D01*
X041097Y025844D01*
X041085Y025849D01*
X041082Y025904D01*
X041134Y025945D01*
X041188Y026015D01*
X041222Y026097D01*
X041234Y026185D01*
X041222Y026272D01*
X041188Y026354D01*
X041134Y026424D01*
X041064Y026478D01*
X040982Y026512D01*
X040994Y026559D01*
X041339D01*
X041345Y026558D01*
X041357Y026556D01*
X041369Y026552D01*
X041381Y026547D01*
X041393Y026541D01*
X041405Y026533D01*
X041418Y026524D01*
X041431Y026513D01*
X041442Y026503D01*
X041446Y026498D01*
X041516Y026444D01*
X041598Y02641D01*
X041686Y026398D01*
X041773Y02641D01*
X041855Y026444D01*
X041925Y026498D01*
X041979Y026568D01*
X042013Y02665D01*
X042025Y026737D01*
X042013Y026825D01*
X041979Y026907D01*
X041925Y026977D01*
X041855Y027031D01*
X041773Y027065D01*
X041686Y027076D01*
X041598Y027065D01*
X041516Y027031D01*
X041446Y026977D01*
X041442Y026972D01*
X041431Y026962D01*
X041418Y026951D01*
X041405Y026941D01*
X041393Y026934D01*
X041381Y026928D01*
X041369Y026923D01*
X041357Y026919D01*
X041345Y026917D01*
X041339Y026916D01*
X040637D01*
X040568Y026902D01*
X040511Y026864D01*
X040422Y026775D01*
X039394D01*
X039375Y026821D01*
X039495Y026941D01*
X03954Y027007D01*
X039553Y027077D01*
X039557Y027082D01*
X039574Y027167D01*
Y02764D01*
X039557Y027725D01*
X039508Y027797D01*
X039436Y027845D01*
X039351Y027862D01*
X039266Y027845D01*
X039194Y027797D01*
X039146Y027725D01*
X039129Y02764D01*
Y027198D01*
X039126Y027194D01*
X039124Y027193D01*
X039074Y027224D01*
Y02764D01*
X039057Y027725D01*
X039008Y027797D01*
X038936Y027845D01*
X038851Y027862D01*
X038766Y027845D01*
X038694Y027797D01*
X038646Y027725D01*
X038629Y02764D01*
Y027185D01*
X038624Y02718D01*
X038574Y027204D01*
Y02764D01*
X038564Y027687D01*
X038555Y027836D01*
Y030253D01*
X038558Y030271D01*
X038563Y030285D01*
X038568Y030295D01*
X038574Y030302D01*
X03858Y030307D01*
X03859Y030312D01*
X038604Y030317D01*
X038622Y03032D01*
X038973D01*
X038988Y030319D01*
X03901Y030315D01*
X039025Y030311D01*
X039028Y03031D01*
Y030262D01*
X039027Y030261D01*
X039028Y03026D01*
Y030254D01*
X039027Y03025D01*
X039028Y030246D01*
Y030149D01*
X039111D01*
X039112Y030147D01*
X039116Y030131D01*
X039119Y03011D01*
X03912Y030096D01*
Y029028D01*
X039136Y02895D01*
X03918Y028884D01*
X040877Y027187D01*
X040877Y027187D01*
X040943Y027143D01*
X041021Y027127D01*
X041021Y027127D01*
X041866D01*
X042541Y026452D01*
X042607Y026408D01*
X042685Y026392D01*
X043022D01*
X043036Y026391D01*
X043058Y026388D01*
X043073Y026383D01*
X043076Y026382D01*
Y02628D01*
X043826D01*
Y026343D01*
X04386Y026363D01*
X043897Y026342D01*
Y02628D01*
X044647D01*
Y026426D01*
X044674Y026431D01*
X044732Y02647D01*
X044891Y026629D01*
X044918Y026626D01*
X04493Y02661D01*
X044949Y026576D01*
X044936Y026511D01*
X04495Y026437D01*
X044984Y026387D01*
X044989Y026354D01*
X044984Y02632D01*
X04495Y02627D01*
X044936Y026196D01*
X04495Y026122D01*
X044959Y026109D01*
X044932Y02606D01*
X042131D01*
X042131Y02606D01*
X042063Y026046D01*
X042005Y026007D01*
X042005Y026007D01*
X037874Y021876D01*
X037835Y021818D01*
X037822Y02175D01*
Y020876D01*
X037774Y02086D01*
X037768Y020868D01*
X037689Y020928D01*
X037598Y020966D01*
X03755Y020972D01*
Y0206D01*
Y020228D01*
X037598Y020234D01*
X037689Y020272D01*
X037768Y020332D01*
X037774Y02034D01*
X037822Y020324D01*
Y020013D01*
X03782Y020003D01*
X037817Y019989D01*
X037811Y019974D01*
X037804Y019959D01*
X037795Y019943D01*
X037784Y019925D01*
X03777Y019907D01*
X037754Y019889D01*
X037739Y019873D01*
X037732Y019868D01*
X037672Y019789D01*
X037634Y019698D01*
X037621Y0196D01*
X037634Y019502D01*
X037672Y019411D01*
X037732Y019332D01*
X037811Y019272D01*
X037902Y019234D01*
X038Y019221D01*
X038098Y019234D01*
X038189Y019272D01*
X038268Y019332D01*
X038328Y019411D01*
X038366Y019502D01*
X038379Y0196D01*
X038366Y019698D01*
X038328Y019789D01*
X038268Y019868D01*
X038261Y019873D01*
X038246Y019889D01*
X03823Y019907D01*
X038216Y019925D01*
X038205Y019943D01*
X038196Y019959D01*
X038189Y019974D01*
X038183Y019989D01*
X03818Y020003D01*
X038178Y020013D01*
Y020324D01*
X038226Y02034D01*
X038232Y020332D01*
X038311Y020272D01*
X038402Y020234D01*
X0385Y020221D01*
X038598Y020234D01*
X038689Y020272D01*
X038768Y020332D01*
X038774Y02034D01*
X038822Y020324D01*
Y020013D01*
X03882Y020003D01*
X038817Y019989D01*
X038811Y019974D01*
X038804Y019959D01*
X038795Y019943D01*
X038784Y019925D01*
X03877Y019907D01*
X038754Y019889D01*
X038739Y019873D01*
X038732Y019868D01*
X038672Y019789D01*
X038634Y019698D01*
X038621Y0196D01*
X038634Y019502D01*
X038672Y019411D01*
X038732Y019332D01*
X038811Y019272D01*
X038902Y019234D01*
X039Y019221D01*
X039098Y019234D01*
X039189Y019272D01*
X039268Y019332D01*
X039328Y019411D01*
X039366Y019502D01*
X039379Y0196D01*
X039366Y019698D01*
X039328Y019789D01*
X039268Y019868D01*
X039261Y019873D01*
X039246Y019889D01*
X03923Y019907D01*
X039216Y019925D01*
X039205Y019943D01*
X039196Y019959D01*
X039189Y019974D01*
X039183Y019989D01*
X03918Y020003D01*
X039178Y020013D01*
Y020324D01*
X039226Y02034D01*
X039232Y020332D01*
X039311Y020272D01*
X039402Y020234D01*
X0395Y020221D01*
X039598Y020234D01*
X039689Y020272D01*
X039768Y020332D01*
X039774Y02034D01*
X039822Y020324D01*
Y020013D01*
X03982Y020003D01*
X039817Y019989D01*
X039811Y019974D01*
X039804Y019959D01*
X039795Y019943D01*
X039784Y019925D01*
X03977Y019907D01*
X039754Y019889D01*
X039739Y019873D01*
X039732Y019868D01*
X039672Y019789D01*
X039634Y019698D01*
X039621Y0196D01*
X039634Y019502D01*
X039672Y019411D01*
X039732Y019332D01*
X039811Y019272D01*
X039902Y019234D01*
X04Y019221D01*
X040098Y019234D01*
X040189Y019272D01*
X040268Y019332D01*
X040328Y019411D01*
X040366Y019502D01*
X040379Y0196D01*
X040366Y019698D01*
X040328Y019789D01*
X040268Y019868D01*
X040261Y019873D01*
X040246Y019889D01*
X04023Y019907D01*
X040216Y019925D01*
X040205Y019943D01*
X040196Y019959D01*
X040189Y019974D01*
X040183Y019989D01*
X04018Y020003D01*
X040178Y020013D01*
Y020324D01*
X040226Y02034D01*
X040232Y020332D01*
X040311Y020272D01*
X040402Y020234D01*
X0405Y020221D01*
X040598Y020234D01*
X040689Y020272D01*
X040768Y020332D01*
X040784Y020353D01*
X040789Y020353D01*
X040836Y020338D01*
X040846Y020288D01*
X040884Y02023D01*
X041098Y020016D01*
X041074Y019969D01*
X041Y019979D01*
X040902Y019966D01*
X040811Y019928D01*
X040732Y019868D01*
X040672Y019789D01*
X040634Y019698D01*
X040621Y0196D01*
X040634Y019502D01*
X040672Y019411D01*
X040732Y019332D01*
X040811Y019272D01*
X040902Y019234D01*
X041Y019221D01*
X041098Y019234D01*
X041189Y019272D01*
X041268Y019332D01*
X041276Y019343D01*
X041324Y019323D01*
X041335Y019267D01*
X041374Y019209D01*
X041559Y019023D01*
X041559Y019023D01*
X041617Y018985D01*
X041686Y018971D01*
X043549D01*
X043618Y018985D01*
X043676Y019023D01*
X043834Y019182D01*
X043842Y019188D01*
X043854Y019195D01*
X043869Y019202D01*
X043885Y019208D01*
X043903Y019213D01*
X043923Y019217D01*
X043945Y01922D01*
X04397Y019222D01*
X043991Y019222D01*
X044Y019221D01*
X044098Y019234D01*
X044189Y019272D01*
X044268Y019332D01*
X044328Y019411D01*
X044366Y019502D01*
X044379Y0196D01*
X044366Y019698D01*
X044328Y019789D01*
X044268Y019868D01*
X044189Y019928D01*
X044098Y019966D01*
X044Y019979D01*
X043972Y019975D01*
X043949Y020022D01*
X044126Y0202D01*
X044126Y0202D01*
X044165Y020258D01*
X044177Y020321D01*
X044199Y020333D01*
X044225Y020342D01*
X044232Y020332D01*
X044251Y020318D01*
X044254Y020314D01*
X044275Y020295D01*
X044291Y020279D01*
X044304Y020263D01*
X044316Y020247D01*
X044325Y020232D01*
X044332Y020218D01*
X044337Y020205D01*
X04434Y020191D01*
X044342Y020182D01*
Y020099D01*
X044355Y020031D01*
X044394Y019973D01*
X045333Y019034D01*
X045391Y018995D01*
X045459Y018982D01*
X045459Y018982D01*
X04961D01*
X049678Y018995D01*
X049736Y019034D01*
X049888Y019186D01*
X049898Y019193D01*
X049913Y019202D01*
X049931Y019209D01*
X049951Y019216D01*
X049974Y019222D01*
X049999Y019227D01*
X050063Y019233D01*
X050088Y019233D01*
X0501Y019231D01*
X050208Y019246D01*
X050309Y019288D01*
X050396Y019354D01*
X050462Y019441D01*
X050504Y019542D01*
X050519Y01965D01*
X050517Y01966D01*
X050519Y019731D01*
X050522Y019762D01*
X050527Y019791D01*
X050532Y019816D01*
X050539Y019838D01*
X050546Y019855D01*
X050553Y019869D01*
X050559Y019879D01*
X051229Y020548D01*
X051265Y020601D01*
X051277Y020664D01*
Y021794D01*
X051327Y021802D01*
X051329Y021793D01*
X051404Y021653D01*
X051506Y02153D01*
X051629Y021429D01*
X051769Y021354D01*
X051922Y021307D01*
X05208Y021292D01*
X052239Y021307D01*
X052391Y021354D01*
X052532Y021429D01*
X052655Y02153D01*
X052756Y021653D01*
X052831Y021793D01*
X052877Y021946D01*
X052893Y022104D01*
X052877Y022263D01*
X052831Y022415D01*
X052756Y022556D01*
X052655Y022679D01*
X052532Y02278D01*
X052391Y022855D01*
X052239Y022901D01*
X05208Y022917D01*
X051922Y022901D01*
X051769Y022855D01*
X051629Y02278D01*
X051506Y022679D01*
X051404Y022556D01*
X051329Y022415D01*
X051327Y022407D01*
X051277Y022415D01*
Y022643D01*
X051721Y023087D01*
X053235D01*
X053297Y023099D01*
X05335Y023135D01*
X054265Y02405D01*
X054301Y024103D01*
X054313Y024165D01*
Y027649D01*
X054301Y027712D01*
X054265Y027764D01*
X05398Y028049D01*
X053924Y028108D01*
X053917Y028116D01*
Y031531D01*
X053917Y031531D01*
X053917Y031531D01*
Y036037D01*
X053902Y036115D01*
X053858Y036181D01*
X051644Y038394D01*
X051578Y038438D01*
X0515Y038454D01*
D02*
G37*
G36*
X03545Y034075D02*
X0352D01*
Y033775D01*
X03545D01*
Y034075D01*
D02*
G37*
G36*
X0351D02*
X03485D01*
Y033775D01*
X0351D01*
Y034075D01*
D02*
G37*
G36*
X03545Y033675D02*
X0352D01*
Y033375D01*
X03545D01*
Y033675D01*
D02*
G37*
G36*
X0351D02*
X03485D01*
Y033375D01*
X0351D01*
Y033675D01*
D02*
G37*
G36*
X02925Y034913D02*
X029091Y034897D01*
X028939Y034851D01*
X028799Y034776D01*
X028675Y034675D01*
X028574Y034551D01*
X028499Y034411D01*
X028453Y034259D01*
X028437Y0341D01*
X028453Y033941D01*
X028499Y033789D01*
X028574Y033649D01*
X028675Y033525D01*
X028799Y033424D01*
X028939Y033349D01*
X029091Y033303D01*
X02925Y033287D01*
X029409Y033303D01*
X029561Y033349D01*
X029701Y033424D01*
X029825Y033525D01*
X029926Y033649D01*
X030001Y033789D01*
X030047Y033941D01*
X030063Y0341D01*
X030047Y034259D01*
X030001Y034411D01*
X029926Y034551D01*
X029825Y034675D01*
X029701Y034776D01*
X029561Y034851D01*
X029409Y034897D01*
X02925Y034913D01*
D02*
G37*
G36*
X0319Y033554D02*
X0318D01*
Y03315D01*
X032347D01*
X032338Y033217D01*
X032293Y033327D01*
X032221Y033421D01*
X032127Y033493D01*
X032017Y033538D01*
X0319Y033554D01*
D02*
G37*
G36*
X0317D02*
X0316D01*
X031483Y033538D01*
X031373Y033493D01*
X031279Y033421D01*
X031207Y033327D01*
X031162Y033217D01*
X031153Y03315D01*
X0317D01*
Y033554D01*
D02*
G37*
G36*
X032347Y03305D02*
X03175D01*
X031153D01*
X031162Y032983D01*
X031207Y032873D01*
X031279Y032779D01*
X031373Y032707D01*
X031483Y032662D01*
X031535Y032655D01*
X031537Y03265D01*
X031541Y032634D01*
X031545Y032611D01*
X031546Y032596D01*
Y03198D01*
X031257Y031692D01*
X030215D01*
X030193Y031693D01*
X030163Y031697D01*
X03014Y031702D01*
X030136Y031704D01*
X030131Y031715D01*
X030059Y031809D01*
X029965Y031881D01*
X029855Y031926D01*
X029738Y031942D01*
X029638D01*
Y031488D01*
Y031034D01*
X029738D01*
X029855Y031049D01*
X029965Y031095D01*
X030059Y031167D01*
X030131Y031261D01*
X030136Y031272D01*
X03014Y031273D01*
X030161Y031278D01*
X03022Y031284D01*
X031342D01*
X03142Y031299D01*
X031486Y031344D01*
X031894Y031752D01*
X031894Y031752D01*
X031938Y031818D01*
X031954Y031896D01*
X031954Y031896D01*
Y032596D01*
X031955Y032611D01*
X031959Y032634D01*
X031963Y03265D01*
X031965Y032655D01*
X032017Y032662D01*
X032127Y032707D01*
X032221Y032779D01*
X032293Y032873D01*
X032338Y032983D01*
X032347Y03305D01*
D02*
G37*
G36*
X029538Y031942D02*
X029438D01*
X02932Y031926D01*
X029211Y031881D01*
X029117Y031809D01*
X029045Y031715D01*
X028999Y031605D01*
X028991Y031538D01*
X029538D01*
Y031942D01*
D02*
G37*
G36*
X0345Y035429D02*
X034376Y035413D01*
X03426Y035365D01*
X034161Y035289D01*
X034152Y035277D01*
X034131Y035257D01*
X034104Y035233D01*
X034077Y035213D01*
X034052Y035196D01*
X034027Y035182D01*
X034003Y035171D01*
X033979Y035162D01*
X033957Y035157D01*
X03394Y035154D01*
X03205D01*
X031972Y035138D01*
X031906Y035094D01*
X031606Y034794D01*
X031562Y034728D01*
X031546Y03465D01*
Y034604D01*
X031545Y034589D01*
X031541Y034568D01*
X031537Y034553D01*
X031536Y03455D01*
X03115D01*
Y03365D01*
X03235D01*
Y03455D01*
X032009D01*
X031988Y0346D01*
X032134Y034746D01*
X03394D01*
X033957Y034743D01*
X033979Y034738D01*
X034003Y034729D01*
X034027Y034718D01*
X034052Y034704D01*
X034077Y034687D01*
X034104Y034667D01*
X034131Y034643D01*
X034152Y034623D01*
X034161Y034611D01*
X034173Y034602D01*
X034193Y034581D01*
X034217Y034554D01*
X034237Y034527D01*
X034254Y034502D01*
X034268Y034477D01*
X034279Y034453D01*
X034288Y034429D01*
X034293Y034407D01*
X034296Y03439D01*
Y03254D01*
X034295Y032523D01*
X034291Y0325D01*
X034289Y032492D01*
X034285D01*
X034155Y032475D01*
X034033Y032425D01*
X033928Y032344D01*
X033848Y03224D01*
X033798Y032118D01*
X033781Y031988D01*
X033798Y031857D01*
X033848Y031736D01*
X033928Y031631D01*
X034033Y031551D01*
X03412Y031515D01*
Y031461D01*
X034033Y031425D01*
X033928Y031344D01*
X033848Y03124D01*
X033798Y031118D01*
X033787Y031038D01*
X034385D01*
X034983D01*
X034972Y031118D01*
X034922Y03124D01*
X034842Y031344D01*
X034737Y031425D01*
X03465Y031461D01*
Y031515D01*
X034737Y031551D01*
X034842Y031631D01*
X034922Y031736D01*
X034972Y031857D01*
X034989Y031988D01*
X034972Y032118D01*
X034922Y03224D01*
X034842Y032344D01*
X034737Y032425D01*
X034719Y032432D01*
X034719Y032432D01*
X034714Y032447D01*
X034709Y032469D01*
X034705Y032497D01*
X034704Y032517D01*
Y03439D01*
X034707Y034407D01*
X034712Y034429D01*
X034721Y034453D01*
X034732Y034477D01*
X034746Y034502D01*
X034763Y034527D01*
X034783Y034554D01*
X034807Y034581D01*
X034827Y034602D01*
X034839Y034611D01*
X034915Y03471D01*
X034963Y034826D01*
X034979Y03495D01*
X034963Y035074D01*
X034915Y03519D01*
X034839Y035289D01*
X03474Y035365D01*
X034624Y035413D01*
X0345Y035429D01*
D02*
G37*
G36*
X029538Y031438D02*
X028991D01*
X028999Y03137D01*
X029045Y031261D01*
X029117Y031167D01*
X029211Y031095D01*
X02932Y031049D01*
X029438Y031034D01*
X029538D01*
Y031438D01*
D02*
G37*
G36*
X034983Y030938D02*
X034385D01*
X033787D01*
X033798Y030857D01*
X033848Y030736D01*
X033928Y030631D01*
X034033Y030551D01*
X034065Y030538D01*
X034055Y030488D01*
X033785D01*
Y030074D01*
X033782Y030073D01*
X033767Y030069D01*
X033746Y030065D01*
X033731Y030064D01*
X032904D01*
X032889Y030065D01*
X032867Y030069D01*
X032852Y030073D01*
X03285Y030074D01*
Y030314D01*
X03135D01*
Y030074D01*
X031348Y030073D01*
X031333Y030069D01*
X031311Y030065D01*
X031296Y030064D01*
X030242D01*
X030227Y030065D01*
X030206Y030069D01*
X03019Y030073D01*
X030188Y030074D01*
Y030438D01*
X028988D01*
Y029538D01*
X030188D01*
Y029646D01*
X03019Y029647D01*
X030206Y029651D01*
X030227Y029655D01*
X030242Y029656D01*
X031296D01*
X031311Y029655D01*
X031333Y029651D01*
X031348Y029647D01*
X03135Y029646D01*
Y029405D01*
X03285D01*
Y029646D01*
X032852Y029647D01*
X032867Y029651D01*
X032889Y029655D01*
X032904Y029656D01*
X033731D01*
X033746Y029655D01*
X033767Y029651D01*
X033782Y029647D01*
X033785Y029646D01*
Y029488D01*
X034985D01*
Y030488D01*
X034715D01*
X034705Y030538D01*
X034737Y030551D01*
X034842Y030631D01*
X034922Y030736D01*
X034972Y030857D01*
X034983Y030938D01*
D02*
G37*
G36*
X037901Y028017D02*
X037576D01*
Y02777D01*
X037901D01*
Y028017D01*
D02*
G37*
G36*
X037476D02*
X037151D01*
Y02777D01*
X037476D01*
Y028017D01*
D02*
G37*
G36*
X039901Y027852D02*
Y027453D01*
X040074D01*
Y02764D01*
X040057Y027725D01*
X040008Y027797D01*
X039936Y027845D01*
X039901Y027852D01*
D02*
G37*
G36*
X039801Y027852D02*
X039766Y027845D01*
X039694Y027797D01*
X039646Y027725D01*
X039629Y02764D01*
Y027453D01*
X039801D01*
Y027852D01*
D02*
G37*
G36*
X037901Y02767D02*
X037576D01*
Y027423D01*
X037901D01*
Y02767D01*
D02*
G37*
G36*
X037476D02*
X037151D01*
Y027423D01*
X037476D01*
Y02767D01*
D02*
G37*
G36*
X040074Y027353D02*
X039901D01*
Y026955D01*
X039936Y026962D01*
X040008Y02701D01*
X040057Y027082D01*
X040074Y027167D01*
Y027353D01*
D02*
G37*
G36*
X039801D02*
X039629D01*
Y027167D01*
X039646Y027082D01*
X039694Y02701D01*
X039766Y026962D01*
X039801Y026955D01*
Y027353D01*
D02*
G37*
G36*
X03008Y027926D02*
X029964Y027915D01*
X029852Y027881D01*
X029749Y027826D01*
X029659Y027752D01*
X029585Y027662D01*
X02953Y027559D01*
X029496Y027447D01*
X029485Y027331D01*
X029496Y027215D01*
X02953Y027103D01*
X029585Y027001D01*
X029659Y02691D01*
X029749Y026836D01*
X029852Y026781D01*
X029964Y026748D01*
X03008Y026736D01*
X030196Y026748D01*
X030308Y026781D01*
X030411Y026836D01*
X030501Y02691D01*
X030506Y026917D01*
X030592Y026998D01*
X030632Y02703D01*
X030671Y027058D01*
X030708Y027081D01*
X030743Y0271D01*
X030775Y027113D01*
X030805Y027122D01*
X030832Y027127D01*
X031296D01*
X031311Y027126D01*
X031333Y027122D01*
X031348Y027118D01*
X03135Y027117D01*
Y026886D01*
X03285D01*
Y027794D01*
X03135D01*
Y027545D01*
X031348Y027544D01*
X031333Y02754D01*
X031311Y027536D01*
X031296Y027535D01*
X030832D01*
X030805Y02754D01*
X030775Y027549D01*
X030743Y027563D01*
X030708Y027581D01*
X030671Y027604D01*
X030633Y027631D01*
X030548Y027704D01*
X030506Y027745D01*
X030501Y027752D01*
X030411Y027826D01*
X030308Y027881D01*
X030196Y027915D01*
X03008Y027926D01*
D02*
G37*
G36*
X038901Y025628D02*
Y025229D01*
X039074D01*
Y025415D01*
X039057Y0255D01*
X039008Y025572D01*
X038936Y025621D01*
X038901Y025628D01*
D02*
G37*
G36*
X038801Y025628D02*
X038766Y025621D01*
X038694Y025572D01*
X038646Y0255D01*
X038629Y025415D01*
Y025229D01*
X038801D01*
Y025628D01*
D02*
G37*
G36*
X0301Y026426D02*
X029984Y026415D01*
X029872Y026381D01*
X029769Y026326D01*
X029679Y026252D01*
X029605Y026162D01*
X02955Y026059D01*
X029516Y025947D01*
X029505Y025831D01*
X029516Y025715D01*
X02955Y025603D01*
X029605Y025501D01*
X029679Y02541D01*
X029769Y025336D01*
X029872Y025281D01*
X029984Y025248D01*
X0301Y025236D01*
X030216Y025248D01*
X030328Y025281D01*
X030431Y025336D01*
X030521Y02541D01*
X030526Y025417D01*
X030612Y025498D01*
X030652Y02553D01*
X030691Y025558D01*
X030728Y025581D01*
X030763Y0256D01*
X030795Y025613D01*
X030825Y025622D01*
X030852Y025627D01*
X031643D01*
X031658Y025626D01*
X031679Y025622D01*
X031695Y025618D01*
X031697Y025617D01*
Y0252D01*
X032803D01*
Y0263D01*
X031697D01*
Y026045D01*
X031695Y026044D01*
X031679Y02604D01*
X031658Y026036D01*
X031643Y026035D01*
X030852D01*
X030825Y02604D01*
X030795Y026049D01*
X030763Y026063D01*
X030728Y026081D01*
X030691Y026104D01*
X030653Y026131D01*
X030568Y026204D01*
X030526Y026245D01*
X030521Y026252D01*
X030431Y026326D01*
X030328Y026381D01*
X030216Y026415D01*
X0301Y026426D01*
D02*
G37*
G36*
X038244Y024425D02*
X037977D01*
Y0241D01*
X038244D01*
Y024425D01*
D02*
G37*
G36*
X0312Y02415D02*
X03085D01*
Y0238D01*
X0312D01*
Y02415D01*
D02*
G37*
G36*
X03075D02*
X0304D01*
Y0238D01*
X03075D01*
Y02415D01*
D02*
G37*
G36*
X039074Y025129D02*
X038851D01*
X038629D01*
Y024943D01*
X038638Y024895D01*
X038647Y024746D01*
Y024456D01*
X03861Y024425D01*
X038344D01*
Y02405D01*
Y023675D01*
X03861D01*
Y023848D01*
X038678Y023862D01*
X038744Y023906D01*
X038995Y024157D01*
X03904Y024223D01*
X039055Y024301D01*
Y024782D01*
X039056Y024832D01*
X039059Y024866D01*
X039061Y024875D01*
X039061Y024878D01*
X039062Y024881D01*
X039063Y024892D01*
X039074Y024943D01*
Y025129D01*
D02*
G37*
G36*
X038244Y024D02*
X037977D01*
Y023675D01*
X038244D01*
Y024D01*
D02*
G37*
G36*
X034435Y024036D02*
Y023674D01*
X034797D01*
X034789Y023732D01*
X034748Y023833D01*
X034681Y02392D01*
X034594Y023986D01*
X034493Y024028D01*
X034435Y024036D01*
D02*
G37*
G36*
X034335Y024036D02*
X034277Y024028D01*
X034176Y023986D01*
X034089Y02392D01*
X034023Y023833D01*
X033981Y023732D01*
X033973Y023674D01*
X034335D01*
Y024036D01*
D02*
G37*
G36*
X0312Y0237D02*
X03085D01*
Y02335D01*
X0312D01*
Y0237D01*
D02*
G37*
G36*
X03075D02*
X0304D01*
Y02335D01*
X03075D01*
Y0237D01*
D02*
G37*
G36*
X034797Y023574D02*
X034435D01*
Y023212D01*
X034493Y02322D01*
X034594Y023262D01*
X034681Y023328D01*
X034748Y023415D01*
X034789Y023516D01*
X034797Y023574D01*
D02*
G37*
G36*
X034335D02*
X033973D01*
X033981Y023516D01*
X034023Y023415D01*
X034089Y023328D01*
X034176Y023262D01*
X034277Y02322D01*
X034335Y023212D01*
Y023574D01*
D02*
G37*
G36*
X02925Y024263D02*
X029091Y024247D01*
X028939Y024201D01*
X028799Y024126D01*
X028675Y024025D01*
X028574Y023901D01*
X028499Y023761D01*
X028453Y023609D01*
X028437Y02345D01*
X028453Y023291D01*
X028499Y023139D01*
X028574Y022999D01*
X028675Y022875D01*
X028799Y022774D01*
X028939Y022699D01*
X029091Y022653D01*
X02925Y022637D01*
X029409Y022653D01*
X029561Y022699D01*
X029701Y022774D01*
X029825Y022875D01*
X029926Y022999D01*
X030001Y023139D01*
X030047Y023291D01*
X030063Y02345D01*
X030047Y023609D01*
X030001Y023761D01*
X029926Y023901D01*
X029825Y024025D01*
X029701Y024126D01*
X029561Y024201D01*
X029409Y024247D01*
X02925Y024263D01*
D02*
G37*
G36*
X032803Y0247D02*
X031697D01*
Y0236D01*
X031966D01*
X031967Y023597D01*
X031971Y023582D01*
X031975Y023561D01*
X031976Y023546D01*
Y023127D01*
X031971Y023101D01*
X031962Y023071D01*
X031949Y023039D01*
X03193Y023004D01*
X031907Y022967D01*
X03188Y022929D01*
X031807Y022843D01*
X031766Y022802D01*
X031759Y022796D01*
X031754Y02279D01*
X031668Y022709D01*
X031628Y022676D01*
X031589Y022648D01*
X031552Y022625D01*
X031517Y022607D01*
X031485Y022594D01*
X031455Y022585D01*
X031428Y02258D01*
X031254D01*
X03124Y022581D01*
X031218Y022584D01*
X031203Y022588D01*
X0312Y02259D01*
Y0228D01*
X0304D01*
Y022D01*
X0312D01*
Y022161D01*
X031203Y022163D01*
X031218Y022167D01*
X03124Y02217D01*
X031254Y022172D01*
X031428D01*
X031455Y022167D01*
X031485Y022158D01*
X031517Y022144D01*
X031552Y022126D01*
X031589Y022103D01*
X031627Y022076D01*
X031712Y022002D01*
X031754Y021962D01*
X031759Y021955D01*
X031849Y021881D01*
X031952Y021826D01*
X032064Y021792D01*
X03218Y021781D01*
X032296Y021792D01*
X032408Y021826D01*
X032511Y021881D01*
X032601Y021955D01*
X032675Y022045D01*
X03273Y022148D01*
X032764Y02226D01*
X032775Y022376D01*
X032764Y022492D01*
X03273Y022603D01*
X032675Y022706D01*
X032601Y022796D01*
X032595Y022801D01*
X032513Y022888D01*
X032481Y022928D01*
X032453Y022967D01*
X03243Y023004D01*
X032411Y023039D01*
X032398Y023071D01*
X032389Y023101D01*
X032384Y023127D01*
Y023546D01*
X032385Y023561D01*
X032389Y023582D01*
X032393Y023597D01*
X032394Y0236D01*
X032803D01*
Y0247D01*
D02*
G37*
G36*
X034385Y022468D02*
X034277Y022453D01*
X034176Y022412D01*
X034089Y022345D01*
X034023Y022258D01*
X033981Y022158D01*
X033967Y022049D01*
X033981Y021941D01*
X034023Y02184D01*
X034089Y021753D01*
X034098Y021747D01*
X034112Y021732D01*
X034128Y021713D01*
X034141Y021694D01*
X034153Y021676D01*
X034162Y021657D01*
X03417Y021639D01*
X034176Y02162D01*
X03418Y021601D01*
X034181Y02159D01*
Y021219D01*
X033966Y021004D01*
X03296D01*
X03296Y021004D01*
X032934Y021009D01*
X032906Y021018D01*
X032878Y021032D01*
X032848Y02105D01*
X032817Y021073D01*
X032784Y021102D01*
X032751Y021136D01*
X032717Y021176D01*
X032695Y021206D01*
X032695Y021206D01*
X032694Y021207D01*
X032682Y021223D01*
X032678Y021227D01*
X032621Y021296D01*
X032531Y02137D01*
X032428Y021425D01*
X032316Y021459D01*
X0322Y021471D01*
X032084Y021459D01*
X031972Y021425D01*
X031869Y02137D01*
X031779Y021296D01*
X031705Y021206D01*
X03165Y021103D01*
X031616Y020992D01*
X031605Y020876D01*
X031616Y02076D01*
X03165Y020648D01*
X031705Y020545D01*
X031779Y020455D01*
X031869Y020381D01*
X031972Y020326D01*
X032084Y020292D01*
X0322Y020281D01*
X032316Y020292D01*
X032428Y020326D01*
X032531Y020381D01*
X03255Y020397D01*
X032554Y020399D01*
X03261Y020439D01*
X032661Y020474D01*
X032758Y020532D01*
X0328Y020553D01*
X032839Y02057D01*
X032874Y020583D01*
X032905Y020592D01*
X03293Y020596D01*
X03405D01*
X034128Y020612D01*
X034194Y020656D01*
X034529Y020991D01*
X034573Y021057D01*
X034589Y021135D01*
Y02159D01*
X03459Y021601D01*
X034595Y02162D01*
X0346Y021639D01*
X034608Y021657D01*
X034617Y021676D01*
X034629Y021694D01*
X034643Y021713D01*
X034659Y021732D01*
X034672Y021747D01*
X034681Y021753D01*
X034748Y02184D01*
X034789Y021941D01*
X034804Y022049D01*
X034789Y022158D01*
X034748Y022258D01*
X034681Y022345D01*
X034594Y022412D01*
X034493Y022453D01*
X034385Y022468D01*
D02*
G37*
G36*
X03745Y020972D02*
X037402Y020966D01*
X037311Y020928D01*
X037232Y020868D01*
X037172Y020789D01*
X037134Y020698D01*
X037128Y02065D01*
X03745D01*
Y020972D01*
D02*
G37*
G36*
X03655D02*
Y02065D01*
X036872D01*
X036866Y020698D01*
X036828Y020789D01*
X036768Y020868D01*
X036689Y020928D01*
X036598Y020966D01*
X03655Y020972D01*
D02*
G37*
G36*
X03645D02*
X036402Y020966D01*
X036311Y020928D01*
X036232Y020868D01*
X036172Y020789D01*
X036134Y020698D01*
X036128Y02065D01*
X03645D01*
Y020972D01*
D02*
G37*
G36*
X03745Y02055D02*
X037128D01*
X037134Y020502D01*
X037172Y020411D01*
X037232Y020332D01*
X037311Y020272D01*
X037402Y020234D01*
X03745Y020228D01*
Y02055D01*
D02*
G37*
G36*
X036872D02*
X03655D01*
Y020228D01*
X036598Y020234D01*
X036689Y020272D01*
X036768Y020332D01*
X036828Y020411D01*
X036866Y020502D01*
X036872Y02055D01*
D02*
G37*
G36*
X03645D02*
X036128D01*
X036134Y020502D01*
X036172Y020411D01*
X036232Y020332D01*
X036311Y020272D01*
X036402Y020234D01*
X03645Y020228D01*
Y02055D01*
D02*
G37*
G36*
X03705Y019972D02*
Y01965D01*
X037372D01*
X037366Y019698D01*
X037328Y019789D01*
X037268Y019868D01*
X037189Y019928D01*
X037098Y019966D01*
X03705Y019972D01*
D02*
G37*
G36*
X03695D02*
X036902Y019966D01*
X036811Y019928D01*
X036732Y019868D01*
X036672Y019789D01*
X036634Y019698D01*
X036628Y01965D01*
X03695D01*
Y019972D01*
D02*
G37*
G36*
X03605D02*
Y01965D01*
X036372D01*
X036366Y019698D01*
X036328Y019789D01*
X036268Y019868D01*
X036189Y019928D01*
X036098Y019966D01*
X03605Y019972D01*
D02*
G37*
G36*
X03595D02*
X035902Y019966D01*
X035811Y019928D01*
X035732Y019868D01*
X035672Y019789D01*
X035634Y019698D01*
X035628Y01965D01*
X03595D01*
Y019972D01*
D02*
G37*
G36*
X037372Y01955D02*
X03705D01*
Y019228D01*
X037098Y019234D01*
X037189Y019272D01*
X037268Y019332D01*
X037328Y019411D01*
X037366Y019502D01*
X037372Y01955D01*
D02*
G37*
G36*
X03695D02*
X036628D01*
X036634Y019502D01*
X036672Y019411D01*
X036732Y019332D01*
X036811Y019272D01*
X036902Y019234D01*
X03695Y019228D01*
Y01955D01*
D02*
G37*
G36*
X036372D02*
X03605D01*
Y019228D01*
X036098Y019234D01*
X036189Y019272D01*
X036268Y019332D01*
X036328Y019411D01*
X036366Y019502D01*
X036372Y01955D01*
D02*
G37*
G36*
X03595D02*
X035628D01*
X035634Y019502D01*
X035672Y019411D01*
X035732Y019332D01*
X035811Y019272D01*
X035902Y019234D01*
X03595Y019228D01*
Y01955D01*
D02*
G37*
%LPD*%
G36*
X041266Y03805D02*
X041264Y038069D01*
X041258Y038086D01*
X041248Y038101D01*
X041234Y038114D01*
X041216Y038125D01*
X041194Y038134D01*
X041168Y038141D01*
X041137Y038146D01*
X041103Y038149D01*
X041065Y03815D01*
Y03835D01*
X041103Y038351D01*
X041137Y038354D01*
X041168Y038359D01*
X041194Y038366D01*
X041216Y038375D01*
X041234Y038386D01*
X041248Y038399D01*
X041258Y038414D01*
X041264Y038431D01*
X041266Y03845D01*
Y03805D01*
D02*
G37*
G36*
X040736Y038431D02*
X040742Y038414D01*
X040752Y038399D01*
X040766Y038386D01*
X040784Y038375D01*
X040806Y038366D01*
X040832Y038359D01*
X040863Y038354D01*
X040897Y038351D01*
X040935Y03835D01*
Y03815D01*
X040897Y038149D01*
X040863Y038146D01*
X040832Y038141D01*
X040806Y038134D01*
X040784Y038125D01*
X040766Y038114D01*
X040752Y038101D01*
X040742Y038086D01*
X040736Y038069D01*
X040734Y03805D01*
Y03845D01*
X040736Y038431D01*
D02*
G37*
G36*
X040266Y03805D02*
X040264Y038069D01*
X040258Y038086D01*
X040248Y038101D01*
X040234Y038114D01*
X040216Y038125D01*
X040194Y038134D01*
X040168Y038141D01*
X040137Y038146D01*
X040103Y038149D01*
X040065Y03815D01*
Y03835D01*
X040103Y038351D01*
X040137Y038354D01*
X040168Y038359D01*
X040194Y038366D01*
X040216Y038375D01*
X040234Y038386D01*
X040248Y038399D01*
X040258Y038414D01*
X040264Y038431D01*
X040266Y03845D01*
Y03805D01*
D02*
G37*
G36*
X039736Y038431D02*
X039742Y038414D01*
X039752Y038399D01*
X039766Y038386D01*
X039784Y038375D01*
X039806Y038366D01*
X039832Y038359D01*
X039863Y038354D01*
X039897Y038351D01*
X039935Y03835D01*
Y03815D01*
X039897Y038149D01*
X039863Y038146D01*
X039832Y038141D01*
X039806Y038134D01*
X039784Y038125D01*
X039766Y038114D01*
X039752Y038101D01*
X039742Y038086D01*
X039736Y038069D01*
X039734Y03805D01*
Y03845D01*
X039736Y038431D01*
D02*
G37*
G36*
X039266Y03805D02*
X039264Y038069D01*
X039258Y038086D01*
X039248Y038101D01*
X039234Y038114D01*
X039216Y038125D01*
X039194Y038134D01*
X039168Y038141D01*
X039137Y038146D01*
X039103Y038149D01*
X039065Y03815D01*
Y03835D01*
X039103Y038351D01*
X039137Y038354D01*
X039168Y038359D01*
X039194Y038366D01*
X039216Y038375D01*
X039234Y038386D01*
X039248Y038399D01*
X039258Y038414D01*
X039264Y038431D01*
X039266Y03845D01*
Y03805D01*
D02*
G37*
G36*
X038736Y038431D02*
X038742Y038414D01*
X038752Y038399D01*
X038766Y038386D01*
X038784Y038375D01*
X038806Y038366D01*
X038832Y038359D01*
X038863Y038354D01*
X038897Y038351D01*
X038935Y03835D01*
Y03815D01*
X038897Y038149D01*
X038863Y038146D01*
X038832Y038141D01*
X038806Y038134D01*
X038784Y038125D01*
X038766Y038114D01*
X038752Y038101D01*
X038742Y038086D01*
X038736Y038069D01*
X038734Y03805D01*
Y03845D01*
X038736Y038431D01*
D02*
G37*
G36*
X038266Y03805D02*
X038264Y038069D01*
X038258Y038086D01*
X038248Y038101D01*
X038234Y038114D01*
X038216Y038125D01*
X038194Y038134D01*
X038168Y038141D01*
X038137Y038146D01*
X038103Y038149D01*
X038065Y03815D01*
Y03835D01*
X038103Y038351D01*
X038137Y038354D01*
X038168Y038359D01*
X038194Y038366D01*
X038216Y038375D01*
X038234Y038386D01*
X038248Y038399D01*
X038258Y038414D01*
X038264Y038431D01*
X038266Y03845D01*
Y03805D01*
D02*
G37*
G36*
X036151Y037807D02*
X036154Y037773D01*
X036159Y037743D01*
X036166Y037717D01*
X036175Y037695D01*
X036186Y037677D01*
X036199Y037663D01*
X036214Y037652D01*
X036231Y037646D01*
X03625Y037644D01*
X03585D01*
X035869Y037646D01*
X035886Y037652D01*
X035901Y037663D01*
X035914Y037677D01*
X035925Y037695D01*
X035934Y037717D01*
X035941Y037743D01*
X035946Y037773D01*
X035949Y037807D01*
X03595Y037846D01*
X03615D01*
X036151Y037807D01*
D02*
G37*
G36*
X046922Y037847D02*
X046925Y037847D01*
Y037647D01*
X046922Y037647D01*
Y037551D01*
X04692Y037569D01*
X046914Y037586D01*
X046904Y0376D01*
X04689Y037612D01*
X046872Y037623D01*
X04685Y037632D01*
X046824Y037638D01*
X046824Y037638D01*
X046823Y037638D01*
X046797Y037632D01*
X046775Y037623D01*
X046757Y037612D01*
X046743Y0376D01*
X046733Y037586D01*
X046727Y037569D01*
X046725Y037551D01*
Y037647D01*
X046722Y037647D01*
Y037847D01*
X046725Y037847D01*
Y037943D01*
X046727Y037924D01*
X046733Y037908D01*
X046743Y037894D01*
X046757Y037881D01*
X046775Y037871D01*
X046797Y037862D01*
X046823Y037855D01*
X046824Y037855D01*
X046824Y037855D01*
X04685Y037862D01*
X046872Y037871D01*
X04689Y037881D01*
X046904Y037894D01*
X046914Y037908D01*
X04692Y037924D01*
X046922Y037943D01*
Y037847D01*
D02*
G37*
G36*
X049942Y037551D02*
X04994Y037569D01*
X049934Y037586D01*
X049924Y0376D01*
X04991Y037612D01*
X049892Y037623D01*
X04987Y037632D01*
X049844Y037638D01*
X049838Y037639D01*
X049833Y037638D01*
X049807Y037632D01*
X049785Y037623D01*
X049767Y037612D01*
X049753Y0376D01*
X049743Y037586D01*
X049737Y037569D01*
X049735Y037551D01*
Y037943D01*
X049737Y037924D01*
X049743Y037908D01*
X049753Y037894D01*
X049767Y037881D01*
X049785Y037871D01*
X049807Y037862D01*
X049833Y037855D01*
X049838Y037855D01*
X049844Y037855D01*
X04987Y037862D01*
X049892Y037871D01*
X04991Y037881D01*
X049924Y037894D01*
X049934Y037908D01*
X04994Y037924D01*
X049942Y037943D01*
Y037551D01*
D02*
G37*
G36*
X049187D02*
X049185Y037569D01*
X049179Y037586D01*
X049169Y0376D01*
X049155Y037612D01*
X049137Y037623D01*
X049115Y037632D01*
X049089Y037638D01*
X049083Y037639D01*
X049078Y037638D01*
X049052Y037632D01*
X04903Y037623D01*
X049012Y037612D01*
X048998Y0376D01*
X048988Y037586D01*
X048982Y037569D01*
X04898Y037551D01*
Y037943D01*
X048982Y037924D01*
X048988Y037908D01*
X048998Y037894D01*
X049012Y037881D01*
X04903Y037871D01*
X049052Y037862D01*
X049078Y037855D01*
X049083Y037855D01*
X049089Y037855D01*
X049115Y037862D01*
X049137Y037871D01*
X049155Y037881D01*
X049169Y037894D01*
X049179Y037908D01*
X049185Y037924D01*
X049187Y037943D01*
Y037551D01*
D02*
G37*
G36*
X048432D02*
X04843Y037569D01*
X048424Y037586D01*
X048414Y0376D01*
X0484Y037612D01*
X048382Y037623D01*
X04836Y037632D01*
X048334Y037638D01*
X048329Y037639D01*
X048323Y037638D01*
X048297Y037632D01*
X048275Y037623D01*
X048257Y037612D01*
X048243Y0376D01*
X048233Y037586D01*
X048227Y037569D01*
X048225Y037551D01*
Y037943D01*
X048227Y037924D01*
X048233Y037908D01*
X048243Y037894D01*
X048257Y037881D01*
X048275Y037871D01*
X048297Y037862D01*
X048323Y037855D01*
X048329Y037855D01*
X048334Y037855D01*
X04836Y037862D01*
X048382Y037871D01*
X0484Y037881D01*
X048414Y037894D01*
X048424Y037908D01*
X04843Y037924D01*
X048432Y037943D01*
Y037551D01*
D02*
G37*
G36*
X047677D02*
X047675Y037569D01*
X047669Y037586D01*
X047659Y0376D01*
X047645Y037612D01*
X047627Y037623D01*
X047605Y037632D01*
X047579Y037638D01*
X047574Y037639D01*
X047568Y037638D01*
X047542Y037632D01*
X04752Y037623D01*
X047502Y037612D01*
X047488Y0376D01*
X047478Y037586D01*
X047472Y037569D01*
X04747Y037551D01*
Y037943D01*
X047472Y037924D01*
X047478Y037908D01*
X047488Y037894D01*
X047502Y037881D01*
X04752Y037871D01*
X047542Y037862D01*
X047568Y037855D01*
X047574Y037855D01*
X047579Y037855D01*
X047605Y037862D01*
X047627Y037871D01*
X047645Y037881D01*
X047659Y037894D01*
X047669Y037908D01*
X047675Y037924D01*
X047677Y037943D01*
Y037551D01*
D02*
G37*
G36*
X046177D02*
X046175Y037569D01*
X046169Y037586D01*
X046159Y0376D01*
X046145Y037612D01*
X046127Y037623D01*
X046105Y037632D01*
X046079Y037638D01*
X046074Y037639D01*
X046068Y037638D01*
X046042Y037632D01*
X04602Y037623D01*
X046002Y037612D01*
X045988Y0376D01*
X045978Y037586D01*
X045972Y037569D01*
X04597Y037551D01*
Y037943D01*
X045972Y037924D01*
X045978Y037908D01*
X045988Y037894D01*
X046002Y037881D01*
X04602Y037871D01*
X046042Y037862D01*
X046068Y037855D01*
X046074Y037855D01*
X046079Y037855D01*
X046105Y037862D01*
X046127Y037871D01*
X046145Y037881D01*
X046159Y037894D01*
X046169Y037908D01*
X046175Y037924D01*
X046177Y037943D01*
Y037551D01*
D02*
G37*
G36*
X045423D02*
X045421Y037569D01*
X045415Y037586D01*
X045405Y0376D01*
X045391Y037612D01*
X045373Y037623D01*
X045351Y037632D01*
X045325Y037638D01*
X045319Y037639D01*
X045313Y037638D01*
X045287Y037632D01*
X045265Y037623D01*
X045247Y037612D01*
X045233Y0376D01*
X045223Y037586D01*
X045217Y037569D01*
X045215Y037551D01*
Y037943D01*
X045217Y037924D01*
X045223Y037908D01*
X045233Y037894D01*
X045247Y037881D01*
X045265Y037871D01*
X045287Y037862D01*
X045313Y037855D01*
X045319Y037855D01*
X045325Y037855D01*
X045351Y037862D01*
X045373Y037871D01*
X045391Y037881D01*
X045405Y037894D01*
X045415Y037908D01*
X045421Y037924D01*
X045423Y037943D01*
Y037551D01*
D02*
G37*
G36*
X044668D02*
X044666Y037569D01*
X04466Y037586D01*
X04465Y0376D01*
X044636Y037612D01*
X044618Y037623D01*
X044596Y037632D01*
X04457Y037638D01*
X044564Y037639D01*
X044558Y037638D01*
X044532Y037632D01*
X04451Y037623D01*
X044492Y037612D01*
X044478Y0376D01*
X044468Y037586D01*
X044462Y037569D01*
X04446Y037551D01*
Y037943D01*
X044462Y037924D01*
X044468Y037908D01*
X044478Y037894D01*
X044492Y037881D01*
X04451Y037871D01*
X044532Y037862D01*
X044558Y037855D01*
X044564Y037855D01*
X04457Y037855D01*
X044596Y037862D01*
X044618Y037871D01*
X044636Y037881D01*
X04465Y037894D01*
X04466Y037908D01*
X044666Y037924D01*
X044668Y037943D01*
Y037551D01*
D02*
G37*
G36*
X043812Y038044D02*
Y037797D01*
X044187D01*
Y037747D01*
X044237D01*
Y03745D01*
X044449D01*
X044449Y03745D01*
X044451Y03745D01*
X044457D01*
X04446Y037449D01*
X044464Y03745D01*
X044562D01*
Y03745D01*
X044566D01*
Y03745D01*
X044664D01*
X044668Y037449D01*
X044672Y03745D01*
X044677D01*
X044679Y03745D01*
X044679Y03745D01*
X044892D01*
Y037747D01*
X044991D01*
Y03745D01*
X045204D01*
X045204Y03745D01*
X045206Y03745D01*
X045211D01*
X045215Y037449D01*
X045219Y03745D01*
X045317D01*
Y03745D01*
X045321D01*
Y03745D01*
X045419D01*
X045423Y037449D01*
X045426Y03745D01*
X045432D01*
X045434Y03745D01*
X045434Y03745D01*
X045646D01*
Y037747D01*
X045746D01*
Y03745D01*
X045959D01*
X045959Y03745D01*
X045961Y03745D01*
X045966D01*
X04597Y037449D01*
X045974Y03745D01*
X046071D01*
Y03745D01*
X046076D01*
Y03745D01*
X046174D01*
X046177Y037449D01*
X046181Y03745D01*
X046187D01*
X046189Y03745D01*
X046189Y03745D01*
X046401D01*
Y037747D01*
X046501D01*
Y03745D01*
X046713D01*
X046714Y03745D01*
X046716Y03745D01*
X046721D01*
X046725Y037449D01*
X046729Y03745D01*
X046919D01*
X046922Y037449D01*
X046926Y03745D01*
X046932D01*
X046934Y03745D01*
X046934Y03745D01*
X047146D01*
Y037747D01*
X047246D01*
Y03745D01*
X047458D01*
X047459Y03745D01*
X047461Y03745D01*
X047466D01*
X04747Y037449D01*
X047474Y03745D01*
X047571D01*
Y03745D01*
X047576D01*
Y03745D01*
X047673D01*
X047677Y037449D01*
X047681Y03745D01*
X047687D01*
X047688Y03745D01*
X047689Y03745D01*
X047901D01*
Y037747D01*
X048001D01*
Y03745D01*
X048213D01*
X048214Y03745D01*
X048215Y03745D01*
X048221D01*
X048225Y037449D01*
X048229Y03745D01*
X048326D01*
Y03745D01*
X048331D01*
Y03745D01*
X048428D01*
X048432Y037449D01*
X048436Y03745D01*
X048442D01*
X048443Y03745D01*
X048444Y03745D01*
X048717D01*
X048738Y0374D01*
X04858Y037242D01*
X048541Y037184D01*
X048533Y037144D01*
X048331D01*
Y037144D01*
X048326D01*
Y037144D01*
X047576D01*
Y037144D01*
X047571D01*
Y037144D01*
X046076D01*
Y037144D01*
X046071D01*
Y037144D01*
X045321D01*
Y037144D01*
X045317D01*
Y037144D01*
X044566D01*
Y037144D01*
X044562D01*
Y037144D01*
X043924D01*
X043924Y037144D01*
X043922Y037144D01*
X043917D01*
X043913Y037144D01*
X043909Y037144D01*
X043812D01*
Y03706D01*
X043809Y037059D01*
X043794Y037055D01*
X043772Y037052D01*
X043758Y037051D01*
X039251D01*
X039173Y037035D01*
X039107Y036991D01*
X038377Y036261D01*
X038333Y036195D01*
X038317Y036117D01*
Y035641D01*
X038316Y035626D01*
X038313Y035605D01*
X038308Y03559D01*
X038307Y035586D01*
X038164D01*
Y034914D01*
X038341D01*
X038342Y034907D01*
X038343Y034897D01*
Y034548D01*
X038356Y03448D01*
X038395Y034422D01*
X038692Y034125D01*
X038673Y034078D01*
X038341D01*
X038341Y034078D01*
X038273Y034065D01*
X038215Y034026D01*
X038215Y034026D01*
X037539Y03335D01*
X03702Y033869D01*
X036954Y033913D01*
X036876Y033929D01*
X036304D01*
X036289Y03393D01*
X03628Y033932D01*
X036251Y033974D01*
X03625Y033978D01*
Y034075D01*
X036185D01*
X036183Y034086D01*
X036179Y034127D01*
Y034384D01*
X036182Y034401D01*
X036187Y034422D01*
X036196Y034444D01*
X036207Y034467D01*
X036221Y03449D01*
X036238Y034514D01*
X036259Y034538D01*
X036283Y034563D01*
X036313Y03459D01*
X036315Y034593D01*
X036339Y034611D01*
X036415Y03471D01*
X036463Y034826D01*
X036479Y03495D01*
X036463Y035074D01*
X036415Y03519D01*
X03636Y035261D01*
X036357Y035266D01*
X036347Y035278D01*
X036339Y035289D01*
X036336Y035291D01*
X03633Y035298D01*
X036307Y035328D01*
X036287Y035357D01*
X03627Y035385D01*
X036256Y035412D01*
X036245Y035438D01*
X036237Y035462D01*
X036231Y035485D01*
X036229Y035502D01*
Y036199D01*
X03623Y036214D01*
X036234Y036235D01*
X036238Y036251D01*
X036239Y036253D01*
X036312D01*
X036313Y036253D01*
X036314Y036253D01*
X03632D01*
X036324Y036252D01*
X036328Y036253D01*
X036425D01*
Y036337D01*
X036427Y036337D01*
X036443Y036341D01*
X036464Y036345D01*
X036478Y036346D01*
X03777D01*
X037848Y036362D01*
X037914Y036406D01*
X038755Y037246D01*
X042479D01*
X042557Y037262D01*
X042623Y037306D01*
X043363Y038046D01*
X043763D01*
X043812Y038044D01*
D02*
G37*
G36*
X043913Y036651D02*
X043911Y036669D01*
X043905Y036686D01*
X043895Y0367D01*
X043881Y036712D01*
X043863Y036723D01*
X043841Y036732D01*
X043815Y036738D01*
X043785Y036743D01*
X043751Y036746D01*
X043713Y036747D01*
Y036947D01*
X043751Y036948D01*
X043785Y036951D01*
X043815Y036955D01*
X043841Y036962D01*
X043863Y036971D01*
X043881Y036981D01*
X043895Y036994D01*
X043905Y037008D01*
X043911Y037024D01*
X043913Y037043D01*
Y036651D01*
D02*
G37*
G36*
X043772Y036642D02*
X043794Y036638D01*
X043809Y036634D01*
X043812Y036633D01*
Y036557D01*
X040053D01*
X040053Y036557D01*
X039975Y036542D01*
X039909Y036497D01*
X039377Y035965D01*
X039333Y035899D01*
X039317Y035821D01*
Y035641D01*
X039316Y035626D01*
X039313Y035605D01*
X039308Y03559D01*
X039307Y035586D01*
X039164D01*
Y034914D01*
X039341D01*
X039342Y034907D01*
X039343Y034897D01*
Y034865D01*
X039356Y034797D01*
X039395Y034739D01*
X039709Y034425D01*
X03969Y034378D01*
X038943D01*
X0387Y034622D01*
Y034897D01*
X0387Y034907D01*
X038702Y034914D01*
X038836D01*
Y035586D01*
X038735D01*
X038734Y03559D01*
X03873Y035605D01*
X038726Y035626D01*
X038725Y035641D01*
Y036032D01*
X039336Y036643D01*
X043758D01*
X043772Y036642D01*
D02*
G37*
G36*
X050037Y036543D02*
X050037Y036534D01*
Y033786D01*
X049387Y033135D01*
X048828D01*
X048818Y033185D01*
X04887Y033206D01*
X04894Y03326D01*
X048944Y033265D01*
X048955Y033276D01*
X048968Y033287D01*
X04898Y033296D01*
X048993Y033303D01*
X049005Y03331D01*
X049017Y033314D01*
X049029Y033318D01*
X049041Y033321D01*
X049046Y033322D01*
X049211D01*
X049279Y033335D01*
X049337Y033374D01*
X049587Y033624D01*
X049587Y033624D01*
X049626Y033682D01*
X049639Y03375D01*
Y036534D01*
X04964Y036543D01*
X049641Y03655D01*
X049836D01*
Y03655D01*
X049841D01*
Y03655D01*
X050035D01*
X050037Y036543D01*
D02*
G37*
G36*
X047772D02*
X047773Y036534D01*
Y034771D01*
X047539Y034538D01*
X047501Y03448D01*
X047487Y034412D01*
X047489Y034405D01*
X047487Y034396D01*
Y033908D01*
X047486Y033902D01*
X047483Y033892D01*
X047479Y03388D01*
X047473Y033868D01*
X047465Y033854D01*
X047456Y03384D01*
X047444Y033825D01*
X04743Y033808D01*
X047428Y033807D01*
X047381Y033824D01*
X047378Y033827D01*
Y036534D01*
X047379Y036543D01*
X04738Y03655D01*
X047571D01*
Y03655D01*
X047576D01*
Y03655D01*
X047771D01*
X047772Y036543D01*
D02*
G37*
G36*
X046238Y036547D02*
X046243Y036532D01*
X046246Y036511D01*
X046247Y036496D01*
Y035824D01*
X045961Y035538D01*
X045942Y035523D01*
X045917Y035506D01*
X045892Y035492D01*
X045866Y03548D01*
X04584Y03547D01*
X045812Y035462D01*
X045783Y035457D01*
X045759Y035454D01*
X04189D01*
X041875Y035455D01*
X041854Y035459D01*
X041839Y035463D01*
X041836Y035464D01*
Y035586D01*
X041873Y035617D01*
X045472D01*
X04555Y035633D01*
X045617Y035677D01*
X045841Y035901D01*
X045841Y035901D01*
X045885Y035967D01*
X0459Y036045D01*
X0459Y036045D01*
Y036496D01*
X045902Y036511D01*
X045905Y036532D01*
X045909Y036547D01*
X04591Y03655D01*
X046071D01*
Y03655D01*
X046076D01*
Y03655D01*
X046237D01*
X046238Y036547D01*
D02*
G37*
G36*
X045484D02*
X045488Y036532D01*
X045491Y036511D01*
X045492Y036496D01*
Y03613D01*
X045388Y036025D01*
X040693D01*
X040614Y03601D01*
X040548Y035965D01*
X040377Y035794D01*
X040333Y035728D01*
X040317Y03565D01*
Y035603D01*
X040317Y035601D01*
X040315Y035586D01*
X040164D01*
Y034914D01*
X040351D01*
X040356Y034885D01*
X040395Y034827D01*
X040547Y034675D01*
X040528Y034628D01*
X04001D01*
X039771Y034868D01*
X03979Y034914D01*
X039836D01*
Y035586D01*
X039735D01*
X039734Y03559D01*
X03973Y035605D01*
X039726Y035626D01*
X039725Y035641D01*
Y035737D01*
X040138Y036149D01*
X044823D01*
X044901Y036165D01*
X044967Y036209D01*
X045078Y03632D01*
X045122Y036386D01*
X045137Y036464D01*
Y036509D01*
X045138Y03652D01*
X045141Y03654D01*
X045144Y03655D01*
X045317D01*
Y03655D01*
X045321D01*
Y03655D01*
X045483D01*
X045484Y036547D01*
D02*
G37*
G36*
X050351Y036651D02*
X050339Y036646D01*
X050327Y036639D01*
X050318Y036628D01*
X050309Y036615D01*
X050303Y036598D01*
X050297Y036578D01*
X050294Y036556D01*
X050291Y03653D01*
X050291Y036501D01*
X050141D01*
X05014Y03653D01*
X050138Y036556D01*
X050134Y036578D01*
X050129Y036598D01*
X050122Y036615D01*
X050114Y036628D01*
X050104Y036639D01*
X050093Y036646D01*
X05008Y036651D01*
X050066Y036652D01*
X050366D01*
X050351Y036651D01*
D02*
G37*
G36*
X049597D02*
X049584Y036646D01*
X049573Y036639D01*
X049563Y036628D01*
X049555Y036615D01*
X049548Y036598D01*
X049543Y036578D01*
X049539Y036556D01*
X049537Y03653D01*
X049536Y036501D01*
X049386D01*
X049385Y03653D01*
X049383Y036556D01*
X049379Y036578D01*
X049374Y036598D01*
X049367Y036615D01*
X049359Y036628D01*
X049349Y036639D01*
X049338Y036646D01*
X049325Y036651D01*
X049311Y036652D01*
X049611D01*
X049597Y036651D01*
D02*
G37*
G36*
X048087D02*
X048074Y036646D01*
X048063Y036639D01*
X048053Y036628D01*
X048045Y036615D01*
X048038Y036598D01*
X048033Y036578D01*
X048029Y036556D01*
X048027Y03653D01*
X048026Y036501D01*
X047876D01*
X047875Y03653D01*
X047873Y036556D01*
X047869Y036578D01*
X047864Y036598D01*
X047857Y036615D01*
X047849Y036628D01*
X047839Y036639D01*
X047828Y036646D01*
X047815Y036651D01*
X047801Y036652D01*
X048101D01*
X048087Y036651D01*
D02*
G37*
G36*
X047336D02*
X047323Y036646D01*
X047312Y036639D01*
X047302Y036628D01*
X047294Y036615D01*
X047287Y036598D01*
X047282Y036578D01*
X047278Y036556D01*
X047276Y03653D01*
X047275Y036501D01*
X047125D01*
X047124Y03653D01*
X047122Y036556D01*
X047118Y036578D01*
X047113Y036598D01*
X047106Y036615D01*
X047098Y036628D01*
X047088Y036639D01*
X047077Y036646D01*
X047064Y036651D01*
X04705Y036652D01*
X04735D01*
X047336Y036651D01*
D02*
G37*
G36*
X045104Y036651D02*
X045089Y036645D01*
X045076Y036635D01*
X045065Y036622D01*
X045055Y036605D01*
X045047Y036585D01*
X045041Y03656D01*
X045037Y036532D01*
X045034Y0365D01*
X045033Y036464D01*
X044833D01*
X044833Y0365D01*
X04483Y036532D01*
X044826Y03656D01*
X04482Y036585D01*
X044812Y036605D01*
X044802Y036622D01*
X044791Y036635D01*
X044778Y036645D01*
X044763Y036651D01*
X044746Y036652D01*
X045121D01*
X045104Y036651D01*
D02*
G37*
G36*
X046632Y03665D02*
X046615Y036644D01*
X0466Y036634D01*
X046587Y03662D01*
X046576Y036602D01*
X046567Y03658D01*
X04656Y036554D01*
X046555Y036524D01*
X046552Y036489D01*
X046551Y036451D01*
X046351D01*
X04635Y036489D01*
X046347Y036524D01*
X046342Y036554D01*
X046335Y03658D01*
X046326Y036602D01*
X046315Y03662D01*
X046302Y036634D01*
X046287Y036644D01*
X04627Y03665D01*
X046251Y036652D01*
X046651D01*
X046632Y03665D01*
D02*
G37*
G36*
X045877D02*
X04586Y036644D01*
X045845Y036634D01*
X045832Y03662D01*
X045821Y036602D01*
X045812Y03658D01*
X045805Y036554D01*
X0458Y036524D01*
X045797Y036489D01*
X045796Y036451D01*
X045596D01*
X045595Y036489D01*
X045592Y036524D01*
X045587Y036554D01*
X04558Y03658D01*
X045571Y036602D01*
X04556Y03662D01*
X045547Y036634D01*
X045532Y036644D01*
X045515Y03665D01*
X045496Y036652D01*
X045896D01*
X045877Y03665D01*
D02*
G37*
G36*
X036326Y036727D02*
X036332Y036711D01*
X036342Y036697D01*
X036356Y036684D01*
X036374Y036674D01*
X036396Y036665D01*
X036422Y036659D01*
X036452Y036654D01*
X036486Y036651D01*
X036524Y03665D01*
Y03645D01*
X036486Y036449D01*
X036452Y036446D01*
X036422Y036441D01*
X036396Y036435D01*
X036374Y036426D01*
X036356Y036416D01*
X036342Y036403D01*
X036332Y036389D01*
X036326Y036373D01*
X036324Y036354D01*
Y036746D01*
X036326Y036727D01*
D02*
G37*
G36*
X036206Y036354D02*
X036189Y036347D01*
X036174Y036337D01*
X036161Y036323D01*
X03615Y036305D01*
X036141Y036283D01*
X036134Y036257D01*
X036129Y036227D01*
X036126Y036193D01*
X036125Y036154D01*
X035925D01*
X035924Y036193D01*
X035921Y036227D01*
X035916Y036257D01*
X035909Y036283D01*
X0359Y036305D01*
X035889Y036323D01*
X035876Y036337D01*
X035861Y036347D01*
X035844Y036354D01*
X035825Y036356D01*
X036225D01*
X036206Y036354D01*
D02*
G37*
G36*
X040622Y035619D02*
X040627Y035566D01*
X040632Y035544D01*
X040638Y035526D01*
X040645Y035511D01*
X040653Y0355D01*
X040663Y035492D01*
X040674Y035487D01*
X040686Y035485D01*
X040356D01*
X040369Y035487D01*
X04038Y035492D01*
X040389Y0355D01*
X040398Y035511D01*
X040405Y035526D01*
X040411Y035544D01*
X040415Y035566D01*
X040419Y035591D01*
X040421Y035619D01*
X040421Y03565D01*
X040621D01*
X040622Y035619D01*
D02*
G37*
G36*
X039622Y035647D02*
X039625Y035613D01*
X03963Y035583D01*
X039637Y035557D01*
X039646Y035535D01*
X039657Y035517D01*
X03967Y035503D01*
X039685Y035493D01*
X039702Y035487D01*
X039721Y035485D01*
X039321D01*
X03934Y035487D01*
X039357Y035493D01*
X039372Y035503D01*
X039385Y035517D01*
X039396Y035535D01*
X039405Y035557D01*
X039412Y035583D01*
X039417Y035613D01*
X03942Y035647D01*
X039421Y035685D01*
X039621D01*
X039622Y035647D01*
D02*
G37*
G36*
X038622D02*
X038625Y035613D01*
X03863Y035583D01*
X038637Y035557D01*
X038646Y035535D01*
X038657Y035517D01*
X03867Y035503D01*
X038685Y035493D01*
X038702Y035487D01*
X038721Y035485D01*
X038321D01*
X03834Y035487D01*
X038357Y035493D01*
X038372Y035503D01*
X038385Y035517D01*
X038396Y035535D01*
X038405Y035557D01*
X038412Y035583D01*
X038417Y035613D01*
X03842Y035647D01*
X038421Y035685D01*
X038621D01*
X038622Y035647D01*
D02*
G37*
G36*
X036125Y035529D02*
X036127Y035497D01*
X036131Y035466D01*
X036139Y035434D01*
X03615Y035401D01*
X036164Y035369D01*
X036181Y035336D01*
X036201Y035302D01*
X036224Y035268D01*
X03625Y035234D01*
X03628Y0352D01*
X035756Y035235D01*
X035788Y035264D01*
X035817Y035293D01*
X035842Y035323D01*
X035864Y035354D01*
X035883Y035384D01*
X035898Y035415D01*
X03591Y035446D01*
X035918Y035478D01*
X035923Y03551D01*
X035925Y035542D01*
X036125Y035529D01*
D02*
G37*
G36*
X041736Y035431D02*
X041742Y035414D01*
X041752Y035399D01*
X041766Y035386D01*
X041784Y035375D01*
X041806Y035366D01*
X041832Y035359D01*
X041863Y035354D01*
X041897Y035351D01*
X041935Y03535D01*
Y03515D01*
X041897Y035149D01*
X041863Y035146D01*
X041832Y035141D01*
X041806Y035134D01*
X041784Y035125D01*
X041766Y035114D01*
X041752Y035101D01*
X041742Y035086D01*
X041736Y035069D01*
X041734Y03505D01*
Y03545D01*
X041736Y035431D01*
D02*
G37*
G36*
X046227Y035374D02*
X046201Y035346D01*
X04618Y035319D01*
X046164Y035292D01*
X046153Y035266D01*
X046147Y035241D01*
X046146Y035217D01*
X04615Y035193D01*
X046159Y03517D01*
X046173Y035148D01*
X046191Y035126D01*
X046061Y035044D01*
X046039Y035064D01*
X046015Y035082D01*
X045989Y035098D01*
X045962Y035112D01*
X045932Y035123D01*
X0459Y035133D01*
X045867Y03514D01*
X045832Y035146D01*
X045794Y035149D01*
X045755Y03515D01*
X04572Y03535D01*
X045759Y035351D01*
X045798Y035356D01*
X045835Y035363D01*
X045871Y035373D01*
X045905Y035385D01*
X045939Y035401D01*
X045971Y035419D01*
X046003Y035441D01*
X046033Y035465D01*
X046061Y035491D01*
X046227Y035374D01*
D02*
G37*
G36*
X0406Y03506D02*
X040599Y035055D01*
X040599Y035049D01*
X040598Y035031D01*
X040596Y034953D01*
X040446D01*
X040441Y035062D01*
X040601D01*
X0406Y03506D01*
D02*
G37*
G36*
X038657Y035015D02*
X038644Y03501D01*
X038633Y035003D01*
X038623Y034992D01*
X038615Y034978D01*
X038608Y034962D01*
X038603Y034942D01*
X038599Y034919D01*
X038597Y034894D01*
X038596Y034865D01*
X038446D01*
X038446Y034894D01*
X038443Y034919D01*
X03844Y034942D01*
X038434Y034962D01*
X038428Y034978D01*
X038419Y034992D01*
X03841Y035003D01*
X038398Y03501D01*
X038386Y035015D01*
X038371Y035016D01*
X038671D01*
X038657Y035015D01*
D02*
G37*
G36*
X039597Y035016D02*
X039671D01*
X039657Y035015D01*
X039644Y03501D01*
X039633Y035003D01*
X039623Y034992D01*
X039615Y034978D01*
X039608Y034962D01*
X039603Y034942D01*
X039599Y034919D01*
X039597Y034894D01*
X039596Y034865D01*
Y034865D01*
X039446D01*
Y034865D01*
X039446Y034894D01*
X039443Y034919D01*
X03944Y034942D01*
X039434Y034962D01*
X039428Y034978D01*
X039419Y034992D01*
X03941Y035003D01*
X039398Y03501D01*
X039386Y035015D01*
X039371Y035016D01*
X039446D01*
X039446Y035056D01*
X039597D01*
X039597Y035016D01*
D02*
G37*
G36*
X036244Y034665D02*
X036212Y034636D01*
X036183Y034607D01*
X036158Y034577D01*
X036136Y034546D01*
X036117Y034516D01*
X036102Y034485D01*
X03609Y034454D01*
X036082Y034422D01*
X036077Y03439D01*
X036075Y034358D01*
X035875Y034371D01*
X035873Y034403D01*
X035869Y034434D01*
X035861Y034466D01*
X03585Y034499D01*
X035836Y034531D01*
X035819Y034564D01*
X035799Y034598D01*
X035776Y034632D01*
X03575Y034666D01*
X03572Y0347D01*
X036244Y034665D01*
D02*
G37*
G36*
X04582Y035044D02*
X045848Y03504D01*
X045875Y035034D01*
X045898Y035027D01*
X04592Y035019D01*
X04594Y035009D01*
X045958Y034998D01*
X045972Y034987D01*
X046212Y034747D01*
Y034145D01*
X046162Y034124D01*
X045612Y034674D01*
X045586Y034691D01*
X045401Y034876D01*
X045343Y034915D01*
X045275Y034928D01*
X041836D01*
Y035036D01*
X041839Y035037D01*
X041854Y035041D01*
X041875Y035045D01*
X04189Y035046D01*
X045801D01*
X04582Y035044D01*
D02*
G37*
G36*
X036076Y034136D02*
X036082Y034072D01*
X036087Y034046D01*
X036093Y034024D01*
X036102Y034006D01*
X036111Y033992D01*
X036122Y033982D01*
X036135Y033976D01*
X036149Y033974D01*
X035775D01*
X035794Y033976D01*
X035811Y033982D01*
X035826Y033992D01*
X035839Y034006D01*
X03585Y034024D01*
X035859Y034046D01*
X035866Y034072D01*
X035871Y034102D01*
X035874Y034136D01*
X035875Y034174D01*
X036075D01*
X036076Y034136D01*
D02*
G37*
G36*
X047711Y033901D02*
X047714Y033881D01*
X047719Y033861D01*
X047727Y033841D01*
X047736Y033821D01*
X047748Y0338D01*
X047762Y03378D01*
X047777Y03376D01*
X047795Y033739D01*
X047815Y033719D01*
X047485D01*
X047505Y033739D01*
X047523Y03376D01*
X047538Y03378D01*
X047552Y0338D01*
X047564Y033821D01*
X047573Y033841D01*
X047581Y033861D01*
X047586Y033881D01*
X047589Y033901D01*
X04759Y03392D01*
X04771D01*
X047711Y033901D01*
D02*
G37*
G36*
X050572Y031669D02*
X050522Y031659D01*
X050509Y031688D01*
X050456Y031759D01*
X050385Y031813D01*
X050304Y031846D01*
X050216Y031858D01*
X050128Y031846D01*
X050046Y031813D01*
X049976Y031759D01*
X049972Y031753D01*
X049961Y031743D01*
X049948Y031732D01*
X049935Y031723D01*
X049923Y031715D01*
X049911Y031709D01*
X049899Y031704D01*
X049887Y031701D01*
X049875Y031698D01*
X049869Y031697D01*
X049356D01*
Y032266D01*
X048606D01*
Y032266D01*
X04857Y032271D01*
X04857Y032271D01*
X048558Y032271D01*
X04782D01*
Y031571D01*
X048446D01*
X048465Y031525D01*
X048401Y031461D01*
X04839Y031443D01*
X04833Y031384D01*
X048316Y031371D01*
X04782D01*
Y031177D01*
X047793Y031172D01*
X04774Y031136D01*
X047535Y030931D01*
X047499Y030878D01*
X047487Y030816D01*
Y029848D01*
X047437Y029822D01*
X047409Y029841D01*
X047385Y029845D01*
Y029496D01*
Y029146D01*
X047409Y029151D01*
X047459Y029184D01*
X047493Y029189D01*
X047526Y029184D01*
X047576Y029151D01*
X04765Y029136D01*
X047724Y029151D01*
X047774Y029184D01*
X047807Y029189D01*
X047841Y029184D01*
X047891Y029151D01*
X047965Y029136D01*
X048039Y029151D01*
X048089Y029184D01*
X048122Y029189D01*
X048156Y029184D01*
X048206Y029151D01*
X04828Y029136D01*
X048354Y029151D01*
X048404Y029184D01*
X048437Y029189D01*
X048471Y029184D01*
X048521Y029151D01*
X048595Y029136D01*
X048651Y029147D01*
X04867Y0291D01*
X048658Y029092D01*
X048034Y028468D01*
X047987Y028491D01*
X047989Y028509D01*
X047978Y028596D01*
X047944Y028678D01*
X04789Y028748D01*
X04782Y028802D01*
X047738Y028836D01*
X04765Y028848D01*
X047562Y028836D01*
X04748Y028802D01*
X04741Y028748D01*
X047356Y028678D01*
X047322Y028596D01*
X047311Y028509D01*
X047313Y028492D01*
X047312Y028488D01*
X047313Y028463D01*
X047313Y028443D01*
X047306Y028435D01*
X047256Y028456D01*
Y02884D01*
X047243Y028902D01*
X047208Y028955D01*
X047183Y02898D01*
Y029143D01*
X047233Y02917D01*
X047261Y029151D01*
X047285Y029146D01*
Y029496D01*
Y029845D01*
X047261Y029841D01*
X047211Y029807D01*
X047178Y029802D01*
X047144Y029807D01*
X047094Y029841D01*
X04702Y029855D01*
X046947Y029841D01*
X046896Y029807D01*
X046863Y029802D01*
X046829Y029807D01*
X046779Y029841D01*
X046705Y029855D01*
X046632Y029841D01*
X046619Y029832D01*
X046569Y029859D01*
Y034821D01*
X046555Y03489D01*
X046516Y034948D01*
X046516Y034948D01*
X046254Y03521D01*
X046251Y035216D01*
X046249Y03522D01*
X046248Y035223D01*
X046249Y035227D01*
X04625Y035234D01*
X046255Y035246D01*
X046264Y035261D01*
X046276Y035276D01*
X046595Y035596D01*
X046595Y035596D01*
X04664Y035662D01*
X046655Y03574D01*
X046655Y03574D01*
Y036496D01*
X046657Y036511D01*
X04666Y036532D01*
X046664Y036547D01*
X046665Y03655D01*
X04702D01*
X047021Y036543D01*
X047022Y036534D01*
Y032446D01*
X047021Y032441D01*
X047018Y032429D01*
X047014Y032417D01*
X04701Y032405D01*
X047003Y032393D01*
X046996Y03238D01*
X046987Y032368D01*
X046976Y032355D01*
X046965Y032344D01*
X04696Y03234D01*
X046906Y03227D01*
X046872Y032188D01*
X046861Y0321D01*
X046872Y032012D01*
X046906Y03193D01*
X04696Y03186D01*
X04703Y031806D01*
X047112Y031772D01*
X0472Y031761D01*
X047288Y031772D01*
X04737Y031806D01*
X04744Y03186D01*
X047494Y03193D01*
X047528Y032012D01*
X047539Y0321D01*
X047528Y032188D01*
X047494Y03227D01*
X04744Y03234D01*
X047435Y032344D01*
X047424Y032355D01*
X047413Y032368D01*
X047404Y03238D01*
X047397Y032393D01*
X04739Y032405D01*
X047386Y032417D01*
X047382Y032429D01*
X047379Y032441D01*
X047378Y032446D01*
Y033273D01*
X047428Y033296D01*
X04748Y033256D01*
X047562Y033222D01*
X04765Y033211D01*
X047738Y033222D01*
X04782Y033256D01*
X04789Y03331D01*
X047944Y03338D01*
X047978Y033462D01*
X047989Y03355D01*
X047978Y033638D01*
X047944Y03372D01*
X04789Y03379D01*
X047884Y033794D01*
X04787Y033808D01*
X047856Y033825D01*
X047844Y03384D01*
X047835Y033854D01*
X047827Y033868D01*
X047821Y03388D01*
X047817Y033892D01*
X047814Y033902D01*
X047813Y033908D01*
Y034307D01*
X048077Y034571D01*
X048116Y034629D01*
X048129Y034697D01*
X048129Y034697D01*
Y036534D01*
X04813Y036543D01*
X048131Y03655D01*
X048326D01*
Y03655D01*
X048331D01*
Y03655D01*
X049081D01*
Y03655D01*
X049086D01*
Y03655D01*
X04928D01*
X049282Y036543D01*
X049282Y036534D01*
Y033824D01*
X049137Y033678D01*
X049046D01*
X049041Y033679D01*
X049029Y033682D01*
X049017Y033686D01*
X049005Y03369D01*
X048993Y033697D01*
X04898Y033704D01*
X048968Y033713D01*
X048955Y033724D01*
X048944Y033735D01*
X04894Y03374D01*
X04887Y033794D01*
X048788Y033828D01*
X0487Y033839D01*
X048612Y033828D01*
X04853Y033794D01*
X04846Y03374D01*
X048406Y03367D01*
X048372Y033588D01*
X048361Y0335D01*
X048372Y033412D01*
X048406Y03333D01*
X04846Y03326D01*
X04853Y033206D01*
X048582Y033185D01*
X048572Y033135D01*
X048369D01*
X0483Y033122D01*
X048242Y033083D01*
X048213Y033053D01*
X048208Y03305D01*
X048197Y033043D01*
X048186Y033037D01*
X048174Y033031D01*
X048161Y033027D01*
X048146Y033023D01*
X04813Y03302D01*
X048113Y033018D01*
X048104Y033018D01*
X0481Y033019D01*
X048092Y033017D01*
X048091Y033017D01*
X048091Y033017D01*
X048012Y033007D01*
X04793Y032973D01*
X04786Y032919D01*
X047806Y032849D01*
X047772Y032767D01*
X047761Y032679D01*
X047772Y032592D01*
X047806Y03251D01*
X04786Y03244D01*
X04793Y032386D01*
X048012Y032352D01*
X0481Y03234D01*
X048188Y032352D01*
X04827Y032386D01*
X04834Y03244D01*
X048394Y03251D01*
X048428Y032592D01*
X048439Y032679D01*
X048438Y032688D01*
X048438Y032688D01*
X048438Y03271D01*
X048439Y032726D01*
X048441Y032741D01*
X048444Y032755D01*
X048448Y032767D01*
X048453Y032778D01*
X049461D01*
X049529Y032792D01*
X049587Y032831D01*
X050342Y033585D01*
X050342Y033585D01*
X050381Y033643D01*
X050394Y033712D01*
X050394Y033712D01*
Y036534D01*
X050395Y036543D01*
X050396Y03655D01*
X050572D01*
Y031669D01*
D02*
G37*
G36*
X043039Y033677D02*
X043042Y033627D01*
X043043Y033619D01*
X043045Y033612D01*
X043047Y033608D01*
X043049Y033605D01*
X043052Y033604D01*
X042875D01*
X042878Y033605D01*
X04288Y033608D01*
X042882Y033612D01*
X042884Y033619D01*
X042885Y033627D01*
X042886Y033637D01*
X042888Y033662D01*
X042889Y033694D01*
X043039D01*
X043039Y033677D01*
D02*
G37*
G36*
X03615Y033906D02*
X036156Y033889D01*
X036166Y033874D01*
X03618Y033861D01*
X036198Y03385D01*
X03622Y033841D01*
X036246Y033834D01*
X036276Y033829D01*
X036311Y033826D01*
X036349Y033825D01*
Y033625D01*
X036311Y033624D01*
X036276Y033621D01*
X036246Y033616D01*
X03622Y033609D01*
X036198Y0336D01*
X03618Y033589D01*
X036166Y033576D01*
X036156Y033561D01*
X03615Y033544D01*
X036148Y033525D01*
Y033925D01*
X03615Y033906D01*
D02*
G37*
G36*
X048887Y033648D02*
X048905Y033633D01*
X048924Y033619D01*
X048943Y033608D01*
X048962Y033598D01*
X048982Y033589D01*
X049002Y033583D01*
X049023Y033579D01*
X049044Y033576D01*
X049066Y033575D01*
Y033425D01*
X049044Y033424D01*
X049023Y033421D01*
X049002Y033417D01*
X048982Y033411D01*
X048962Y033402D01*
X048943Y033392D01*
X048924Y033381D01*
X048905Y033367D01*
X048887Y033352D01*
X048869Y033335D01*
Y033665D01*
X048887Y033648D01*
D02*
G37*
G36*
X03613Y033474D02*
X036113Y033468D01*
X036098Y033458D01*
X036086Y033444D01*
X036075Y033426D01*
X036066Y033404D01*
X036059Y033378D01*
X036054Y033348D01*
X036051Y033314D01*
X03605Y033276D01*
X03585D01*
X035849Y033314D01*
X035846Y033348D01*
X035841Y033378D01*
X035834Y033404D01*
X035825Y033426D01*
X035814Y033444D01*
X035802Y033458D01*
X035787Y033468D01*
X03577Y033474D01*
X035751Y033476D01*
X036149D01*
X03613Y033474D01*
D02*
G37*
G36*
X042918Y032967D02*
X042918Y032958D01*
X043017D01*
X042998Y032956D01*
X042981Y03295D01*
X042966Y03294D01*
X042953Y032926D01*
X042942Y032908D01*
X042933Y032886D01*
X042931Y032881D01*
X042932Y032877D01*
X042941Y032855D01*
X042952Y032837D01*
X042965Y032823D01*
X04298Y032813D01*
X042997Y032807D01*
X043015Y032805D01*
X042918D01*
X042918Y032796D01*
X042917Y032758D01*
X042717D01*
X042717Y032805D01*
X042617D01*
X042636Y032807D01*
X042653Y032813D01*
X042668Y032823D01*
X042681Y032837D01*
X042692Y032855D01*
X042701Y032877D01*
X042708Y032903D01*
X042713Y032933D01*
X042716Y032967D01*
X042717Y033005D01*
X042917D01*
X042918Y032967D01*
D02*
G37*
G36*
X048409Y032891D02*
X048394Y032875D01*
X048381Y032858D01*
X04837Y03284D01*
X04836Y032821D01*
X048352Y032802D01*
X048345Y032781D01*
X048341Y032759D01*
X048338Y032736D01*
X048336Y032713D01*
X048336Y032688D01*
X048096Y032916D01*
X048121Y032917D01*
X048145Y032919D01*
X048168Y032924D01*
X04819Y032929D01*
X048211Y032936D01*
X04823Y032945D01*
X048249Y032955D01*
X048267Y032966D01*
X048284Y032979D01*
X0483Y032994D01*
X048409Y032891D01*
D02*
G37*
G36*
X047276Y032444D02*
X047279Y032423D01*
X047283Y032402D01*
X047289Y032382D01*
X047298Y032362D01*
X047308Y032343D01*
X047319Y032324D01*
X047333Y032305D01*
X047348Y032287D01*
X047365Y032269D01*
X047035D01*
X047052Y032287D01*
X047067Y032305D01*
X047081Y032324D01*
X047092Y032343D01*
X047102Y032362D01*
X047111Y032382D01*
X047117Y032402D01*
X047121Y032423D01*
X047124Y032444D01*
X047125Y032466D01*
X047275D01*
X047276Y032444D01*
D02*
G37*
G36*
X043015Y032257D02*
X043009Y032255D01*
X043003Y032249D01*
X042998Y032239D01*
X042994Y032225D01*
X04299Y032207D01*
X042987Y032185D01*
X042983Y032129D01*
X042982Y032057D01*
X042782D01*
X042781Y032095D01*
X042778Y03213D01*
X042773Y03216D01*
X042766Y032186D01*
X042757Y032208D01*
X042746Y032226D01*
X042733Y03224D01*
X042718Y03225D01*
X042701Y032256D01*
X042682Y032258D01*
X043015Y032257D01*
D02*
G37*
G36*
X044013Y032257D02*
X044007Y032255D01*
X044002Y032249D01*
X043997Y032239D01*
X043993Y032225D01*
X043989Y032207D01*
X043986Y032185D01*
X043983Y032129D01*
X043981Y032057D01*
X043781D01*
X04378Y032095D01*
X043777Y03213D01*
X043772Y03216D01*
X043765Y032186D01*
X043756Y032208D01*
X043745Y032226D01*
X043732Y03224D01*
X043717Y03225D01*
X0437Y032256D01*
X043681Y032258D01*
X044013Y032257D01*
D02*
G37*
G36*
X048707Y031773D02*
X048705Y031786D01*
X048699Y031797D01*
X048689Y031807D01*
X048675Y031815D01*
X048657Y031822D01*
X048635Y031828D01*
X048609Y031833D01*
X048594Y031835D01*
X048566Y03183D01*
X04854Y031823D01*
X048517Y031814D01*
X048499Y031803D01*
X048485Y03179D01*
X048475Y031775D01*
X048469Y031758D01*
X048467Y031739D01*
Y032139D01*
X048469Y03212D01*
X048475Y032103D01*
X048485Y032088D01*
X048499Y032075D01*
X048517Y032064D01*
X04854Y032055D01*
X048566Y032048D01*
X048588Y032044D01*
X04861Y032048D01*
X048636Y032055D01*
X048658Y032064D01*
X048676Y032075D01*
X04869Y032088D01*
X0487Y032103D01*
X048706Y03212D01*
X048708Y032139D01*
X048707Y031773D01*
D02*
G37*
G36*
X045607Y033812D02*
Y031765D01*
X045557Y031748D01*
X04553Y031783D01*
X04546Y031837D01*
X045378Y031871D01*
X04529Y031882D01*
X045274Y03188D01*
X045251Y031928D01*
X045434Y032111D01*
X045434Y032111D01*
X045473Y032169D01*
X045486Y032237D01*
X045486Y032237D01*
Y033862D01*
X045536Y033883D01*
X045607Y033812D01*
D02*
G37*
G36*
X053509Y035952D02*
Y031723D01*
X051621D01*
X051621Y031723D01*
X051606Y031725D01*
X051593Y031728D01*
X051581Y031731D01*
X051571Y031735D01*
X051562Y03174D01*
X051555Y031745D01*
X051548Y03175D01*
X051543Y031754D01*
X05154Y031759D01*
X05147Y031813D01*
X051388Y031846D01*
X0513Y031858D01*
X051212Y031846D01*
X05113Y031813D01*
X05106Y031759D01*
X051006Y031688D01*
X050978Y031621D01*
X050928Y031631D01*
Y037144D01*
X050928Y037144D01*
X050915Y037212D01*
X050876Y03727D01*
X050876Y03727D01*
X050723Y037423D01*
X050665Y037462D01*
X050597Y037475D01*
X050591D01*
Y037697D01*
X050216D01*
Y037797D01*
X050591D01*
Y038044D01*
X05064Y038046D01*
X051416D01*
X053509Y035952D01*
D02*
G37*
G36*
X042983Y031993D02*
X042987Y031964D01*
X042994Y031938D01*
X043004Y031913D01*
X043016Y031889D01*
X043031Y031867D01*
X043049Y031846D01*
X043069Y031827D01*
X043092Y031809D01*
X043118Y031793D01*
X042692Y031679D01*
X042709Y031709D01*
X042738Y031768D01*
X04275Y031797D01*
X042767Y031855D01*
X042774Y031883D01*
X042778Y031911D01*
X042781Y031938D01*
X042782Y031965D01*
X042982Y032022D01*
X042983Y031993D01*
D02*
G37*
G36*
X043983Y031993D02*
X043987Y031964D01*
X043994Y031938D01*
X044003Y031913D01*
X044015Y031889D01*
X04403Y031867D01*
X044048Y031846D01*
X044069Y031827D01*
X044092Y03181D01*
X044118Y031794D01*
X043692Y031678D01*
X043709Y031709D01*
X043738Y031768D01*
X043749Y031797D01*
X043767Y031854D01*
X043773Y031882D01*
X043778Y03191D01*
X04378Y031938D01*
X043781Y031965D01*
X043981Y032022D01*
X043983Y031993D01*
D02*
G37*
G36*
X044041Y031455D02*
X044041Y031453D01*
X04404Y031449D01*
X044039Y031438D01*
X044039Y031401D01*
X044039Y031389D01*
X043889D01*
X043885Y031457D01*
X044042D01*
X044041Y031455D01*
D02*
G37*
G36*
X051482Y031672D02*
X051497Y031661D01*
X051512Y031651D01*
X051529Y031642D01*
X051547Y031635D01*
X051567Y031629D01*
X051587Y031625D01*
X051609Y031621D01*
X051632Y031619D01*
X051656Y031619D01*
Y031419D01*
X051632Y031418D01*
X051609Y031416D01*
X051587Y031413D01*
X051567Y031408D01*
X051547Y031402D01*
X051529Y031395D01*
X051512Y031387D01*
X051497Y031377D01*
X051482Y031366D01*
X051469Y031353D01*
Y031684D01*
X051482Y031672D01*
D02*
G37*
G36*
X050047Y031353D02*
X050029Y031371D01*
X050011Y031386D01*
X049992Y0314D01*
X049973Y031411D01*
X049953Y031421D01*
X049934Y031429D01*
X049913Y031436D01*
X049893Y03144D01*
X049872Y031443D01*
X04985Y031444D01*
Y031594D01*
X049872Y031595D01*
X049893Y031597D01*
X049913Y031602D01*
X049934Y031608D01*
X049953Y031616D01*
X049973Y031626D01*
X049992Y031638D01*
X050011Y031652D01*
X050029Y031667D01*
X050047Y031684D01*
Y031353D01*
D02*
G37*
G36*
X050572Y031369D02*
Y030142D01*
X049573Y029144D01*
X049379D01*
X049364Y029183D01*
X049362Y029194D01*
X049402Y029255D01*
X049417Y029328D01*
Y029663D01*
X049408Y029708D01*
X049408Y029709D01*
X049407Y029713D01*
X049402Y029737D01*
X049396Y029745D01*
X049396Y029747D01*
X049395Y029749D01*
X049394Y029751D01*
X049393Y029757D01*
X049392Y029764D01*
X049388Y029816D01*
Y030525D01*
X049376Y030588D01*
X04934Y030641D01*
X049255Y030726D01*
X049274Y030772D01*
X049356D01*
Y03134D01*
X049869D01*
X049875Y03134D01*
X049887Y031337D01*
X049899Y031333D01*
X049911Y031328D01*
X049923Y031322D01*
X049935Y031315D01*
X049948Y031306D01*
X049961Y031295D01*
X049972Y031284D01*
X049976Y031279D01*
X050046Y031225D01*
X050128Y031191D01*
X050216Y03118D01*
X050304Y031191D01*
X050385Y031225D01*
X050456Y031279D01*
X050509Y031349D01*
X050522Y031379D01*
X050572Y031369D01*
D02*
G37*
G36*
X045435Y031354D02*
X045418Y031334D01*
X045402Y031313D01*
X045388Y031293D01*
X045376Y031273D01*
X045367Y031253D01*
X04536Y031233D01*
X045354Y031213D01*
X045351Y031193D01*
X04535Y031173D01*
X04523D01*
X045229Y031193D01*
X045226Y031213D01*
X045221Y031233D01*
X045213Y031253D01*
X045204Y031273D01*
X045192Y031293D01*
X045178Y031313D01*
X045163Y031334D01*
X045145Y031354D01*
X045125Y031375D01*
X045455D01*
X045435Y031354D01*
D02*
G37*
G36*
X048574Y03127D02*
X048467Y031152D01*
X04835Y031269D01*
X048352Y031269D01*
X048357Y031271D01*
X048363Y031276D01*
X048372Y031283D01*
X048428Y031335D01*
X048468Y031376D01*
X048574Y03127D01*
D02*
G37*
G36*
X045129Y033841D02*
Y032311D01*
X044747Y031928D01*
X044708Y031871D01*
X044694Y031802D01*
Y03094D01*
X044669Y0309D01*
X044644Y0309D01*
X044076D01*
Y030889D01*
X043965D01*
X043964Y030896D01*
X043963Y030905D01*
Y0311D01*
X043964Y0311D01*
X044072Y031115D01*
X044173Y031156D01*
X04426Y031223D01*
X044326Y03131D01*
X044368Y03141D01*
X044382Y031519D01*
X044368Y031627D01*
X044326Y031728D01*
X04426Y031815D01*
X044173Y031881D01*
X044163Y031885D01*
X04415Y031894D01*
X044134Y031905D01*
X044122Y031917D01*
X044112Y031929D01*
X044103Y031941D01*
X044096Y031954D01*
X044091Y031969D01*
X044087Y031984D01*
X044085Y031996D01*
Y032136D01*
X044087Y032156D01*
X044114D01*
Y032248D01*
X044115Y03225D01*
X044114Y032253D01*
X044115Y032257D01*
X044114Y032261D01*
Y032906D01*
X043481D01*
Y032156D01*
X043667D01*
X043668Y032153D01*
X043673Y032138D01*
X043676Y032117D01*
X043677Y032102D01*
Y031932D01*
X043677Y031923D01*
X043673Y031902D01*
X043668Y031881D01*
X043653Y031831D01*
X043644Y031809D01*
X043619Y031756D01*
X043608Y031737D01*
X043601Y031728D01*
X043559Y031627D01*
X043545Y031519D01*
X043559Y03141D01*
X043601Y03131D01*
X043622Y031282D01*
X04362Y031278D01*
X043606Y03121D01*
Y030905D01*
X043605Y030896D01*
X043604Y030889D01*
X043485D01*
Y030369D01*
X043439Y03035D01*
X043216Y030572D01*
X043211Y030578D01*
X043202Y03059D01*
X043194Y030602D01*
X043189Y030612D01*
X043185Y030621D01*
X043182Y030629D01*
X04318Y030637D01*
X043179Y030644D01*
X043179Y030644D01*
Y030889D01*
X042585D01*
Y030139D01*
X043179D01*
X043179Y030139D01*
Y030139D01*
X043216Y030111D01*
X043517Y02981D01*
X043483Y029774D01*
X043405Y02984D01*
X043233Y029945D01*
X043047Y030022D01*
X042851Y030069D01*
X04265Y030085D01*
X042449Y030069D01*
X042253Y030022D01*
X042067Y029945D01*
X041895Y02984D01*
X041741Y029709D01*
X04161Y029555D01*
X041505Y029383D01*
X041428Y029197D01*
X041381Y029001D01*
X041365Y0288D01*
X041381Y028599D01*
X041428Y028403D01*
X041505Y028217D01*
X04161Y028045D01*
X041741Y027891D01*
X041895Y02776D01*
X042067Y027655D01*
X042253Y027578D01*
X042449Y027531D01*
X04265Y027515D01*
X042851Y027531D01*
X043026Y027573D01*
X043076Y027541D01*
Y027434D01*
X043401D01*
Y0277D01*
X043399D01*
X043386Y027748D01*
X043405Y02776D01*
X043559Y027891D01*
X04369Y028045D01*
X043795Y028217D01*
X043872Y028403D01*
X043919Y028599D01*
X043935Y0288D01*
X043919Y029001D01*
X043872Y029197D01*
X043802Y029366D01*
X043812Y02938D01*
X043842Y029402D01*
X043912Y029372D01*
X044Y029361D01*
X044088Y029372D01*
X04417Y029406D01*
X04424Y02946D01*
X044294Y02953D01*
X044328Y029612D01*
X044339Y0297D01*
X044328Y029788D01*
X044294Y02987D01*
X04424Y02994D01*
X04417Y029994D01*
X044088Y030028D01*
X044Y030039D01*
X043912Y030028D01*
X043865Y030008D01*
X043857Y030006D01*
X043839Y029999D01*
X043827Y029995D01*
X043818Y029993D01*
X043811Y029992D01*
X043806Y029993D01*
X043801Y029994D01*
X043797Y029995D01*
X043792Y029998D01*
X043788Y03D01*
X043696Y030093D01*
X043715Y030139D01*
X044079D01*
Y03015D01*
X044644D01*
X044669Y03015D01*
X044694Y030111D01*
Y029372D01*
X04465Y02935D01*
X044631Y029364D01*
X044549Y029398D01*
X044537Y0294D01*
X04453Y029405D01*
X044462Y029418D01*
X044393Y029405D01*
X044386Y0294D01*
X044374Y029398D01*
X044292Y029364D01*
X044222Y02931D01*
X044168Y02924D01*
X044134Y029158D01*
X044122Y029071D01*
X044134Y028983D01*
X044168Y028901D01*
X044222Y028831D01*
X044227Y028827D01*
X044237Y028816D01*
X044248Y028803D01*
X044257Y02879D01*
X044265Y028778D01*
X044271Y028766D01*
X044276Y028754D01*
X04428Y028742D01*
X044282Y02873D01*
X044283Y028724D01*
Y028401D01*
X044297Y028332D01*
X044335Y028275D01*
X04465Y02796D01*
X044708Y027921D01*
X044777Y027907D01*
X044932D01*
X044959Y027857D01*
X04495Y027844D01*
X044936Y027771D01*
X04495Y027697D01*
X044984Y027647D01*
X044989Y027613D01*
X044984Y02758D01*
X04495Y027529D01*
X044936Y027456D01*
X044945Y027408D01*
X044917Y027357D01*
X04491Y027353D01*
X044892Y02735D01*
X044732Y02751D01*
X044674Y027549D01*
X044647Y027554D01*
Y0277D01*
X044322D01*
Y027384D01*
Y027067D01*
X044647D01*
X044647Y027067D01*
Y027067D01*
X044689Y027048D01*
X04472Y027018D01*
X044723Y027011D01*
X044725Y027002D01*
X044719Y026957D01*
X044704Y026947D01*
X044704Y026947D01*
X044689Y026932D01*
X044647Y026913D01*
Y026913D01*
X044647Y026913D01*
X043897D01*
Y026851D01*
X04386Y026829D01*
X043826Y026849D01*
Y026913D01*
X043076D01*
Y02681D01*
X043073Y026809D01*
X043058Y026805D01*
X043036Y026802D01*
X043022Y0268D01*
X042769D01*
X042094Y027475D01*
X042028Y02752D01*
X04195Y027535D01*
X041106D01*
X039528Y029112D01*
Y030096D01*
X03953Y03011D01*
X039533Y030131D01*
X039537Y030147D01*
X039538Y030149D01*
X039621D01*
Y030246D01*
X039622Y03025D01*
X039621Y030254D01*
Y03026D01*
X039621Y030261D01*
X039621Y030262D01*
Y030899D01*
X039028D01*
Y030738D01*
X039025Y030737D01*
X03901Y030733D01*
X038988Y030729D01*
X038973Y030728D01*
X038554D01*
X03853Y030731D01*
X038501Y030736D01*
X038473Y030744D01*
X038446Y030754D01*
X03842Y030766D01*
X038395Y03078D01*
X038371Y030797D01*
X038352Y030812D01*
X03773Y031434D01*
Y033036D01*
X038415Y033722D01*
X041273D01*
X041317Y033707D01*
X041317Y033672D01*
Y033332D01*
X042117D01*
Y033672D01*
X042117Y033707D01*
X04216Y033722D01*
X042573D01*
X042617Y033707D01*
Y03322D01*
X042613Y0332D01*
Y032961D01*
X042611Y032946D01*
X042608Y032925D01*
X042604Y03291D01*
X042602Y032906D01*
X042483D01*
Y032156D01*
X042668D01*
X042669Y032153D01*
X042673Y032138D01*
X042677Y032117D01*
X042678Y032102D01*
Y031932D01*
X042677Y031924D01*
X042674Y031902D01*
X042669Y031881D01*
X042653Y031832D01*
X042645Y031809D01*
X042619Y031756D01*
X042608Y031737D01*
X042601Y031728D01*
X042559Y031627D01*
X042545Y031519D01*
X042559Y03141D01*
X042601Y03131D01*
X042668Y031223D01*
X042754Y031156D01*
X042855Y031115D01*
X042964Y0311D01*
X043072Y031115D01*
X043173Y031156D01*
X04326Y031223D01*
X043326Y03131D01*
X043368Y03141D01*
X043382Y031519D01*
X043368Y031627D01*
X043326Y031728D01*
X04326Y031815D01*
X043173Y031881D01*
X043163Y031885D01*
X04315Y031893D01*
X043135Y031905D01*
X043122Y031917D01*
X043112Y031929D01*
X043104Y031941D01*
X043097Y031954D01*
X043091Y031968D01*
X043087Y031984D01*
X043086Y031996D01*
Y032134D01*
X043087Y032156D01*
X043117D01*
Y032247D01*
X043117Y032248D01*
X043117Y032252D01*
Y032253D01*
X043117Y032257D01*
X043117Y032261D01*
Y032793D01*
X043117Y032794D01*
X043117Y032796D01*
Y032801D01*
X043117Y032805D01*
X043117Y032809D01*
Y032857D01*
X043417D01*
Y033707D01*
X043139D01*
X043128Y033762D01*
X04309Y03382D01*
X042934Y033975D01*
X042954Y034022D01*
X044949D01*
X045129Y033841D01*
D02*
G37*
G36*
X047921Y030955D02*
X04792Y030956D01*
X047918Y030957D01*
X047915Y030958D01*
X04791Y030959D01*
X047904Y03096D01*
X047879Y030961D01*
X047855Y030961D01*
Y031081D01*
X047868Y031081D01*
X047915Y031084D01*
X047918Y031085D01*
X04792Y031086D01*
X047921Y031087D01*
Y030955D01*
D02*
G37*
G36*
X045351Y030896D02*
X045352Y030876D01*
X045355Y030858D01*
X04536Y030842D01*
X045365Y030829D01*
X045372Y030818D01*
X045379Y03081D01*
X045388Y030804D01*
X045399Y0308D01*
X04541Y030799D01*
X04517D01*
X045181Y0308D01*
X045192Y030804D01*
X045201Y03081D01*
X045208Y030818D01*
X045215Y030829D01*
X04522Y030842D01*
X045225Y030858D01*
X045228Y030876D01*
X045229Y030896D01*
X04523Y030919D01*
X04535D01*
X045351Y030896D01*
D02*
G37*
G36*
X04386Y030909D02*
X043863Y030883D01*
X043866Y030861D01*
X043871Y030841D01*
X043878Y030824D01*
X043886Y030811D01*
X043896Y0308D01*
X043907Y030793D01*
X04392Y030788D01*
X043934Y030787D01*
X043635D01*
X043649Y030788D01*
X043661Y030793D01*
X043673Y0308D01*
X043682Y030811D01*
X043691Y030824D01*
X043698Y030841D01*
X043703Y030861D01*
X043706Y030883D01*
X043709Y030909D01*
X04371Y030938D01*
X04386D01*
X04386Y030909D01*
D02*
G37*
G36*
X049109Y030873D02*
X049098Y03087D01*
X049089Y030863D01*
X049082Y030855D01*
X049075Y030844D01*
X04907Y030831D01*
X049065Y030815D01*
X049062Y030797D01*
X049061Y030776D01*
X04906Y030753D01*
X04894D01*
X048939Y030776D01*
X048938Y030797D01*
X048935Y030815D01*
X04893Y030831D01*
X048925Y030844D01*
X048918Y030855D01*
X048911Y030863D01*
X048902Y03087D01*
X048891Y030873D01*
X04888Y030874D01*
X04912D01*
X049109Y030873D01*
D02*
G37*
G36*
X044178Y030364D02*
X044177Y030378D01*
X044172Y030391D01*
X044165Y030402D01*
X044154Y030412D01*
X04414Y03042D01*
X044124Y030427D01*
X044104Y030432D01*
X044081Y030436D01*
X044077Y030436D01*
X044073Y030436D01*
X04405Y030432D01*
X044031Y030427D01*
X044014Y03042D01*
X044Y030412D01*
X04399Y030402D01*
X043982Y030391D01*
X043978Y030378D01*
X043976Y030364D01*
Y030664D01*
X043978Y03065D01*
X043982Y030637D01*
X04399Y030626D01*
X044Y030616D01*
X044014Y030608D01*
X044031Y030601D01*
X04405Y030596D01*
X044073Y030592D01*
X044077Y030592D01*
X044081Y030592D01*
X044104Y030596D01*
X044124Y030601D01*
X04414Y030608D01*
X044154Y030616D01*
X044165Y030626D01*
X044172Y030637D01*
X044177Y03065D01*
X044178Y030664D01*
Y030364D01*
D02*
G37*
G36*
X03913Y030324D02*
X039128Y030343D01*
X039122Y03036D01*
X039112Y030375D01*
X039098Y030388D01*
X03908Y030399D01*
X039058Y030408D01*
X039031Y030415D01*
X039001Y03042D01*
X038967Y030423D01*
X038929Y030424D01*
Y030624D01*
X038967Y030625D01*
X039001Y030628D01*
X039031Y030633D01*
X039058Y03064D01*
X03908Y030649D01*
X039098Y03066D01*
X039112Y030673D01*
X039122Y030688D01*
X039128Y030705D01*
X03913Y030724D01*
Y030324D01*
D02*
G37*
G36*
X043077Y030633D02*
X04308Y030616D01*
X043084Y0306D01*
X04309Y030583D01*
X043098Y030566D01*
X043107Y030549D01*
X043118Y030532D01*
X043131Y030515D01*
X043146Y030497D01*
X043162Y03048D01*
X043162Y030311D01*
X043146Y030326D01*
X043131Y030338D01*
X043118Y030347D01*
X043107Y030352D01*
X043098Y030354D01*
X04309Y030352D01*
X043084Y030347D01*
X04308Y030338D01*
X043077Y030326D01*
X043076Y030311D01*
Y03065D01*
X043077Y030633D01*
D02*
G37*
G36*
X03828Y030739D02*
X03831Y030715D01*
X038341Y030693D01*
X038374Y030675D01*
X038407Y030659D01*
X038442Y030647D01*
X038478Y030637D01*
X038515Y03063D01*
X038553Y030625D01*
X038593Y030624D01*
X038651Y030424D01*
X038613Y030422D01*
X038579Y030416D01*
X038549Y030406D01*
X038523Y030392D01*
X038501Y030374D01*
X038483Y030352D01*
X038469Y030326D01*
X038459Y030296D01*
X038453Y030262D01*
X038451Y030224D01*
X038251Y030283D01*
X03825Y030322D01*
X038246Y03036D01*
X038238Y030397D01*
X038229Y030433D01*
X038216Y030468D01*
X0382Y030502D01*
X038182Y030534D01*
X038161Y030565D01*
X038137Y030595D01*
X03811Y030624D01*
X038251Y030765D01*
X03828Y030739D01*
D02*
G37*
G36*
X048748Y030155D02*
X048723Y03015D01*
X048675Y030137D01*
X048653Y030128D01*
X048633Y030119D01*
X048613Y030109D01*
X048595Y030098D01*
X048577Y030086D01*
X048561Y030073D01*
X048546Y030059D01*
X048418Y030143D01*
X048433Y03016D01*
X048446Y030177D01*
X048457Y030195D01*
X048466Y030213D01*
X048472Y030233D01*
X048477Y030253D01*
X048479Y030274D01*
X04848Y030295D01*
X048478Y030318D01*
X048474Y030341D01*
X048748Y030155D01*
D02*
G37*
G36*
X039502Y030248D02*
X039486Y030242D01*
X039471Y030232D01*
X039459Y030218D01*
X039448Y0302D01*
X03944Y030178D01*
X039433Y030152D01*
X039428Y030122D01*
X039425Y030088D01*
X039424Y03005D01*
X039224D01*
X039223Y030088D01*
X039221Y030122D01*
X039216Y030152D01*
X039209Y030178D01*
X0392Y0302D01*
X03919Y030218D01*
X039178Y030232D01*
X039163Y030242D01*
X039147Y030248D01*
X039129Y03025D01*
X03952D01*
X039502Y030248D01*
D02*
G37*
G36*
X048144Y030177D02*
X048124Y030167D01*
X048106Y030156D01*
X048091Y030144D01*
X048077Y03013D01*
X048066Y030114D01*
X048057Y030097D01*
X048049Y030079D01*
X048044Y03006D01*
X048041Y030038D01*
X04804Y030016D01*
X04789Y030078D01*
X047889Y030098D01*
X047888Y030118D01*
X047881Y03016D01*
X047876Y030181D01*
X047863Y030226D01*
X047855Y030248D01*
X047835Y030296D01*
X048144Y030177D01*
D02*
G37*
G36*
X049285Y029825D02*
X04929Y029751D01*
X049293Y029737D01*
X049296Y029725D01*
X049299Y029714D01*
X049303Y029705D01*
X049307Y029697D01*
X049142D01*
X049147Y029705D01*
X049151Y029714D01*
X049154Y029725D01*
X049157Y029737D01*
X049159Y029751D01*
X049163Y029785D01*
X049165Y029825D01*
X049165Y029848D01*
X049285D01*
X049285Y029825D01*
D02*
G37*
G36*
X04836Y02985D02*
X048362Y029697D01*
X048198D01*
X0482Y029702D01*
X048202Y02971D01*
X048204Y02972D01*
X048206Y029733D01*
X048209Y029788D01*
X04821Y029866D01*
X04836Y02985D01*
D02*
G37*
G36*
X048047Y029697D02*
X047883D01*
X047884Y029701D01*
X047885Y029707D01*
X047886Y029716D01*
X047888Y029743D01*
X04789Y029858D01*
X04804D01*
X048047Y029697D01*
D02*
G37*
G36*
X04771Y029825D02*
X047716Y029751D01*
X047718Y029737D01*
X047721Y029725D01*
X047724Y029714D01*
X047728Y029705D01*
X047732Y029697D01*
X047568D01*
X047572Y029705D01*
X047576Y029714D01*
X047579Y029725D01*
X047582Y029737D01*
X047584Y029751D01*
X047588Y029785D01*
X04759Y029825D01*
X04759Y029848D01*
X04771D01*
X04771Y029825D01*
D02*
G37*
G36*
X046472Y029697D02*
X046308D01*
X046309Y029701D01*
X04631Y029707D01*
X046312Y029716D01*
X046313Y029743D01*
X046315Y029858D01*
X046465D01*
X046472Y029697D01*
D02*
G37*
G36*
X046158D02*
X045993D01*
X045994Y029701D01*
X045996Y029707D01*
X045997Y029716D01*
X045998Y029743D01*
X046Y029858D01*
X04615D01*
X046158Y029697D01*
D02*
G37*
G36*
X043722Y029922D02*
X043739Y02991D01*
X043756Y029901D01*
X043774Y029895D01*
X043793Y029891D01*
X043813Y02989D01*
X043833Y029892D01*
X043853Y029896D01*
X043875Y029903D01*
X043897Y029913D01*
X043784Y029604D01*
X04377Y029634D01*
X043728Y029714D01*
X043713Y029738D01*
X043683Y029782D01*
X043667Y029802D01*
X043635Y029838D01*
X043706Y029936D01*
X043722Y029922D01*
D02*
G37*
G36*
X052477Y029296D02*
X052475Y029315D01*
X052469Y029332D01*
X052459Y029347D01*
X052445Y02936D01*
X052427Y029371D01*
X052405Y02938D01*
X052379Y029387D01*
X052349Y029392D01*
X052314Y029395D01*
X052276Y029396D01*
Y029596D01*
X052314Y029597D01*
X052349Y0296D01*
X052379Y029605D01*
X052405Y029612D01*
X052427Y029621D01*
X052445Y029632D01*
X052459Y029645D01*
X052469Y02966D01*
X052475Y029677D01*
X052477Y029696D01*
Y029296D01*
D02*
G37*
G36*
X051586Y029677D02*
X051592Y02966D01*
X051602Y029645D01*
X051616Y029632D01*
X051634Y029621D01*
X051656Y029612D01*
X051682Y029605D01*
X051713Y0296D01*
X051747Y029597D01*
X051785Y029596D01*
Y029396D01*
X051747Y029395D01*
X051713Y029392D01*
X051682Y029387D01*
X051656Y02938D01*
X051634Y029371D01*
X051616Y02936D01*
X051602Y029347D01*
X051592Y029332D01*
X051586Y029315D01*
X051584Y029296D01*
Y029696D01*
X051586Y029677D01*
D02*
G37*
G36*
X051006Y031349D02*
X05106Y031279D01*
X05113Y031225D01*
X051212Y031191D01*
X0513Y03118D01*
X051388Y031191D01*
X05147Y031225D01*
X05154Y031279D01*
X051543Y031284D01*
X051548Y031288D01*
X051555Y031293D01*
X051562Y031298D01*
X051571Y031302D01*
X051581Y031306D01*
X051593Y03131D01*
X051606Y031313D01*
X051621Y031315D01*
X051621Y031315D01*
X053509D01*
Y028306D01*
X053508Y028289D01*
X053504Y02827D01*
X053499Y028256D01*
X053497Y028251D01*
X053454Y028249D01*
X052401D01*
X052339Y028237D01*
X052286Y028201D01*
X051965Y02788D01*
X051929Y027827D01*
X051917Y027765D01*
Y027373D01*
X051916Y027367D01*
X051913Y027357D01*
X051909Y027346D01*
X051903Y027333D01*
X051896Y02732D01*
X051886Y027305D01*
X051874Y02729D01*
X051866Y027281D01*
X051841Y027286D01*
X051816Y027301D01*
Y028107D01*
X052255Y028545D01*
X052375D01*
Y028392D01*
X0527D01*
Y028708D01*
Y029025D01*
X052375D01*
Y028871D01*
X052187D01*
X052125Y028859D01*
X052072Y028824D01*
X051578Y02833D01*
X051528Y028351D01*
Y028646D01*
X051529Y028655D01*
X05153Y028663D01*
X051686D01*
Y029282D01*
X051689Y029283D01*
X051704Y029287D01*
X051725Y02929D01*
X05174Y029292D01*
X052321D01*
X052336Y02929D01*
X052357Y029287D01*
X052372Y029283D01*
X052375Y029282D01*
Y029179D01*
X053125D01*
Y029812D01*
X052375D01*
Y02971D01*
X052372Y029708D01*
X052357Y029704D01*
X052336Y029701D01*
X052321Y0297D01*
X05174D01*
X051725Y029701D01*
X051704Y029704D01*
X051689Y029708D01*
X051686Y02971D01*
Y030437D01*
X051014D01*
Y028663D01*
X05117D01*
X051171Y028655D01*
X051172Y028646D01*
Y028071D01*
X05105Y027949D01*
X050368D01*
X050341Y027999D01*
X05035Y028012D01*
X050364Y028086D01*
X05035Y028159D01*
X050316Y02821D01*
X050311Y028243D01*
X050316Y028277D01*
X05035Y028327D01*
X050364Y028401D01*
X05035Y028474D01*
X050316Y028525D01*
X050311Y028558D01*
X050316Y028592D01*
X05035Y028642D01*
X050364Y028716D01*
X05035Y028789D01*
X050308Y028852D01*
X050246Y028893D01*
X050172Y028908D01*
X049907D01*
X049888Y028954D01*
X050876Y029942D01*
X050876Y029942D01*
X050915Y03D01*
X050928Y030068D01*
X050928Y030068D01*
Y031407D01*
X050978Y031417D01*
X051006Y031349D01*
D02*
G37*
G36*
X047098Y029287D02*
X047094Y029278D01*
X047091Y029267D01*
X047088Y029254D01*
X047086Y02924D01*
X047082Y029206D01*
X04708Y029166D01*
X04708Y029143D01*
X04696D01*
X04696Y029166D01*
X046954Y02924D01*
X046952Y029254D01*
X046949Y029267D01*
X046946Y029278D01*
X046942Y029287D01*
X046938Y029294D01*
X047102D01*
X047098Y029287D01*
D02*
G37*
G36*
X046782Y029286D02*
X046778Y029275D01*
X046774Y029264D01*
X04677Y02925D01*
X046767Y029236D01*
X046763Y029202D01*
X046762Y029183D01*
X046761Y02914D01*
X046641Y029147D01*
X046641Y02917D01*
X046634Y029258D01*
X046632Y02927D01*
X046629Y02928D01*
X046626Y029288D01*
X046623Y029294D01*
X046787D01*
X046782Y029286D01*
D02*
G37*
G36*
X045569Y03015D02*
X045607Y030119D01*
Y029849D01*
X045169Y029411D01*
X04513Y029353D01*
X045117Y029285D01*
Y028955D01*
X045101Y028947D01*
X045051Y028979D01*
Y03015D01*
X045569D01*
D02*
G37*
G36*
X045371Y028926D02*
X045373Y0289D01*
X045377Y028878D01*
X045382Y028858D01*
X045389Y028841D01*
X045397Y028828D01*
X045407Y028817D01*
X045418Y02881D01*
X045431Y028805D01*
X045445Y028804D01*
X045145D01*
X04516Y028805D01*
X045172Y02881D01*
X045184Y028817D01*
X045193Y028828D01*
X045202Y028841D01*
X045208Y028858D01*
X045214Y028878D01*
X045217Y0289D01*
X04522Y028926D01*
X04522Y028955D01*
X04537D01*
X045371Y028926D01*
D02*
G37*
G36*
X04461Y028884D02*
X044594Y028866D01*
X044581Y028847D01*
X044569Y028828D01*
X044559Y028808D01*
X044551Y028788D01*
X044545Y028768D01*
X04454Y028747D01*
X044538Y028726D01*
X044537Y028705D01*
X044387D01*
X044386Y028726D01*
X044383Y028747D01*
X044378Y028768D01*
X044372Y028788D01*
X044364Y028808D01*
X044354Y028828D01*
X044342Y028847D01*
X044329Y028866D01*
X044313Y028884D01*
X044296Y028902D01*
X044627D01*
X04461Y028884D01*
D02*
G37*
G36*
X046761Y028878D02*
X046762Y028858D01*
X046765Y028838D01*
X04677Y028818D01*
X046777Y028798D01*
X046787Y028778D01*
X046798Y028758D01*
X046812Y028737D01*
X046827Y028716D01*
X046845Y028695D01*
X046865Y028674D01*
X046534Y02868D01*
X046554Y0287D01*
X046573Y028721D01*
X046589Y028741D01*
X046602Y028761D01*
X046614Y028781D01*
X046624Y0288D01*
X046631Y02882D01*
X046636Y02884D01*
X04664Y02886D01*
X046641Y02888D01*
X046761Y028878D01*
D02*
G37*
G36*
X051486Y028763D02*
X051473Y028759D01*
X051462Y028751D01*
X051452Y028741D01*
X051444Y028727D01*
X051437Y028711D01*
X051432Y028691D01*
X051428Y028668D01*
X051426Y028643D01*
X051425Y028614D01*
X051275D01*
X051274Y028643D01*
X051272Y028668D01*
X051268Y028691D01*
X051263Y028711D01*
X051256Y028727D01*
X051248Y028741D01*
X051238Y028751D01*
X051227Y028759D01*
X051214Y028763D01*
X0512Y028765D01*
X0515D01*
X051486Y028763D01*
D02*
G37*
G36*
X052477Y028588D02*
X052476Y0286D01*
X052473Y02861D01*
X052466Y028619D01*
X052458Y028627D01*
X052447Y028633D01*
X052434Y028639D01*
X052418Y028643D01*
X0524Y028646D01*
X052379Y028648D01*
X052356Y028648D01*
Y028768D01*
X052379Y028769D01*
X0524Y028771D01*
X052418Y028774D01*
X052434Y028778D01*
X052447Y028783D01*
X052458Y02879D01*
X052466Y028798D01*
X052473Y028807D01*
X052476Y028817D01*
X052477Y028828D01*
Y028588D01*
D02*
G37*
G36*
X045883Y029555D02*
Y029328D01*
X045898Y029255D01*
X045939Y029192D01*
X046002Y029151D01*
X046075Y029136D01*
X046149Y029151D01*
X046199Y029184D01*
X046233Y029189D01*
X046266Y029184D01*
X046317Y029151D01*
X04639Y029136D01*
X046464Y029151D01*
X046488Y029167D01*
X046538Y02914D01*
Y028868D01*
X046537Y028862D01*
X046534Y028852D01*
X04653Y028841D01*
X046524Y028829D01*
X046516Y028815D01*
X046507Y028801D01*
X046495Y028787D01*
X046481Y028771D01*
X046463Y028753D01*
X046457Y028748D01*
X046403Y028678D01*
X046369Y028596D01*
X046367Y028581D01*
X046316D01*
X046314Y028596D01*
X04628Y028678D01*
X046226Y028748D01*
X046156Y028802D01*
X046074Y028836D01*
X045987Y028848D01*
X045899Y028836D01*
X045817Y028802D01*
X045747Y028748D01*
X0457Y028688D01*
X045654Y028709D01*
X045655Y028716D01*
X04564Y028789D01*
X045599Y028852D01*
X045536Y028893D01*
X045476Y028905D01*
X045475Y028913D01*
X045474Y028922D01*
Y029211D01*
X045837Y029574D01*
X045883Y029555D01*
D02*
G37*
G36*
X049803Y028318D02*
X0498Y02832D01*
X049793Y028321D01*
X049784Y028322D01*
X049758Y028324D01*
X049642Y028326D01*
Y028476D01*
X049803Y028483D01*
Y028318D01*
D02*
G37*
G36*
X047661Y028273D02*
X047632Y028271D01*
X047579Y028263D01*
X047554Y028257D01*
X047532Y02825D01*
X047511Y028242D01*
X047491Y028233D01*
X047474Y028222D01*
X047458Y028211D01*
X047443Y028198D01*
X047353Y028277D01*
X047367Y028292D01*
X047378Y028309D01*
X047388Y028327D01*
X047397Y028346D01*
X047404Y028367D01*
X047409Y028389D01*
X047413Y028413D01*
X047415Y028438D01*
X047415Y028464D01*
X047414Y028493D01*
X047661Y028273D01*
D02*
G37*
G36*
X047671Y028166D02*
X047679Y028113D01*
X045941Y026374D01*
X045658D01*
X045632Y026424D01*
X04564Y026437D01*
X045655Y026511D01*
X04564Y026585D01*
X045621Y026613D01*
X045648Y026663D01*
X045866D01*
X045929Y026675D01*
X045982Y026711D01*
X046052Y026781D01*
X046088Y026834D01*
X0461Y026896D01*
Y027365D01*
X046088Y027427D01*
X046052Y02748D01*
X045975Y027558D01*
X045994Y027608D01*
X046932D01*
X046994Y02762D01*
X047047Y027655D01*
X047525Y028134D01*
X04753Y028137D01*
X04754Y028143D01*
X047551Y028149D01*
X047565Y028154D01*
X047581Y028159D01*
X047597Y028163D01*
X047643Y028169D01*
X047649Y02817D01*
X04765Y028169D01*
X047653Y02817D01*
X047666Y028171D01*
X047671Y028166D01*
D02*
G37*
G36*
X046149Y028334D02*
X046139Y028318D01*
X046133Y028302D01*
X046129Y028286D01*
X046128Y028269D01*
X046131Y028253D01*
X046136Y028237D01*
X046145Y028221D01*
X046157Y028204D01*
X046171Y028188D01*
X046059Y02813D01*
X046033Y028157D01*
X045869Y028303D01*
X045855Y028313D01*
X046162Y028351D01*
X046149Y028334D01*
D02*
G37*
G36*
X049803Y028003D02*
X0498Y028005D01*
X049793Y028006D01*
X049784Y028007D01*
X049758Y028009D01*
X049642Y028011D01*
Y028161D01*
X049803Y028168D01*
Y028003D01*
D02*
G37*
G36*
X045094D02*
X04509Y028005D01*
X045084Y028006D01*
X045075Y028007D01*
X045048Y028009D01*
X044933Y028011D01*
Y028161D01*
X045094Y028168D01*
Y028003D01*
D02*
G37*
G36*
X053713Y028086D02*
X053743Y028015D01*
X053813Y028086D01*
X053815Y028082D01*
X053819Y028075D01*
X053826Y028065D01*
X053848Y028039D01*
X053954Y02793D01*
X053869Y027845D01*
X053713Y027986D01*
X053714Y027987D01*
X0537Y027995D01*
X05368Y028005D01*
X053659Y028012D01*
X053643Y028017D01*
Y028015D01*
X053639Y028017D01*
X053631Y028019D01*
X053619Y028021D01*
X053585Y028023D01*
X053433Y028026D01*
Y028146D01*
X053525Y028151D01*
X053537Y028154D01*
X053555Y028164D01*
X05357Y028178D01*
X053583Y028196D01*
X053594Y028218D01*
X053603Y028244D01*
X053609Y028274D01*
X053612Y028308D01*
X053613Y028346D01*
X053713Y028086D01*
D02*
G37*
G36*
X05021Y027852D02*
X050216Y027851D01*
X050225Y027849D01*
X050252Y027848D01*
X050367Y027846D01*
Y027696D01*
X050206Y027689D01*
Y027853D01*
X05021Y027852D01*
D02*
G37*
G36*
X045504Y027849D02*
X045513Y027845D01*
X045524Y027842D01*
X045537Y027839D01*
X045551Y027836D01*
X045585Y027833D01*
X045625Y027831D01*
X045648Y027831D01*
Y027711D01*
X045625Y027711D01*
X045551Y027705D01*
X045537Y027703D01*
X045524Y0277D01*
X045513Y027697D01*
X045504Y027693D01*
X045497Y027689D01*
Y027853D01*
X045504Y027849D01*
D02*
G37*
G36*
X038451Y027863D02*
X038462Y027678D01*
X038465Y02767D01*
X038237D01*
X03824Y027678D01*
X038242Y02769D01*
X038244Y027705D01*
X038248Y027745D01*
X038251Y027863D01*
X038251Y027901D01*
X038451D01*
X038451Y027863D01*
D02*
G37*
G36*
X05358Y027921D02*
X053602Y02792D01*
X053635Y027897D01*
X053666Y027891D01*
X053782Y027787D01*
X0538Y027768D01*
X053779Y027719D01*
X05318D01*
Y02754D01*
X05313Y027501D01*
X053103Y027507D01*
X053026D01*
Y027719D01*
X052759D01*
Y027343D01*
X052709D01*
Y027294D01*
X052393D01*
Y027242D01*
X052343Y027225D01*
X05232Y027255D01*
X052315Y027259D01*
X0523Y027274D01*
X052286Y02729D01*
X052274Y027305D01*
X052265Y02732D01*
X052257Y027333D01*
X052251Y027346D01*
X052247Y027357D01*
X052244Y027367D01*
X052243Y027373D01*
Y027697D01*
X052469Y027923D01*
X053499D01*
X05358Y027921D01*
D02*
G37*
G36*
X05021Y027537D02*
X050216Y027536D01*
X050225Y027534D01*
X050252Y027533D01*
X050367Y027531D01*
Y027381D01*
X050206Y027374D01*
Y027538D01*
X05021Y027537D01*
D02*
G37*
G36*
X045504Y027534D02*
X045513Y02753D01*
X045524Y027527D01*
X045537Y027524D01*
X045551Y027521D01*
X045585Y027518D01*
X045625Y027516D01*
X045648Y027516D01*
Y027396D01*
X045625Y027396D01*
X045551Y02739D01*
X045537Y027388D01*
X045524Y027385D01*
X045513Y027382D01*
X045504Y027378D01*
X045497Y027374D01*
Y027538D01*
X045504Y027534D01*
D02*
G37*
G36*
X052925Y027452D02*
X052928Y027442D01*
X052934Y027433D01*
X052943Y027425D01*
X052954Y027418D01*
X052967Y027413D01*
X052983Y027409D01*
X053001Y027406D01*
X053022Y027404D01*
X053045Y027404D01*
Y027283D01*
X053022Y027283D01*
X053001Y027281D01*
X052983Y027278D01*
X052967Y027274D01*
X052954Y027269D01*
X052943Y027262D01*
X052934Y027254D01*
X052928Y027245D01*
X052925Y027235D01*
X052924Y027223D01*
Y027464D01*
X052925Y027452D01*
D02*
G37*
G36*
X052141Y027366D02*
X052144Y027346D01*
X05215Y027326D01*
X052157Y027306D01*
X052166Y027286D01*
X052178Y027266D01*
X052192Y027246D01*
X052208Y027225D01*
X052225Y027205D01*
X052245Y027184D01*
X051915D01*
X051935Y027205D01*
X051953Y027225D01*
X051968Y027246D01*
X051982Y027266D01*
X051994Y027286D01*
X052003Y027306D01*
X052011Y027326D01*
X052016Y027346D01*
X052019Y027366D01*
X05202Y027386D01*
X05214D01*
X052141Y027366D01*
D02*
G37*
G36*
X045094Y027059D02*
X04509Y02706D01*
X045084Y027061D01*
X045075Y027062D01*
X045048Y027064D01*
X044933Y027066D01*
Y027216D01*
X045094Y027223D01*
Y027059D01*
D02*
G37*
G36*
X036298Y027215D02*
X036393D01*
X036374Y027213D01*
X036358Y027207D01*
X036344Y027197D01*
X036331Y027183D01*
X036321Y027165D01*
X036312Y027143D01*
X036308Y027129D01*
X036312Y027114D01*
X036321Y027092D01*
X036331Y027074D01*
X036344Y02706D01*
X036358Y02705D01*
X036374Y027044D01*
X036393Y027042D01*
X036298D01*
X036297Y027015D01*
X036097D01*
X036096Y027042D01*
X036001D01*
X036019Y027044D01*
X036036Y02705D01*
X03605Y02706D01*
X036062Y027074D01*
X036073Y027092D01*
X036082Y027114D01*
X036085Y027129D01*
X036082Y027143D01*
X036073Y027165D01*
X036062Y027183D01*
X03605Y027197D01*
X036036Y027207D01*
X036019Y027213D01*
X036001Y027215D01*
X036096D01*
X036097Y027242D01*
X036297D01*
X036298Y027215D01*
D02*
G37*
G36*
X035398D02*
X035492D01*
X035474Y027213D01*
X035458Y027207D01*
X035444Y027197D01*
X035431Y027183D01*
X035421Y027165D01*
X035412Y027143D01*
X035408Y027129D01*
X035412Y027114D01*
X035421Y027092D01*
X035431Y027074D01*
X035444Y02706D01*
X035458Y02705D01*
X035474Y027044D01*
X035492Y027042D01*
X035398D01*
X035397Y027015D01*
X035197D01*
X035196Y027042D01*
X035101D01*
X035119Y027044D01*
X035136Y02705D01*
X03515Y02706D01*
X035162Y027074D01*
X035173Y027092D01*
X035182Y027114D01*
X035185Y027129D01*
X035182Y027143D01*
X035173Y027165D01*
X035162Y027183D01*
X03515Y027197D01*
X035136Y027207D01*
X035119Y027213D01*
X035101Y027215D01*
X035196D01*
X035197Y027242D01*
X035397D01*
X035398Y027215D01*
D02*
G37*
G36*
X053661Y027069D02*
X053648Y027065D01*
X053637Y027057D01*
X053627Y027047D01*
X053619Y027033D01*
X053612Y027016D01*
X053607Y026997D01*
X053605Y026984D01*
X053607Y026972D01*
X053612Y026952D01*
X053619Y026935D01*
X053627Y026922D01*
X053637Y026911D01*
X053648Y026904D01*
X053661Y026899D01*
X053675Y026898D01*
X053375D01*
X053389Y026899D01*
X053402Y026904D01*
X053413Y026911D01*
X053423Y026922D01*
X053431Y026935D01*
X053438Y026952D01*
X053443Y026972D01*
X053445Y026984D01*
X053443Y026997D01*
X053438Y027016D01*
X053431Y027033D01*
X053423Y027047D01*
X053413Y027057D01*
X053402Y027065D01*
X053389Y027069D01*
X053375Y027071D01*
X053675D01*
X053661Y027069D01*
D02*
G37*
G36*
X048355Y027088D02*
X048356Y027067D01*
X048358Y027046D01*
X048362Y027025D01*
X048368Y027004D01*
X048375Y026983D01*
X048383Y026963D01*
X048394Y026942D01*
X048406Y026921D01*
X048419Y0269D01*
X048434Y02688D01*
X048107Y026927D01*
X048125Y026941D01*
X048142Y026957D01*
X048157Y026973D01*
X04817Y026991D01*
X04818Y027009D01*
X048189Y027027D01*
X048196Y027047D01*
X048201Y027067D01*
X048204Y027089D01*
X048205Y02711D01*
X048355Y027088D01*
D02*
G37*
G36*
X03941Y027065D02*
X039428Y027071D01*
X039438Y02707D01*
X03944Y027063D01*
X039435Y02705D01*
X039423Y027031D01*
X039403Y027006D01*
X039341Y026936D01*
X039249Y026842D01*
X039103Y026978D01*
X03914Y027017D01*
X039199Y027087D01*
X03922Y027118D01*
X039236Y027146D01*
X039246Y027172D01*
X039251Y027196D01*
X039251Y027216D01*
X039245Y027235D01*
X039234Y02725D01*
X03941Y027065D01*
D02*
G37*
G36*
X03891D02*
X038932Y027073D01*
X038946Y027073D01*
X038952Y027067D01*
X038949Y027055D01*
X038938Y027036D01*
X038919Y02701D01*
X038892Y026977D01*
X038761Y02684D01*
X038607Y026968D01*
X038644Y027007D01*
X038702Y027076D01*
X038723Y027106D01*
X038738Y027134D01*
X038748Y02716D01*
X038753Y027183D01*
X038752Y027203D01*
X038746Y027221D01*
X038734Y027236D01*
X03891Y027065D01*
D02*
G37*
G36*
X050681Y026785D02*
X050663Y026802D01*
X050645Y026818D01*
X050626Y026831D01*
X050607Y026843D01*
X050588Y026853D01*
X050568Y026861D01*
X050548Y026867D01*
X050527Y026872D01*
X050506Y026875D01*
X050484Y026876D01*
Y027026D01*
X050506Y027027D01*
X050527Y027029D01*
X050548Y027034D01*
X050568Y02704D01*
X050588Y027048D01*
X050607Y027058D01*
X050626Y02707D01*
X050645Y027083D01*
X050663Y027099D01*
X050681Y027116D01*
Y026785D01*
D02*
G37*
G36*
X049803Y026744D02*
X0498Y026745D01*
X049793Y026746D01*
X049784Y026747D01*
X049758Y026749D01*
X049642Y026751D01*
Y026901D01*
X049803Y026908D01*
Y026744D01*
D02*
G37*
G36*
X045504Y026904D02*
X045513Y0269D01*
X045524Y026897D01*
X045537Y026894D01*
X045551Y026892D01*
X045585Y026888D01*
X045625Y026886D01*
X045648Y026886D01*
Y026766D01*
X045625Y026766D01*
X045551Y02676D01*
X045537Y026758D01*
X045524Y026755D01*
X045513Y026752D01*
X045504Y026748D01*
X045497Y026744D01*
Y026908D01*
X045504Y026904D01*
D02*
G37*
G36*
X045094Y026744D02*
X045092Y026744D01*
X045087Y026744D01*
X045017Y026746D01*
X044941Y026746D01*
X044925Y026896D01*
X044954Y026896D01*
X045081Y026904D01*
X045089Y026906D01*
X045094Y026908D01*
Y026744D01*
D02*
G37*
G36*
X043999Y026396D02*
X043997Y026415D01*
X043991Y026432D01*
X043981Y026447D01*
X043967Y02646D01*
X043949Y026471D01*
X043927Y02648D01*
X0439Y026487D01*
X04387Y026492D01*
X043861Y026493D01*
X043852Y026492D01*
X043822Y026487D01*
X043796Y02648D01*
X043774Y026471D01*
X043756Y02646D01*
X043742Y026447D01*
X043732Y026432D01*
X043726Y026415D01*
X043724Y026396D01*
Y026796D01*
X043726Y026777D01*
X043732Y02676D01*
X043742Y026745D01*
X043756Y026732D01*
X043774Y026721D01*
X043796Y026712D01*
X043822Y026705D01*
X043852Y0267D01*
X043861Y0267D01*
X04387Y0267D01*
X0439Y026705D01*
X043927Y026712D01*
X043949Y026721D01*
X043967Y026732D01*
X043981Y026745D01*
X043991Y02676D01*
X043997Y026777D01*
X043999Y026796D01*
Y026396D01*
D02*
G37*
G36*
X052278Y026883D02*
X052272Y026864D01*
X052268Y026846D01*
X052268Y026828D01*
X052269Y02681D01*
X052274Y026793D01*
X052281Y026775D01*
X052291Y026758D01*
X052304Y026741D01*
X052319Y026724D01*
X05215Y026681D01*
X052135Y026695D01*
X052087Y026736D01*
X05207Y026748D01*
X052016Y026782D01*
X051997Y026793D01*
X051977Y026803D01*
X052287Y026901D01*
X052278Y026883D01*
D02*
G37*
G36*
X037252Y026624D02*
X03725Y026637D01*
X037244Y026649D01*
X037234Y02666D01*
X03722Y026669D01*
X037202Y026677D01*
X03718Y026683D01*
X037154Y026688D01*
X037124Y026691D01*
X03709Y026693D01*
X037052Y026694D01*
Y026894D01*
X03709Y026895D01*
X037124Y026898D01*
X037154Y026903D01*
X03718Y02691D01*
X037202Y026919D01*
X03722Y02693D01*
X037234Y026943D01*
X037244Y026958D01*
X03725Y026975D01*
X037252Y026994D01*
Y026624D01*
D02*
G37*
G36*
X049668Y027857D02*
X04966Y027844D01*
X049645Y027771D01*
X04966Y027697D01*
X049694Y027647D01*
X049698Y027613D01*
X049694Y02758D01*
X04966Y027529D01*
X049645Y027456D01*
X04966Y027382D01*
X049694Y027332D01*
X049698Y027298D01*
X049694Y027265D01*
X04966Y027215D01*
X049655Y027191D01*
X050005D01*
Y027091D01*
X049655D01*
X04966Y027067D01*
X049668Y027054D01*
X049642Y027004D01*
X049087D01*
X049019Y026991D01*
X048961Y026952D01*
X048961Y026952D01*
X048608Y026599D01*
X048565Y026627D01*
X048574Y026648D01*
X048586Y026736D01*
X048574Y026824D01*
X04854Y026906D01*
X04852Y026932D01*
X048517Y02694D01*
X048503Y026958D01*
X048493Y026974D01*
X048484Y02699D01*
X048476Y027005D01*
X04847Y02702D01*
X048465Y027034D01*
X048462Y027048D01*
X048459Y027061D01*
X048458Y027067D01*
Y027067D01*
X049299Y027907D01*
X049642D01*
X049668Y027857D01*
D02*
G37*
G36*
X036393Y026975D02*
X036399Y026958D01*
X036409Y026943D01*
X036423Y02693D01*
X036442Y026919D01*
X036464Y02691D01*
X03649Y026903D01*
X03652Y026898D01*
X036554Y026895D01*
X036593Y026894D01*
Y026694D01*
X036554Y026693D01*
X03652Y02669D01*
X03649Y026685D01*
X036464Y026678D01*
X036442Y026669D01*
X036423Y026658D01*
X036409Y026645D01*
X036399Y02663D01*
X036393Y026613D01*
X036391Y026594D01*
Y026994D01*
X036393Y026975D01*
D02*
G37*
G36*
X041517Y026572D02*
X041499Y026589D01*
X041481Y026605D01*
X041462Y026618D01*
X041443Y02663D01*
X041423Y02664D01*
X041403Y026648D01*
X041383Y026654D01*
X041362Y026659D01*
X041341Y026661D01*
X04132Y026662D01*
Y026812D01*
X041341Y026813D01*
X041362Y026816D01*
X041383Y026821D01*
X041403Y026827D01*
X041423Y026835D01*
X041443Y026845D01*
X041462Y026857D01*
X041481Y02687D01*
X041499Y026886D01*
X041517Y026903D01*
Y026572D01*
D02*
G37*
G36*
X035102Y026571D02*
X0351Y02659D01*
X035094Y026607D01*
X035084Y026622D01*
X03507Y026635D01*
X035052Y026646D01*
X03503Y026655D01*
X035004Y026662D01*
X034974Y026667D01*
X034939Y02667D01*
X034901Y026671D01*
Y026871D01*
X034939Y026872D01*
X034974Y026875D01*
X035004Y02688D01*
X03503Y026887D01*
X035052Y026896D01*
X03507Y026907D01*
X035084Y02692D01*
X035094Y026935D01*
X0351Y026952D01*
X035102Y026971D01*
Y026571D01*
D02*
G37*
G36*
X034635Y026969D02*
X03466Y026949D01*
X034684Y02693D01*
X03471Y026915D01*
X034736Y026901D01*
X034762Y02689D01*
X034789Y026882D01*
X034817Y026876D01*
X034845Y026872D01*
X034874Y026871D01*
X034872Y026671D01*
X034843Y02667D01*
X034815Y026666D01*
X034787Y02666D01*
X03476Y026652D01*
X034734Y026641D01*
X034708Y026628D01*
X034682Y026612D01*
X034657Y026594D01*
X034632Y026574D01*
X034608Y026551D01*
X034612Y026992D01*
X034635Y026969D01*
D02*
G37*
G36*
X052459Y02648D02*
X052457Y026493D01*
X052453Y026505D01*
X052446Y026516D01*
X052435Y026525D01*
X052422Y026532D01*
X052406Y026539D01*
X052387Y026544D01*
X052365Y026547D01*
X05234Y026549D01*
X052312Y02655D01*
Y0267D01*
X05234Y026701D01*
X052365Y026703D01*
X052387Y026706D01*
X052406Y026711D01*
X052422Y026718D01*
X052435Y026725D01*
X052446Y026734D01*
X052453Y026745D01*
X052457Y026757D01*
X052459Y02677D01*
Y02648D01*
D02*
G37*
G36*
X043178Y026396D02*
X043176Y026415D01*
X04317Y026432D01*
X04316Y026447D01*
X043146Y02646D01*
X043128Y026471D01*
X043106Y02648D01*
X043079Y026487D01*
X043049Y026492D01*
X043015Y026495D01*
X042977Y026496D01*
Y026696D01*
X043015Y026697D01*
X043049Y0267D01*
X043079Y026705D01*
X043106Y026712D01*
X043128Y026721D01*
X043146Y026732D01*
X04316Y026745D01*
X04317Y02676D01*
X043176Y026777D01*
X043178Y026796D01*
Y026396D01*
D02*
G37*
G36*
X047012Y026474D02*
X046997Y026458D01*
X046984Y026441D01*
X046973Y026423D01*
X046963Y026404D01*
X046956Y026384D01*
X04695Y026364D01*
X046946Y026342D01*
X046944Y02632D01*
X046944Y026296D01*
X046945Y026272D01*
X046692Y026486D01*
X046718Y026488D01*
X046742Y026492D01*
X046765Y026497D01*
X046787Y026504D01*
X046808Y026512D01*
X046827Y026521D01*
X046846Y026531D01*
X046864Y026543D01*
X046881Y026556D01*
X046896Y02657D01*
X047012Y026474D01*
D02*
G37*
G36*
X053689Y02635D02*
X053676Y026345D01*
X053665Y026338D01*
X053655Y026327D01*
X053647Y026314D01*
X05364Y026297D01*
X053635Y026278D01*
X053631Y026255D01*
X053629Y02623D01*
X053628Y026201D01*
X053478D01*
X053477Y02623D01*
X053475Y026255D01*
X053471Y026278D01*
X053466Y026297D01*
X053459Y026314D01*
X053451Y026327D01*
X053441Y026338D01*
X05343Y026345D01*
X053417Y02635D01*
X053403Y026351D01*
X053703D01*
X053689Y02635D01*
D02*
G37*
G36*
X037115Y02659D02*
X037138Y026587D01*
X037151Y026585D01*
Y026523D01*
X037248D01*
X037252Y026522D01*
X037256Y026523D01*
X037569D01*
X037601Y026473D01*
X037599Y026465D01*
X037544Y026429D01*
X037381Y026266D01*
X037337Y0262D01*
X03733Y026162D01*
X037256D01*
X037252Y026163D01*
X037251Y026163D01*
X03725Y026163D01*
X037214Y026162D01*
X037151D01*
Y026161D01*
X037145Y026161D01*
X036548D01*
X036533Y026162D01*
X036512Y026165D01*
X036496Y02617D01*
X036494Y026171D01*
Y02658D01*
X036496Y026581D01*
X036511Y026585D01*
X036533Y026589D01*
X036548Y02659D01*
X037107D01*
X037115Y02659D01*
D02*
G37*
G36*
X050211Y026276D02*
X050219Y026274D01*
X050229Y026272D01*
X050242Y02627D01*
X050297Y026267D01*
X050375Y026266D01*
X050359Y026116D01*
X050206Y026114D01*
Y026278D01*
X050211Y026276D01*
D02*
G37*
G36*
X0455Y026277D02*
X045507Y026276D01*
X045516Y026275D01*
X045542Y026273D01*
X045658Y026271D01*
Y026121D01*
X045497Y026114D01*
Y026278D01*
X0455Y026277D01*
D02*
G37*
G36*
X040726Y026019D02*
X040708Y026036D01*
X04069Y026052D01*
X040671Y026065D01*
X040652Y026077D01*
X040632Y026087D01*
X040612Y026095D01*
X040592Y026101D01*
X040571Y026106D01*
X04055Y026109D01*
X040529Y02611D01*
Y02626D01*
X04055Y026261D01*
X040571Y026263D01*
X040592Y026268D01*
X040612Y026274D01*
X040632Y026282D01*
X040652Y026292D01*
X040671Y026304D01*
X04069Y026317D01*
X040708Y026333D01*
X040726Y02635D01*
Y026019D01*
D02*
G37*
G36*
X046373Y026232D02*
X046382Y026162D01*
X046416Y02608D01*
X04647Y02601D01*
X04654Y025956D01*
X046622Y025922D01*
X04671Y025911D01*
X046777Y02592D01*
X046813Y025887D01*
X046818Y025877D01*
X046816Y02587D01*
X046808Y025858D01*
X046803Y025855D01*
X046791Y02585D01*
X046778Y025846D01*
X046764Y025843D01*
X046748Y02584D01*
X046732Y025839D01*
X046716Y025838D01*
X04671Y025839D01*
X046622Y025828D01*
X04654Y025794D01*
X04647Y02574D01*
X046416Y02567D01*
X046382Y025588D01*
X046371Y0255D01*
X046382Y025412D01*
X046416Y02533D01*
X04647Y02526D01*
X04654Y025206D01*
X046615Y025175D01*
X046616Y025171D01*
X04662Y025148D01*
X046619Y025122D01*
X046581Y025097D01*
X046548Y025093D01*
X046514Y025097D01*
X046464Y025131D01*
X04639Y025146D01*
X046317Y025131D01*
X046254Y025089D01*
X046211D01*
X046149Y025131D01*
X046075Y025146D01*
X046002Y025131D01*
X045939Y025089D01*
X045898Y025027D01*
X045886Y024967D01*
X045878Y024965D01*
X045869Y024965D01*
X041886D01*
X041867Y025011D01*
X042244Y025388D01*
X045025D01*
X045044Y025387D01*
X045065Y025386D01*
X045068Y025386D01*
X045071Y025385D01*
X045071Y025385D01*
X045128Y025374D01*
X045463D01*
X045536Y025388D01*
X045599Y02543D01*
X04564Y025493D01*
X045655Y025566D01*
X04564Y02564D01*
X045606Y02569D01*
X045602Y025724D01*
X045606Y025757D01*
X04564Y025807D01*
X045655Y025881D01*
X04564Y025955D01*
X045632Y025968D01*
X045658Y026018D01*
X046014D01*
X046083Y026031D01*
X046141Y02607D01*
X046324Y026253D01*
X046373Y026232D01*
D02*
G37*
G36*
X051426Y025957D02*
X051428Y025932D01*
X051432Y025909D01*
X051437Y025889D01*
X051444Y025873D01*
X051452Y025859D01*
X051462Y025849D01*
X051473Y025841D01*
X051486Y025837D01*
X0515Y025835D01*
X0512D01*
X051214Y025837D01*
X051227Y025841D01*
X051238Y025849D01*
X051248Y025859D01*
X051256Y025873D01*
X051263Y025889D01*
X051268Y025909D01*
X051272Y025932D01*
X051274Y025957D01*
X051275Y025986D01*
X051425D01*
X051426Y025957D01*
D02*
G37*
G36*
X045094Y025799D02*
X04509Y0258D01*
X045084Y025801D01*
X045075Y025802D01*
X045048Y025804D01*
X044933Y025806D01*
Y025956D01*
X045094Y025963D01*
Y025799D01*
D02*
G37*
G36*
X036393Y026138D02*
X036399Y026121D01*
X03641Y026106D01*
X036424Y026093D01*
X036442Y026082D01*
X036464Y026073D01*
X03649Y026066D01*
X03652Y026061D01*
X036554Y026058D01*
X036593Y026057D01*
Y025857D01*
X036555Y025856D01*
X03649Y025849D01*
X036465Y025844D01*
X036442Y025836D01*
X036425Y025827D01*
X036411Y025816D01*
X0364Y025804D01*
X036395Y02579D01*
X036393Y025774D01*
X036374Y025772D01*
X036358Y025766D01*
X036344Y025756D01*
X036331Y025742D01*
X036321Y025724D01*
X036312Y025702D01*
X036308Y025688D01*
X036312Y025674D01*
X036321Y025652D01*
X036331Y025634D01*
X036344Y02562D01*
X036358Y02561D01*
X036374Y025604D01*
X036393Y025602D01*
X036298D01*
X036297Y025574D01*
X036097D01*
X036096Y025602D01*
X036001D01*
X036019Y025604D01*
X036036Y02561D01*
X03605Y02562D01*
X036062Y025634D01*
X036073Y025652D01*
X036082Y025674D01*
X036085Y025688D01*
X036082Y025702D01*
X036073Y025724D01*
X036062Y025742D01*
X03605Y025756D01*
X036036Y025766D01*
X036019Y025772D01*
X036001Y025774D01*
X036096D01*
X036097Y025802D01*
X036297D01*
X036298Y025774D01*
X036393D01*
X036391Y026157D01*
X036393Y026138D01*
D02*
G37*
G36*
X037252Y025757D02*
X03725Y025776D01*
X037244Y025793D01*
X037234Y025808D01*
X03722Y025821D01*
X037202Y025832D01*
X03718Y025841D01*
X037154Y025848D01*
X037124Y025853D01*
X03709Y025856D01*
X037052Y025857D01*
Y026057D01*
X037252Y026061D01*
Y025757D01*
D02*
G37*
G36*
X052476Y025674D02*
X052475Y025685D01*
X052471Y025695D01*
X052465Y025704D01*
X052457Y025712D01*
X052446Y025719D01*
X052433Y025724D01*
X052417Y025728D01*
X052399Y025731D01*
X052379Y025733D01*
X052356Y025734D01*
Y025854D01*
X052379Y025854D01*
X052399Y025856D01*
X052417Y025859D01*
X052433Y025863D01*
X052446Y025869D01*
X052457Y025875D01*
X052465Y025883D01*
X052471Y025892D01*
X052475Y025902D01*
X052476Y025914D01*
Y025674D01*
D02*
G37*
G36*
X035398Y025774D02*
X035492D01*
X035474Y025772D01*
X035458Y025766D01*
X035444Y025756D01*
X035431Y025742D01*
X035421Y025724D01*
X035412Y025702D01*
X035408Y025688D01*
X035412Y025674D01*
X035421Y025652D01*
X035431Y025634D01*
X035444Y02562D01*
X035458Y02561D01*
X035474Y025604D01*
X035492Y025602D01*
X035398D01*
X035397Y025574D01*
X035197D01*
X035196Y025602D01*
X035101D01*
X035119Y025604D01*
X035136Y02561D01*
X03515Y02562D01*
X035162Y025634D01*
X035173Y025652D01*
X035182Y025674D01*
X035185Y025688D01*
X035182Y025702D01*
X035173Y025724D01*
X035162Y025742D01*
X03515Y025756D01*
X035136Y025766D01*
X035119Y025772D01*
X035101Y025774D01*
X035196D01*
X035197Y025802D01*
X035397D01*
X035398Y025774D01*
D02*
G37*
G36*
X047022Y025706D02*
X047007Y02569D01*
X046994Y025673D01*
X046983Y025655D01*
X046973Y025636D01*
X046964Y025616D01*
X046958Y025596D01*
X046952Y025574D01*
X046949Y025551D01*
X046947Y025527D01*
X046946Y025502D01*
X046712Y025736D01*
X046737Y025737D01*
X046761Y025739D01*
X046784Y025742D01*
X046806Y025748D01*
X046826Y025754D01*
X046846Y025763D01*
X046865Y025773D01*
X046883Y025784D01*
X0469Y025797D01*
X046916Y025812D01*
X047022Y025706D01*
D02*
G37*
G36*
X045094Y025484D02*
X04509Y025485D01*
X045084Y025486D01*
X045075Y025488D01*
X045048Y025489D01*
X044933Y025491D01*
Y025641D01*
X045094Y025648D01*
Y025484D01*
D02*
G37*
G36*
X051911Y026722D02*
X051927Y026715D01*
X051931Y026712D01*
X051931Y026712D01*
X051932Y026711D01*
X05195Y026702D01*
X051964Y026694D01*
X052013Y026664D01*
X052024Y026656D01*
X052057Y026628D01*
X052186Y026499D01*
X052186Y026499D01*
X052244Y02646D01*
X052312Y026447D01*
X052345D01*
X052353Y026446D01*
X052356Y026445D01*
Y02625D01*
X052905D01*
X052926Y0262D01*
X052901Y026176D01*
X052859Y026138D01*
X05284Y026124D01*
X052824Y026114D01*
X052818Y02611D01*
X0528D01*
Y026006D01*
X052808Y026004D01*
X052822Y026004D01*
X052838Y026008D01*
X052857Y026015D01*
X052877Y026026D01*
X052899Y026041D01*
X052923Y026059D01*
X052978Y026107D01*
X053008Y026136D01*
X053109Y026067D01*
X053082Y02604D01*
X053041Y025992D01*
X053027Y025972D01*
X053016Y025954D01*
X053009Y025938D01*
X053007Y025924D01*
X053008Y025913D01*
X053013Y025904D01*
X053023Y025898D01*
X0528Y026006D01*
Y025844D01*
X053125D01*
Y025934D01*
X053152Y025965D01*
X053219Y026031D01*
X053254Y026084D01*
X053266Y026147D01*
Y02625D01*
X053373D01*
X053374Y026242D01*
X053375Y026233D01*
Y024177D01*
X053076Y023878D01*
X051124D01*
X051028Y023974D01*
Y024163D01*
X051686D01*
Y024836D01*
X051689Y024837D01*
X051704Y024841D01*
X051725Y024845D01*
X05174Y024846D01*
X052321D01*
X052335Y024845D01*
X052357Y024841D01*
X052372Y024837D01*
X052375Y024836D01*
Y02469D01*
X053125D01*
Y025323D01*
X05248D01*
X052476Y025324D01*
X052472Y025323D01*
X052375D01*
Y02526D01*
X052364Y025258D01*
X052324Y025254D01*
X05174D01*
X051725Y025255D01*
X051704Y025259D01*
X051689Y025263D01*
X051686Y025264D01*
Y025937D01*
X05153D01*
X051529Y025945D01*
X051528Y025954D01*
Y026246D01*
X051578Y026267D01*
X052167Y025678D01*
X05222Y025643D01*
X052282Y025631D01*
X052375D01*
Y025477D01*
X0527D01*
Y025794D01*
Y02611D01*
X052375D01*
Y026002D01*
X052325Y025981D01*
X051816Y02649D01*
Y026731D01*
X051866Y026756D01*
X051911Y026722D01*
D02*
G37*
G36*
X039426Y025627D02*
X039433Y025537D01*
X039436Y02552D01*
X039439Y025505D01*
X039444Y025493D01*
X039448Y025482D01*
X039453Y025474D01*
X039249D01*
X039254Y025482D01*
X039259Y025493D01*
X039263Y025505D01*
X039266Y02552D01*
X039269Y025537D01*
X039274Y025578D01*
X039276Y025627D01*
X039276Y025655D01*
X039426D01*
X039426Y025627D01*
D02*
G37*
G36*
X038443Y025638D02*
X038443Y025609D01*
X038451Y025478D01*
X038453Y025474D01*
X038249D01*
X038257Y025486D01*
X038265Y0255D01*
X038271Y025515D01*
X038277Y025532D01*
X038282Y025551D01*
X038286Y025571D01*
X038289Y025593D01*
X038292Y025641D01*
X038293Y025668D01*
X038443Y025638D01*
D02*
G37*
G36*
X040847Y025328D02*
X040829Y025334D01*
X040812Y025337D01*
X040795Y025338D01*
X040778Y025337D01*
X040761Y025334D01*
X040745Y025329D01*
X040729Y025322D01*
X040714Y025312D01*
X040699Y025301D01*
X040684Y025287D01*
X040595Y02541D01*
X040611Y025427D01*
X040639Y025461D01*
X040651Y025479D01*
X040661Y025497D01*
X040671Y025515D01*
X040679Y025534D01*
X040686Y025553D01*
X040691Y025572D01*
X040695Y025592D01*
X040847Y025328D01*
D02*
G37*
G36*
X050224Y025494D02*
X050213Y025483D01*
X050204Y02547D01*
X050197Y025456D01*
X05019Y025439D01*
X050185Y025421D01*
X05018Y0254D01*
X050177Y025378D01*
X050176Y025354D01*
X050175Y025328D01*
X050025Y025327D01*
X050024Y025357D01*
X050022Y025384D01*
X050018Y025407D01*
X050013Y025427D01*
X050006Y025444D01*
X049998Y025457D01*
X049988Y025467D01*
X049977Y025474D01*
X049964Y025478D01*
X04995Y025478D01*
X050235Y025503D01*
X050224Y025494D01*
D02*
G37*
G36*
X039943Y025475D02*
X039949Y025463D01*
X039959Y025452D01*
X039972Y025442D01*
X039988Y025434D01*
X040008Y025427D01*
X040031Y025422D01*
X040057Y025418D01*
X040086Y025416D01*
X040119Y025415D01*
Y025265D01*
X040089Y025264D01*
X040062Y025262D01*
X040039Y025258D01*
X040019Y025253D01*
X040002Y025246D01*
X039989Y025238D01*
X039979Y025228D01*
X039972Y025217D01*
X039968Y025204D01*
X039968Y02519D01*
X03994Y025489D01*
X039943Y025475D01*
D02*
G37*
G36*
X049668Y026598D02*
X04966Y026585D01*
X049645Y026511D01*
X04966Y026437D01*
X049694Y026387D01*
X049698Y026354D01*
X049694Y02632D01*
X04966Y02627D01*
X049645Y026196D01*
X04966Y026122D01*
X049677Y026097D01*
X049654Y026041D01*
X049653Y026041D01*
X049595Y026002D01*
X049595Y026002D01*
X049374Y025781D01*
X049335Y025723D01*
X049322Y025655D01*
Y025171D01*
X049272Y025136D01*
X049225Y025146D01*
X049151Y025131D01*
X049101Y025097D01*
X049067Y025093D01*
X049034Y025097D01*
X048983Y025131D01*
X04891Y025146D01*
X048836Y025131D01*
X048786Y025097D01*
X048752Y025093D01*
X048719Y025097D01*
X048668Y025131D01*
X048595Y025146D01*
X048521Y025131D01*
X048471Y025097D01*
X048437Y025093D01*
X048404Y025097D01*
X048354Y025131D01*
X04828Y025146D01*
X048206Y025131D01*
X048144Y025089D01*
X048101D01*
X048039Y025131D01*
X047965Y025146D01*
X047891Y025131D01*
X047841Y025097D01*
X047807Y025093D01*
X047774Y025097D01*
X047724Y025131D01*
X04771Y025134D01*
X047695Y025182D01*
X049161Y026648D01*
X049642D01*
X049668Y026598D01*
D02*
G37*
G36*
X048015Y02649D02*
X048077Y026443D01*
X048159Y026409D01*
X048246Y026397D01*
X048334Y026409D01*
X048355Y026417D01*
X048384Y026375D01*
X047209Y0252D01*
X04717Y025142D01*
X04717Y02514D01*
X047114Y025117D01*
X047094Y025131D01*
X04702Y025146D01*
X046947Y025131D01*
X046896Y025097D01*
X046863Y025093D01*
X046829Y025097D01*
X046793Y025121D01*
X046797Y02516D01*
X046801Y025174D01*
X04688Y025206D01*
X04695Y02526D01*
X047004Y02533D01*
X047038Y025412D01*
X047049Y0255D01*
X047048Y025506D01*
X047049Y025522D01*
X04705Y025538D01*
X047052Y025554D01*
X047056Y025568D01*
X04706Y025581D01*
X047065Y025593D01*
X047071Y025604D01*
X047077Y025614D01*
X047081Y025619D01*
X04795Y026488D01*
X047991Y026494D01*
X048015Y02649D01*
D02*
G37*
G36*
X035102Y025063D02*
X0351Y025082D01*
X035094Y025099D01*
X035084Y025114D01*
X03507Y025127D01*
X035052Y025138D01*
X03503Y025147D01*
X035004Y025154D01*
X034974Y025159D01*
X034939Y025162D01*
X034901Y025163D01*
Y025363D01*
X034939Y025364D01*
X034974Y025367D01*
X035004Y025372D01*
X03503Y025379D01*
X035052Y025388D01*
X03507Y025399D01*
X035084Y025412D01*
X035094Y025427D01*
X0351Y025444D01*
X035102Y025463D01*
Y025063D01*
D02*
G37*
G36*
X034589Y025442D02*
X034647Y025411D01*
X034675Y025398D01*
X034704Y025388D01*
X034732Y025379D01*
X03476Y025372D01*
X034787Y025367D01*
X034815Y025364D01*
X034843Y025363D01*
X034887Y025163D01*
X034857Y025162D01*
X034829Y025158D01*
X034802Y025151D01*
X034777Y025142D01*
X034752Y02513D01*
X034729Y025115D01*
X034708Y025098D01*
X034687Y025077D01*
X034668Y025055D01*
X03465Y025029D01*
X03456Y025461D01*
X034589Y025442D01*
D02*
G37*
G36*
X052476Y02485D02*
X052474Y024869D01*
X052468Y024886D01*
X052458Y024901D01*
X052444Y024914D01*
X052426Y024925D01*
X052404Y024934D01*
X052378Y024941D01*
X052348Y024946D01*
X052314Y024949D01*
X052276Y02495D01*
Y02515D01*
X052314Y025151D01*
X052378Y025156D01*
X052404Y025161D01*
X052426Y025168D01*
X052444Y025176D01*
X052458Y025185D01*
X052468Y025196D01*
X052474Y025208D01*
X052476Y025222D01*
Y02485D01*
D02*
G37*
G36*
X051586Y025231D02*
X051592Y025214D01*
X051602Y025199D01*
X051616Y025186D01*
X051634Y025175D01*
X051656Y025166D01*
X051682Y025159D01*
X051713Y025154D01*
X051747Y025151D01*
X051785Y02515D01*
Y02495D01*
X051747Y024949D01*
X051713Y024946D01*
X051682Y024941D01*
X051656Y024934D01*
X051634Y024925D01*
X051616Y024914D01*
X051602Y024901D01*
X051592Y024886D01*
X051586Y024869D01*
X051584Y02485D01*
Y02525D01*
X051586Y025231D01*
D02*
G37*
G36*
X045987Y024636D02*
X045986Y02465D01*
X045981Y024663D01*
X045974Y024674D01*
X045963Y024684D01*
X04595Y024692D01*
X045933Y024699D01*
X045913Y024704D01*
X045891Y024708D01*
X045865Y02471D01*
X045836Y024711D01*
Y024861D01*
X045865Y024862D01*
X045891Y024864D01*
X045913Y024868D01*
X045933Y024873D01*
X04595Y02488D01*
X045963Y024888D01*
X045974Y024898D01*
X045981Y024909D01*
X045986Y024922D01*
X045987Y024936D01*
Y024636D01*
D02*
G37*
G36*
X037697Y024769D02*
X03768Y024763D01*
X037665Y024753D01*
X037652Y024739D01*
X037641Y02472D01*
X037632Y024698D01*
X037625Y024672D01*
X03762Y024642D01*
X037617Y024608D01*
X037616Y02457D01*
X037416D01*
X037415Y024608D01*
X037412Y024642D01*
X037407Y024672D01*
X0374Y024698D01*
X037391Y02472D01*
X03738Y024739D01*
X037367Y024753D01*
X037352Y024763D01*
X037335Y024769D01*
X037316Y024771D01*
X037716D01*
X037697Y024769D01*
D02*
G37*
G36*
X0477Y024437D02*
X047724Y024441D01*
X047737Y02445D01*
X047787Y024423D01*
Y024016D01*
X046909Y023139D01*
X04656D01*
X046541Y023185D01*
X047146Y02379D01*
X047185Y023848D01*
X047199Y023917D01*
X047199Y023917D01*
Y024423D01*
X047249Y02445D01*
X047261Y024441D01*
X047335Y024427D01*
X047409Y024441D01*
X047459Y024475D01*
X047493Y02448D01*
X047526Y024475D01*
X047576Y024441D01*
X0476Y024437D01*
Y024786D01*
X0477D01*
Y024437D01*
D02*
G37*
G36*
X049306Y024581D02*
X049304Y024575D01*
X049303Y024566D01*
X049302Y024539D01*
X0493Y024424D01*
X04915D01*
X049142Y024585D01*
X049307D01*
X049306Y024581D01*
D02*
G37*
G36*
X048991D02*
X04899Y024575D01*
X048988Y024566D01*
X048987Y024539D01*
X048985Y024424D01*
X048835D01*
X048828Y024585D01*
X048992D01*
X048991Y024581D01*
D02*
G37*
G36*
X048676D02*
X048675Y024575D01*
X048673Y024566D01*
X048672Y024539D01*
X04867Y024424D01*
X04852D01*
X048513Y024585D01*
X048677D01*
X048676Y024581D01*
D02*
G37*
G36*
X048361D02*
X04836Y024575D01*
X048358Y024566D01*
X048357Y024539D01*
X048355Y024424D01*
X048205D01*
X048198Y024585D01*
X048362D01*
X048361Y024581D01*
D02*
G37*
G36*
X048046D02*
X048045Y024575D01*
X048044Y024566D01*
X048042Y024539D01*
X04804Y024424D01*
X04789D01*
X047883Y024585D01*
X048047D01*
X048046Y024581D01*
D02*
G37*
G36*
X047101D02*
X0471Y024575D01*
X047099Y024566D01*
X047097Y024539D01*
X047095Y024424D01*
X046945D01*
X046938Y024585D01*
X047102D01*
X047101Y024581D01*
D02*
G37*
G36*
X046786D02*
X046785Y024575D01*
X046784Y024566D01*
X046782Y024539D01*
X04678Y024424D01*
X04663D01*
X046623Y024585D01*
X046787D01*
X046786Y024581D01*
D02*
G37*
G36*
X046471D02*
X04647Y024575D01*
X046469Y024566D01*
X046467Y024539D01*
X046465Y024424D01*
X046315D01*
X046308Y024585D01*
X046472D01*
X046471Y024581D01*
D02*
G37*
G36*
X037617Y024486D02*
X03762Y024451D01*
X037625Y024421D01*
X037632Y024395D01*
X037641Y024373D01*
X037652Y024355D01*
X037665Y024341D01*
X03768Y024331D01*
X037697Y024325D01*
X037716Y024323D01*
X037316D01*
X037335Y024325D01*
X037352Y024331D01*
X037367Y024341D01*
X03738Y024355D01*
X037391Y024373D01*
X0374Y024395D01*
X037407Y024421D01*
X037412Y024451D01*
X037415Y024486D01*
X037416Y024524D01*
X037616D01*
X037617Y024486D01*
D02*
G37*
G36*
X053987Y027582D02*
Y024233D01*
X053756Y024002D01*
X053717Y024033D01*
X053718Y024035D01*
X053732Y024103D01*
X053732Y024103D01*
Y026233D01*
X053732Y026242D01*
X053734Y02625D01*
X05385D01*
Y027D01*
X053813D01*
Y027684D01*
X053863Y027705D01*
X053987Y027582D01*
D02*
G37*
G36*
X045878Y024607D02*
X045886Y024606D01*
X045898Y024545D01*
X045939Y024483D01*
X046002Y024441D01*
X046075Y024427D01*
X046149Y024441D01*
X046162Y02445D01*
X046212Y024423D01*
Y024239D01*
X045862Y023889D01*
X041164D01*
X041144Y023935D01*
X041817Y024608D01*
X045869D01*
X045878Y024607D01*
D02*
G37*
G36*
X050924Y023574D02*
X050924Y023574D01*
X050982Y023535D01*
X05105Y023522D01*
X05105Y023522D01*
X05315D01*
X053218Y023535D01*
X05322Y023536D01*
X053252Y023497D01*
X053167Y023413D01*
X051653D01*
X051653Y023413D01*
X051591Y023401D01*
X051538Y023365D01*
X050998Y022826D01*
X050963Y022773D01*
X050951Y02271D01*
Y020731D01*
X050561Y020342D01*
X050515Y020361D01*
Y021065D01*
X05028D01*
X050279Y021072D01*
X050278Y021081D01*
Y022835D01*
X050328Y022852D01*
X05036Y02281D01*
X05043Y022756D01*
X050512Y022722D01*
X0506Y022711D01*
X050688Y022722D01*
X05077Y022756D01*
X05084Y02281D01*
X050894Y02288D01*
X050928Y022962D01*
X050939Y02305D01*
X050928Y023138D01*
X050894Y02322D01*
X05084Y02329D01*
X050835Y023294D01*
X050824Y023305D01*
X050813Y023318D01*
X050804Y02333D01*
X050797Y023343D01*
X05079Y023355D01*
X050785Y023367D01*
X050782Y023379D01*
X050779Y023391D01*
X050778Y023396D01*
Y023654D01*
X050825Y023673D01*
X050924Y023574D01*
D02*
G37*
G36*
X050422Y025913D02*
Y023396D01*
X050421Y023391D01*
X050418Y023379D01*
X050415Y023367D01*
X05041Y023355D01*
X050403Y023343D01*
X050396Y02333D01*
X050387Y023318D01*
X050376Y023305D01*
X050365Y023294D01*
X05036Y02329D01*
X050328Y023248D01*
X050278Y023265D01*
Y025362D01*
X050279Y025367D01*
X050281Y025383D01*
X050284Y025396D01*
X050287Y025406D01*
X050289Y025413D01*
X050291Y025417D01*
X050293Y025419D01*
X050293Y025419D01*
X050298Y025423D01*
X050299Y025424D01*
X050308Y02543D01*
X050313Y025437D01*
X050313Y025438D01*
X050314Y025439D01*
X050321Y02545D01*
X050324Y025453D01*
X050324Y025455D01*
X05035Y025493D01*
X050364Y025566D01*
X05035Y02564D01*
X050316Y02569D01*
X050311Y025724D01*
X050316Y025757D01*
X05035Y025807D01*
X050364Y025881D01*
X050362Y025893D01*
X050407Y025923D01*
X050422Y025913D01*
D02*
G37*
G36*
X050676Y023394D02*
X050679Y023373D01*
X050683Y023352D01*
X050689Y023332D01*
X050698Y023312D01*
X050708Y023293D01*
X050719Y023274D01*
X050733Y023255D01*
X050748Y023237D01*
X050765Y023219D01*
X050435D01*
X050452Y023237D01*
X050467Y023255D01*
X050481Y023274D01*
X050492Y023293D01*
X050502Y023312D01*
X050511Y023332D01*
X050517Y023352D01*
X050521Y023373D01*
X050524Y023394D01*
X050525Y023416D01*
X050675D01*
X050676Y023394D01*
D02*
G37*
G36*
X049498Y022814D02*
X049473Y022813D01*
X049449Y022811D01*
X049426Y022808D01*
X049404Y022802D01*
X049384Y022796D01*
X049364Y022787D01*
X049345Y022777D01*
X049327Y022766D01*
X04931Y022753D01*
X049294Y022738D01*
X049188Y022844D01*
X049203Y02286D01*
X049216Y022877D01*
X049227Y022895D01*
X049237Y022914D01*
X049246Y022934D01*
X049252Y022954D01*
X049258Y022976D01*
X049261Y022999D01*
X049263Y023023D01*
X049264Y023048D01*
X049498Y022814D01*
D02*
G37*
G36*
X049764Y025388D02*
X049837Y025374D01*
X04992D01*
X049921Y025371D01*
X049922Y025361D01*
Y021081D01*
X049921Y021072D01*
X04992Y021065D01*
X049685D01*
Y020235D01*
X050389D01*
X050408Y020189D01*
X050329Y02011D01*
X050319Y020103D01*
X050305Y020096D01*
X050288Y020089D01*
X050266Y020082D01*
X050241Y020077D01*
X050213Y020073D01*
X050142Y020067D01*
X050112Y020067D01*
X0501Y020069D01*
X049992Y020054D01*
X049891Y020012D01*
X049804Y019946D01*
X049738Y019859D01*
X049696Y019758D01*
X049681Y01965D01*
X049683Y019638D01*
X049683Y019611D01*
X049681Y019579D01*
X049677Y01955D01*
X049672Y019524D01*
X049666Y019501D01*
X049659Y019481D01*
X049652Y019463D01*
X049643Y019448D01*
X049636Y019438D01*
X049536Y019338D01*
X049447D01*
X049422Y019388D01*
X049462Y019441D01*
X049504Y019542D01*
X049512Y0196D01*
X0491D01*
Y01965D01*
X04905D01*
Y020062D01*
X048992Y020054D01*
X048891Y020012D01*
X048804Y019946D01*
X048797Y019937D01*
X048783Y019924D01*
X048764Y019908D01*
X048745Y019894D01*
X048726Y019882D01*
X048708Y019873D01*
X048689Y019865D01*
X048671Y01986D01*
X048652Y019855D01*
X04864Y019854D01*
X04856D01*
X048548Y019855D01*
X048529Y01986D01*
X048511Y019865D01*
X048492Y019873D01*
X048474Y019882D01*
X048455Y019894D01*
X048436Y019908D01*
X048417Y019924D01*
X048403Y019937D01*
X048396Y019946D01*
X048309Y020012D01*
X048208Y020054D01*
X04815Y020062D01*
Y01965D01*
X04805D01*
Y020062D01*
X047992Y020054D01*
X047891Y020012D01*
X047804Y019946D01*
X047797Y019937D01*
X047783Y019924D01*
X047764Y019908D01*
X047745Y019894D01*
X047726Y019882D01*
X047708Y019873D01*
X047689Y019865D01*
X047671Y01986D01*
X047652Y019855D01*
X04764Y019854D01*
X04756D01*
X047548Y019855D01*
X047529Y01986D01*
X047511Y019865D01*
X047492Y019873D01*
X047474Y019882D01*
X047455Y019894D01*
X047436Y019908D01*
X047417Y019924D01*
X047403Y019937D01*
X047396Y019946D01*
X047309Y020012D01*
X047208Y020054D01*
X04715Y020062D01*
Y01965D01*
X04705D01*
Y020062D01*
X046992Y020054D01*
X046891Y020012D01*
X046804Y019946D01*
X046797Y019937D01*
X046783Y019924D01*
X046764Y019908D01*
X046745Y019894D01*
X046726Y019882D01*
X046708Y019873D01*
X046689Y019865D01*
X046671Y01986D01*
X046652Y019855D01*
X04664Y019854D01*
X04656D01*
X046548Y019855D01*
X046529Y01986D01*
X046511Y019865D01*
X046492Y019873D01*
X046474Y019882D01*
X046455Y019894D01*
X046436Y019908D01*
X046417Y019924D01*
X046403Y019937D01*
X046396Y019946D01*
X046309Y020012D01*
X046208Y020054D01*
X04615Y020062D01*
Y01965D01*
X0461D01*
Y0196D01*
X045688D01*
X045696Y019542D01*
X045738Y019441D01*
X045778Y019388D01*
X045753Y019338D01*
X045533D01*
X044698Y020173D01*
Y020194D01*
X0447Y020203D01*
X044703Y020218D01*
X044708Y020234D01*
X044716Y020251D01*
X044725Y020269D01*
X044735Y020287D01*
X044766Y02033D01*
X044785Y020352D01*
X044789Y020359D01*
X044828Y020411D01*
X044866Y020502D01*
X044879Y0206D01*
X044866Y020698D01*
X044828Y020789D01*
X044768Y020868D01*
X044689Y020928D01*
X044598Y020966D01*
X0445Y020979D01*
X044402Y020966D01*
X044311Y020928D01*
X044232Y020868D01*
X044226Y02086D01*
X044178Y020876D01*
Y021834D01*
X044228Y021851D01*
X04426Y021809D01*
X04433Y021756D01*
X044412Y021722D01*
X0445Y02171D01*
X044588Y021722D01*
X04467Y021756D01*
X04474Y021809D01*
X044744Y021815D01*
X044755Y021825D01*
X044768Y021836D01*
X04478Y021845D01*
X044793Y021853D01*
X044805Y021859D01*
X044817Y021864D01*
X044829Y021867D01*
X044841Y02187D01*
X044846Y021871D01*
X045431D01*
X04545Y021825D01*
X045297Y021671D01*
X045292Y021667D01*
X045282Y021661D01*
X045271Y021655D01*
X045259Y02165D01*
X045246Y021646D01*
X045232Y021643D01*
X045216Y02164D01*
X045199Y021639D01*
X045184Y021638D01*
X045178Y021639D01*
X04509Y021628D01*
X045008Y021594D01*
X044938Y02154D01*
X044884Y02147D01*
X04485Y021388D01*
X044839Y0213D01*
X04485Y021212D01*
X044884Y02113D01*
X044938Y02106D01*
X045008Y021006D01*
X04509Y020972D01*
X045178Y020961D01*
X045266Y020972D01*
X045347Y021006D01*
X045418Y02106D01*
X045472Y02113D01*
X045505Y021212D01*
X045517Y0213D01*
X045516Y021306D01*
X045516Y021322D01*
X045518Y021338D01*
X04552Y021354D01*
X045524Y021368D01*
X045528Y021381D01*
X045533Y021393D01*
X045539Y021404D01*
X045545Y021414D01*
X045549Y021419D01*
X045751Y021621D01*
X046753D01*
X046772Y021575D01*
X046312Y021114D01*
X046302Y021107D01*
X046287Y021098D01*
X046269Y021091D01*
X046249Y021084D01*
X046226Y021078D01*
X046201Y021073D01*
X046137Y021067D01*
X046112Y021067D01*
X0461Y021069D01*
X045992Y021054D01*
X045891Y021012D01*
X045804Y020946D01*
X045738Y020859D01*
X045696Y020758D01*
X045681Y02065D01*
X045696Y020542D01*
X045738Y020441D01*
X045804Y020354D01*
X045891Y020288D01*
X045992Y020246D01*
X0461Y020231D01*
X046208Y020246D01*
X046309Y020288D01*
X046396Y020354D01*
X046462Y020441D01*
X046504Y020542D01*
X046519Y02065D01*
X046517Y020662D01*
X046517Y020689D01*
X046519Y020721D01*
X046523Y02075D01*
X046528Y020776D01*
X046534Y020799D01*
X046541Y020819D01*
X046548Y020837D01*
X046557Y020852D01*
X046564Y020862D01*
X047073Y021371D01*
X047339D01*
X047408Y021384D01*
X047466Y021423D01*
X049116Y023074D01*
X049146Y023059D01*
X049161Y023048D01*
X049162Y023044D01*
X049161Y023028D01*
X04916Y023012D01*
X049157Y022996D01*
X049154Y022982D01*
X04915Y022969D01*
X049145Y022957D01*
X049139Y022946D01*
X049133Y022936D01*
X049129Y022931D01*
X047312Y021114D01*
X047302Y021107D01*
X047287Y021098D01*
X047269Y021091D01*
X047249Y021084D01*
X047226Y021078D01*
X047201Y021073D01*
X047137Y021067D01*
X047112Y021067D01*
X0471Y021069D01*
X046992Y021054D01*
X046891Y021012D01*
X046804Y020946D01*
X046738Y020859D01*
X046696Y020758D01*
X046681Y02065D01*
X046696Y020542D01*
X046738Y020441D01*
X046804Y020354D01*
X046891Y020288D01*
X046992Y020246D01*
X0471Y020231D01*
X047208Y020246D01*
X047309Y020288D01*
X047396Y020354D01*
X047462Y020441D01*
X047504Y020542D01*
X047519Y02065D01*
X047517Y020662D01*
X047517Y020689D01*
X047519Y020721D01*
X047523Y02075D01*
X047528Y020776D01*
X047534Y020799D01*
X047541Y020819D01*
X047548Y020837D01*
X047557Y020852D01*
X047564Y020862D01*
X049381Y022679D01*
X049386Y022683D01*
X049396Y022689D01*
X049407Y022695D01*
X049419Y0227D01*
X049432Y022704D01*
X049446Y022707D01*
X049462Y02271D01*
X049478Y022711D01*
X049494Y022712D01*
X0495Y022711D01*
X049588Y022722D01*
X04967Y022756D01*
X04974Y02281D01*
X049794Y02288D01*
X049828Y022962D01*
X049839Y02305D01*
X049828Y023138D01*
X049794Y02322D01*
X04974Y02329D01*
X04967Y023344D01*
X049588Y023378D01*
X049502Y023389D01*
X049491Y023404D01*
X049476Y023434D01*
X049626Y023584D01*
X049626Y023584D01*
X049665Y023642D01*
X049678Y02371D01*
Y025385D01*
X049728Y025412D01*
X049764Y025388D01*
D02*
G37*
G36*
X044687Y022197D02*
X044705Y022182D01*
X044724Y022168D01*
X044743Y022157D01*
X044762Y022147D01*
X044782Y022139D01*
X044802Y022132D01*
X044823Y022128D01*
X044844Y022125D01*
X044866Y022124D01*
Y021974D01*
X044844Y021973D01*
X044823Y021971D01*
X044802Y021966D01*
X044782Y02196D01*
X044762Y021952D01*
X044743Y021942D01*
X044724Y02193D01*
X044705Y021916D01*
X044687Y021901D01*
X044669Y021884D01*
Y022215D01*
X044687Y022197D01*
D02*
G37*
G36*
X045489Y021506D02*
X045475Y02149D01*
X045462Y021473D01*
X04545Y021455D01*
X045441Y021436D01*
X045432Y021416D01*
X045426Y021396D01*
X04542Y021374D01*
X045417Y021351D01*
X045415Y021327D01*
X045414Y021302D01*
X04518Y021536D01*
X045205Y021537D01*
X045229Y021539D01*
X045252Y021542D01*
X045273Y021548D01*
X045294Y021554D01*
X045314Y021563D01*
X045333Y021573D01*
X045351Y021584D01*
X045368Y021597D01*
X045383Y021612D01*
X045489Y021506D01*
D02*
G37*
G36*
X050176Y021085D02*
X050178Y021059D01*
X050182Y021037D01*
X050187Y021017D01*
X050194Y021D01*
X050202Y020987D01*
X050212Y020976D01*
X050223Y020969D01*
X050236Y020964D01*
X05025Y020963D01*
X04995D01*
X049964Y020964D01*
X049977Y020969D01*
X049988Y020976D01*
X049998Y020987D01*
X050006Y021D01*
X050013Y021017D01*
X050018Y021037D01*
X050022Y021059D01*
X050024Y021085D01*
X050025Y021114D01*
X050175D01*
X050176Y021085D01*
D02*
G37*
G36*
X041744Y022986D02*
X040884Y022126D01*
X040846Y022068D01*
X040832Y022D01*
Y020866D01*
X040782Y020849D01*
X040768Y020868D01*
X040761Y020873D01*
X040746Y020889D01*
X04073Y020907D01*
X040716Y020925D01*
X040705Y020943D01*
X040696Y020959D01*
X040689Y020974D01*
X040683Y020989D01*
X04068Y021003D01*
X040678Y021013D01*
Y022216D01*
X041495Y023032D01*
X041725D01*
X041744Y022986D01*
D02*
G37*
G36*
X043576Y021007D02*
X04358Y020983D01*
X043586Y02096D01*
X043594Y020936D01*
X043604Y020913D01*
X043617Y02089D01*
X043633Y020866D01*
X04365Y020843D01*
X043671Y02082D01*
X043693Y020797D01*
X043307D01*
X043329Y02082D01*
X04335Y020843D01*
X043367Y020866D01*
X043383Y02089D01*
X043396Y020913D01*
X043406Y020936D01*
X043414Y02096D01*
X04342Y020983D01*
X043424Y021007D01*
X043425Y021031D01*
X043575D01*
X043576Y021007D01*
D02*
G37*
G36*
X040576D02*
X04058Y020983D01*
X040586Y02096D01*
X040594Y020936D01*
X040604Y020913D01*
X040617Y02089D01*
X040633Y020866D01*
X04065Y020843D01*
X040671Y02082D01*
X040693Y020797D01*
X040307D01*
X040329Y02082D01*
X04035Y020843D01*
X040367Y020866D01*
X040383Y02089D01*
X040396Y020913D01*
X040406Y020936D01*
X040414Y02096D01*
X04042Y020983D01*
X040424Y021007D01*
X040425Y021031D01*
X040575D01*
X040576Y021007D01*
D02*
G37*
G36*
X039576D02*
X03958Y020983D01*
X039586Y02096D01*
X039594Y020936D01*
X039604Y020913D01*
X039617Y02089D01*
X039633Y020866D01*
X03965Y020843D01*
X039671Y02082D01*
X039693Y020797D01*
X039307D01*
X039329Y02082D01*
X03935Y020843D01*
X039367Y020866D01*
X039383Y02089D01*
X039396Y020913D01*
X039406Y020936D01*
X039414Y02096D01*
X03942Y020983D01*
X039424Y021007D01*
X039425Y021031D01*
X039575D01*
X039576Y021007D01*
D02*
G37*
G36*
X038576D02*
X03858Y020983D01*
X038586Y02096D01*
X038594Y020936D01*
X038604Y020913D01*
X038617Y02089D01*
X038633Y020866D01*
X03865Y020843D01*
X038671Y02082D01*
X038693Y020797D01*
X038307D01*
X038329Y02082D01*
X03835Y020843D01*
X038367Y020866D01*
X038383Y02089D01*
X038396Y020913D01*
X038406Y020936D01*
X038414Y02096D01*
X03842Y020983D01*
X038424Y021007D01*
X038425Y021031D01*
X038575D01*
X038576Y021007D01*
D02*
G37*
G36*
X047503Y020947D02*
X047486Y020928D01*
X047471Y020906D01*
X047457Y020883D01*
X047446Y020857D01*
X047436Y020828D01*
X047428Y020798D01*
X047422Y020765D01*
X047418Y02073D01*
X047415Y020693D01*
X047415Y020653D01*
X047103Y020965D01*
X047143Y020965D01*
X047215Y020972D01*
X047248Y020978D01*
X047278Y020986D01*
X047307Y020996D01*
X047333Y021007D01*
X047356Y021021D01*
X047378Y021036D01*
X047397Y021053D01*
X047503Y020947D01*
D02*
G37*
G36*
X046503D02*
X046486Y020928D01*
X046471Y020906D01*
X046457Y020883D01*
X046446Y020857D01*
X046436Y020828D01*
X046428Y020798D01*
X046422Y020765D01*
X046418Y02073D01*
X046415Y020693D01*
X046415Y020653D01*
X046103Y020965D01*
X046143Y020965D01*
X046215Y020972D01*
X046248Y020978D01*
X046278Y020986D01*
X046307Y020996D01*
X046333Y021007D01*
X046356Y021021D01*
X046378Y021036D01*
X046397Y021053D01*
X046503Y020947D01*
D02*
G37*
G36*
X043967Y022736D02*
X043374Y022143D01*
X043335Y022085D01*
X043322Y022017D01*
Y021013D01*
X04332Y021003D01*
X043317Y020989D01*
X043311Y020974D01*
X043304Y020959D01*
X043295Y020943D01*
X043284Y020925D01*
X04327Y020907D01*
X043254Y020889D01*
X043239Y020873D01*
X043232Y020868D01*
X043172Y020789D01*
X043134Y020698D01*
X043121Y0206D01*
X043134Y020502D01*
X043172Y020411D01*
X043232Y020332D01*
X043311Y020272D01*
X043402Y020234D01*
X0435Y020221D01*
X043583Y020232D01*
X043608Y020186D01*
X043312Y019891D01*
X043268Y019868D01*
X043189Y019928D01*
X043098Y019966D01*
X043Y019979D01*
X042902Y019966D01*
X042811Y019928D01*
X042732Y019868D01*
X042672Y019789D01*
X042634Y019698D01*
X042621Y0196D01*
X042634Y019502D01*
X042672Y019411D01*
X042697Y019378D01*
X042672Y019328D01*
X042328D01*
X042303Y019378D01*
X042328Y019411D01*
X042366Y019502D01*
X042379Y0196D01*
X042366Y019698D01*
X042328Y019789D01*
X042268Y019868D01*
X042189Y019928D01*
X042098Y019966D01*
X042Y019979D01*
X041902Y019966D01*
X041811Y019928D01*
X041732Y019868D01*
X041727Y019861D01*
X04171Y019863D01*
X041676Y019877D01*
X041665Y019935D01*
X041626Y019993D01*
X041626Y019993D01*
X04144Y020179D01*
X041464Y020226D01*
X0415Y020221D01*
X041598Y020234D01*
X041689Y020272D01*
X041768Y020332D01*
X041828Y020411D01*
X041866Y020502D01*
X041879Y0206D01*
X041866Y020698D01*
X041828Y020789D01*
X041768Y020868D01*
X041689Y020928D01*
X041598Y020966D01*
X0415Y020979D01*
X041402Y020966D01*
X041311Y020928D01*
X041239Y020873D01*
X041189Y020886D01*
Y021926D01*
X042045Y022782D01*
X043948D01*
X043967Y022736D01*
D02*
G37*
G36*
X044685Y020392D02*
X04465Y020343D01*
X044635Y020318D01*
X044623Y020294D01*
X044613Y02027D01*
X044605Y020246D01*
X044599Y020222D01*
X044596Y020199D01*
X044595Y020176D01*
X044445Y020165D01*
X044444Y020189D01*
X04444Y020212D01*
X044434Y020236D01*
X044425Y020259D01*
X044414Y020281D01*
X044401Y020304D01*
X044385Y020326D01*
X044366Y020347D01*
X044345Y020369D01*
X044322Y02039D01*
X044707Y020418D01*
X044685Y020392D01*
D02*
G37*
G36*
X040076Y020007D02*
X04008Y019983D01*
X040086Y01996D01*
X040094Y019936D01*
X040104Y019913D01*
X040117Y01989D01*
X040133Y019866D01*
X04015Y019843D01*
X040171Y01982D01*
X040193Y019797D01*
X039807D01*
X039829Y01982D01*
X03985Y019843D01*
X039867Y019866D01*
X039883Y01989D01*
X039896Y019913D01*
X039906Y019936D01*
X039914Y01996D01*
X03992Y019983D01*
X039924Y020007D01*
X039925Y020031D01*
X040075D01*
X040076Y020007D01*
D02*
G37*
G36*
X039076D02*
X03908Y019983D01*
X039086Y01996D01*
X039094Y019936D01*
X039104Y019913D01*
X039117Y01989D01*
X039133Y019866D01*
X03915Y019843D01*
X039171Y01982D01*
X039193Y019797D01*
X038807D01*
X038829Y01982D01*
X03885Y019843D01*
X038867Y019866D01*
X038883Y01989D01*
X038896Y019913D01*
X038906Y019936D01*
X038914Y01996D01*
X03892Y019983D01*
X038924Y020007D01*
X038925Y020031D01*
X039075D01*
X039076Y020007D01*
D02*
G37*
G36*
X038076D02*
X03808Y019983D01*
X038086Y01996D01*
X038094Y019936D01*
X038104Y019913D01*
X038117Y01989D01*
X038133Y019866D01*
X03815Y019843D01*
X038171Y01982D01*
X038193Y019797D01*
X037807D01*
X037829Y01982D01*
X03785Y019843D01*
X037867Y019866D01*
X037883Y01989D01*
X037896Y019913D01*
X037906Y019936D01*
X037914Y01996D01*
X03792Y019983D01*
X037924Y020007D01*
X037925Y020031D01*
X038075D01*
X038076Y020007D01*
D02*
G37*
G36*
X043446Y019666D02*
X043223Y019438D01*
X043196Y019794D01*
X043212Y019779D01*
X043229Y019768D01*
X043247Y01976D01*
X043264Y019756D01*
X043282Y019756D01*
X043301Y019759D01*
X043319Y019766D01*
X043338Y019777D01*
X043357Y019791D01*
X043377Y019809D01*
X043446Y019666D01*
D02*
G37*
G36*
X050495Y01996D02*
X050479Y019942D01*
X050465Y019921D01*
X050453Y019898D01*
X050443Y019871D01*
X050434Y019842D01*
X050427Y01981D01*
X050421Y019775D01*
X050417Y019737D01*
X050415Y019653D01*
X050103Y019965D01*
X050147Y019965D01*
X050225Y019971D01*
X05026Y019977D01*
X050292Y019984D01*
X050321Y019993D01*
X050348Y020003D01*
X050371Y020015D01*
X050392Y020029D01*
X05041Y020045D01*
X050495Y01996D01*
D02*
G37*
G36*
X048875Y01943D02*
X048851Y019452D01*
X048827Y019473D01*
X048802Y019491D01*
X048776Y019507D01*
X04875Y01952D01*
X048724Y019531D01*
X048697Y019539D01*
X048669Y019545D01*
X048641Y019549D01*
X048612Y01955D01*
Y01975D01*
X048641Y019751D01*
X048669Y019755D01*
X048697Y019761D01*
X048724Y019769D01*
X04875Y01978D01*
X048776Y019793D01*
X048802Y019809D01*
X048827Y019827D01*
X048851Y019848D01*
X048875Y01987D01*
Y01943D01*
D02*
G37*
G36*
X048349Y019848D02*
X048373Y019827D01*
X048398Y019809D01*
X048424Y019793D01*
X04845Y01978D01*
X048476Y019769D01*
X048503Y019761D01*
X048531Y019755D01*
X048559Y019751D01*
X048588Y01975D01*
Y01955D01*
X048559Y019549D01*
X048531Y019545D01*
X048503Y019539D01*
X048476Y019531D01*
X04845Y01952D01*
X048424Y019507D01*
X048398Y019491D01*
X048373Y019473D01*
X048349Y019452D01*
X048325Y01943D01*
Y01987D01*
X048349Y019848D01*
D02*
G37*
G36*
X047875Y01943D02*
X047851Y019452D01*
X047827Y019473D01*
X047802Y019491D01*
X047776Y019507D01*
X04775Y01952D01*
X047724Y019531D01*
X047697Y019539D01*
X047669Y019545D01*
X047641Y019549D01*
X047612Y01955D01*
Y01975D01*
X047641Y019751D01*
X047669Y019755D01*
X047697Y019761D01*
X047724Y019769D01*
X04775Y01978D01*
X047776Y019793D01*
X047802Y019809D01*
X047827Y019827D01*
X047851Y019848D01*
X047875Y01987D01*
Y01943D01*
D02*
G37*
G36*
X047349Y019848D02*
X047373Y019827D01*
X047398Y019809D01*
X047424Y019793D01*
X04745Y01978D01*
X047476Y019769D01*
X047503Y019761D01*
X047531Y019755D01*
X047559Y019751D01*
X047588Y01975D01*
Y01955D01*
X047559Y019549D01*
X047531Y019545D01*
X047503Y019539D01*
X047476Y019531D01*
X04745Y01952D01*
X047424Y019507D01*
X047398Y019491D01*
X047373Y019473D01*
X047349Y019452D01*
X047325Y01943D01*
Y01987D01*
X047349Y019848D01*
D02*
G37*
G36*
X046875Y01943D02*
X046851Y019452D01*
X046827Y019473D01*
X046802Y019491D01*
X046776Y019507D01*
X04675Y01952D01*
X046724Y019531D01*
X046697Y019539D01*
X046669Y019545D01*
X046641Y019549D01*
X046612Y01955D01*
Y01975D01*
X046641Y019751D01*
X046669Y019755D01*
X046697Y019761D01*
X046724Y019769D01*
X04675Y01978D01*
X046776Y019793D01*
X046802Y019809D01*
X046827Y019827D01*
X046851Y019848D01*
X046875Y01987D01*
Y01943D01*
D02*
G37*
G36*
X046349Y019848D02*
X046373Y019827D01*
X046398Y019809D01*
X046424Y019793D01*
X04645Y01978D01*
X046476Y019769D01*
X046503Y019761D01*
X046531Y019755D01*
X046559Y019751D01*
X046588Y01975D01*
Y01955D01*
X046559Y019549D01*
X046531Y019545D01*
X046503Y019539D01*
X046476Y019531D01*
X04645Y01952D01*
X046424Y019507D01*
X046398Y019491D01*
X046373Y019473D01*
X046349Y019452D01*
X046325Y01943D01*
Y01987D01*
X046349Y019848D01*
D02*
G37*
G36*
X050097Y019335D02*
X050057Y019335D01*
X049985Y019328D01*
X049952Y019322D01*
X049922Y019314D01*
X049893Y019304D01*
X049867Y019293D01*
X049844Y019279D01*
X049822Y019264D01*
X049803Y019247D01*
X049697Y019353D01*
X049714Y019372D01*
X049729Y019394D01*
X049743Y019417D01*
X049754Y019443D01*
X049764Y019472D01*
X049772Y019502D01*
X049778Y019535D01*
X049782Y01957D01*
X049785Y019607D01*
X049785Y019647D01*
X050097Y019335D01*
D02*
G37*
G36*
X043997Y019324D02*
X043965Y019324D01*
X043934Y019322D01*
X043906Y019318D01*
X043878Y019312D01*
X043853Y019305D01*
X043828Y019296D01*
X043806Y019285D01*
X043785Y019273D01*
X043766Y019258D01*
X043749Y019243D01*
X043643Y019349D01*
X043658Y019366D01*
X043673Y019385D01*
X043685Y019406D01*
X043696Y019428D01*
X043705Y019453D01*
X043712Y019478D01*
X043718Y019506D01*
X043722Y019534D01*
X043724Y019565D01*
X043724Y019597D01*
X043997Y019324D01*
D02*
G37*
%LPC*%
G36*
X044137Y037697D02*
X043812D01*
Y03745D01*
X044137D01*
Y037697D01*
D02*
G37*
G36*
X052059Y036328D02*
X051901Y036313D01*
X051749Y036266D01*
X051608Y036191D01*
X051485Y03609D01*
X051384Y035967D01*
X051309Y035827D01*
X051263Y035674D01*
X051247Y035516D01*
X051263Y035357D01*
X051309Y035205D01*
X051384Y035064D01*
X051485Y034941D01*
X051608Y03484D01*
X051749Y034765D01*
X051901Y034719D01*
X052059Y034703D01*
X052218Y034719D01*
X05237Y034765D01*
X052511Y03484D01*
X052634Y034941D01*
X052735Y035064D01*
X05281Y035205D01*
X052856Y035357D01*
X052872Y035516D01*
X052856Y035674D01*
X05281Y035827D01*
X052735Y035967D01*
X052634Y03609D01*
X052511Y036191D01*
X05237Y036266D01*
X052218Y036313D01*
X052059Y036328D01*
D02*
G37*
G36*
X040914Y032906D02*
X040647D01*
Y032581D01*
X040914D01*
Y032906D01*
D02*
G37*
G36*
X044902Y032906D02*
X044635D01*
Y032581D01*
X044902D01*
Y032906D01*
D02*
G37*
G36*
X044535D02*
X044269D01*
Y032581D01*
X044535D01*
Y032906D01*
D02*
G37*
G36*
X040914Y032481D02*
X040647D01*
Y032156D01*
X040914D01*
Y032481D01*
D02*
G37*
G36*
X044902Y032481D02*
X044635D01*
Y032156D01*
X044902D01*
Y032481D01*
D02*
G37*
G36*
X044535D02*
X044269D01*
Y032156D01*
X044535D01*
Y032481D01*
D02*
G37*
G36*
X042117Y033232D02*
X041317D01*
Y032962D01*
X041316Y032958D01*
X041317Y032954D01*
Y032939D01*
X04128Y032906D01*
X041014D01*
Y032531D01*
Y032156D01*
X04128D01*
Y032317D01*
X041283Y032318D01*
X041298Y032322D01*
X041319Y032326D01*
X041334Y032327D01*
X041643D01*
X041658Y032326D01*
X041679Y032322D01*
X041694Y032318D01*
X041696Y032318D01*
Y032269D01*
X041696Y032269D01*
X041696Y032268D01*
Y032261D01*
X041695Y032257D01*
X041696Y032253D01*
Y032156D01*
X041776D01*
X041776Y032155D01*
X04178Y03214D01*
X041783Y032118D01*
X041784Y032104D01*
Y031986D01*
X041783Y031975D01*
X041778Y031957D01*
X041773Y031939D01*
X041765Y031922D01*
X041756Y031906D01*
X041744Y031889D01*
X041731Y031872D01*
X041714Y031855D01*
X041693Y031836D01*
X04169Y031832D01*
X041668Y031815D01*
X041601Y031728D01*
X041559Y031627D01*
X041552Y031569D01*
X042376D01*
X042368Y031627D01*
X042326Y031728D01*
X042283Y031784D01*
X04228Y031791D01*
X04226Y031814D01*
X042244Y031836D01*
X042231Y031857D01*
X04222Y031877D01*
X042211Y031897D01*
X042203Y031918D01*
X042197Y031937D01*
X042193Y031957D01*
X042192Y031968D01*
Y032102D01*
X042193Y032117D01*
X042197Y032138D01*
X042201Y032153D01*
X042202Y032156D01*
X042329D01*
Y032481D01*
X042013D01*
Y032581D01*
X042329D01*
Y032906D01*
X042117D01*
Y033232D01*
D02*
G37*
G36*
X042376Y031469D02*
X042014D01*
Y031107D01*
X042072Y031115D01*
X042173Y031156D01*
X04226Y031223D01*
X042326Y03131D01*
X042368Y03141D01*
X042376Y031469D01*
D02*
G37*
G36*
X041914D02*
X041552D01*
X041559Y03141D01*
X041601Y03131D01*
X041668Y031223D01*
X041754Y031156D01*
X041855Y031115D01*
X041914Y031107D01*
Y031469D01*
D02*
G37*
G36*
X041964Y030899D02*
X04137D01*
Y030149D01*
X04137D01*
X041388Y030106D01*
X040577Y029296D01*
X040542Y029243D01*
X040529Y02918D01*
Y02905D01*
X040528Y029044D01*
X040526Y029036D01*
X040523Y029028D01*
X040518Y029019D01*
X040511Y02901D01*
X040502Y028999D01*
X040491Y028989D01*
X040477Y028977D01*
X040458Y028964D01*
X040452Y028958D01*
X040409Y028924D01*
X040355Y028854D01*
X040321Y028772D01*
X04031Y028684D01*
X040321Y028597D01*
X040355Y028515D01*
X040409Y028445D01*
X040479Y028391D01*
X040561Y028357D01*
X040649Y028345D01*
X040736Y028357D01*
X040818Y028391D01*
X040888Y028445D01*
X040942Y028515D01*
X040976Y028597D01*
X040988Y028684D01*
X040976Y028772D01*
X040942Y028854D01*
X040929Y028871D01*
X040927Y028876D01*
X040911Y0289D01*
X040898Y028921D01*
X040877Y028961D01*
X040869Y028977D01*
X040863Y028993D01*
X040859Y029007D01*
X040856Y029019D01*
X040856Y029025D01*
Y029113D01*
X041782Y030039D01*
X041817Y030092D01*
X041829Y030149D01*
X041964D01*
Y030899D01*
D02*
G37*
G36*
X040493Y032906D02*
X03986D01*
Y032156D01*
X039962D01*
X039963Y032154D01*
X039967Y032138D01*
X039971Y032117D01*
X039972Y032102D01*
Y031833D01*
X039988Y031755D01*
X040032Y031689D01*
X040277Y031444D01*
X040343Y031399D01*
X040421Y031384D01*
X040421Y031384D01*
X040488D01*
X040499Y031382D01*
X040516Y031378D01*
X040531Y031373D01*
X040545Y031366D01*
X040558Y031357D01*
X040571Y031346D01*
X040584Y031333D01*
X040597Y031318D01*
X0406Y031313D01*
X040601Y03131D01*
X040609Y031299D01*
X040611Y031296D01*
X040613Y031295D01*
X040668Y031223D01*
X040676Y031216D01*
X04069Y031202D01*
X040706Y031183D01*
X04072Y031164D01*
X040731Y031145D01*
X040741Y031127D01*
X040748Y031108D01*
X040754Y031089D01*
X040758Y031071D01*
X04076Y031059D01*
Y030899D01*
X039928D01*
Y030149D01*
X041064D01*
Y030532D01*
X041108Y030577D01*
X041152Y030643D01*
X041167Y030721D01*
Y031059D01*
X041169Y031071D01*
X041173Y031089D01*
X041179Y031108D01*
X041186Y031127D01*
X041196Y031145D01*
X041207Y031164D01*
X041221Y031183D01*
X041237Y031202D01*
X041251Y031216D01*
X04126Y031223D01*
X041326Y03131D01*
X041368Y03141D01*
X041382Y031519D01*
X041368Y031627D01*
X041326Y031728D01*
X04126Y031815D01*
X041173Y031881D01*
X041072Y031923D01*
X040964Y031937D01*
X040855Y031923D01*
X040754Y031881D01*
X04074Y03187D01*
X040739Y03187D01*
X040712Y031854D01*
X040661Y031827D01*
X040638Y031817D01*
X040615Y031808D01*
X040593Y031802D01*
X040571Y031796D01*
X04055Y031793D01*
X040541Y031792D01*
X040506D01*
X04038Y031917D01*
Y032102D01*
X040381Y032117D01*
X040385Y032138D01*
X040389Y032154D01*
X04039Y032156D01*
X040493D01*
Y032906D01*
D02*
G37*
G36*
X044222Y0277D02*
X043897D01*
Y027564D01*
X043889Y027563D01*
X04388Y027562D01*
X043842D01*
X043833Y027563D01*
X043826Y027564D01*
Y0277D01*
X043501D01*
Y027384D01*
Y027067D01*
X043826D01*
Y027203D01*
X043833Y027204D01*
X043842Y027205D01*
X04388D01*
X043889Y027204D01*
X043897Y027203D01*
Y027067D01*
X044222D01*
Y027384D01*
Y0277D01*
D02*
G37*
G36*
X043401Y027334D02*
X043076D01*
Y027067D01*
X043401D01*
Y027334D01*
D02*
G37*
%LPD*%
G36*
X041779Y032956D02*
X041762Y03295D01*
X041747Y03294D01*
X041734Y032926D01*
X041723Y032908D01*
X041714Y032886D01*
X041707Y03286D01*
X041702Y03283D01*
X0417Y032802D01*
X0417Y032793D01*
X041706Y032759D01*
X041716Y032729D01*
X04173Y032703D01*
X041748Y032681D01*
X041766Y032667D01*
X041766Y032667D01*
X04178Y03268D01*
X04179Y032694D01*
X041796Y032711D01*
X041798Y03273D01*
Y032648D01*
X041826Y032639D01*
X04186Y032633D01*
X041898Y032631D01*
X041798Y032565D01*
Y032332D01*
X041796Y032351D01*
X04179Y032368D01*
X04178Y032383D01*
X041766Y032395D01*
X041748Y032406D01*
X041726Y032415D01*
X0417Y032422D01*
X04167Y032427D01*
X041636Y03243D01*
X041598Y032431D01*
X041379Y032577D01*
Y032431D01*
X041341Y03243D01*
X041306Y032427D01*
X041276Y032422D01*
X04125Y032415D01*
X041228Y032406D01*
X04121Y032395D01*
X041196Y032382D01*
X041186Y032367D01*
X04118Y03235D01*
X041178Y032331D01*
Y032731D01*
X04118Y032712D01*
X041186Y032695D01*
X041196Y03268D01*
X04121Y032667D01*
X041228Y032656D01*
X04125Y032647D01*
X041276Y03264D01*
X041306Y032635D01*
X041332Y032633D01*
X041336Y032633D01*
X04137Y032639D01*
X0414Y032649D01*
X041426Y032663D01*
X041448Y032681D01*
X041466Y032703D01*
X04148Y032729D01*
X04149Y032759D01*
X041496Y032793D01*
X041497Y032803D01*
X041491Y03286D01*
X041485Y032886D01*
X041478Y032908D01*
X041469Y032926D01*
X041459Y03294D01*
X041447Y03295D01*
X041433Y032956D01*
X041418Y032958D01*
X041798D01*
X041779Y032956D01*
D02*
G37*
G36*
X042169Y032256D02*
X042152Y03225D01*
X042137Y03224D01*
X042124Y032226D01*
X042113Y032208D01*
X042104Y032186D01*
X042097Y03216D01*
X042092Y03213D01*
X042089Y032095D01*
X042088Y032057D01*
X041888D01*
X041887Y032095D01*
X041884Y032129D01*
X04188Y032159D01*
X041874Y032185D01*
X041865Y032207D01*
X041855Y032225D01*
X041844Y032239D01*
X04183Y032249D01*
X041815Y032255D01*
X041797Y032257D01*
X042188Y032258D01*
X042169Y032256D01*
D02*
G37*
G36*
X042088Y031997D02*
X042089Y031969D01*
X042093Y031941D01*
X042098Y031913D01*
X042106Y031886D01*
X042116Y031858D01*
X042129Y031831D01*
X042143Y031805D01*
X04216Y031778D01*
X042179Y031752D01*
X042201Y031726D01*
X041761Y03176D01*
X041785Y031782D01*
X041807Y031804D01*
X041826Y031828D01*
X041842Y031852D01*
X041856Y031877D01*
X041868Y031902D01*
X041877Y031929D01*
X041883Y031956D01*
X041887Y031985D01*
X041888Y032014D01*
X042088Y031997D01*
D02*
G37*
G36*
X041756Y030249D02*
X04175Y030246D01*
X041744Y030242D01*
X04174Y030235D01*
X041736Y030226D01*
X041732Y030216D01*
X04173Y030203D01*
X041728Y030189D01*
X041727Y030173D01*
X041727Y030154D01*
X041607D01*
X041606Y030173D01*
X041604Y030203D01*
X041601Y030216D01*
X041598Y030226D01*
X041594Y030235D01*
X041589Y030242D01*
X041584Y030246D01*
X041578Y030249D01*
X041571Y03025D01*
X041762D01*
X041756Y030249D01*
D02*
G37*
G36*
X040753Y029038D02*
X040753Y02902D01*
X040756Y029001D01*
X040761Y028981D01*
X040767Y02896D01*
X040775Y028939D01*
X040785Y028916D01*
X04081Y028869D01*
X040825Y028845D01*
X040842Y028819D01*
X040518Y028881D01*
X040539Y028896D01*
X040559Y028913D01*
X040576Y028929D01*
X040591Y028947D01*
X040604Y028964D01*
X040614Y028983D01*
X040622Y029002D01*
X040628Y029021D01*
X040631Y029041D01*
X040633Y029062D01*
X040753Y029038D01*
D02*
G37*
G36*
X040357Y032256D02*
X04034Y03225D01*
X040325Y03224D01*
X040312Y032226D01*
X040301Y032208D01*
X040292Y032186D01*
X040285Y03216D01*
X04028Y03213D01*
X040277Y032096D01*
X040276Y032057D01*
X040076D01*
X040075Y032096D01*
X040072Y03213D01*
X040067Y03216D01*
X04006Y032186D01*
X040051Y032208D01*
X04004Y032226D01*
X040027Y03224D01*
X040012Y03225D01*
X039995Y032256D01*
X039976Y032258D01*
X040376D01*
X040357Y032256D01*
D02*
G37*
G36*
X040696Y031353D02*
X040678Y031379D01*
X04066Y031402D01*
X04064Y031422D01*
X040618Y031439D01*
X040595Y031454D01*
X040571Y031466D01*
X040546Y031476D01*
X040519Y031482D01*
X040491Y031486D01*
X040461Y031488D01*
X040509Y031688D01*
X040536Y031689D01*
X040564Y031692D01*
X040592Y031696D01*
X04062Y031703D01*
X040648Y031712D01*
X040676Y031722D01*
X040705Y031735D01*
X040763Y031765D01*
X040792Y031783D01*
X040696Y031353D01*
D02*
G37*
G36*
X041161Y03127D02*
X041141Y031246D01*
X041123Y031221D01*
X041107Y031195D01*
X041094Y031169D01*
X041083Y031143D01*
X041074Y031116D01*
X041068Y031088D01*
X041065Y03106D01*
X041064Y031031D01*
X040864D01*
X040862Y03106D01*
X040859Y031088D01*
X040853Y031116D01*
X040844Y031143D01*
X040833Y031169D01*
X04082Y031195D01*
X040805Y031221D01*
X040786Y031246D01*
X040766Y03127D01*
X040743Y031294D01*
X041184D01*
X041161Y03127D01*
D02*
G37*
G36*
X040572Y030626D02*
X040582Y030625D01*
X04062Y030624D01*
Y030424D01*
X040582Y030423D01*
X040572Y030422D01*
Y030324D01*
X04057Y030343D01*
X040564Y03036D01*
X040554Y030375D01*
X04054Y030388D01*
X040522Y030399D01*
X0405Y030408D01*
X040496Y030409D01*
X040491Y030408D01*
X040469Y030399D01*
X040451Y030388D01*
X040437Y030375D01*
X040427Y03036D01*
X040421Y030343D01*
X040419Y030324D01*
Y030422D01*
X040409Y030423D01*
X040371Y030424D01*
Y030624D01*
X040409Y030625D01*
X040419Y030626D01*
Y030724D01*
X040421Y030705D01*
X040427Y030688D01*
X040437Y030673D01*
X040451Y03066D01*
X040469Y030649D01*
X040491Y03064D01*
X040496Y030639D01*
X0405Y03064D01*
X040522Y030649D01*
X04054Y03066D01*
X040554Y030673D01*
X040564Y030688D01*
X04057Y030705D01*
X040572Y030724D01*
Y030626D01*
D02*
G37*
G36*
X043999Y027234D02*
X043998Y027248D01*
X043993Y027261D01*
X043985Y027272D01*
X043975Y027282D01*
X043961Y02729D01*
X043945Y027297D01*
X043925Y027302D01*
X043902Y027306D01*
X043877Y027308D01*
X043861Y027308D01*
X043846Y027308D01*
X04382Y027306D01*
X043798Y027302D01*
X043778Y027297D01*
X043762Y02729D01*
X043748Y027282D01*
X043738Y027272D01*
X04373Y027261D01*
X043726Y027248D01*
X043724Y027234D01*
Y027534D01*
X043726Y027519D01*
X04373Y027507D01*
X043738Y027495D01*
X043748Y027486D01*
X043762Y027477D01*
X043778Y027471D01*
X043798Y027465D01*
X04382Y027462D01*
X043846Y027459D01*
X043861Y027459D01*
X043877Y027459D01*
X043902Y027462D01*
X043925Y027465D01*
X043945Y027471D01*
X043961Y027477D01*
X043975Y027486D01*
X043985Y027495D01*
X043993Y027507D01*
X043998Y027519D01*
X043999Y027534D01*
Y027234D01*
D02*
G37*
%LPC*%
G36*
X053125Y029025D02*
X0528D01*
Y028758D01*
X053125D01*
Y029025D01*
D02*
G37*
G36*
Y028658D02*
X0528D01*
Y028392D01*
X053125D01*
Y028658D01*
D02*
G37*
G36*
X052659Y027719D02*
X052393D01*
Y027394D01*
X052659D01*
Y027719D01*
D02*
G37*
G36*
X053125Y025744D02*
X0528D01*
Y025477D01*
X053125D01*
Y025744D01*
D02*
G37*
G36*
X0491Y021069D02*
X048992Y021054D01*
X048891Y021012D01*
X048804Y020946D01*
X048738Y020859D01*
X048696Y020758D01*
X048681Y02065D01*
X048696Y020542D01*
X048738Y020441D01*
X048804Y020354D01*
X048891Y020288D01*
X048992Y020246D01*
X0491Y020231D01*
X049208Y020246D01*
X049309Y020288D01*
X049396Y020354D01*
X049462Y020441D01*
X049504Y020542D01*
X049519Y02065D01*
X049504Y020758D01*
X049462Y020859D01*
X049396Y020946D01*
X049309Y021012D01*
X049208Y021054D01*
X0491Y021069D01*
D02*
G37*
G36*
X0481D02*
X047992Y021054D01*
X047891Y021012D01*
X047804Y020946D01*
X047738Y020859D01*
X047696Y020758D01*
X047681Y02065D01*
X047696Y020542D01*
X047738Y020441D01*
X047804Y020354D01*
X047891Y020288D01*
X047992Y020246D01*
X0481Y020231D01*
X048208Y020246D01*
X048309Y020288D01*
X048396Y020354D01*
X048462Y020441D01*
X048504Y020542D01*
X048519Y02065D01*
X048504Y020758D01*
X048462Y020859D01*
X048396Y020946D01*
X048309Y021012D01*
X048208Y021054D01*
X0481Y021069D01*
D02*
G37*
G36*
X04915Y020062D02*
Y0197D01*
X049512D01*
X049504Y019758D01*
X049462Y019859D01*
X049396Y019946D01*
X049309Y020012D01*
X049208Y020054D01*
X04915Y020062D01*
D02*
G37*
G36*
X04605D02*
X045992Y020054D01*
X045891Y020012D01*
X045804Y019946D01*
X045738Y019859D01*
X045696Y019758D01*
X045688Y0197D01*
X04605D01*
Y020062D01*
D02*
G37*
G36*
X0425Y020979D02*
X042402Y020966D01*
X042311Y020928D01*
X042232Y020868D01*
X042172Y020789D01*
X042134Y020698D01*
X042121Y0206D01*
X042134Y020502D01*
X042172Y020411D01*
X042232Y020332D01*
X042311Y020272D01*
X042402Y020234D01*
X0425Y020221D01*
X042598Y020234D01*
X042689Y020272D01*
X042768Y020332D01*
X042828Y020411D01*
X042866Y020502D01*
X042879Y0206D01*
X042866Y020698D01*
X042828Y020789D01*
X042768Y020868D01*
X042689Y020928D01*
X042598Y020966D01*
X0425Y020979D01*
D02*
G37*
%LPD*%
G36*
X031931Y032754D02*
X031914Y032747D01*
X031899Y032737D01*
X031886Y032723D01*
X031875Y032704D01*
X031866Y032681D01*
X031859Y032655D01*
X031854Y032624D01*
X031851Y032589D01*
X03185Y03255D01*
X03165D01*
X031649Y032589D01*
X031646Y032624D01*
X031641Y032655D01*
X031634Y032681D01*
X031625Y032704D01*
X031614Y032723D01*
X031601Y032737D01*
X031586Y032747D01*
X031569Y032754D01*
X03155Y032756D01*
X03195D01*
X031931Y032754D01*
D02*
G37*
G36*
X030027Y031668D02*
X030034Y031651D01*
X030046Y031636D01*
X030064Y031624D01*
X030086Y031613D01*
X030113Y031604D01*
X030146Y031597D01*
X030183Y031592D01*
X030225Y031589D01*
X030272Y031588D01*
Y031388D01*
X030225Y031387D01*
X030146Y031379D01*
X030113Y031372D01*
X030086Y031363D01*
X030064Y031352D01*
X030046Y031339D01*
X030034Y031324D01*
X030027Y031307D01*
X030024Y031289D01*
Y031687D01*
X030027Y031668D01*
D02*
G37*
G36*
X034232Y034688D02*
X0342Y034718D01*
X034168Y034746D01*
X034137Y03477D01*
X034105Y034792D01*
X034073Y034809D01*
X034041Y034824D01*
X034009Y034835D01*
X033977Y034843D01*
X033945Y034848D01*
X033914Y03485D01*
Y03505D01*
X033945Y035052D01*
X033977Y035057D01*
X034009Y035065D01*
X034041Y035076D01*
X034073Y035091D01*
X034105Y035108D01*
X034137Y03513D01*
X034168Y035154D01*
X0342Y035182D01*
X034232Y035213D01*
Y034688D01*
D02*
G37*
G36*
X031851Y034611D02*
X031854Y034576D01*
X031859Y034546D01*
X031866Y03452D01*
X031875Y034498D01*
X031886Y03448D01*
X031899Y034466D01*
X031914Y034456D01*
X031931Y03445D01*
X03195Y034448D01*
X03155D01*
X031569Y03445D01*
X031586Y034456D01*
X031601Y034466D01*
X031614Y03448D01*
X031625Y034498D01*
X031634Y03452D01*
X031641Y034546D01*
X031646Y034576D01*
X031649Y034611D01*
X03165Y034649D01*
X03185D01*
X031851Y034611D01*
D02*
G37*
G36*
X034732Y03465D02*
X034704Y034618D01*
X03468Y034587D01*
X034659Y034555D01*
X034641Y034523D01*
X034626Y034491D01*
X034615Y034459D01*
X034606Y034427D01*
X034602Y034395D01*
X0346Y034364D01*
X0344D01*
X034398Y034395D01*
X034393Y034427D01*
X034385Y034459D01*
X034374Y034491D01*
X034359Y034523D01*
X034341Y034555D01*
X03432Y034587D01*
X034296Y034618D01*
X034268Y03465D01*
X034237Y034682D01*
X034762D01*
X034732Y03465D01*
D02*
G37*
G36*
X0346Y03257D02*
X034601Y032526D01*
X034604Y032486D01*
X034609Y032451D01*
X034616Y03242D01*
X034625Y032393D01*
X034636Y032371D01*
X034649Y032353D01*
X034664Y032339D01*
X034681Y032329D01*
X034699Y032324D01*
X0343Y032387D01*
X034319Y032386D01*
X034336Y03239D01*
X034351Y032399D01*
X034364Y032412D01*
X034375Y03243D01*
X034384Y032452D01*
X034391Y032479D01*
X034396Y032511D01*
X034399Y032547D01*
X0344Y032589D01*
X0346Y03257D01*
D02*
G37*
G36*
X033887Y02966D02*
X033885Y029679D01*
X033879Y029696D01*
X033869Y029711D01*
X033855Y029724D01*
X033837Y029735D01*
X033815Y029744D01*
X033789Y029751D01*
X033759Y029756D01*
X033724Y029759D01*
X033686Y02976D01*
Y02996D01*
X033724Y029961D01*
X033759Y029964D01*
X033789Y029969D01*
X033815Y029976D01*
X033837Y029985D01*
X033855Y029996D01*
X033869Y030009D01*
X033879Y030024D01*
X033885Y030041D01*
X033887Y03006D01*
Y02966D01*
D02*
G37*
G36*
X032749Y030041D02*
X032755Y030024D01*
X032765Y030009D01*
X032779Y029996D01*
X032798Y029985D01*
X03282Y029976D01*
X032846Y029969D01*
X032876Y029964D01*
X03291Y029961D01*
X032948Y02996D01*
Y02976D01*
X03291Y029759D01*
X032876Y029756D01*
X032846Y029751D01*
X03282Y029744D01*
X032798Y029735D01*
X032779Y029724D01*
X032765Y029711D01*
X032755Y029696D01*
X032749Y029679D01*
X032747Y02966D01*
Y03006D01*
X032749Y030041D01*
D02*
G37*
G36*
X031453Y02966D02*
X031451Y029679D01*
X031445Y029696D01*
X031435Y029711D01*
X031421Y029724D01*
X031402Y029735D01*
X03138Y029744D01*
X031354Y029751D01*
X031324Y029756D01*
X03129Y029759D01*
X031252Y02976D01*
Y02996D01*
X03129Y029961D01*
X031324Y029964D01*
X031354Y029969D01*
X03138Y029976D01*
X031402Y029985D01*
X031421Y029996D01*
X031435Y030009D01*
X031445Y030024D01*
X031451Y030041D01*
X031453Y03006D01*
Y02966D01*
D02*
G37*
G36*
X030087Y030041D02*
X030094Y030024D01*
X030104Y030009D01*
X030118Y029996D01*
X030136Y029985D01*
X030158Y029976D01*
X030184Y029969D01*
X030214Y029964D01*
X030248Y029961D01*
X030287Y02996D01*
Y02976D01*
X030248Y029759D01*
X030214Y029756D01*
X030184Y029751D01*
X030158Y029744D01*
X030136Y029735D01*
X030118Y029724D01*
X030104Y029711D01*
X030094Y029696D01*
X030087Y029679D01*
X030085Y02966D01*
Y03006D01*
X030087Y030041D01*
D02*
G37*
G36*
X031453Y027131D02*
X031451Y02715D01*
X031445Y027167D01*
X031435Y027182D01*
X031421Y027195D01*
X031402Y027206D01*
X03138Y027215D01*
X031354Y027222D01*
X031324Y027227D01*
X03129Y02723D01*
X031252Y027231D01*
Y027431D01*
X03129Y027432D01*
X031324Y027435D01*
X031354Y02744D01*
X03138Y027447D01*
X031402Y027456D01*
X031421Y027467D01*
X031435Y02748D01*
X031445Y027495D01*
X031451Y027512D01*
X031453Y027531D01*
Y027131D01*
D02*
G37*
G36*
X030479Y027629D02*
X03057Y027551D01*
X030615Y027519D01*
X030658Y027492D01*
X0307Y02747D01*
X030741Y027453D01*
X030781Y027441D01*
X030819Y027434D01*
X030857Y027431D01*
Y027231D01*
X030819Y027229D01*
X030781Y027221D01*
X030741Y027209D01*
X0307Y027192D01*
X030658Y02717D01*
X030615Y027143D01*
X03057Y027111D01*
X030525Y027075D01*
X030431Y026987D01*
Y027676D01*
X030479Y027629D01*
D02*
G37*
G36*
X0318Y025631D02*
X031798Y02565D01*
X031792Y025667D01*
X031782Y025682D01*
X031767Y025695D01*
X031749Y025706D01*
X031727Y025715D01*
X031701Y025722D01*
X031671Y025727D01*
X031637Y02573D01*
X031598Y025731D01*
Y025931D01*
X031637Y025932D01*
X031671Y025935D01*
X031701Y02594D01*
X031727Y025947D01*
X031749Y025956D01*
X031767Y025967D01*
X031782Y02598D01*
X031792Y025995D01*
X031798Y026012D01*
X0318Y026031D01*
Y025631D01*
D02*
G37*
G36*
X030499Y026129D02*
X03059Y026051D01*
X030635Y026019D01*
X030678Y025992D01*
X03072Y02597D01*
X030761Y025953D01*
X030801Y025941D01*
X030839Y025934D01*
X030877Y025931D01*
Y025731D01*
X030839Y025729D01*
X030801Y025721D01*
X030761Y025709D01*
X03072Y025692D01*
X030678Y02567D01*
X030635Y025643D01*
X03059Y025611D01*
X030545Y025575D01*
X030451Y025487D01*
Y026176D01*
X030499Y026129D01*
D02*
G37*
G36*
X038962Y024904D02*
X03896Y024892D01*
X038958Y024877D01*
X038955Y024838D01*
X038951Y024719D01*
X038951Y024681D01*
X038751D01*
X038751Y024719D01*
X03874Y024904D01*
X038737Y024912D01*
X038965D01*
X038962Y024904D01*
D02*
G37*
G36*
X032361Y0237D02*
X032344Y023694D01*
X032329Y023684D01*
X032316Y02367D01*
X032305Y023652D01*
X032296Y02363D01*
X032289Y023604D01*
X032284Y023574D01*
X032281Y023539D01*
X03228Y023501D01*
X03208D01*
X032079Y023539D01*
X032076Y023574D01*
X032071Y023604D01*
X032064Y02363D01*
X032055Y023652D01*
X032044Y02367D01*
X032031Y023684D01*
X032016Y023694D01*
X031999Y0237D01*
X03198Y023702D01*
X03238D01*
X032361Y0237D01*
D02*
G37*
G36*
X032282Y023115D02*
X03229Y023076D01*
X032302Y023036D01*
X032319Y022995D01*
X032341Y022953D01*
X032368Y02291D01*
X0324Y022866D01*
X032436Y022821D01*
X032524Y022727D01*
X031836D01*
X031882Y022774D01*
X03196Y022866D01*
X031992Y02291D01*
X032019Y022953D01*
X032041Y022995D01*
X032058Y023036D01*
X03207Y023076D01*
X032078Y023115D01*
X03208Y023153D01*
X03228D01*
X032282Y023115D01*
D02*
G37*
G36*
X031101Y022557D02*
X031107Y02254D01*
X031117Y022525D01*
X031131Y022512D01*
X031149Y022501D01*
X031171Y022492D01*
X031197Y022485D01*
X031227Y02248D01*
X031261Y022477D01*
X031299Y022476D01*
Y022276D01*
X031261Y022275D01*
X031227Y022272D01*
X031197Y022267D01*
X031171Y02226D01*
X031149Y022251D01*
X031131Y02224D01*
X031117Y022227D01*
X031107Y022212D01*
X031101Y022195D01*
X031099Y022176D01*
Y022576D01*
X031101Y022557D01*
D02*
G37*
G36*
X031829Y022031D02*
X031781Y022078D01*
X03169Y022156D01*
X031645Y022188D01*
X031602Y022214D01*
X03156Y022236D01*
X031519Y022254D01*
X031479Y022266D01*
X031441Y022273D01*
X031403Y022276D01*
Y022476D01*
X031441Y022478D01*
X031479Y022485D01*
X031519Y022498D01*
X03156Y022515D01*
X031602Y022537D01*
X031645Y022564D01*
X03169Y022595D01*
X031735Y022632D01*
X031829Y02272D01*
Y022031D01*
D02*
G37*
G36*
X034583Y0218D02*
X034562Y021776D01*
X034544Y021751D01*
X034528Y021726D01*
X034515Y0217D01*
X034504Y021673D01*
X034496Y021646D01*
X03449Y021618D01*
X034486Y02159D01*
X034485Y021562D01*
X034285D01*
X034284Y02159D01*
X03428Y021618D01*
X034274Y021646D01*
X034266Y021673D01*
X034255Y0217D01*
X034242Y021726D01*
X034226Y021751D01*
X034208Y021776D01*
X034187Y0218D01*
X034165Y021824D01*
X034606D01*
X034583Y0218D01*
D02*
G37*
G36*
X032638Y021112D02*
X032676Y021068D01*
X032714Y021028D01*
X032752Y020994D01*
X032791Y020965D01*
X032829Y020942D01*
X032868Y020924D01*
X032908Y02091D01*
X032947Y020903D01*
X032987Y0209D01*
X032955Y0207D01*
X03292Y020698D01*
X032883Y020691D01*
X032843Y02068D01*
X032801Y020665D01*
X032756Y020645D01*
X032709Y020621D01*
X032607Y02056D01*
X032552Y020523D01*
X032494Y020481D01*
X0326Y021162D01*
X032638Y021112D01*
D02*
G37*
D21*
X040224Y030524D02*
D03*
X039324D02*
D03*
X041667D02*
D03*
X040767D02*
D03*
X043782Y030514D02*
D03*
X042882D02*
D03*
X044373Y030525D02*
D03*
X045273D02*
D03*
X035297Y025328D02*
D03*
X036197D02*
D03*
X035297Y026048D02*
D03*
X036197D02*
D03*
X035297Y026769D02*
D03*
X036197D02*
D03*
X053553Y026625D02*
D03*
X052653D02*
D03*
X035297Y027489D02*
D03*
X036197D02*
D03*
D22*
X049225Y024786D02*
D03*
X04891D02*
D03*
X048595D02*
D03*
X04828D02*
D03*
X047965D02*
D03*
X04765D02*
D03*
X047335D02*
D03*
X04702D02*
D03*
X046705D02*
D03*
X04639D02*
D03*
X046075D02*
D03*
Y029496D02*
D03*
X04639D02*
D03*
X046705D02*
D03*
X04702D02*
D03*
X047335D02*
D03*
X04765D02*
D03*
X047965D02*
D03*
X04828D02*
D03*
X048595D02*
D03*
X04891D02*
D03*
X049225D02*
D03*
D23*
X045295Y025566D02*
D03*
Y025881D02*
D03*
Y026196D02*
D03*
Y026511D02*
D03*
Y026826D02*
D03*
Y027141D02*
D03*
Y027456D02*
D03*
Y027771D02*
D03*
Y028086D02*
D03*
Y028401D02*
D03*
Y028716D02*
D03*
X050005D02*
D03*
Y028401D02*
D03*
Y028086D02*
D03*
Y027771D02*
D03*
Y027456D02*
D03*
Y027141D02*
D03*
Y026826D02*
D03*
Y026511D02*
D03*
Y026196D02*
D03*
Y025881D02*
D03*
Y025566D02*
D03*
D24*
X037506Y02405D02*
D03*
X038294D02*
D03*
X053497Y027343D02*
D03*
X052709D02*
D03*
X040964Y032531D02*
D03*
X040176D02*
D03*
X044585Y032531D02*
D03*
X043798D02*
D03*
X0428Y032531D02*
D03*
X042013D02*
D03*
D25*
X037526Y024965D02*
D03*
Y025865D02*
D03*
X048981Y031969D02*
D03*
Y031069D02*
D03*
X050216Y037747D02*
D03*
Y036847D02*
D03*
X049461Y037747D02*
D03*
Y036847D02*
D03*
X048706Y037747D02*
D03*
Y036847D02*
D03*
X047196Y037747D02*
D03*
Y036847D02*
D03*
X046451D02*
D03*
Y037747D02*
D03*
X045696Y036847D02*
D03*
Y037747D02*
D03*
X044942Y036847D02*
D03*
Y037747D02*
D03*
X044187Y036847D02*
D03*
Y037747D02*
D03*
X03605Y03745D02*
D03*
Y03655D02*
D03*
X047951Y037747D02*
D03*
Y036847D02*
D03*
X037526Y02682D02*
D03*
Y02772D02*
D03*
D26*
X03515Y033725D02*
D03*
X03595D02*
D03*
D27*
X0321Y02986D02*
D03*
Y02734D02*
D03*
D28*
X03225Y02575D02*
D03*
Y02415D02*
D03*
D29*
X0308Y02375D02*
D03*
Y0224D02*
D03*
D30*
X044272Y026596D02*
D03*
Y027384D02*
D03*
X043451Y026596D02*
D03*
Y027384D02*
D03*
X05275Y025794D02*
D03*
Y025006D02*
D03*
X05275Y028708D02*
D03*
Y029496D02*
D03*
D31*
X05135Y02505D02*
D03*
Y02955D02*
D03*
D32*
X048195Y031921D02*
D03*
Y031021D02*
D03*
D33*
X0385Y03825D02*
D03*
X0395D02*
D03*
X0405D02*
D03*
X0415D02*
D03*
X0385Y03525D02*
D03*
X0395D02*
D03*
X0405D02*
D03*
X0415D02*
D03*
D34*
X039851Y027403D02*
D03*
X039351D02*
D03*
X038851D02*
D03*
X038351D02*
D03*
X039851Y025179D02*
D03*
X039351D02*
D03*
X038851D02*
D03*
X038351D02*
D03*
D35*
X041717Y033282D02*
D03*
X043017D02*
D03*
D64*
X053713Y031531D02*
Y036037D01*
Y028086D02*
Y031531D01*
X053701Y031519D02*
X053713Y031531D01*
X0513Y031519D02*
X053701D01*
X043482Y026671D02*
X043556Y026596D01*
X042817Y0332D02*
X042964Y033347D01*
X041521Y035122D02*
X041649Y03525D01*
X037521Y03308D02*
X037526Y033075D01*
X037434Y033167D02*
X037521Y03308D01*
X037526Y03135D02*
X038351Y030524D01*
X037526Y03135D02*
Y033075D01*
X038351Y030524D02*
X039324D01*
X038351Y027403D02*
Y030524D01*
X0345Y032103D02*
Y03495D01*
X034385Y031988D02*
X0345Y032103D01*
X041598Y033282D02*
X041717Y0334D01*
X041598Y032531D02*
Y033282D01*
X038393Y03825D02*
X038521Y038122D01*
X036414Y03825D02*
X038393D01*
X03605Y037886D02*
X036414Y03825D01*
X0515D02*
X053713Y036037D01*
X043279Y03825D02*
X0515D01*
X042479Y03745D02*
X043279Y03825D01*
X03867Y03745D02*
X042479D01*
X03777Y03655D02*
X03867Y03745D01*
X03605Y03655D02*
X03777D01*
X04195Y027331D02*
X042685Y026596D01*
X041021Y027331D02*
X04195D01*
X039324Y029028D02*
Y030524D01*
Y029028D02*
X041021Y027331D01*
X042685Y026596D02*
X043451D01*
X037506Y024109D02*
X037516Y024118D01*
Y024956D01*
X037526Y024965D01*
X033844Y024527D02*
X037506D01*
X03335Y025021D02*
X033844Y024527D01*
X035625Y028892D02*
X03595Y029217D01*
Y033725D01*
X033792Y028892D02*
X035625D01*
X03335Y02845D02*
X033792Y028892D01*
X03335Y025021D02*
Y02845D01*
X038521Y035122D02*
Y036117D01*
X041649Y03525D02*
X045961D01*
X044933Y036464D02*
Y036847D01*
X039521Y035122D02*
Y035821D01*
X036876Y033725D02*
X037434Y033167D01*
X044272Y026596D02*
X044276D01*
X043556D02*
X044272D01*
X045961Y03525D02*
X046451Y03574D01*
X040521Y035122D02*
Y03565D01*
X037526Y025957D02*
Y026122D01*
X039351Y027085D02*
Y027403D01*
X03855Y026285D02*
X039351Y027085D01*
X037526Y025865D02*
Y025957D01*
X037801Y026623D02*
X038403D01*
X037604Y02682D02*
X037801Y026623D01*
X038403D02*
X038844Y027064D01*
X037688Y026285D02*
X03855D01*
X037526Y026122D02*
X037688Y026285D01*
X038844Y027064D02*
Y027396D01*
X038851Y027403D01*
X037526Y02682D02*
X037604D01*
X038294Y02405D02*
X0386D01*
X038294Y02405D02*
X038294Y02405D01*
X0386D02*
X038851Y024301D01*
Y025179D01*
X0481Y01965D02*
X0491D01*
X0471D02*
X0481D01*
X0461D02*
X0471D01*
X046451Y03574D02*
Y036847D01*
X044823Y036353D02*
X044933Y036464D01*
X040053Y036353D02*
X044823D01*
X039521Y035821D02*
X040053Y036353D01*
X040521Y03565D02*
X040693Y035821D01*
X045472D01*
X045696Y036045D01*
Y036847D01*
X044933D02*
X044942D01*
X038521Y036117D02*
X039251Y036847D01*
X044187D01*
X03595Y033725D02*
X036876D01*
X03595D02*
X035975Y03375D01*
Y034925D01*
X036Y03495D01*
X048195Y031939D02*
X048887D01*
X048887Y031939D02*
X048887Y031939D01*
X05135Y02505D02*
X052706D01*
X05275Y025006D01*
X05135Y02955D02*
X051404Y029496D01*
X05275D01*
X04081Y031519D02*
X040964Y031365D01*
Y030721D02*
Y031365D01*
X040767Y030524D02*
X040964Y030721D01*
X04081Y031519D02*
X040964D01*
X040224Y030524D02*
X040767D01*
X043881Y031601D02*
X043964Y031519D01*
X043881Y031601D02*
Y032448D01*
X043798Y032531D02*
X043881Y032448D01*
X041988Y032507D02*
X042013Y032531D01*
X041988Y031543D02*
Y032507D01*
X041964Y031519D02*
X041988Y031543D01*
X042817Y032548D02*
Y0332D01*
X0428Y032531D02*
X042817Y032548D01*
X0428Y032531D02*
X042882Y032449D01*
Y031601D02*
Y032449D01*
Y031601D02*
X042964Y031519D01*
X041598Y032531D02*
X042013D01*
X040964D02*
X041598D01*
X040421Y031588D02*
X040895D01*
X040964Y031519D01*
X040176Y031833D02*
X040421Y031588D01*
X040176Y031833D02*
Y032531D01*
X049461Y037747D02*
X050216D01*
X048706D02*
X049461D01*
X047951D02*
X048706D01*
X047196D02*
X047951D01*
X046451D02*
X047196D01*
X045696D02*
X046451D01*
X044942D02*
X045696D01*
X044187D02*
X044942D01*
X0395Y03825D02*
X0405D01*
X0385D02*
X0395D01*
X0405D02*
X0415D01*
X03605Y03745D02*
Y037886D01*
X036Y03495D02*
X036025Y034975D01*
Y036525D01*
X03605Y03655D01*
X03175Y03465D02*
X03205Y03495D01*
X0345D01*
X03175Y0341D02*
Y03465D01*
X031342Y031488D02*
X03175Y031896D01*
Y0331D01*
X029588Y031488D02*
X031342D01*
X029566Y02986D02*
X0321D01*
X029438Y029988D02*
X029566Y02986D01*
X029438Y029988D02*
X029588D01*
X034257Y02986D02*
X034385Y029988D01*
X0321Y02986D02*
X034257D01*
X036197Y025328D02*
Y025931D01*
X036223Y025957D01*
X037434D01*
X037526Y025865D01*
X0375Y026794D02*
X037526Y02682D01*
X036222Y026794D02*
X0375D01*
X036197Y026769D02*
X036222Y026794D01*
X035297Y026769D02*
Y027489D01*
X036197Y026769D02*
Y027489D01*
X035297Y025328D02*
Y026048D01*
X035232Y025263D02*
X035297Y025328D01*
X03445Y025263D02*
X035232D01*
X034385Y025199D02*
X03445Y025263D01*
X035294Y026771D02*
X035297Y026769D01*
X034388Y026771D02*
X035294D01*
X034385Y026774D02*
X034388Y026771D01*
X032091Y027331D02*
X0321Y02734D01*
X03008Y027331D02*
X032091D01*
X032169Y025831D02*
X03225Y02575D01*
X0301Y025831D02*
X032169D01*
X03218Y02408D02*
X03225Y02415D01*
X03218Y022376D02*
Y02408D01*
X0308Y0224D02*
X030824Y022376D01*
X03218D01*
X032276Y0208D02*
X03405D01*
X0322Y020876D02*
X032276Y0208D01*
X03405D02*
X034385Y021135D01*
Y022049D01*
D65*
X051987Y026951D02*
X052312Y026625D01*
X04639Y029496D02*
Y034821D01*
X045961Y03525D02*
X04639Y034821D01*
X038341Y0339D02*
X042757D01*
X037521Y03308D02*
X038341Y0339D01*
X040637Y026737D02*
X041686D01*
X040496Y026596D02*
X040637Y026737D01*
X039292Y026596D02*
X040496D01*
X038368Y025672D02*
X039292Y026596D01*
X04961Y01916D02*
X0501Y01965D01*
X045459Y01916D02*
X04961D01*
X04452Y020099D02*
X045459Y01916D01*
X043549Y019149D02*
X044Y0196D01*
X041686Y019149D02*
X043549D01*
X0415Y019335D02*
X041686Y019149D01*
X0415Y019335D02*
Y019866D01*
X053525Y026653D02*
Y027315D01*
X048712Y031519D02*
X050216D01*
X050597Y037297D02*
X05075Y037144D01*
Y030068D02*
Y037144D01*
X049647Y028966D02*
X05075Y030068D01*
X048527Y031335D02*
X048712Y031519D01*
X048527Y031329D02*
Y031335D01*
X04822Y031021D02*
X048527Y031329D01*
X048195Y031021D02*
X04822D01*
X052051Y027015D02*
X05208D01*
X051987Y026951D02*
X052051Y027015D01*
X046794Y02625D02*
Y026362D01*
X046794Y02625D02*
X046794Y02625D01*
Y026362D02*
X049148Y028716D01*
X04671Y0255D02*
X047835Y026625D01*
Y02705D01*
X047196Y032104D02*
X0472Y032108D01*
Y036843D01*
X047196Y036847D02*
X0472Y036843D01*
X047196Y032104D02*
X0472Y0321D01*
X045308Y032237D02*
Y033915D01*
X044873Y031802D02*
X045308Y032237D01*
X044873Y0289D02*
Y031802D01*
X044462Y029071D02*
Y02924D01*
Y028401D02*
Y029071D01*
X044864Y028892D02*
X044873Y0289D01*
X044864Y028607D02*
Y028892D01*
Y028607D02*
X045019Y028452D01*
X045069D01*
X045121Y028401D01*
X045295D01*
X049148Y028716D02*
X050005D01*
X048784Y028966D02*
X049647D01*
X046014Y026196D02*
X048784Y028966D01*
X045295Y026196D02*
X046014D01*
X046075Y029496D02*
Y033958D01*
X045485Y034548D02*
X046075Y033958D01*
X045221Y03445D02*
X045785Y033886D01*
Y029775D02*
Y033886D01*
X045295Y029285D02*
X045785Y029775D01*
X045295Y028716D02*
Y029285D01*
X045022Y0342D02*
X045308Y033915D01*
X047666Y034412D02*
X047951Y034697D01*
X039848Y026185D02*
X040895D01*
X039351Y025688D02*
X039848Y026185D01*
X039351Y025179D02*
Y025688D01*
X048706Y037116D02*
X048887Y037297D01*
X048706Y036847D02*
Y037116D01*
X048887Y037297D02*
X050597D01*
X047835Y02705D02*
X049186Y028401D01*
X050005D01*
X040841Y02555D02*
X040928D01*
X040631Y02534D02*
X040841Y02555D01*
X039891Y02534D02*
X040631D01*
X039851Y0253D02*
X039891Y02534D01*
X039851Y025179D02*
Y0253D01*
X04828Y027141D02*
X049225Y028086D01*
X04828Y02677D02*
Y027141D01*
X048246Y026736D02*
X04828Y02677D01*
X04217Y025566D02*
X045295D01*
X0385Y021896D02*
X04217Y025566D01*
X042131Y025881D02*
X045295D01*
X049087Y026826D02*
X050005D01*
X047335Y025074D02*
X049087Y026826D01*
X047335Y024786D02*
Y025074D01*
X044462Y028401D02*
X044777Y028086D01*
X045295D01*
X044276Y026596D02*
X044606D01*
X04483Y026821D02*
X04529D01*
X044606Y026596D02*
X04483Y026821D01*
X043588Y027305D02*
X043667Y027384D01*
X044272D02*
X044606D01*
X043667D02*
X044272D01*
X044849Y027141D02*
X045295D01*
X044606Y027384D02*
X044849Y027141D01*
X049225Y028086D02*
X050005D01*
X053553Y024103D02*
Y026625D01*
X05315Y0237D02*
X053553Y024103D01*
X047951Y034697D02*
Y036847D01*
X044361Y030514D02*
X044373Y030525D01*
X043782Y030514D02*
X044361D01*
X043784Y030524D02*
Y03121D01*
X043964Y031389D01*
X049461Y03375D02*
Y036847D01*
X049211Y0335D02*
X049461Y03375D01*
X0487Y0335D02*
X049211D01*
X0481Y032679D02*
Y032688D01*
X048032Y030288D02*
X04805D01*
X048369Y032957D02*
X049461D01*
X0481Y032688D02*
X048369Y032957D01*
X049461D02*
X050216Y033712D01*
Y036847D01*
X04805Y030288D02*
Y030387D01*
X047965Y030221D02*
X048032Y030288D01*
X047965Y029496D02*
Y030221D01*
X048706Y030325D02*
Y030387D01*
X048683D02*
X048706D01*
X048285Y029904D02*
X048706Y030325D01*
X048285Y029501D02*
Y029904D01*
X04828Y029496D02*
X048285Y029501D01*
X04805Y030387D02*
Y030394D01*
Y030387D02*
X0481Y030337D01*
X052312Y026625D02*
X052653D01*
X042757Y0339D02*
X042964Y033694D01*
X038521Y034548D02*
X038869Y0342D01*
X038521Y034548D02*
Y035122D01*
X038869Y0342D02*
X045022D01*
X039936Y03445D02*
X045221D01*
X039521Y034865D02*
X039936Y03445D01*
X039521Y034865D02*
Y035122D01*
X045275Y03475D02*
X045477Y034548D01*
X040724Y03475D02*
X045275D01*
X040521Y034953D02*
X040724Y03475D01*
X040521Y034953D02*
Y035122D01*
X045477Y034548D02*
X045485D01*
X042964Y033347D02*
Y033694D01*
Y033335D02*
Y033347D01*
Y033335D02*
X043017Y033282D01*
X043964Y031389D02*
Y031519D01*
X038368Y025195D02*
Y025672D01*
X038351Y025179D02*
X038368Y025195D01*
X0495Y02371D02*
Y025655D01*
X047339Y021549D02*
X0495Y02371D01*
Y025655D02*
X049721Y025876D01*
X05D01*
X050005Y025881D01*
X0506Y02305D02*
Y02601D01*
X050419Y026191D02*
X0506Y02601D01*
X05001Y026191D02*
X050419D01*
X050005Y026196D02*
X05001Y026191D01*
X050261Y026826D02*
X050385Y026951D01*
X050005Y026826D02*
X050261D01*
X050385Y026951D02*
X05085D01*
X050005Y027456D02*
X051124D01*
X05135Y027229D01*
Y02505D02*
Y027229D01*
X05085Y0239D02*
Y026185D01*
X050524Y026511D02*
X05085Y026185D01*
X050005Y026511D02*
X050524D01*
X05085Y0239D02*
X05105Y0237D01*
X0471Y02065D02*
X0495Y02305D01*
X0501Y02065D02*
Y025554D01*
X050087Y025566D02*
X0501Y025554D01*
X050005Y025566D02*
X050087D01*
X049225Y023788D02*
Y024786D01*
X047236Y021799D02*
X049225Y023788D01*
X04891Y023827D02*
Y024786D01*
X047132Y022049D02*
X04891Y023827D01*
X048595Y023865D02*
Y024786D01*
X04719Y02246D02*
X048595Y023865D01*
X04828Y023904D02*
Y024786D01*
X047086Y02271D02*
X04828Y023904D01*
X047965Y023943D02*
Y024786D01*
X046983Y02296D02*
X047965Y023943D01*
X045677Y021799D02*
X047236D01*
X0445Y022049D02*
X047132D01*
X04433Y02246D02*
X04719D01*
X046999Y021549D02*
X047339D01*
X0461Y02065D02*
X046999Y021549D01*
X045178Y0213D02*
X045677Y021799D01*
X044194Y02271D02*
X047086D01*
X041971Y02296D02*
X046983D01*
X044Y022131D02*
X04433Y02246D01*
X044Y020326D02*
Y022131D01*
X0435Y022017D02*
X044194Y02271D01*
X041011Y022D02*
X041971Y02296D01*
X041421Y02321D02*
X046314D01*
X0405Y02229D02*
X041421Y02321D01*
X046314D02*
X04702Y023917D01*
X041241Y02346D02*
X04621D01*
X04Y022219D02*
X041241Y02346D01*
X04621D02*
X046705Y023955D01*
X041021Y02371D02*
X045936D01*
X0395Y022189D02*
X041021Y02371D01*
X045936D02*
X04639Y024165D01*
X043274Y0196D02*
X044Y020326D01*
X043Y0196D02*
X043274D01*
X0435Y0206D02*
Y022017D01*
X04452Y020099D02*
Y02058D01*
X0445Y0206D02*
X04452Y02058D01*
X041011Y020356D02*
X0415Y019866D01*
X041011Y020356D02*
Y022D01*
X04702Y023917D02*
Y024786D01*
X0405Y0206D02*
Y02229D01*
X04Y0196D02*
Y022219D01*
X046705Y023955D02*
Y024786D01*
X0395Y0206D02*
Y022189D01*
X041743Y024786D02*
X046075D01*
X039Y022043D02*
X041743Y024786D01*
X039Y0196D02*
Y022043D01*
X0385Y0206D02*
Y021896D01*
X038Y0196D02*
Y02175D01*
X042131Y025881D01*
X04639Y024165D02*
Y024786D01*
X04529Y026821D02*
X045295Y026826D01*
X05105Y0237D02*
X05315D01*
X052709Y028668D02*
X05275Y028708D01*
X053525Y026653D02*
X053553Y026625D01*
X053497Y027343D02*
X053525Y027315D01*
X05135Y027997D02*
Y02955D01*
X051124Y027771D02*
X05135Y027997D01*
X050005Y027771D02*
X051124D01*
D66*
X053713Y028086D02*
X05415Y027649D01*
Y024165D02*
Y027649D01*
X052401Y028086D02*
X053713D01*
X05208Y027765D02*
X052401Y028086D01*
X053103Y026147D02*
Y027343D01*
X052709D02*
X053103D01*
X040693Y028684D02*
Y02918D01*
X046696Y028509D02*
X046701Y028513D01*
Y029491D01*
X046705Y029496D01*
X040693Y02918D02*
X041667Y030154D01*
Y030524D01*
X051653Y026422D02*
X052282Y025794D01*
X05275D01*
X051653Y026422D02*
Y028174D01*
X052187Y028708D01*
X05275D01*
X05208Y027015D02*
Y027765D01*
X052965Y026009D02*
X053103Y026147D01*
X052965Y02595D02*
Y026009D01*
X052809Y025794D02*
X052965Y02595D01*
X05275Y025794D02*
X052809D01*
X053235Y02325D02*
X05415Y024165D01*
X051653Y02325D02*
X053235D01*
X051114Y02271D02*
X051653Y02325D01*
X051114Y020664D02*
Y02271D01*
X0501Y01965D02*
X051114Y020664D01*
X04765Y028509D02*
Y028592D01*
Y028489D02*
Y028509D01*
X046932Y027771D02*
X04765Y028489D01*
X045295Y027771D02*
X046932D01*
X045937Y026896D02*
Y027365D01*
X045866Y026826D02*
X045937Y026896D01*
X04765Y034396D02*
X047666Y034412D01*
X04765Y03355D02*
Y034396D01*
X04529Y030543D02*
Y031543D01*
X045273Y030525D02*
X04529Y030543D01*
X043933Y029767D02*
X044Y0297D01*
X04379Y029767D02*
X043933D01*
X043035Y030523D02*
X04379Y029767D01*
X042882Y030436D02*
X042969Y030523D01*
X043035D01*
X042882Y030436D02*
Y030514D01*
X046162Y028112D02*
X04686D01*
X045987Y028288D02*
X046162Y028112D01*
X045987Y028288D02*
Y028509D01*
X04702Y028912D02*
X047093Y02884D01*
Y028344D02*
Y02884D01*
X04686Y028112D02*
X047093Y028344D01*
X04702Y028912D02*
Y029496D01*
X045295Y026826D02*
X045866D01*
X045846Y027456D02*
X045937Y027365D01*
X045295Y027456D02*
X045846D01*
X048887Y031039D02*
X049Y030926D01*
X049225Y029496D02*
Y030525D01*
X049Y03075D02*
X049225Y030525D01*
X049Y03075D02*
Y030926D01*
X047855Y031021D02*
X048195D01*
X04765Y030816D02*
X047855Y031021D01*
X04765Y029496D02*
Y030816D01*
D67*
X034385Y029988D02*
D03*
D68*
Y030988D02*
D03*
Y031988D02*
D03*
D69*
X03175Y0341D02*
D03*
X029588Y029988D02*
D03*
D70*
X03175Y0331D02*
D03*
X029588Y031488D02*
D03*
D71*
X03008Y027331D02*
D03*
X0301Y025831D02*
D03*
X03218Y022376D02*
D03*
X0322Y020876D02*
D03*
D72*
X036Y0196D02*
D03*
X037D02*
D03*
X038D02*
D03*
X039D02*
D03*
X04D02*
D03*
X041D02*
D03*
X042D02*
D03*
X043D02*
D03*
X044D02*
D03*
X0445Y0206D02*
D03*
X0435D02*
D03*
X0425D02*
D03*
X0415D02*
D03*
X0405D02*
D03*
X0395D02*
D03*
X0385D02*
D03*
X0375D02*
D03*
X0365D02*
D03*
D73*
X036Y03495D02*
D03*
X0345D02*
D03*
D74*
X0501Y02065D02*
D03*
D75*
X0491D02*
D03*
X0481D02*
D03*
X0471D02*
D03*
X0461D02*
D03*
Y01965D02*
D03*
X0471D02*
D03*
X0481D02*
D03*
X0491D02*
D03*
X0501D02*
D03*
X040964Y031519D02*
D03*
X041964D02*
D03*
X042964D02*
D03*
X043964D02*
D03*
X034385Y022049D02*
D03*
Y023624D02*
D03*
Y025199D02*
D03*
Y026774D02*
D03*
D76*
X052493Y032906D02*
D03*
X051686D02*
D03*
X052493Y033724D02*
D03*
X051686D02*
D03*
D77*
X048683Y035246D02*
D03*
X047473Y0241D02*
D03*
X05222Y024263D02*
D03*
X049255Y02732D02*
D03*
X0513Y031519D02*
D03*
X050216D02*
D03*
X040649Y028684D02*
D03*
X05208Y027015D02*
D03*
X04671Y02625D02*
D03*
X0472Y0321D02*
D03*
X04529Y031543D02*
D03*
X044462Y029071D02*
D03*
X044Y0297D02*
D03*
X04765Y028509D02*
D03*
X045987D02*
D03*
X046696D02*
D03*
X04765Y03355D02*
D03*
X040895Y026185D02*
D03*
X04671Y0255D02*
D03*
X041686Y026737D02*
D03*
X048246Y026736D02*
D03*
X040928Y02555D02*
D03*
X0481Y032679D02*
D03*
X0487Y0335D02*
D03*
X048706Y030387D02*
D03*
X04805Y030394D02*
D03*
X05085Y026951D02*
D03*
X0506Y02305D02*
D03*
X0495D02*
D03*
X0445Y022049D02*
D03*
X045178Y0213D02*
D03*
D78*
X02925Y0341D02*
D03*
Y02345D02*
D03*
X05208Y022104D02*
D03*
X052059Y035516D02*
D03*
D79*
X04265Y0288D02*
D03*
M02*
