M48
;Layer_Color=9474304
;FILE_FORMAT=2:4
INCH,LZ
;TYPE=PLATED
T1F00S00C0.0236
T2F00S00C0.0276
T3F00S00C0.0280
T4F00S00C0.0315
T5F00S00C0.0320
T6F00S00C0.0390
T7F00S00C0.0394
T8F00S00C0.0433
T9F00S00C0.1417
T10F00S00C0.2362
%
T01
X047473Y0241
X0495Y02305
X0506
X05222Y024263
X05208Y027015
X05085Y026951
X049255Y02732
X048246Y026736
X04765Y028509
X04805Y030394
X048706Y030387
X046696Y028509
X045987
X044462Y029071
X044Y0297
X040649Y028684
X040895Y026185
X040928Y02555
X041686Y026737
X04671Y02625
Y0255
X0445Y022049
X045178Y0213
X04529Y031543
X0472Y0321
X0481Y032679
X04765Y03355
X0487Y0335
X048683Y035246
X050216Y031519
X0513
T02
X036Y0196
X037
X038
X039
X04
X041
X042
X043
X044
X0445Y0206
X0435
X0425
X0415
X0405
X0395
X0385
X0375
X0365
T03
X051686Y032906
X052493
Y033724
X051686
T04
X034385Y022049
Y023624
Y025199
Y026774
X0345Y03495
X036
X040964Y031519
X041964
X042964
X043964
T05
X029588Y029988
Y031488
X03175Y0331
Y0341
T06
X034385Y029988
Y030988
Y031988
T07
X0322Y020876
X03218Y022376
X0301Y025831
X03008Y027331
T08
X0471Y01965
Y02065
X0481
X0491
X0501
Y01965
X0491
X0481
X0461
Y02065
T09
X05208Y022104
X02925Y02345
Y0341
X052059Y035516
T10
X04265Y0288
M30
