G04*
G04 #@! TF.GenerationSoftware,Altium Limited,Altium Designer,18.1.6 (161)*
G04*
G04 Layer_Color=8388736*
%FSTAX24Y24*%
%MOIN*%
G70*
G01*
G75*
%ADD36R,0.0474X0.0630*%
%ADD37O,0.0257X0.0592*%
%ADD38O,0.0592X0.0257*%
%ADD39R,0.0513X0.0630*%
%ADD40R,0.0630X0.0474*%
%ADD41R,0.0480X0.0580*%
%ADD42R,0.1379X0.0789*%
%ADD43R,0.0986X0.0980*%
%ADD44R,0.0680X0.0680*%
%ADD45R,0.0630X0.0513*%
%ADD46R,0.0552X0.1655*%
%ADD47R,0.0630X0.0580*%
%ADD48R,0.0552X0.0552*%
%ADD49O,0.0316X0.0789*%
%ADD50R,0.0680X0.0730*%
%ADD51R,0.1080X0.0880*%
%ADD52O,0.1080X0.0880*%
%ADD53R,0.1080X0.0780*%
%ADD54O,0.1080X0.0780*%
%ADD55C,0.1064*%
%ADD56C,0.0631*%
%ADD57C,0.0830*%
%ADD58R,0.0710X0.0710*%
%ADD59C,0.0710*%
%ADD60C,0.0580*%
%ADD61C,0.0552*%
%ADD62C,0.1497*%
%ADD63C,0.2442*%
D36*
X040224Y030524D02*
D03*
X039324D02*
D03*
X041667D02*
D03*
X040767D02*
D03*
X043782Y030514D02*
D03*
X042882D02*
D03*
X044373Y030525D02*
D03*
X045273D02*
D03*
X035297Y025328D02*
D03*
X036197D02*
D03*
X035297Y026048D02*
D03*
X036197D02*
D03*
X035297Y026769D02*
D03*
X036197D02*
D03*
X053553Y026625D02*
D03*
X052653D02*
D03*
X035297Y027489D02*
D03*
X036197D02*
D03*
D37*
X049225Y024786D02*
D03*
X04891D02*
D03*
X048595D02*
D03*
X04828D02*
D03*
X047965D02*
D03*
X04765D02*
D03*
X047335D02*
D03*
X04702D02*
D03*
X046705D02*
D03*
X04639D02*
D03*
X046075D02*
D03*
Y029496D02*
D03*
X04639D02*
D03*
X046705D02*
D03*
X04702D02*
D03*
X047335D02*
D03*
X04765D02*
D03*
X047965D02*
D03*
X04828D02*
D03*
X048595D02*
D03*
X04891D02*
D03*
X049225D02*
D03*
D38*
X045295Y025566D02*
D03*
Y025881D02*
D03*
Y026196D02*
D03*
Y026511D02*
D03*
Y026826D02*
D03*
Y027141D02*
D03*
Y027456D02*
D03*
Y027771D02*
D03*
Y028086D02*
D03*
Y028401D02*
D03*
Y028716D02*
D03*
X050005D02*
D03*
Y028401D02*
D03*
Y028086D02*
D03*
Y027771D02*
D03*
Y027456D02*
D03*
Y027141D02*
D03*
Y026826D02*
D03*
Y026511D02*
D03*
Y026196D02*
D03*
Y025881D02*
D03*
Y025566D02*
D03*
D39*
X037506Y02405D02*
D03*
X038294D02*
D03*
X053497Y027343D02*
D03*
X052709D02*
D03*
X040964Y032531D02*
D03*
X040176D02*
D03*
X044585Y032531D02*
D03*
X043798D02*
D03*
X0428Y032531D02*
D03*
X042013D02*
D03*
D40*
X037526Y024965D02*
D03*
Y025865D02*
D03*
X048981Y031969D02*
D03*
Y031069D02*
D03*
X050216Y037747D02*
D03*
Y036847D02*
D03*
X049461Y037747D02*
D03*
Y036847D02*
D03*
X048706Y037747D02*
D03*
Y036847D02*
D03*
X047196Y037747D02*
D03*
Y036847D02*
D03*
X046451D02*
D03*
Y037747D02*
D03*
X045696Y036847D02*
D03*
Y037747D02*
D03*
X044942Y036847D02*
D03*
Y037747D02*
D03*
X044187Y036847D02*
D03*
Y037747D02*
D03*
X03605Y03745D02*
D03*
Y03655D02*
D03*
X047951Y037747D02*
D03*
Y036847D02*
D03*
X037526Y02682D02*
D03*
Y02772D02*
D03*
D41*
X03515Y033725D02*
D03*
X03595D02*
D03*
D42*
X0321Y02986D02*
D03*
Y02734D02*
D03*
D43*
X03225Y02575D02*
D03*
Y02415D02*
D03*
D44*
X0308Y02375D02*
D03*
Y0224D02*
D03*
D45*
X044272Y026596D02*
D03*
Y027384D02*
D03*
X043451Y026596D02*
D03*
Y027384D02*
D03*
X05275Y025794D02*
D03*
Y025006D02*
D03*
X05275Y028708D02*
D03*
Y029496D02*
D03*
D46*
X05135Y02505D02*
D03*
Y02955D02*
D03*
D47*
X048195Y031921D02*
D03*
Y031021D02*
D03*
D48*
X0385Y03825D02*
D03*
X0395D02*
D03*
X0405D02*
D03*
X0415D02*
D03*
X0385Y03525D02*
D03*
X0395D02*
D03*
X0405D02*
D03*
X0415D02*
D03*
D49*
X039851Y027403D02*
D03*
X039351D02*
D03*
X038851D02*
D03*
X038351D02*
D03*
X039851Y025179D02*
D03*
X039351D02*
D03*
X038851D02*
D03*
X038351D02*
D03*
D50*
X041717Y033282D02*
D03*
X043017D02*
D03*
D51*
X034385Y029988D02*
D03*
D52*
Y030988D02*
D03*
Y031988D02*
D03*
D53*
X03175Y0341D02*
D03*
X029588Y029988D02*
D03*
D54*
X03175Y0331D02*
D03*
X029588Y031488D02*
D03*
D55*
X03008Y027331D02*
D03*
X0301Y025831D02*
D03*
X03218Y022376D02*
D03*
X0322Y020876D02*
D03*
D56*
X036Y0196D02*
D03*
X037D02*
D03*
X038D02*
D03*
X039D02*
D03*
X04D02*
D03*
X041D02*
D03*
X042D02*
D03*
X043D02*
D03*
X044D02*
D03*
X0445Y0206D02*
D03*
X0435D02*
D03*
X0425D02*
D03*
X0415D02*
D03*
X0405D02*
D03*
X0395D02*
D03*
X0385D02*
D03*
X0375D02*
D03*
X0365D02*
D03*
D57*
X036Y03495D02*
D03*
X0345D02*
D03*
D58*
X0501Y02065D02*
D03*
D59*
X0491D02*
D03*
X0481D02*
D03*
X0471D02*
D03*
X0461D02*
D03*
Y01965D02*
D03*
X0471D02*
D03*
X0481D02*
D03*
X0491D02*
D03*
X0501D02*
D03*
X040964Y031519D02*
D03*
X041964D02*
D03*
X042964D02*
D03*
X043964D02*
D03*
X034385Y022049D02*
D03*
Y023624D02*
D03*
Y025199D02*
D03*
Y026774D02*
D03*
D60*
X052493Y032906D02*
D03*
X051686D02*
D03*
X052493Y033724D02*
D03*
X051686D02*
D03*
D61*
X048683Y035246D02*
D03*
X047473Y0241D02*
D03*
X05222Y024263D02*
D03*
X049255Y02732D02*
D03*
X0513Y031519D02*
D03*
X050216D02*
D03*
X040649Y028684D02*
D03*
X05208Y027015D02*
D03*
X04671Y02625D02*
D03*
X0472Y0321D02*
D03*
X04529Y031543D02*
D03*
X044462Y029071D02*
D03*
X044Y0297D02*
D03*
X04765Y028509D02*
D03*
X045987D02*
D03*
X046696D02*
D03*
X04765Y03355D02*
D03*
X040895Y026185D02*
D03*
X04671Y0255D02*
D03*
X041686Y026737D02*
D03*
X048246Y026736D02*
D03*
X040928Y02555D02*
D03*
X0481Y032679D02*
D03*
X0487Y0335D02*
D03*
X048706Y030387D02*
D03*
X04805Y030394D02*
D03*
X05085Y026951D02*
D03*
X0506Y02305D02*
D03*
X0495D02*
D03*
X0445Y022049D02*
D03*
X045178Y0213D02*
D03*
D62*
X02925Y0341D02*
D03*
Y02345D02*
D03*
X05208Y022104D02*
D03*
X052059Y035516D02*
D03*
D63*
X04265Y0288D02*
D03*
M02*
