G04*
G04 #@! TF.GenerationSoftware,Altium Limited,Altium Designer,18.1.6 (161)*
G04*
G04 Layer_Color=128*
%FSTAX24Y24*%
%MOIN*%
G70*
G01*
G75*
%ADD84C,0.0020*%
D84*
X03419Y029988D02*
X03458D01*
X034385Y029793D02*
Y030183D01*
X03419Y030988D02*
X03458D01*
X034385Y030793D02*
Y031183D01*
X03419Y031988D02*
X03458D01*
X034385Y031793D02*
Y032183D01*
X03159Y0341D02*
X03191D01*
X03175Y03394D02*
Y03426D01*
X03159Y0331D02*
X03191D01*
X03175Y03294D02*
Y03326D01*
X029428Y031488D02*
X029748D01*
X029588Y031328D02*
Y031648D01*
X029428Y029988D02*
X029748D01*
X029588Y029828D02*
Y030148D01*
X029883Y027331D02*
X030277D01*
X03008Y027134D02*
Y027528D01*
X029903Y025831D02*
X030297D01*
X0301Y025634D02*
Y026028D01*
X031983Y022376D02*
X032377D01*
X03218Y022179D02*
Y022572D01*
X032003Y020876D02*
X032397D01*
X0322Y020679D02*
Y021072D01*
X035862Y0196D02*
X036138D01*
X036Y019462D02*
Y019738D01*
X036862Y0196D02*
X037138D01*
X037Y019462D02*
Y019738D01*
X037862Y0196D02*
X038138D01*
X038Y019462D02*
Y019738D01*
X038862Y0196D02*
X039138D01*
X039Y019462D02*
Y019738D01*
X039862Y0196D02*
X040138D01*
X04Y019462D02*
Y019738D01*
X040862Y0196D02*
X041138D01*
X041Y019462D02*
Y019738D01*
X041862Y0196D02*
X042138D01*
X042Y019462D02*
Y019738D01*
X042862Y0196D02*
X043138D01*
X043Y019462D02*
Y019738D01*
X043862Y0196D02*
X044138D01*
X044Y019462D02*
Y019738D01*
X044362Y0206D02*
X044638D01*
X0445Y020462D02*
Y020738D01*
X043362Y0206D02*
X043638D01*
X0435Y020462D02*
Y020738D01*
X042362Y0206D02*
X042638D01*
X0425Y020462D02*
Y020738D01*
X041362Y0206D02*
X041638D01*
X0415Y020462D02*
Y020738D01*
X040362Y0206D02*
X040638D01*
X0405Y020462D02*
Y020738D01*
X039362Y0206D02*
X039638D01*
X0395Y020462D02*
Y020738D01*
X038362Y0206D02*
X038638D01*
X0385Y020462D02*
Y020738D01*
X037362Y0206D02*
X037638D01*
X0375Y020462D02*
Y020738D01*
X036362Y0206D02*
X036638D01*
X0365Y020462D02*
Y020738D01*
X035843Y03495D02*
X036157D01*
X036Y034793D02*
Y035107D01*
X034343Y03495D02*
X034657D01*
X0345Y034793D02*
Y035107D01*
X049883Y02065D02*
X050317D01*
X0501Y020433D02*
Y020867D01*
X048883Y02065D02*
X049317D01*
X0491Y020433D02*
Y020867D01*
X047883Y02065D02*
X048317D01*
X0481Y020433D02*
Y020867D01*
X046883Y02065D02*
X047317D01*
X0471Y020433D02*
Y020867D01*
X045883Y02065D02*
X046317D01*
X0461Y020433D02*
Y020867D01*
X045883Y01965D02*
X046317D01*
X0461Y019433D02*
Y019867D01*
X046883Y01965D02*
X047317D01*
X0471Y019433D02*
Y019867D01*
X047883Y01965D02*
X048317D01*
X0481Y019433D02*
Y019867D01*
X048883Y01965D02*
X049317D01*
X0491Y019433D02*
Y019867D01*
X049883Y01965D02*
X050317D01*
X0501Y019433D02*
Y019867D01*
X040806Y031519D02*
X041121D01*
X040964Y031361D02*
Y031676D01*
X041806Y031519D02*
X042121D01*
X041964Y031361D02*
Y031676D01*
X042806Y031519D02*
X043121D01*
X042964Y031361D02*
Y031676D01*
X043806Y031519D02*
X044121D01*
X043964Y031361D02*
Y031676D01*
X034228Y022049D02*
X034543D01*
X034385Y021892D02*
Y022207D01*
X034228Y023624D02*
X034543D01*
X034385Y023467D02*
Y023781D01*
X034228Y025199D02*
X034543D01*
X034385Y025041D02*
Y025356D01*
X034228Y026774D02*
X034543D01*
X034385Y026616D02*
Y026931D01*
X052353Y032906D02*
X052633D01*
X052493Y032766D02*
Y033046D01*
X051546Y032906D02*
X051826D01*
X051686Y032766D02*
Y033046D01*
X052353Y033724D02*
X052633D01*
X052493Y033584D02*
Y033864D01*
X051546Y033724D02*
X051826D01*
X051686Y033584D02*
Y033864D01*
X048565Y035246D02*
X048802D01*
X048683Y035128D02*
Y035364D01*
X047355Y0241D02*
X047591D01*
X047473Y023982D02*
Y024218D01*
X052102Y024263D02*
X052338D01*
X05222Y024144D02*
Y024381D01*
X049137Y02732D02*
X049373D01*
X049255Y027202D02*
Y027438D01*
X051182Y031519D02*
X051418D01*
X0513Y031401D02*
Y031637D01*
X050098Y031519D02*
X050334D01*
X050216Y031401D02*
Y031637D01*
X040531Y028684D02*
X040767D01*
X040649Y028566D02*
Y028802D01*
X051962Y027015D02*
X052198D01*
X05208Y026897D02*
Y027133D01*
X046592Y02625D02*
X046828D01*
X04671Y026132D02*
Y026368D01*
X047082Y0321D02*
X047318D01*
X0472Y031982D02*
Y032218D01*
X045172Y031543D02*
X045408D01*
X04529Y031425D02*
Y031661D01*
X044344Y029071D02*
X04458D01*
X044462Y028952D02*
Y029189D01*
X043882Y0297D02*
X044118D01*
X044Y029582D02*
Y029818D01*
X047532Y028509D02*
X047768D01*
X04765Y02839D02*
Y028627D01*
X045869Y028509D02*
X046105D01*
X045987Y02839D02*
Y028627D01*
X046578Y028509D02*
X046814D01*
X046696Y02839D02*
Y028627D01*
X047532Y03355D02*
X047768D01*
X04765Y033432D02*
Y033668D01*
X040777Y026185D02*
X041013D01*
X040895Y026067D02*
Y026303D01*
X046592Y0255D02*
X046828D01*
X04671Y025382D02*
Y025618D01*
X041568Y026737D02*
X041804D01*
X041686Y026619D02*
Y026855D01*
X048128Y026736D02*
X048365D01*
X048246Y026618D02*
Y026854D01*
X04081Y02555D02*
X041046D01*
X040928Y025432D02*
Y025668D01*
X047982Y032679D02*
X048218D01*
X0481Y032561D02*
Y032798D01*
X048582Y0335D02*
X048818D01*
X0487Y033382D02*
Y033618D01*
X048588Y030387D02*
X048824D01*
X048706Y030269D02*
Y030506D01*
X047932Y030394D02*
X048168D01*
X04805Y030276D02*
Y030512D01*
X050732Y026951D02*
X050968D01*
X05085Y026833D02*
Y027069D01*
X050482Y02305D02*
X050718D01*
X0506Y022932D02*
Y023168D01*
X049382Y02305D02*
X049618D01*
X0495Y022932D02*
Y023168D01*
X044382Y022049D02*
X044618D01*
X0445Y021931D02*
Y022167D01*
X04506Y0213D02*
X045296D01*
X045178Y021182D02*
Y021418D01*
X028541Y0341D02*
X029959D01*
X02925Y033391D02*
Y034809D01*
X028541Y02345D02*
X029959D01*
X02925Y022741D02*
Y024159D01*
X051371Y022104D02*
X052789D01*
X05208Y021396D02*
Y022813D01*
X051351Y035516D02*
X052768D01*
X052059Y034807D02*
Y036224D01*
X041469Y0288D02*
X043831D01*
X04265Y027619D02*
Y029981D01*
M02*
